G04 CAM350 V10.5 (Build 464) Date:  Mon Feb 15 08:33:08 2021 *
G04 Database: (Untitled) *
G04 Layer 6: ad57_adapter-F_Mask.gbr *
%FSLAX23Y23*%
%MOIN*%
%SFA1.000B1.000*%

%MIA0B0*%
%IPPOS*%
%ADD10R,0.08268X0.08268*%
%ADD11C,0.08268*%
%ADD12C,0.18902*%
%ADD13C,0.06449*%
%ADD14C,0.09449*%
%ADD15C,0.05512*%
%ADD21R,0.03937X0.05906*%
%LNad57_adapter-F_Mask.gbr*%
%LPD*%
G54D10*
X5138Y-3071D03*
G54D11*
Y-3171D03*
G54D10*
X7028Y-2776D03*
G54D11*
Y-2876D03*
Y-2976D03*
Y-3076D03*
Y-3176D03*
Y-3276D03*
Y-3965D03*
Y-3865D03*
Y-3765D03*
Y-3665D03*
Y-3565D03*
G54D10*
Y-3465D03*
G54D12*
X6568Y-4015D03*
X5584D03*
G54D13*
X6266Y-4093D03*
X6176D03*
X6086D03*
X5996D03*
X5906D03*
X6221Y-4015D03*
X6131D03*
X6041D03*
X5951D03*
X5861D03*
X6266Y-3937D03*
X6176D03*
X6086D03*
X5996D03*
X5906D03*
Y-2717D03*
X5996D03*
X6086D03*
X6176D03*
X6266D03*
X5861Y-2795D03*
X5951D03*
X6041D03*
X6131D03*
X6221D03*
X5906Y-2873D03*
X5996D03*
X6086D03*
X6176D03*
X6266D03*
G54D12*
X5584Y-2795D03*
X6568D03*
G54D14*
X4987Y-4516D03*
X5607D03*
G54D15*
X5122Y-4746D03*
X5172Y-4646D03*
X5222Y-4746D03*
X5272Y-4646D03*
X5322Y-4746D03*
X5372Y-4646D03*
X5422Y-4746D03*
X5472Y-4646D03*
G54D10*
X5138Y-3465D03*
G54D11*
Y-3565D03*
Y-3665D03*
Y-3765D03*
Y-3865D03*
Y-3965D03*
G54D14*
X5997Y-3437D03*
X5377D03*
G54D15*
X5862Y-3207D03*
X5812Y-3307D03*
X5762Y-3207D03*
X5712Y-3307D03*
X5662Y-3207D03*
X5612Y-3307D03*
X5562Y-3207D03*
X5512Y-3307D03*
X7028Y-4646D03*
X6978Y-4746D03*
X6928Y-4646D03*
X6878Y-4746D03*
X6828Y-4646D03*
X6778Y-4746D03*
X6728Y-4646D03*
X6678Y-4746D03*
G54D14*
X7163Y-4516D03*
X6543D03*
G54D15*
X6319Y-3307D03*
X6369Y-3207D03*
X6419Y-3307D03*
X6469Y-3207D03*
X6519Y-3307D03*
X6569Y-3207D03*
X6619Y-3307D03*
X6669Y-3207D03*
G54D14*
X6184Y-3437D03*
X6804D03*
G54D21*
X5719Y-2982D03*
X5667D03*
M02*
