G04 CAM350 V10.5 (Build 464) Date:  Mon Feb 15 08:33:08 2021 *
G04 Database: (Untitled) *
G04 Layer 5: ad57_adapter-F_Cu.gbr *
%FSLAX23Y23*%
%MOIN*%
%SFA1.000B1.000*%

%MIA0B0*%
%IPPOS*%
%ADD10R,0.08268X0.08268*%
%ADD11C,0.08268*%
%ADD12C,0.18902*%
%ADD13C,0.06449*%
%ADD14C,0.09449*%
%ADD15C,0.05512*%
%ADD16C,0.03150*%
%ADD17C,0.01181*%
%ADD19C,0.00787*%
%ADD21R,0.03937X0.05906*%
%LNad57_adapter-F_Cu.gbr*%
%LPD*%
G54D10*
X5138Y-3071D03*
G54D11*
Y-3171D03*
G54D10*
X7028Y-2776D03*
G54D11*
Y-2876D03*
Y-2976D03*
Y-3076D03*
Y-3176D03*
Y-3276D03*
Y-3965D03*
Y-3865D03*
Y-3765D03*
Y-3665D03*
Y-3565D03*
G54D10*
Y-3465D03*
G54D12*
X6568Y-4015D03*
X5584D03*
G54D13*
X6266Y-4093D03*
X6176D03*
X6086D03*
X5996D03*
X5906D03*
X6221Y-4015D03*
X6131D03*
X6041D03*
X5951D03*
X5861D03*
X6266Y-3937D03*
X6176D03*
X6086D03*
X5996D03*
X5906D03*
Y-2717D03*
X5996D03*
X6086D03*
X6176D03*
X6266D03*
X5861Y-2795D03*
X5951D03*
X6041D03*
X6131D03*
X6221D03*
X5906Y-2873D03*
X5996D03*
X6086D03*
X6176D03*
X6266D03*
G54D12*
X5584Y-2795D03*
X6568D03*
G54D14*
X4987Y-4516D03*
X5607D03*
G54D15*
X5122Y-4746D03*
X5172Y-4646D03*
X5222Y-4746D03*
X5272Y-4646D03*
X5322Y-4746D03*
X5372Y-4646D03*
X5422Y-4746D03*
X5472Y-4646D03*
G54D10*
X5138Y-3465D03*
G54D11*
Y-3565D03*
Y-3665D03*
Y-3765D03*
Y-3865D03*
Y-3965D03*
G54D14*
X5997Y-3437D03*
X5377D03*
G54D15*
X5862Y-3207D03*
X5812Y-3307D03*
X5762Y-3207D03*
X5712Y-3307D03*
X5662Y-3207D03*
X5612Y-3307D03*
X5562Y-3207D03*
X5512Y-3307D03*
X7028Y-4646D03*
X6978Y-4746D03*
X6928Y-4646D03*
X6878Y-4746D03*
X6828Y-4646D03*
X6778Y-4746D03*
X6728Y-4646D03*
X6678Y-4746D03*
G54D14*
X7163Y-4516D03*
X6543D03*
G54D15*
X6319Y-3307D03*
X6369Y-3207D03*
X6419Y-3307D03*
X6469Y-3207D03*
X6519Y-3307D03*
X6569Y-3207D03*
X6619Y-3307D03*
X6669Y-3207D03*
G54D14*
X6184Y-3437D03*
X6804D03*
G54D21*
X5719Y-2982D03*
X5667D03*
G54D16*
X6949Y-3514D03*
Y-3002D03*
X6841Y-3031D03*
X6378Y-4498D03*
X6585Y-4695D03*
X5728Y-2697D03*
X5620Y-2638D03*
X5669Y-3071D03*
X6339Y-2795D03*
G54D17*
X6086Y-2873D02*
G01Y-2912D01*
X7028Y-3076D02*
G01X6964D01*
Y-3076D02*
G01X6919Y-3120D01*
X6294D02*
G01X6242Y-3069D01*
X6919Y-3120D02*
G01X6294D01*
X6242Y-3069D02*
G01X6249Y-3076D01*
X6086Y-2912D02*
G01X6242Y-3069D01*
X6221Y-4015D02*
G01X6349D01*
Y-4015D02*
G01X6506Y-3858D01*
X7021D02*
G01X7028Y-3865D01*
X6506Y-3858D02*
G01X7021D01*
G54D19*
X6131Y-3955D02*
G01X6130Y-3954D01*
X6131Y-4015D02*
G01Y-3955D01*
G54D17*
X6130Y-3861D02*
G01Y-3910D01*
X6226Y-3765D02*
G01X6130Y-3861D01*
X7028Y-3765D02*
G01X6226D01*
G54D19*
X6130Y-3910D02*
G01Y-3870D01*
Y-3954D02*
G01Y-3910D01*
G54D17*
X6221Y-2795D02*
G01X6256D01*
X6949Y-3586D02*
G01X7028Y-3665D01*
X6949Y-3514D02*
G01Y-3586D01*
X6256Y-2795D02*
G01X6289D01*
Y-2795D02*
G01X6417Y-2923D01*
Y-2923D02*
G01X6900D01*
X6949Y-2972D02*
G01Y-3002D01*
X6900Y-2923D02*
G01X6949Y-2972D01*
X6247Y-3031D02*
G01X6131Y-2915D01*
X6841Y-3031D02*
G01X6247D01*
G54D19*
X6131Y-2795D02*
G01Y-2915D01*
G54D17*
X5144Y-3865D02*
G01X5138D01*
X5463Y-4183D02*
G01X5144Y-3865D01*
X6211Y-4183D02*
G01X5463D01*
X6266Y-4128D02*
G01X6211Y-4183D01*
X6266Y-4093D02*
G01Y-4128D01*
X6575Y-4695D02*
G01X6585D01*
X6378Y-4498D02*
G01X6575Y-4695D01*
X5965Y-2657D02*
G01X5996Y-2688D01*
X5768Y-2657D02*
G01X5965D01*
X5996Y-2688D02*
G01Y-2717D01*
X5728Y-2697D02*
G01X5768Y-2657D01*
X6007Y-2638D02*
G01X5719D01*
X6086Y-2717D02*
G01X6007Y-2638D01*
X5620D02*
G01Y-2638D01*
X5719D02*
G01X5620D01*
X5051Y-3565D02*
G01X5138D01*
X6176Y-2652D02*
G01X6132Y-2608D01*
X4990Y-3504D02*
G01X5051Y-3565D01*
X6176Y-2717D02*
G01Y-2652D01*
X4990Y-2982D02*
G01X5364Y-2608D01*
X4990Y-3504D02*
G01Y-2982D01*
X6132Y-2608D02*
G01X5364D01*
G54D19*
X5669Y-3200D02*
G01X5662Y-3207D01*
X5669Y-3071D02*
G01Y-3200D01*
G54D17*
X5667Y-3069D02*
G01X5669Y-3071D01*
X5667Y-2982D02*
G01Y-3069D01*
X5719Y-2982D02*
G01X5935D01*
X5996Y-2922D02*
G01Y-2873D01*
X5935Y-2982D02*
G01X5996Y-2922D01*
X5074Y-3765D02*
G01X5138D01*
X4951Y-3642D02*
G01X5074Y-3765D01*
X4951Y-2904D02*
G01Y-3642D01*
X5285Y-2569D02*
G01X4951Y-2904D01*
X6201Y-2569D02*
G01X5285D01*
X6339Y-2707D02*
G01X6201Y-2569D01*
X6339Y-2795D02*
G01Y-2707D01*
M02*
