G04 CAM350 V10.5 (Build 464) Date:  Mon Feb 15 08:33:08 2021 *
G04 Database: (Untitled) *
G04 Layer 9: ad57_adapter-In2_Cu.gbr *
%FSLAX23Y23*%
%MOIN*%
%SFA1.000B1.000*%

%MIA0B0*%
%IPPOS*%
%ADD10R,0.08268X0.08268*%
%ADD11C,0.08268*%
%ADD12C,0.18902*%
%ADD13C,0.06449*%
%ADD14C,0.09449*%
%ADD15C,0.05512*%
%ADD16C,0.03150*%
%ADD23C,0.01000*%
%LNad57_adapter-In2_Cu.gbr*%
%LPD*%
G36*
X7165Y-4817D02*
G01X5001D01*
X4986Y-4815*
X4972Y-4811*
X4960Y-4804*
X4949Y-4795*
X4940Y-4785*
X4939Y-4782*
X4933Y-4772*
X4929Y-4759*
X4928Y-4749*
Y-4743*
Y-4709*
Y-4682*
Y-4649*
Y-4609*
Y-4556*
X4931Y-4562*
X4941Y-4572*
X4953Y-4580*
X4966Y-4585*
X4980Y-4588*
X4995*
X5008Y-4585*
X5022Y-4580*
X5033Y-4572*
X5044Y-4562*
X5051Y-4550*
X5057Y-4537*
X5060Y-4523*
Y-4509*
X5057Y-4495*
X5051Y-4482*
Y-4480*
X5064Y-4483*
X5081*
X5098Y-4480*
X5114Y-4473*
X5128Y-4464*
X5140Y-4451*
X5150Y-4437*
X5156Y-4421*
X5160Y-4404*
Y-4387*
X5156Y-4370*
X5150Y-4354*
X5140Y-4340*
X5128Y-4328*
X5114Y-4318*
X5098Y-4312*
X5081Y-4308*
X5064*
X5047Y-4312*
X5031Y-4318*
X5017Y-4328*
X5005Y-4340*
X4995Y-4354*
X4988Y-4370*
X4985Y-4387*
Y-4404*
X4988Y-4421*
X4995Y-4437*
X5000Y-4445*
X4995Y-4444*
X4980*
X4966Y-4446*
X4953Y-4452*
X4941Y-4460*
X4931Y-4470*
X4928Y-4475*
Y-3506*
Y-3423*
Y-3302*
Y-3112*
Y-3067*
Y-3030*
Y-2783*
Y-2634*
Y-2580*
X4929Y-2565*
X4933Y-2551*
X4940Y-2539*
X4949Y-2528*
X4960Y-2519*
X4972Y-2512*
X4985Y-2508*
X5001Y-2506*
X7164*
X7179Y-2508*
X7193Y-2512*
X7205Y-2519*
X7216Y-2527*
X7225Y-2538*
X7232Y-2551*
X7236Y-2564*
X7238Y-2579*
Y-4743*
X7236Y-4758*
X7232Y-4772*
X7226Y-4784*
X7217Y-4795*
X7206Y-4804*
X7193Y-4811*
X7180Y-4815*
X7165Y-4817*
G37*
%LPC*%
G36*
X6691Y-4797D02*
G01X6700Y-4793D01*
X6704Y-4791*
X6707Y-4782*
X6678Y-4753*
X6648Y-4782*
X6651Y-4791*
X6660Y-4796*
X6670Y-4798*
X6680*
X6691Y-4797*
G37*
G36*
X5438Y-4796D02*
G01X5447Y-4792D01*
X5456Y-4786*
X5461Y-4782*
X5463Y-4779*
X5469Y-4771*
X5473Y-4761*
X5475Y-4751*
Y-4749*
Y-4740*
X5473Y-4730*
X5469Y-4721*
X5463Y-4712*
X5456Y-4705*
X5447Y-4699*
X5438Y-4695*
X5428Y-4693*
X5417*
X5407Y-4695*
X5398Y-4699*
X5389Y-4705*
X5382Y-4712*
X5376Y-4721*
X5372Y-4729*
X5369Y-4721*
X5363Y-4712*
X5356Y-4705*
X5347Y-4699*
X5338Y-4695*
X5328Y-4693*
X5317*
X5307Y-4695*
X5298Y-4699*
X5289Y-4705*
X5282Y-4712*
X5276Y-4721*
X5272Y-4729*
X5269Y-4721*
X5263Y-4712*
X5256Y-4705*
X5247Y-4699*
X5238Y-4695*
X5228Y-4693*
X5217*
X5207Y-4695*
X5198Y-4699*
X5189Y-4705*
X5182Y-4712*
X5176Y-4721*
X5172Y-4729*
X5170Y-4723*
X5168Y-4719*
X5159Y-4716*
X5130Y-4746*
X5159Y-4775*
X5168Y-4773*
X5172Y-4763*
Y-4762*
X5176Y-4771*
X5182Y-4779*
X5189Y-4786*
X5198Y-4792*
X5207Y-4796*
X5217Y-4798*
X5228*
X5238Y-4796*
X5247Y-4792*
X5256Y-4786*
X5263Y-4779*
X5269Y-4771*
X5272Y-4762*
X5276Y-4771*
X5282Y-4779*
X5289Y-4786*
X5298Y-4792*
X5307Y-4796*
X5317Y-4798*
X5328*
X5338Y-4796*
X5347Y-4792*
X5356Y-4786*
X5363Y-4779*
X5369Y-4771*
X5372Y-4762*
X5376Y-4771*
X5382Y-4779*
X5389Y-4786*
X5398Y-4792*
X5407Y-4796*
X5417Y-4798*
X5428*
X5438Y-4796*
G37*
G36*
X5136Y-4797D02*
G01X5145Y-4793D01*
X5149Y-4791*
X5152Y-4782*
X5122Y-4753*
X5093Y-4782*
X5096Y-4791*
X5105Y-4796*
X5115Y-4798*
X5125*
X5136Y-4797*
G37*
G36*
X6670Y-4746D02*
G01X6641Y-4716D01*
X6632Y-4719*
X6628Y-4728*
X6625Y-4738*
Y-4749*
X6626Y-4759*
X6630Y-4769*
X6632Y-4773*
X6641Y-4775*
X6670Y-4746*
G37*
G36*
X5115D02*
G01X5086Y-4716D01*
X5077Y-4719*
X5073Y-4728*
X5070Y-4738*
Y-4749*
X5071Y-4759*
X5075Y-4769*
X5077Y-4773*
X5086Y-4775*
X5115Y-4746*
G37*
G36*
X6707Y-4709D02*
G01X6704Y-4700D01*
X6695Y-4696*
X6685Y-4693*
X6675*
X6664Y-4695*
X6655Y-4698*
X6651Y-4700*
X6648Y-4709*
X6678Y-4739*
X6707Y-4709*
G37*
G36*
X6597Y-4734D02*
G01X6604Y-4731D01*
X6611Y-4727*
X6616Y-4721*
X6621Y-4714*
X6623Y-4709*
X6624Y-4707*
X6625Y-4699*
Y-4691*
X6624Y-4683*
X6623Y-4682*
X6621Y-4676*
X6616Y-4669*
X6611Y-4663*
X6604Y-4659*
X6597Y-4656*
X6589Y-4654*
X6581*
X6573Y-4656*
X6565Y-4659*
X6559Y-4663*
X6553Y-4669*
X6549Y-4676*
X6545Y-4683*
X6544Y-4691*
Y-4699*
X6545Y-4707*
X6549Y-4714*
X6553Y-4721*
X6559Y-4727*
X6565Y-4731*
X6573Y-4734*
X6581Y-4736*
X6589*
X6597Y-4734*
G37*
G36*
X5152Y-4709D02*
G01X5149Y-4700D01*
X5140Y-4696*
X5130Y-4693*
X5120*
X5109Y-4695*
X5100Y-4698*
X5096Y-4700*
X5093Y-4709*
X5122Y-4739*
X5152Y-4709*
G37*
G36*
X7043Y-4696D02*
G01X7052Y-4692D01*
X7061Y-4686*
X7068Y-4679*
X7074Y-4671*
X7078Y-4661*
X7080Y-4651*
Y-4640*
X7078Y-4630*
X7074Y-4621*
X7068Y-4612*
X7061Y-4605*
X7052Y-4599*
X7043Y-4595*
X7033Y-4593*
X7022*
X7012Y-4595*
X7003Y-4599*
X6994Y-4605*
X6987Y-4612*
X6981Y-4621*
X6978Y-4629*
X6974Y-4621*
X6968Y-4612*
X6961Y-4605*
X6952Y-4599*
X6943Y-4595*
X6933Y-4593*
X6922*
X6912Y-4595*
X6903Y-4599*
X6894Y-4605*
X6887Y-4612*
X6881Y-4621*
X6878Y-4629*
X6874Y-4621*
X6868Y-4612*
X6861Y-4605*
X6852Y-4599*
X6843Y-4595*
X6833Y-4593*
X6822*
X6812Y-4595*
X6803Y-4599*
X6794Y-4605*
X6787Y-4612*
X6781Y-4621*
X6777Y-4629*
X6775Y-4623*
X6773Y-4619*
X6764Y-4616*
X6735Y-4646*
X6764Y-4675*
X6773Y-4673*
X6777Y-4663*
X6778Y-4662*
X6781Y-4671*
X6787Y-4679*
X6794Y-4686*
X6803Y-4692*
X6812Y-4696*
X6822Y-4698*
X6833*
X6843Y-4696*
X6852Y-4692*
X6861Y-4686*
X6868Y-4679*
X6874Y-4671*
X6878Y-4662*
X6881Y-4671*
X6887Y-4679*
X6894Y-4686*
X6903Y-4692*
X6912Y-4696*
X6922Y-4698*
X6933*
X6943Y-4696*
X6952Y-4692*
X6961Y-4686*
X6968Y-4679*
X6974Y-4671*
X6978Y-4662*
X6981Y-4671*
X6987Y-4679*
X6994Y-4686*
X7003Y-4692*
X7012Y-4696*
X7022Y-4698*
X7033*
X7043Y-4696*
G37*
G36*
X6741Y-4697D02*
G01X6750Y-4693D01*
X6754Y-4691*
X6757Y-4682*
X6728Y-4653*
X6698Y-4682*
X6701Y-4691*
X6710Y-4696*
X6720Y-4698*
X6730*
X6741Y-4697*
G37*
G36*
X5488Y-4696D02*
G01X5497Y-4692D01*
X5499Y-4691*
X5506Y-4686*
X5513Y-4679*
X5519Y-4671*
X5523Y-4661*
X5525Y-4651*
Y-4649*
Y-4640*
X5523Y-4630*
X5519Y-4621*
X5513Y-4612*
X5511Y-4609*
X5506Y-4605*
X5497Y-4599*
X5488Y-4595*
X5478Y-4593*
X5467*
X5457Y-4595*
X5448Y-4599*
X5439Y-4605*
X5432Y-4612*
X5426Y-4621*
X5422Y-4629*
X5419Y-4621*
X5413Y-4612*
X5406Y-4605*
X5397Y-4599*
X5388Y-4595*
X5378Y-4593*
X5367*
X5357Y-4595*
X5348Y-4599*
X5339Y-4605*
X5332Y-4612*
X5326Y-4621*
X5322Y-4629*
X5319Y-4621*
X5313Y-4612*
X5306Y-4605*
X5297Y-4599*
X5288Y-4595*
X5278Y-4593*
X5267*
X5257Y-4595*
X5248Y-4599*
X5239Y-4605*
X5232Y-4612*
X5226Y-4621*
X5222Y-4629*
X5220Y-4623*
X5218Y-4619*
X5209Y-4616*
X5180Y-4646*
X5209Y-4675*
X5218Y-4673*
X5222Y-4663*
Y-4662*
X5226Y-4671*
X5232Y-4679*
X5239Y-4686*
X5248Y-4692*
X5257Y-4696*
X5267Y-4698*
X5278*
X5288Y-4696*
X5297Y-4692*
X5306Y-4686*
X5313Y-4679*
X5319Y-4671*
X5322Y-4662*
X5326Y-4671*
X5332Y-4679*
X5339Y-4686*
X5348Y-4692*
X5357Y-4696*
X5367Y-4698*
X5378*
X5388Y-4696*
X5397Y-4692*
X5406Y-4686*
X5413Y-4679*
X5419Y-4671*
X5422Y-4662*
X5426Y-4671*
X5432Y-4679*
X5439Y-4686*
X5448Y-4692*
X5457Y-4696*
X5467Y-4698*
X5478*
X5488Y-4696*
G37*
G36*
X5186Y-4697D02*
G01X5195Y-4693D01*
X5199Y-4691*
X5202Y-4682*
X5172Y-4653*
X5143Y-4682*
X5146Y-4691*
X5155Y-4696*
X5165Y-4698*
X5175*
X5186Y-4697*
G37*
G36*
X6720Y-4646D02*
G01X6691Y-4616D01*
X6682Y-4619*
X6678Y-4628*
X6675Y-4638*
Y-4649*
X6676Y-4659*
X6680Y-4669*
X6682Y-4673*
X6691Y-4675*
X6720Y-4646*
G37*
G36*
X5165D02*
G01X5136Y-4616D01*
X5127Y-4619*
X5123Y-4628*
X5120Y-4638*
Y-4649*
X5121Y-4659*
X5125Y-4669*
X5127Y-4673*
X5136Y-4675*
X5165Y-4646*
G37*
G36*
X6757Y-4609D02*
G01X6754Y-4600D01*
X6745Y-4596*
X6735Y-4593*
X6725*
X6714Y-4595*
X6705Y-4598*
X6701Y-4600*
X6698Y-4609*
X6728Y-4639*
X6757Y-4609*
G37*
G36*
X5202D02*
G01X5199Y-4600D01*
X5190Y-4596*
X5180Y-4593*
X5170*
X5159Y-4595*
X5150Y-4598*
X5146Y-4600*
X5143Y-4609*
X5172Y-4639*
X5202Y-4609*
G37*
G36*
X7184Y-4585D02*
G01X7197Y-4580D01*
X7209Y-4572*
X7219Y-4562*
X7227Y-4550*
X7232Y-4537*
X7235Y-4523*
Y-4509*
X7232Y-4495*
X7227Y-4482*
X7219Y-4470*
X7209Y-4460*
X7197Y-4452*
X7184Y-4446*
X7170Y-4444*
X7155*
X7150Y-4445*
X7155Y-4437*
X7162Y-4421*
X7165Y-4404*
Y-4387*
X7162Y-4370*
X7155Y-4354*
X7145Y-4340*
X7133Y-4328*
X7119Y-4318*
X7103Y-4312*
X7086Y-4308*
X7069*
X7052Y-4312*
X7036Y-4318*
X7022Y-4328*
X7010Y-4340*
X7000Y-4354*
X6994Y-4370*
X6990Y-4387*
Y-4404*
X6994Y-4421*
X7000Y-4437*
X7010Y-4451*
X7022Y-4464*
X7036Y-4473*
X7052Y-4480*
X7069Y-4483*
X7086*
X7099Y-4480*
Y-4482*
X7093Y-4495*
X7090Y-4509*
Y-4523*
X7093Y-4537*
X7099Y-4550*
X7106Y-4562*
X7117Y-4572*
X7128Y-4580*
X7142Y-4585*
X7155Y-4588*
X7170*
X7184Y-4585*
G37*
G36*
X6564D02*
G01X6577Y-4580D01*
X6589Y-4572*
X6599Y-4562*
X6607Y-4550*
X6612Y-4537*
X6615Y-4523*
Y-4509*
X6612Y-4495*
X6607Y-4482*
X6606Y-4480*
X6619Y-4483*
X6636*
X6653Y-4480*
X6669Y-4473*
X6683Y-4464*
X6695Y-4451*
X6705Y-4437*
X6712Y-4421*
X6715Y-4404*
Y-4387*
X6712Y-4370*
X6705Y-4354*
X6695Y-4340*
X6683Y-4328*
X6669Y-4318*
X6653Y-4312*
X6636Y-4308*
X6619*
X6602Y-4312*
X6586Y-4318*
X6572Y-4328*
X6560Y-4340*
X6550Y-4354*
X6544Y-4370*
X6540Y-4387*
Y-4404*
X6544Y-4421*
X6550Y-4437*
X6555Y-4445*
X6550Y-4444*
X6535*
X6521Y-4446*
X6508Y-4452*
X6496Y-4460*
X6486Y-4470*
X6478Y-4482*
X6473Y-4495*
X6470Y-4509*
Y-4523*
X6473Y-4537*
X6478Y-4550*
X6486Y-4562*
X6496Y-4572*
X6508Y-4580*
X6521Y-4585*
X6535Y-4588*
X6550*
X6564Y-4585*
G37*
G36*
X5629D02*
G01X5642Y-4580D01*
X5654Y-4572*
X5664Y-4562*
X5672Y-4550*
X5677Y-4537*
X5680Y-4523*
Y-4509*
X5677Y-4495*
Y-4494*
X5672Y-4482*
X5664Y-4470*
X5654Y-4460*
X5642Y-4452*
X5629Y-4446*
X5615Y-4444*
X5600*
X5595Y-4445*
X5600Y-4437*
X5606Y-4421*
X5610Y-4404*
Y-4387*
X5606Y-4370*
X5600Y-4354*
X5590Y-4340*
X5578Y-4328*
X5564Y-4318*
X5548Y-4312*
X5531Y-4308*
X5514*
X5497Y-4312*
X5481Y-4318*
X5467Y-4328*
X5455Y-4340*
X5445Y-4354*
X5438Y-4370*
X5435Y-4387*
Y-4404*
X5438Y-4421*
X5445Y-4437*
X5455Y-4451*
X5467Y-4464*
X5481Y-4473*
X5497Y-4480*
X5514Y-4483*
X5531*
X5544Y-4480*
X5543Y-4482*
X5538Y-4495*
X5535Y-4509*
Y-4523*
X5538Y-4537*
X5543Y-4550*
X5551Y-4562*
X5561Y-4572*
X5573Y-4580*
X5586Y-4585*
X5600Y-4588*
X5615*
X5629Y-4585*
G37*
G36*
X6390Y-4537D02*
G01X6397Y-4534D01*
X6404Y-4530*
X6410Y-4524*
X6414Y-4517*
X6417Y-4510*
Y-4509*
X6419Y-4502*
Y-4494*
X6417Y-4486*
X6414Y-4479*
X6410Y-4472*
X6404Y-4466*
X6397Y-4462*
X6390Y-4459*
X6382Y-4457*
X6374*
X6366Y-4459*
X6359Y-4462*
X6352Y-4466*
X6346Y-4472*
X6342Y-4479*
X6339Y-4486*
X6337Y-4494*
Y-4502*
X6339Y-4510*
X6342Y-4517*
X6346Y-4524*
X6352Y-4530*
X6359Y-4534*
X6366Y-4537*
X6374Y-4539*
X6382*
X6390Y-4537*
G37*
G36*
X6282Y-4148D02*
G01X6293Y-4144D01*
X6302Y-4137*
X6310Y-4129*
X6316Y-4120*
X6321Y-4110*
X6323Y-4099*
Y-4087*
X6321Y-4076*
X6316Y-4066*
X6310Y-4057*
X6302Y-4049*
X6293Y-4042*
X6282Y-4038*
X6274Y-4036*
X6276Y-4032*
X6278Y-4021*
Y-4009*
X6277Y-4003*
X6276Y-3998*
X6274Y-3994*
X6282Y-3992*
X6293Y-3988*
X6302Y-3981*
X6310Y-3973*
X6316Y-3964*
X6321Y-3954*
X6323Y-3943*
Y-3931*
X6321Y-3920*
X6316Y-3910*
X6310Y-3901*
X6302Y-3893*
X6293Y-3886*
X6282Y-3882*
X6271Y-3880*
X6260*
X6249Y-3882*
X6238Y-3886*
X6229Y-3893*
X6221Y-3901*
X6220*
X6212Y-3893*
X6203Y-3886*
X6192Y-3882*
X6181Y-3880*
X6170*
X6159Y-3882*
X6148Y-3886*
X6139Y-3893*
X6131Y-3901*
X6130*
X6122Y-3893*
X6113Y-3886*
X6102Y-3882*
X6091Y-3880*
X6080*
X6069Y-3882*
X6058Y-3886*
X6049Y-3893*
X6041Y-3901*
X6040*
X6032Y-3893*
X6023Y-3886*
X6012Y-3882*
X6001Y-3880*
X5990*
X5979Y-3882*
X5968Y-3886*
X5959Y-3893*
X5951Y-3901*
X5948Y-3905*
X5945Y-3904*
X5913Y-3937*
Y-3938*
X5906Y-3945*
Y-3944*
X5905Y-3945*
X5898Y-3938*
Y-3937*
X5866Y-3904*
X5856Y-3907*
X5851Y-3918*
X5849Y-3928*
X5848Y-3940*
X5850Y-3951*
X5852Y-3958*
X5847Y-3959*
X5836Y-3963*
X5831Y-3966*
X5828Y-3975*
X5861Y-4008*
Y-4007*
X5868Y-4014*
Y-4015*
Y-4016*
X5861Y-4023*
Y-4022*
X5828Y-4055*
X5831Y-4064*
X5841Y-4069*
X5852Y-4072*
X5850Y-4076*
X5848Y-4087*
Y-4099*
X5850Y-4110*
X5855Y-4120*
X5861Y-4129*
X5869Y-4137*
X5878Y-4144*
X5889Y-4148*
X5900Y-4150*
X5911*
X5922Y-4148*
X5933Y-4144*
X5942Y-4137*
X5950Y-4129*
X5951*
X5959Y-4137*
X5968Y-4144*
X5979Y-4148*
X5990Y-4150*
X6001*
X6012Y-4148*
X6023Y-4144*
X6032Y-4137*
X6040Y-4129*
X6041*
X6049Y-4137*
X6058Y-4144*
X6069Y-4148*
X6080Y-4150*
X6091*
X6102Y-4148*
X6113Y-4144*
X6122Y-4137*
X6130Y-4129*
X6131*
X6139Y-4137*
X6148Y-4144*
X6159Y-4148*
X6170Y-4150*
X6181*
X6192Y-4148*
X6203Y-4144*
X6212Y-4137*
X6220Y-4129*
X6221*
X6229Y-4137*
X6238Y-4144*
X6249Y-4148*
X6260Y-4150*
X6271*
X6282Y-4148*
G37*
G36*
X6602Y-4130D02*
G01X6624Y-4121D01*
X6644Y-4108*
X6660Y-4091*
X6673Y-4072*
X6682Y-4050*
X6687Y-4027*
Y-4003*
X6682Y-3980*
X6673Y-3958*
X6660Y-3939*
X6644Y-3922*
X6624Y-3909*
X6602Y-3900*
X6579Y-3895*
X6556*
X6533Y-3900*
X6511Y-3909*
X6491Y-3922*
X6475Y-3939*
X6462Y-3958*
X6453Y-3980*
X6448Y-4003*
Y-4027*
X6453Y-4050*
X6462Y-4072*
X6475Y-4091*
X6491Y-4108*
X6511Y-4121*
X6533Y-4130*
X6556Y-4135*
X6579*
X6602Y-4130*
G37*
G36*
X5618D02*
G01X5640Y-4121D01*
X5660Y-4108*
X5676Y-4091*
X5689Y-4072*
X5698Y-4050*
X5703Y-4027*
Y-4018*
Y-4003*
X5698Y-3980*
X5696Y-3975*
X5689Y-3958*
X5676Y-3939*
X5660Y-3922*
X5640Y-3909*
X5618Y-3900*
X5605Y-3897*
X5595Y-3895*
X5572*
X5549Y-3900*
X5527Y-3909*
X5507Y-3922*
X5491Y-3939*
X5478Y-3958*
X5469Y-3980*
X5464Y-4003*
Y-4027*
X5469Y-4050*
X5478Y-4072*
X5491Y-4091*
X5507Y-4108*
X5527Y-4121*
X5549Y-4130*
X5572Y-4135*
X5595*
X5618Y-4130*
G37*
G36*
X5853Y-4015D02*
G01X5821Y-3982D01*
X5811Y-3985*
X5806Y-3996*
X5804Y-4006*
X5803Y-4018*
X5805Y-4029*
X5808Y-4040*
X5811Y-4045*
X5821Y-4048*
X5853Y-4015*
G37*
G36*
X7047Y-4028D02*
G01X7059Y-4023D01*
X7070Y-4016*
X7079Y-4007*
X7086Y-3996*
X7091Y-3984*
X7094Y-3971*
Y-3958*
X7091Y-3945*
X7086Y-3933*
X7079Y-3922*
X7071Y-3915*
X7079Y-3907*
X7086Y-3896*
X7091Y-3884*
X7094Y-3871*
Y-3858*
X7091Y-3845*
X7086Y-3833*
X7079Y-3822*
X7071Y-3815*
X7079Y-3807*
X7086Y-3796*
X7091Y-3784*
X7094Y-3771*
Y-3758*
X7091Y-3745*
X7086Y-3733*
X7079Y-3722*
X7071Y-3715*
X7079Y-3707*
X7086Y-3696*
X7091Y-3684*
X7094Y-3671*
Y-3658*
X7091Y-3645*
X7086Y-3633*
X7079Y-3622*
X7071Y-3615*
X7079Y-3607*
X7086Y-3596*
X7091Y-3584*
X7094Y-3571*
Y-3558*
X7091Y-3545*
X7086Y-3533*
X7082Y-3527*
X7083*
X7087Y-3524*
X7090Y-3520*
X7092Y-3516*
X7094Y-3511*
Y-3506*
Y-3476*
X7088Y-3470*
X7033*
X7023*
X6967*
X6962Y-3475*
X6961*
X6953Y-3473*
X6945*
X6937Y-3475*
X6930Y-3478*
X6923Y-3482*
X6917Y-3488*
X6913Y-3494*
X6910Y-3502*
X6908Y-3510*
Y-3518*
X6910Y-3526*
X6913Y-3533*
X6917Y-3540*
X6923Y-3545*
X6930Y-3550*
X6937Y-3553*
X6945Y-3555*
X6953*
X6961Y-3553*
X6962Y-3552*
X6961Y-3558*
Y-3571*
X6964Y-3584*
X6969Y-3596*
X6976Y-3607*
X6984Y-3615*
X6976Y-3622*
X6969Y-3633*
X6964Y-3645*
X6961Y-3658*
Y-3671*
X6964Y-3684*
X6969Y-3696*
X6976Y-3707*
X6984Y-3715*
X6976Y-3722*
X6969Y-3733*
X6964Y-3745*
X6961Y-3758*
Y-3771*
X6964Y-3784*
X6969Y-3796*
X6976Y-3807*
X6984Y-3815*
X6976Y-3822*
X6969Y-3833*
X6964Y-3845*
X6961Y-3858*
Y-3871*
X6964Y-3884*
X6969Y-3896*
X6976Y-3907*
X6984Y-3915*
X6976Y-3922*
X6969Y-3933*
X6964Y-3945*
X6961Y-3958*
Y-3971*
X6964Y-3984*
X6969Y-3996*
X6976Y-4007*
X6985Y-4016*
X6996Y-4023*
X7008Y-4028*
X7021Y-4031*
X7034*
X7047Y-4028*
G37*
G36*
X5157D02*
G01X5169Y-4023D01*
X5180Y-4016*
X5189Y-4007*
X5192Y-4003*
X5197Y-3996*
X5202Y-3984*
X5204Y-3971*
Y-3958*
X5202Y-3945*
X5197Y-3933*
X5189Y-3922*
X5182Y-3915*
X5189Y-3907*
X5197Y-3896*
X5202Y-3884*
X5204Y-3871*
Y-3858*
X5202Y-3845*
X5197Y-3833*
X5189Y-3822*
X5182Y-3815*
X5189Y-3807*
X5197Y-3796*
X5202Y-3784*
X5204Y-3771*
Y-3758*
X5202Y-3745*
X5197Y-3733*
X5189Y-3722*
X5182Y-3715*
X5189Y-3707*
X5197Y-3696*
X5202Y-3684*
X5204Y-3671*
Y-3658*
X5202Y-3645*
X5197Y-3633*
X5189Y-3622*
X5182Y-3615*
X5189Y-3607*
X5197Y-3596*
X5202Y-3584*
X5204Y-3571*
Y-3558*
X5202Y-3545*
X5197Y-3533*
X5193Y-3527*
X5197Y-3524*
X5200Y-3520*
X5202Y-3516*
X5204Y-3511*
Y-3506*
Y-3476*
X5198Y-3470*
X5143*
X5133*
X5078*
X5071Y-3476*
Y-3506*
X5072Y-3511*
X5073Y-3516*
X5076Y-3520*
X5079Y-3524*
X5083Y-3527*
X5079Y-3533*
X5074Y-3545*
X5071Y-3558*
Y-3571*
X5074Y-3584*
X5079Y-3596*
X5086Y-3607*
X5094Y-3615*
X5086Y-3622*
X5079Y-3633*
X5074Y-3645*
X5071Y-3658*
Y-3671*
X5074Y-3684*
X5079Y-3696*
X5086Y-3707*
X5094Y-3715*
X5086Y-3722*
X5079Y-3733*
X5074Y-3745*
X5071Y-3758*
Y-3771*
X5074Y-3784*
X5079Y-3796*
X5086Y-3807*
X5094Y-3815*
X5086Y-3822*
X5079Y-3833*
X5074Y-3845*
X5071Y-3858*
Y-3871*
X5074Y-3884*
X5079Y-3896*
X5086Y-3907*
X5094Y-3915*
X5086Y-3922*
X5079Y-3933*
X5074Y-3945*
X5071Y-3958*
Y-3971*
X5074Y-3984*
X5079Y-3996*
X5086Y-4007*
X5096Y-4016*
X5106Y-4023*
X5118Y-4028*
X5131Y-4031*
X5144*
X5157Y-4028*
G37*
G36*
X5938Y-3897D02*
G01X5935Y-3888D01*
X5925Y-3883*
X5914Y-3880*
X5903*
X5892Y-3881*
X5881Y-3885*
X5876Y-3888*
X5873Y-3897*
X5906Y-3930*
X5938Y-3897*
G37*
G36*
X6744Y-3641D02*
G01X6760Y-3635D01*
X6775Y-3625*
X6787Y-3613*
X6796Y-3598*
X6803Y-3583*
X6806Y-3566*
Y-3548*
X6803Y-3532*
X6796Y-3516*
X6792Y-3510*
X6791Y-3508*
X6797Y-3509*
X6811*
X6825Y-3506*
X6838Y-3501*
X6850Y-3493*
X6860Y-3483*
X6868Y-3471*
X6873Y-3458*
X6876Y-3444*
Y-3430*
X6875Y-3423*
X6873Y-3416*
X6868Y-3403*
X6860Y-3391*
X6850Y-3381*
X6838Y-3373*
X6825Y-3368*
X6811Y-3365*
X6797*
X6783Y-3368*
X6770Y-3373*
X6758Y-3381*
X6748Y-3391*
X6740Y-3403*
X6734Y-3416*
X6732Y-3430*
Y-3444*
X6734Y-3458*
X6740Y-3471*
X6741Y-3472*
X6728Y-3470*
X6710*
X6693Y-3473*
X6677Y-3480*
X6663Y-3489*
X6651Y-3501*
X6641Y-3516*
X6635Y-3532*
X6631Y-3548*
Y-3566*
X6635Y-3583*
X6641Y-3598*
X6651Y-3613*
X6663Y-3625*
X6677Y-3635*
X6693Y-3641*
X6710Y-3644*
X6728*
X6744Y-3641*
G37*
G36*
X6294D02*
G01X6310Y-3635D01*
X6325Y-3625*
X6337Y-3613*
X6346Y-3598*
X6353Y-3583*
X6356Y-3566*
Y-3548*
X6353Y-3532*
X6346Y-3516*
X6337Y-3501*
X6325Y-3489*
X6310Y-3480*
X6294Y-3473*
X6278Y-3470*
X6260*
X6247Y-3472*
X6248Y-3471*
X6253Y-3458*
X6256Y-3444*
Y-3430*
X6253Y-3416*
X6248Y-3403*
X6240Y-3391*
X6230Y-3381*
X6218Y-3373*
X6205Y-3368*
X6191Y-3365*
X6177*
X6163Y-3368*
X6150Y-3373*
X6138Y-3381*
X6128Y-3391*
X6120Y-3403*
X6114Y-3416*
X6112Y-3430*
Y-3444*
X6114Y-3458*
X6120Y-3471*
X6128Y-3483*
X6138Y-3493*
X6150Y-3501*
X6163Y-3506*
X6177Y-3509*
X6191*
X6196Y-3508*
X6191Y-3516*
X6185Y-3532*
X6181Y-3548*
Y-3566*
X6185Y-3583*
X6191Y-3598*
X6201Y-3613*
X6213Y-3625*
X6227Y-3635*
X6243Y-3641*
X6260Y-3644*
X6278*
X6294Y-3641*
G37*
G36*
X5937D02*
G01X5953Y-3635D01*
X5968Y-3625*
X5980Y-3613*
X5989Y-3598*
X5996Y-3583*
X5999Y-3566*
Y-3548*
X5996Y-3532*
X5989Y-3516*
X5984Y-3508*
X5990Y-3509*
X6004*
X6018Y-3506*
X6031Y-3501*
X6043Y-3493*
X6053Y-3483*
X6061Y-3471*
X6066Y-3458*
X6069Y-3444*
Y-3430*
X6066Y-3416*
X6061Y-3403*
X6053Y-3391*
X6043Y-3381*
X6031Y-3373*
X6018Y-3368*
X6004Y-3365*
X5990*
X5976Y-3368*
X5963Y-3373*
X5951Y-3381*
X5941Y-3391*
X5933Y-3403*
X5927Y-3416*
X5925Y-3430*
Y-3444*
X5927Y-3458*
X5933Y-3471*
X5934Y-3472*
X5920Y-3470*
X5903*
X5886Y-3473*
X5870Y-3480*
X5856Y-3489*
X5844Y-3501*
X5834Y-3516*
X5828Y-3532*
X5824Y-3548*
Y-3566*
X5828Y-3583*
X5834Y-3598*
X5844Y-3613*
X5856Y-3625*
X5870Y-3635*
X5886Y-3641*
X5903Y-3644*
X5920*
X5937Y-3641*
G37*
G36*
X5487D02*
G01X5503Y-3635D01*
X5518Y-3625*
X5530Y-3613*
X5539Y-3598*
X5546Y-3583*
X5549Y-3566*
Y-3548*
X5546Y-3532*
X5539Y-3516*
X5530Y-3501*
X5518Y-3489*
X5503Y-3480*
X5487Y-3473*
X5470Y-3470*
X5453*
X5440Y-3472*
X5441Y-3471*
X5446Y-3458*
X5449Y-3444*
Y-3430*
X5446Y-3416*
X5441Y-3403*
X5433Y-3391*
X5423Y-3381*
X5411Y-3373*
X5398Y-3368*
X5384Y-3365*
X5370*
X5356Y-3368*
X5343Y-3373*
X5331Y-3381*
X5321Y-3391*
X5313Y-3403*
X5307Y-3416*
X5305Y-3430*
Y-3444*
X5307Y-3458*
X5313Y-3471*
X5321Y-3483*
X5331Y-3493*
X5343Y-3501*
X5356Y-3506*
X5370Y-3509*
X5384*
X5389Y-3508*
X5384Y-3516*
X5378Y-3532*
X5374Y-3548*
Y-3566*
X5378Y-3583*
X5384Y-3598*
X5394Y-3613*
X5406Y-3625*
X5420Y-3635*
X5436Y-3641*
X5453Y-3644*
X5470*
X5487Y-3641*
G37*
G36*
X7088Y-3460D02*
G01X7094Y-3453D01*
Y-3423*
Y-3418*
X7092Y-3414*
X7090Y-3409*
X7087Y-3405*
X7083Y-3402*
X7079Y-3400*
X7074Y-3399*
X7069Y-3398*
X7039*
X7033Y-3404*
Y-3460*
X7088*
G37*
G36*
X7023D02*
G01Y-3404D01*
X7016Y-3398*
X6986*
X6981Y-3399*
X6977Y-3400*
X6972Y-3402*
X6968Y-3405*
X6965Y-3409*
X6963Y-3414*
X6962Y-3418*
X6961Y-3423*
Y-3453*
X6967Y-3460*
X7023*
G37*
G36*
X5198D02*
G01X5204Y-3453D01*
Y-3430*
Y-3423*
Y-3418*
X5202Y-3414*
X5200Y-3409*
X5197Y-3405*
X5193Y-3402*
X5189Y-3400*
X5184Y-3399*
X5179Y-3398*
X5149*
X5143Y-3404*
Y-3460*
X5198*
G37*
G36*
X5133D02*
G01Y-3404D01*
X5127Y-3398*
X5096*
X5092Y-3399*
X5087Y-3400*
X5083Y-3402*
X5079Y-3405*
X5076Y-3409*
X5073Y-3414*
X5072Y-3418*
X5071Y-3423*
Y-3453*
X5078Y-3460*
X5133*
G37*
G36*
X6632Y-3358D02*
G01X6642Y-3355D01*
X6646Y-3353*
X6648Y-3343*
X6619Y-3314*
X6590Y-3343*
X6592Y-3353*
X6601Y-3357*
X6611Y-3359*
X6622Y-3360*
X6632Y-3358*
G37*
G36*
X6534D02*
G01X6544Y-3354D01*
X6552Y-3348*
X6557Y-3343*
X6560Y-3341*
X6565Y-3332*
X6569Y-3324*
X6571Y-3330*
X6573Y-3334*
X6583Y-3336*
X6612Y-3307*
X6583Y-3278*
X6573Y-3280*
X6569Y-3290*
X6565Y-3282*
X6560Y-3274*
X6557Y-3271*
X6552Y-3266*
X6544Y-3261*
X6534Y-3257*
X6524Y-3255*
X6514*
X6504Y-3257*
X6494Y-3261*
X6485Y-3266*
X6478Y-3274*
X6472Y-3282*
X6469Y-3290*
X6465Y-3282*
X6460Y-3274*
X6452Y-3266*
X6444Y-3261*
X6434Y-3257*
X6424Y-3255*
X6414*
X6404Y-3257*
X6394Y-3261*
X6385Y-3266*
X6378Y-3274*
X6372Y-3282*
X6369Y-3290*
X6365Y-3282*
X6360Y-3274*
X6352Y-3266*
X6344Y-3261*
X6334Y-3257*
X6324Y-3255*
X6314*
X6304Y-3257*
X6294Y-3261*
X6285Y-3266*
X6278Y-3274*
X6272Y-3282*
X6268Y-3292*
X6266Y-3302*
Y-3312*
X6268Y-3322*
X6272Y-3332*
X6278Y-3341*
X6285Y-3348*
X6294Y-3354*
X6304Y-3358*
X6314Y-3360*
X6324*
X6334Y-3358*
X6344Y-3354*
X6352Y-3348*
X6360Y-3341*
X6365Y-3332*
X6369Y-3324*
X6372Y-3332*
X6378Y-3341*
X6385Y-3348*
X6394Y-3354*
X6404Y-3358*
X6414Y-3360*
X6424*
X6434Y-3358*
X6444Y-3354*
X6452Y-3348*
X6460Y-3341*
X6465Y-3332*
X6469Y-3324*
X6472Y-3332*
X6478Y-3341*
X6485Y-3348*
X6494Y-3354*
X6504Y-3358*
X6514Y-3360*
X6524*
X6534Y-3358*
G37*
G36*
X5825D02*
G01X5835Y-3355D01*
X5839Y-3353*
X5841Y-3343*
X5812Y-3314*
X5783Y-3343*
X5785Y-3353*
X5794Y-3357*
X5804Y-3359*
X5815Y-3360*
X5825Y-3358*
G37*
G36*
X5727D02*
G01X5737Y-3354D01*
X5745Y-3348*
X5750Y-3343*
X5753Y-3341*
X5758Y-3332*
X5762Y-3324*
X5764Y-3330*
X5766Y-3334*
X5776Y-3336*
X5805Y-3307*
X5776Y-3278*
X5766Y-3280*
X5762Y-3290*
X5758Y-3282*
X5753Y-3274*
X5750Y-3271*
X5745Y-3266*
X5737Y-3261*
X5727Y-3257*
X5717Y-3255*
X5707*
X5696Y-3257*
X5687Y-3261*
X5678Y-3266*
X5671Y-3274*
X5665Y-3282*
X5662Y-3290*
X5658Y-3282*
X5653Y-3274*
X5645Y-3266*
X5637Y-3261*
X5627Y-3257*
X5617Y-3255*
X5607*
X5596Y-3257*
X5587Y-3261*
X5578Y-3266*
X5571Y-3274*
X5565Y-3282*
X5562Y-3290*
X5558Y-3282*
X5553Y-3274*
X5545Y-3266*
X5537Y-3261*
X5527Y-3257*
X5517Y-3255*
X5507*
X5496Y-3257*
X5487Y-3261*
X5478Y-3266*
X5471Y-3274*
X5465Y-3282*
X5461Y-3292*
X5459Y-3302*
Y-3312*
X5461Y-3322*
X5465Y-3332*
X5471Y-3341*
X5478Y-3348*
X5487Y-3354*
X5496Y-3358*
X5507Y-3360*
X5517*
X5527Y-3358*
X5537Y-3354*
X5545Y-3348*
X5553Y-3341*
X5558Y-3332*
X5562Y-3324*
X5565Y-3332*
X5571Y-3341*
X5578Y-3348*
X5587Y-3354*
X5596Y-3358*
X5607Y-3360*
X5617*
X5627Y-3358*
X5637Y-3354*
X5645Y-3348*
X5653Y-3341*
X5658Y-3332*
X5662Y-3324*
X5665Y-3332*
X5671Y-3341*
X5678Y-3348*
X5687Y-3354*
X5696Y-3358*
X5707Y-3360*
X5717*
X5727Y-3358*
G37*
G36*
X7047Y-3339D02*
G01X7059Y-3334D01*
X7070Y-3327*
X7079Y-3318*
X7086Y-3307*
X7091Y-3295*
X7094Y-3282*
Y-3269*
X7091Y-3256*
X7086Y-3244*
X7079Y-3233*
X7071Y-3226*
X7079Y-3218*
X7086Y-3207*
X7091Y-3195*
X7094Y-3182*
Y-3169*
X7091Y-3156*
X7086Y-3144*
X7079Y-3133*
X7071Y-3126*
X7079Y-3118*
X7086Y-3107*
X7091Y-3095*
X7094Y-3082*
Y-3069*
X7091Y-3056*
X7086Y-3044*
X7079Y-3033*
X7071Y-3026*
X7079Y-3018*
X7086Y-3007*
X7091Y-2995*
X7094Y-2982*
Y-2969*
X7091Y-2956*
X7086Y-2944*
X7079Y-2933*
X7071Y-2926*
X7079Y-2918*
X7086Y-2907*
X7091Y-2895*
X7094Y-2882*
Y-2869*
X7091Y-2856*
X7086Y-2844*
X7082Y-2838*
X7083*
X7087Y-2835*
X7090Y-2831*
X7092Y-2827*
X7094Y-2822*
Y-2817*
Y-2787*
X7088Y-2781*
X7033*
X7023*
X6967*
X6961Y-2787*
Y-2817*
X6962Y-2822*
X6963Y-2827*
X6965Y-2831*
X6968Y-2835*
X6972Y-2838*
X6973*
X6969Y-2844*
X6964Y-2856*
X6961Y-2869*
Y-2882*
X6964Y-2895*
X6969Y-2907*
X6976Y-2918*
X6984Y-2926*
X6976Y-2933*
X6969Y-2944*
X6964Y-2956*
X6962Y-2963*
X6961*
X6953Y-2961*
X6945*
X6937Y-2963*
X6930Y-2966*
X6923Y-2970*
X6917Y-2976*
X6913Y-2983*
X6910Y-2990*
X6908Y-2998*
Y-3006*
X6910Y-3014*
X6913Y-3021*
X6917Y-3028*
X6923Y-3034*
X6930Y-3038*
X6937Y-3041*
X6945Y-3043*
X6953*
X6961Y-3041*
X6968Y-3038*
X6975Y-3034*
X6980Y-3028*
X6983Y-3025*
X6984Y-3026*
X6976Y-3033*
X6969Y-3044*
X6964Y-3056*
X6961Y-3069*
Y-3082*
X6964Y-3095*
X6969Y-3107*
X6976Y-3118*
X6984Y-3126*
X6976Y-3133*
X6969Y-3144*
X6964Y-3156*
X6961Y-3169*
Y-3182*
X6964Y-3195*
X6969Y-3207*
X6976Y-3218*
X6984Y-3226*
X6976Y-3233*
X6969Y-3244*
X6964Y-3256*
X6961Y-3269*
Y-3282*
X6964Y-3295*
X6969Y-3307*
X6976Y-3318*
X6985Y-3327*
X6996Y-3334*
X7008Y-3339*
X7021Y-3342*
X7034*
X7047Y-3339*
G37*
G36*
X6664Y-3334D02*
G01X6669Y-3325D01*
X6671Y-3314*
X6672Y-3304*
X6670Y-3294*
X6666Y-3284*
X6664Y-3280*
X6655Y-3278*
X6626Y-3307*
X6655Y-3336*
X6664Y-3334*
G37*
G36*
X5857D02*
G01X5862Y-3325D01*
X5864Y-3314*
X5865Y-3304*
X5864Y-3302*
X5863Y-3294*
X5859Y-3284*
X5857Y-3280*
X5848Y-3278*
X5819Y-3307*
X5848Y-3336*
X5857Y-3334*
G37*
G36*
X6648Y-3271D02*
G01X6646Y-3262D01*
X6636Y-3257*
X6626Y-3255*
X6616Y-3254*
X6606Y-3256*
X6596Y-3259*
X6592Y-3262*
X6590Y-3271*
X6619Y-3300*
X6648Y-3271*
G37*
G36*
X5841D02*
G01X5839Y-3262D01*
X5829Y-3257*
X5819Y-3255*
X5809Y-3254*
X5799Y-3256*
X5789Y-3259*
X5785Y-3262*
X5783Y-3271*
X5812Y-3300*
X5841Y-3271*
G37*
G36*
X6682Y-3258D02*
G01X6692Y-3255D01*
X6696Y-3253*
X6698Y-3243*
X6669Y-3214*
X6640Y-3243*
X6642Y-3253*
X6651Y-3257*
X6661Y-3259*
X6672Y-3260*
X6682Y-3258*
G37*
G36*
X6584D02*
G01X6594Y-3254D01*
X6602Y-3248*
X6607Y-3243*
X6610Y-3241*
X6615Y-3232*
X6619Y-3224*
X6621Y-3230*
X6623Y-3234*
X6633Y-3236*
X6662Y-3207*
X6633Y-3178*
X6623Y-3180*
X6619Y-3190*
X6615Y-3182*
X6610Y-3174*
X6607Y-3171*
X6602Y-3166*
X6594Y-3161*
X6584Y-3157*
X6574Y-3155*
X6564*
X6554Y-3157*
X6544Y-3161*
X6535Y-3166*
X6528Y-3174*
X6522Y-3182*
X6519Y-3190*
X6515Y-3182*
X6510Y-3174*
X6502Y-3166*
X6494Y-3161*
X6484Y-3157*
X6474Y-3155*
X6464*
X6454Y-3157*
X6444Y-3161*
X6435Y-3166*
X6428Y-3174*
X6422Y-3182*
X6419Y-3190*
X6415Y-3182*
X6410Y-3174*
X6402Y-3166*
X6394Y-3161*
X6384Y-3157*
X6374Y-3155*
X6364*
X6354Y-3157*
X6344Y-3161*
X6335Y-3166*
X6328Y-3174*
X6322Y-3182*
X6318Y-3192*
X6316Y-3202*
Y-3212*
X6318Y-3222*
X6322Y-3232*
X6328Y-3241*
X6335Y-3248*
X6344Y-3254*
X6354Y-3258*
X6364Y-3260*
X6374*
X6384Y-3258*
X6394Y-3254*
X6402Y-3248*
X6410Y-3241*
X6415Y-3232*
X6419Y-3224*
X6422Y-3232*
X6428Y-3241*
X6435Y-3248*
X6444Y-3254*
X6454Y-3258*
X6464Y-3260*
X6474*
X6484Y-3258*
X6494Y-3254*
X6502Y-3248*
X6510Y-3241*
X6515Y-3232*
X6519Y-3224*
X6522Y-3232*
X6528Y-3241*
X6535Y-3248*
X6544Y-3254*
X6554Y-3258*
X6564Y-3260*
X6574*
X6584Y-3258*
G37*
G36*
X5875D02*
G01X5885Y-3255D01*
X5889Y-3253*
X5891Y-3243*
X5862Y-3214*
X5833Y-3243*
X5835Y-3253*
X5844Y-3257*
X5854Y-3259*
X5865Y-3260*
X5875Y-3258*
G37*
G36*
X5777D02*
G01X5787Y-3254D01*
X5795Y-3248*
X5800Y-3243*
X5803Y-3241*
X5808Y-3232*
X5812Y-3224*
X5814Y-3230*
X5816Y-3234*
X5826Y-3236*
X5855Y-3207*
X5826Y-3178*
X5816Y-3180*
X5812Y-3190*
X5808Y-3182*
X5803Y-3174*
X5800Y-3171*
X5795Y-3166*
X5787Y-3161*
X5777Y-3157*
X5767Y-3155*
X5757*
X5746Y-3157*
X5737Y-3161*
X5728Y-3166*
X5721Y-3174*
X5715Y-3182*
X5712Y-3190*
X5708Y-3182*
X5703Y-3174*
X5695Y-3166*
X5687Y-3161*
X5677Y-3157*
X5667Y-3155*
X5657*
X5646Y-3157*
X5637Y-3161*
X5628Y-3166*
X5621Y-3174*
X5615Y-3182*
X5612Y-3190*
X5608Y-3182*
X5603Y-3174*
X5595Y-3166*
X5587Y-3161*
X5577Y-3157*
X5567Y-3155*
X5557*
X5546Y-3157*
X5537Y-3161*
X5528Y-3166*
X5521Y-3174*
X5515Y-3182*
X5511Y-3192*
X5509Y-3202*
Y-3212*
X5511Y-3222*
X5515Y-3232*
X5521Y-3241*
X5528Y-3248*
X5537Y-3254*
X5546Y-3258*
X5557Y-3260*
X5567*
X5577Y-3258*
X5587Y-3254*
X5595Y-3248*
X5603Y-3241*
X5608Y-3232*
X5612Y-3224*
X5615Y-3232*
X5621Y-3241*
X5628Y-3248*
X5637Y-3254*
X5646Y-3258*
X5657Y-3260*
X5667*
X5677Y-3258*
X5687Y-3254*
X5695Y-3248*
X5703Y-3241*
X5708Y-3232*
X5712Y-3224*
X5715Y-3232*
X5721Y-3241*
X5728Y-3248*
X5737Y-3254*
X5746Y-3258*
X5757Y-3260*
X5767*
X5777Y-3258*
G37*
G36*
X5157Y-3235D02*
G01X5169Y-3230D01*
X5180Y-3222*
X5189Y-3213*
X5197Y-3202*
X5202Y-3190*
X5204Y-3177*
Y-3164*
X5202Y-3152*
X5197Y-3139*
X5193Y-3133*
X5197Y-3130*
X5200Y-3126*
X5202Y-3122*
X5204Y-3117*
Y-3112*
Y-3082*
X5198Y-3076*
X5143*
Y-3077*
X5133*
Y-3076*
X5078*
X5071Y-3082*
Y-3112*
X5072Y-3117*
X5073Y-3122*
X5076Y-3126*
X5079Y-3130*
X5083Y-3133*
X5079Y-3139*
X5074Y-3152*
X5071Y-3164*
Y-3177*
X5074Y-3190*
X5079Y-3202*
X5086Y-3213*
X5096Y-3222*
X5106Y-3230*
X5118Y-3235*
X5131Y-3237*
X5144*
X5157Y-3235*
G37*
G36*
X6714Y-3234D02*
G01X6719Y-3225D01*
X6721Y-3214*
X6722Y-3204*
X6720Y-3194*
X6716Y-3184*
X6714Y-3180*
X6705Y-3178*
X6676Y-3207*
X6705Y-3236*
X6714Y-3234*
G37*
G36*
X5907D02*
G01X5912Y-3225D01*
X5914Y-3214*
X5915Y-3204*
X5914Y-3202*
X5913Y-3194*
X5909Y-3184*
X5907Y-3180*
X5898Y-3178*
X5869Y-3207*
X5898Y-3236*
X5907Y-3234*
G37*
G36*
X6698Y-3171D02*
G01X6696Y-3162D01*
X6686Y-3157*
X6676Y-3155*
X6666Y-3154*
X6656Y-3156*
X6646Y-3159*
X6642Y-3162*
X6640Y-3171*
X6669Y-3200*
X6698Y-3171*
G37*
G36*
X5891D02*
G01X5889Y-3162D01*
X5879Y-3157*
X5869Y-3155*
X5859Y-3154*
X5849Y-3156*
X5839Y-3159*
X5835Y-3162*
X5833Y-3171*
X5862Y-3200*
X5891Y-3171*
G37*
G36*
X5681Y-3110D02*
G01X5689Y-3107D01*
X5695Y-3103*
X5701Y-3097*
X5705Y-3090*
X5708Y-3083*
X5710Y-3075*
Y-3067*
X5708Y-3059*
X5705Y-3052*
X5701Y-3045*
X5695Y-3039*
X5689Y-3035*
X5681Y-3032*
X5673Y-3030*
X5665*
X5657Y-3032*
X5650Y-3035*
X5643Y-3039*
X5638Y-3045*
X5633Y-3052*
X5630Y-3059*
X5629Y-3067*
Y-3075*
X5630Y-3083*
X5633Y-3090*
X5638Y-3097*
X5643Y-3103*
X5650Y-3107*
X5657Y-3110*
X5665Y-3112*
X5673*
X5681Y-3110*
G37*
G36*
X6852Y-3071D02*
G01X6860Y-3068D01*
X6867Y-3063*
X6872Y-3057*
X6877Y-3051*
X6880Y-3043*
X6881Y-3036*
Y-3027*
X6880Y-3020*
X6877Y-3012*
X6872Y-3006*
X6867Y-3000*
X6864Y-2998*
X6860Y-2995*
X6852Y-2992*
X6845Y-2991*
X6837*
X6829Y-2992*
X6821Y-2995*
X6815Y-3000*
X6809Y-3006*
X6804Y-3012*
X6801Y-3020*
X6800Y-3027*
Y-3036*
X6801Y-3043*
X6804Y-3051*
X6809Y-3057*
X6815Y-3063*
X6821Y-3068*
X6829Y-3071*
X6837Y-3072*
X6845*
X6852Y-3071*
G37*
G36*
X5198Y-3066D02*
G01X5204Y-3060D01*
Y-3030*
Y-3027*
Y-3025*
X5202Y-3020*
X5200Y-3016*
X5197Y-3012*
X5193Y-3009*
X5189Y-3006*
X5184Y-3005*
X5179Y-3004*
X5149Y-3005*
X5143Y-3011*
Y-3066*
X5198*
G37*
G36*
X5133D02*
G01Y-3011D01*
X5127Y-3005*
X5096Y-3004*
X5092Y-3005*
X5087Y-3006*
X5083Y-3009*
X5079Y-3012*
X5076Y-3016*
X5073Y-3020*
X5072Y-3025*
X5071Y-3030*
Y-3060*
X5078Y-3066*
X5133*
G37*
G36*
X6282Y-2928D02*
G01X6293Y-2923D01*
X6302Y-2917*
X6310Y-2909*
X6316Y-2900*
X6321Y-2889*
X6323Y-2878*
Y-2867*
X6321Y-2856*
X6316Y-2845*
X6310Y-2836*
X6302Y-2828*
X6293Y-2822*
X6282Y-2817*
X6274Y-2816*
X6276Y-2811*
X6278Y-2800*
Y-2791*
Y-2789*
X6276Y-2778*
X6274Y-2773*
X6282Y-2772*
X6293Y-2767*
X6302Y-2761*
X6310Y-2753*
X6316Y-2744*
X6321Y-2733*
X6323Y-2722*
Y-2711*
X6321Y-2700*
X6316Y-2689*
X6310Y-2680*
X6302Y-2672*
X6293Y-2666*
X6282Y-2661*
X6271Y-2659*
X6260*
X6249Y-2661*
X6238Y-2666*
X6229Y-2672*
X6221Y-2680*
Y-2681*
X6220Y-2680*
X6212Y-2672*
X6203Y-2666*
X6192Y-2661*
X6181Y-2659*
X6170*
X6159Y-2661*
X6148Y-2666*
X6139Y-2672*
X6131Y-2680*
Y-2681*
X6130Y-2680*
X6122Y-2672*
X6113Y-2666*
X6102Y-2661*
X6091Y-2659*
X6080*
X6069Y-2661*
X6058Y-2666*
X6049Y-2672*
X6041Y-2680*
Y-2681*
X6040Y-2680*
X6032Y-2672*
X6023Y-2666*
X6012Y-2661*
X6001Y-2659*
X5990*
X5979Y-2661*
X5968Y-2666*
X5959Y-2672*
X5951Y-2680*
X5948Y-2685*
X5945Y-2684*
X5913Y-2717*
X5906Y-2724*
X5905*
X5898Y-2717*
X5866Y-2684*
X5856Y-2687*
X5851Y-2697*
X5849Y-2708*
X5848Y-2719*
X5850Y-2730*
X5852Y-2738*
X5847Y-2739*
X5836Y-2742*
X5831Y-2745*
X5828Y-2755*
X5861Y-2787*
X5868Y-2794*
Y-2795*
X5861Y-2802*
X5828Y-2834*
X5831Y-2844*
X5841Y-2849*
X5852Y-2851*
X5850Y-2856*
X5848Y-2867*
Y-2878*
X5850Y-2889*
X5855Y-2900*
X5861Y-2909*
X5869Y-2917*
X5878Y-2923*
X5889Y-2928*
X5900Y-2930*
X5911*
X5922Y-2928*
X5933Y-2923*
X5942Y-2917*
X5950Y-2909*
X5951Y-2908*
Y-2909*
X5959Y-2917*
X5968Y-2923*
X5979Y-2928*
X5990Y-2930*
X6001*
X6012Y-2928*
X6023Y-2923*
X6032Y-2917*
X6040Y-2909*
X6041Y-2908*
Y-2909*
X6049Y-2917*
X6058Y-2923*
X6069Y-2928*
X6080Y-2930*
X6091*
X6102Y-2928*
X6113Y-2923*
X6122Y-2917*
X6130Y-2909*
X6131Y-2908*
Y-2909*
X6139Y-2917*
X6148Y-2923*
X6159Y-2928*
X6170Y-2930*
X6181*
X6192Y-2928*
X6203Y-2923*
X6212Y-2917*
X6220Y-2909*
X6221Y-2908*
Y-2909*
X6229Y-2917*
X6238Y-2923*
X6249Y-2928*
X6260Y-2930*
X6271*
X6282Y-2928*
G37*
G36*
X6602Y-2909D02*
G01X6624Y-2900D01*
X6644Y-2887*
X6660Y-2871*
X6673Y-2851*
X6682Y-2829*
X6687Y-2806*
Y-2783*
X6682Y-2760*
X6673Y-2738*
X6671Y-2734*
X6660Y-2718*
X6644Y-2702*
X6624Y-2689*
X6602Y-2680*
X6579Y-2675*
X6556*
X6533Y-2680*
X6511Y-2689*
X6491Y-2702*
X6475Y-2718*
X6462Y-2738*
X6453Y-2760*
X6448Y-2783*
Y-2806*
X6453Y-2829*
X6462Y-2851*
X6475Y-2871*
X6491Y-2887*
X6511Y-2900*
X6533Y-2909*
X6556Y-2914*
X6579*
X6602Y-2909*
G37*
G36*
X5618D02*
G01X5640Y-2900D01*
X5660Y-2887*
X5676Y-2871*
X5689Y-2851*
X5698Y-2829*
X5703Y-2806*
Y-2797*
Y-2783*
X5698Y-2760*
X5696Y-2755*
X5689Y-2738*
X5676Y-2718*
X5660Y-2702*
X5646Y-2693*
X5640Y-2689*
X5618Y-2680*
X5595Y-2675*
X5572*
X5549Y-2680*
X5527Y-2689*
X5507Y-2702*
X5491Y-2718*
X5478Y-2738*
X5469Y-2760*
X5464Y-2783*
Y-2806*
X5469Y-2829*
X5478Y-2851*
X5491Y-2871*
X5507Y-2887*
X5527Y-2900*
X5549Y-2909*
X5572Y-2914*
X5595*
X5618Y-2909*
G37*
G36*
X6350Y-2834D02*
G01X6358Y-2831D01*
X6365Y-2827*
X6370Y-2821*
X6375Y-2815*
X6378Y-2807*
X6379Y-2799*
Y-2791*
X6378Y-2783*
X6375Y-2776*
X6370Y-2769*
X6365Y-2764*
X6358Y-2759*
X6350Y-2756*
X6343Y-2755*
X6335*
X6327Y-2756*
X6319Y-2759*
X6313Y-2764*
X6307Y-2769*
X6302Y-2776*
X6299Y-2783*
X6298Y-2791*
Y-2799*
X6299Y-2807*
X6302Y-2815*
X6307Y-2821*
X6313Y-2827*
X6319Y-2831*
X6327Y-2834*
X6335Y-2836*
X6343*
X6350Y-2834*
G37*
G36*
X5853Y-2795D02*
G01X5821Y-2762D01*
X5811Y-2765*
X5806Y-2775*
X5804Y-2786*
X5803Y-2797*
X5805Y-2808*
X5808Y-2819*
X5811Y-2824*
X5821Y-2827*
X5853Y-2795*
G37*
G36*
X7088Y-2771D02*
G01X7094Y-2764D01*
Y-2734*
Y-2729*
X7092Y-2725*
X7090Y-2720*
X7087Y-2716*
X7083Y-2713*
X7079Y-2711*
X7074Y-2710*
X7069Y-2709*
X7039*
X7033Y-2716*
Y-2771*
X7088*
G37*
G36*
X7023D02*
G01Y-2716D01*
X7016Y-2709*
X6986*
X6981Y-2710*
X6977Y-2711*
X6972Y-2713*
X6968Y-2716*
X6965Y-2720*
X6963Y-2725*
X6962Y-2729*
X6961Y-2734*
Y-2764*
X6967Y-2771*
X7023*
G37*
G36*
X5740Y-2736D02*
G01X5748Y-2733D01*
X5754Y-2729*
X5760Y-2723*
X5764Y-2716*
X5768Y-2709*
X5769Y-2701*
Y-2693*
X5768Y-2685*
X5764Y-2678*
Y-2677*
X5760Y-2671*
X5754Y-2665*
X5748Y-2661*
X5740Y-2658*
X5732Y-2656*
X5724*
X5716Y-2658*
X5709Y-2661*
X5702Y-2665*
X5697Y-2671*
X5692Y-2678*
X5689Y-2685*
X5688Y-2693*
Y-2701*
X5689Y-2709*
X5692Y-2716*
X5697Y-2723*
X5702Y-2729*
X5709Y-2733*
X5716Y-2736*
X5724Y-2738*
X5732*
X5740Y-2736*
G37*
G36*
X5938Y-2677D02*
G01X5935Y-2667D01*
X5925Y-2662*
X5914Y-2660*
X5903Y-2659*
X5892Y-2661*
X5881Y-2665*
X5876Y-2667*
X5873Y-2677*
X5906Y-2709*
X5938Y-2677*
G37*
G36*
X5632D02*
G01X5639Y-2674D01*
X5646Y-2669*
X5652Y-2664*
X5656Y-2657*
X5659Y-2650*
X5661Y-2642*
Y-2634*
X5659Y-2626*
X5656Y-2618*
X5652Y-2612*
X5646Y-2606*
X5639Y-2602*
X5632Y-2599*
X5624Y-2597*
X5616*
X5608Y-2599*
X5601Y-2602*
X5594Y-2606*
X5588Y-2612*
X5584Y-2618*
X5581Y-2626*
X5579Y-2634*
Y-2642*
X5581Y-2650*
X5584Y-2657*
X5588Y-2664*
X5594Y-2669*
X5601Y-2674*
X5608Y-2677*
X5616Y-2679*
X5624*
X5632Y-2677*
G37*
G36*
X6993Y-4796D02*
G01X7002Y-4792D01*
X7011Y-4786*
X7018Y-4779*
X7024Y-4771*
X7028Y-4761*
X7030Y-4751*
Y-4740*
X7028Y-4730*
X7024Y-4721*
X7018Y-4712*
X7011Y-4705*
X7002Y-4699*
X6993Y-4695*
X6983Y-4693*
X6972*
X6962Y-4695*
X6953Y-4699*
X6944Y-4705*
X6937Y-4712*
X6931Y-4721*
X6928Y-4729*
X6924Y-4721*
X6918Y-4712*
X6911Y-4705*
X6902Y-4699*
X6893Y-4695*
X6883Y-4693*
X6872*
X6862Y-4695*
X6853Y-4699*
X6844Y-4705*
X6837Y-4712*
X6831Y-4721*
X6828Y-4729*
X6824Y-4721*
X6818Y-4712*
X6811Y-4705*
X6802Y-4699*
X6793Y-4695*
X6783Y-4693*
X6772*
X6762Y-4695*
X6753Y-4699*
X6744Y-4705*
X6737Y-4712*
X6731Y-4721*
X6727Y-4729*
X6725Y-4723*
X6723Y-4719*
X6714Y-4716*
X6685Y-4746*
X6714Y-4775*
X6723Y-4773*
X6727Y-4763*
X6728Y-4762*
X6731Y-4771*
X6737Y-4779*
X6744Y-4786*
X6753Y-4792*
X6762Y-4796*
X6772Y-4798*
X6783*
X6793Y-4796*
X6802Y-4792*
X6811Y-4786*
X6818Y-4779*
X6824Y-4771*
X6828Y-4762*
X6831Y-4771*
X6837Y-4779*
X6844Y-4786*
X6853Y-4792*
X6862Y-4796*
X6872Y-4798*
X6883*
X6893Y-4796*
X6902Y-4792*
X6911Y-4786*
X6918Y-4779*
X6924Y-4771*
X6928Y-4762*
X6931Y-4771*
X6937Y-4779*
X6944Y-4786*
X6953Y-4792*
X6962Y-4796*
X6972Y-4798*
X6983*
X6993Y-4796*
G37*
%LPD*%
G54D10*
X5138Y-3071D03*
G54D11*
Y-3171D03*
G54D10*
X7028Y-2776D03*
G54D11*
Y-2876D03*
Y-2976D03*
Y-3076D03*
Y-3176D03*
Y-3276D03*
Y-3965D03*
Y-3865D03*
Y-3765D03*
Y-3665D03*
Y-3565D03*
G54D10*
Y-3465D03*
G54D12*
X6568Y-4015D03*
X5584D03*
G54D13*
X6266Y-4093D03*
X6176D03*
X6086D03*
X5996D03*
X5906D03*
X6221Y-4015D03*
X6131D03*
X6041D03*
X5951D03*
X5861D03*
X6266Y-3937D03*
X6176D03*
X6086D03*
X5996D03*
X5906D03*
Y-2717D03*
X5996D03*
X6086D03*
X6176D03*
X6266D03*
X5861Y-2795D03*
X5951D03*
X6041D03*
X6131D03*
X6221D03*
X5906Y-2873D03*
X5996D03*
X6086D03*
X6176D03*
X6266D03*
G54D12*
X5584Y-2795D03*
X6568D03*
G54D14*
X4987Y-4516D03*
X5607D03*
G54D15*
X5122Y-4746D03*
X5172Y-4646D03*
X5222Y-4746D03*
X5272Y-4646D03*
X5322Y-4746D03*
X5372Y-4646D03*
X5422Y-4746D03*
X5472Y-4646D03*
G54D10*
X5138Y-3465D03*
G54D11*
Y-3565D03*
Y-3665D03*
Y-3765D03*
Y-3865D03*
Y-3965D03*
G54D14*
X5997Y-3437D03*
X5377D03*
G54D15*
X5862Y-3207D03*
X5812Y-3307D03*
X5762Y-3207D03*
X5712Y-3307D03*
X5662Y-3207D03*
X5612Y-3307D03*
X5562Y-3207D03*
X5512Y-3307D03*
X7028Y-4646D03*
X6978Y-4746D03*
X6928Y-4646D03*
X6878Y-4746D03*
X6828Y-4646D03*
X6778Y-4746D03*
X6728Y-4646D03*
X6678Y-4746D03*
G54D14*
X7163Y-4516D03*
X6543D03*
G54D15*
X6319Y-3307D03*
X6369Y-3207D03*
X6419Y-3307D03*
X6469Y-3207D03*
X6519Y-3307D03*
X6569Y-3207D03*
X6619Y-3307D03*
X6669Y-3207D03*
G54D14*
X6184Y-3437D03*
X6804D03*
G54D16*
X6949Y-3514D03*
Y-3002D03*
X6841Y-3031D03*
X6378Y-4498D03*
X6585Y-4695D03*
X5728Y-2697D03*
X5620Y-2638D03*
X5669Y-3071D03*
X6339Y-2795D03*
G54D23*
X7179Y-2508D02*
G01X7193Y-2512D01*
X7205Y-2519*
X7216Y-2527*
X7225Y-2538*
X7232Y-2551*
X7236Y-2564*
X7238Y-2579*
Y-4743*
X7236Y-4758*
X7232Y-4772*
X7226Y-4784*
X7217Y-4795*
X7206Y-4804*
X7193Y-4811*
X7180Y-4815*
X7165Y-4817*
X5001*
X4986Y-4815*
X4972Y-4811*
X4960Y-4804*
X4949Y-4795*
X4940Y-4785*
X4939Y-4782*
X5093*
X5096Y-4791*
X5105Y-4796*
X5115Y-4798*
X5125*
X5136Y-4797*
X5145Y-4793*
X5149Y-4791*
X5152Y-4782*
X5122Y-4753*
X5093Y-4782*
X4939*
X4933Y-4772*
X4929Y-4759*
X4928Y-4749*
X5070*
X5071Y-4759*
X5075Y-4769*
X5077Y-4773*
X5086Y-4775*
X5115Y-4746*
X5130*
X5159Y-4775*
X5168Y-4773*
X5172Y-4763*
Y-4762*
X5176Y-4771*
X5182Y-4779*
X5189Y-4786*
X5198Y-4792*
X5207Y-4796*
X5217Y-4798*
X5228*
X5238Y-4796*
X5247Y-4792*
X5256Y-4786*
X5263Y-4779*
X5269Y-4771*
X5272Y-4762*
X5276Y-4771*
X5282Y-4779*
X5289Y-4786*
X5298Y-4792*
X5307Y-4796*
X5317Y-4798*
X5328*
X5338Y-4796*
X5347Y-4792*
X5356Y-4786*
X5363Y-4779*
X5369Y-4771*
X5372Y-4762*
X5376Y-4771*
X5382Y-4779*
X5389Y-4786*
X5398Y-4792*
X5407Y-4796*
X5417Y-4798*
X5428*
X5438Y-4796*
X5447Y-4792*
X5456Y-4786*
X5461Y-4782*
X6648*
X6651Y-4791*
X6660Y-4796*
X6670Y-4798*
X6680*
X6691Y-4797*
X6700Y-4793*
X6704Y-4791*
X6707Y-4782*
X6678Y-4753*
X6648Y-4782*
X5461*
X5463Y-4779*
X5469Y-4771*
X5473Y-4761*
X5475Y-4751*
Y-4749*
X6625*
X6626Y-4759*
X6630Y-4769*
X6632Y-4773*
X6641Y-4775*
X6670Y-4746*
X6685*
X6714Y-4775*
X6723Y-4773*
X6727Y-4763*
X6728Y-4762*
X6731Y-4771*
X6737Y-4779*
X6744Y-4786*
X6753Y-4792*
X6762Y-4796*
X6772Y-4798*
X6783*
X6793Y-4796*
X6802Y-4792*
X6811Y-4786*
X6818Y-4779*
X6824Y-4771*
X6828Y-4762*
X6831Y-4771*
X6837Y-4779*
X6844Y-4786*
X6853Y-4792*
X6862Y-4796*
X6872Y-4798*
X6883*
X6893Y-4796*
X6902Y-4792*
X6911Y-4786*
X6918Y-4779*
X6924Y-4771*
X6928Y-4762*
X6931Y-4771*
X6937Y-4779*
X6944Y-4786*
X6953Y-4792*
X6962Y-4796*
X6972Y-4798*
X6983*
X6993Y-4796*
X7002Y-4792*
X7011Y-4786*
X7018Y-4779*
X7024Y-4771*
X7028Y-4761*
X7030Y-4751*
Y-4740*
X7028Y-4730*
X7024Y-4721*
X7018Y-4712*
X7011Y-4705*
X7002Y-4699*
X6993Y-4695*
X6983Y-4693*
X6972*
X6962Y-4695*
X6953Y-4699*
X6944Y-4705*
X6937Y-4712*
X6931Y-4721*
X6928Y-4729*
X6924Y-4721*
X6918Y-4712*
X6911Y-4705*
X6902Y-4699*
X6893Y-4695*
X6883Y-4693*
X6872*
X6862Y-4695*
X6853Y-4699*
X6844Y-4705*
X6837Y-4712*
X6831Y-4721*
X6828Y-4729*
X6824Y-4721*
X6818Y-4712*
X6811Y-4705*
X6802Y-4699*
X6793Y-4695*
X6783Y-4693*
X6772*
X6762Y-4695*
X6753Y-4699*
X6744Y-4705*
X6737Y-4712*
X6731Y-4721*
X6727Y-4729*
X6725Y-4723*
X6723Y-4719*
X6714Y-4716*
X6685Y-4746*
X6670*
X6641Y-4716*
X6632Y-4719*
X6628Y-4728*
X6625Y-4738*
Y-4749*
X5475*
Y-4740*
X5473Y-4730*
X5469Y-4721*
X5463Y-4712*
X5456Y-4705*
X5447Y-4699*
X5438Y-4695*
X5428Y-4693*
X5417*
X5407Y-4695*
X5398Y-4699*
X5389Y-4705*
X5382Y-4712*
X5376Y-4721*
X5372Y-4729*
X5369Y-4721*
X5363Y-4712*
X5356Y-4705*
X5347Y-4699*
X5338Y-4695*
X5328Y-4693*
X5317*
X5307Y-4695*
X5298Y-4699*
X5289Y-4705*
X5282Y-4712*
X5276Y-4721*
X5272Y-4729*
X5269Y-4721*
X5263Y-4712*
X5256Y-4705*
X5247Y-4699*
X5238Y-4695*
X5228Y-4693*
X5217*
X5207Y-4695*
X5198Y-4699*
X5189Y-4705*
X5182Y-4712*
X5176Y-4721*
X5172Y-4729*
X5170Y-4723*
X5168Y-4719*
X5159Y-4716*
X5130Y-4746*
X5115*
X5086Y-4716*
X5077Y-4719*
X5073Y-4728*
X5070Y-4738*
Y-4749*
X4928*
Y-4743*
Y-4709*
X5093*
X5122Y-4739*
X5152Y-4709*
X5149Y-4700*
X5140Y-4696*
X5130Y-4693*
X5120*
X5109Y-4695*
X5100Y-4698*
X5096Y-4700*
X5093Y-4709*
X4928*
Y-4682*
X5143*
X5146Y-4691*
X5155Y-4696*
X5165Y-4698*
X5175*
X5186Y-4697*
X5195Y-4693*
X5199Y-4691*
X5202Y-4682*
X5172Y-4653*
X5143Y-4682*
X4928*
Y-4649*
X5120*
X5121Y-4659*
X5125Y-4669*
X5127Y-4673*
X5136Y-4675*
X5165Y-4646*
X5180*
X5209Y-4675*
X5218Y-4673*
X5222Y-4663*
Y-4662*
X5226Y-4671*
X5232Y-4679*
X5239Y-4686*
X5248Y-4692*
X5257Y-4696*
X5267Y-4698*
X5278*
X5288Y-4696*
X5297Y-4692*
X5306Y-4686*
X5313Y-4679*
X5319Y-4671*
X5322Y-4662*
X5326Y-4671*
X5332Y-4679*
X5339Y-4686*
X5348Y-4692*
X5357Y-4696*
X5367Y-4698*
X5378*
X5388Y-4696*
X5397Y-4692*
X5406Y-4686*
X5413Y-4679*
X5419Y-4671*
X5422Y-4662*
X5426Y-4671*
X5432Y-4679*
X5439Y-4686*
X5448Y-4692*
X5457Y-4696*
X5467Y-4698*
X5478*
X5488Y-4696*
X5497Y-4692*
X5499Y-4691*
X6544*
Y-4699*
X6545Y-4707*
X6549Y-4714*
X6553Y-4721*
X6559Y-4727*
X6565Y-4731*
X6573Y-4734*
X6581Y-4736*
X6589*
X6597Y-4734*
X6604Y-4731*
X6611Y-4727*
X6616Y-4721*
X6621Y-4714*
X6623Y-4709*
X6648*
X6678Y-4739*
X6707Y-4709*
X6704Y-4700*
X6695Y-4696*
X6685Y-4693*
X6675*
X6664Y-4695*
X6655Y-4698*
X6651Y-4700*
X6648Y-4709*
X6623*
X6624Y-4707*
X6625Y-4699*
Y-4691*
X6624Y-4683*
X6623Y-4682*
X6698*
X6701Y-4691*
X6710Y-4696*
X6720Y-4698*
X6730*
X6741Y-4697*
X6750Y-4693*
X6754Y-4691*
X6757Y-4682*
X6728Y-4653*
X6698Y-4682*
X6623*
X6621Y-4676*
X6616Y-4669*
X6611Y-4663*
X6604Y-4659*
X6597Y-4656*
X6589Y-4654*
X6581*
X6573Y-4656*
X6565Y-4659*
X6559Y-4663*
X6553Y-4669*
X6549Y-4676*
X6545Y-4683*
X6544Y-4691*
X5499*
X5506Y-4686*
X5513Y-4679*
X5519Y-4671*
X5523Y-4661*
X5525Y-4651*
Y-4649*
X6675*
X6676Y-4659*
X6680Y-4669*
X6682Y-4673*
X6691Y-4675*
X6720Y-4646*
X6735*
X6764Y-4675*
X6773Y-4673*
X6777Y-4663*
X6778Y-4662*
X6781Y-4671*
X6787Y-4679*
X6794Y-4686*
X6803Y-4692*
X6812Y-4696*
X6822Y-4698*
X6833*
X6843Y-4696*
X6852Y-4692*
X6861Y-4686*
X6868Y-4679*
X6874Y-4671*
X6878Y-4662*
X6881Y-4671*
X6887Y-4679*
X6894Y-4686*
X6903Y-4692*
X6912Y-4696*
X6922Y-4698*
X6933*
X6943Y-4696*
X6952Y-4692*
X6961Y-4686*
X6968Y-4679*
X6974Y-4671*
X6978Y-4662*
X6981Y-4671*
X6987Y-4679*
X6994Y-4686*
X7003Y-4692*
X7012Y-4696*
X7022Y-4698*
X7033*
X7043Y-4696*
X7052Y-4692*
X7061Y-4686*
X7068Y-4679*
X7074Y-4671*
X7078Y-4661*
X7080Y-4651*
Y-4640*
X7078Y-4630*
X7074Y-4621*
X7068Y-4612*
X7061Y-4605*
X7052Y-4599*
X7043Y-4595*
X7033Y-4593*
X7022*
X7012Y-4595*
X7003Y-4599*
X6994Y-4605*
X6987Y-4612*
X6981Y-4621*
X6978Y-4629*
X6974Y-4621*
X6968Y-4612*
X6961Y-4605*
X6952Y-4599*
X6943Y-4595*
X6933Y-4593*
X6922*
X6912Y-4595*
X6903Y-4599*
X6894Y-4605*
X6887Y-4612*
X6881Y-4621*
X6878Y-4629*
X6874Y-4621*
X6868Y-4612*
X6861Y-4605*
X6852Y-4599*
X6843Y-4595*
X6833Y-4593*
X6822*
X6812Y-4595*
X6803Y-4599*
X6794Y-4605*
X6787Y-4612*
X6781Y-4621*
X6777Y-4629*
X6775Y-4623*
X6773Y-4619*
X6764Y-4616*
X6735Y-4646*
X6720*
X6691Y-4616*
X6682Y-4619*
X6678Y-4628*
X6675Y-4638*
Y-4649*
X5525*
Y-4640*
X5523Y-4630*
X5519Y-4621*
X5513Y-4612*
X5511Y-4609*
X6698*
X6728Y-4639*
X6757Y-4609*
X6754Y-4600*
X6745Y-4596*
X6735Y-4593*
X6725*
X6714Y-4595*
X6705Y-4598*
X6701Y-4600*
X6698Y-4609*
X5511*
X5506Y-4605*
X5497Y-4599*
X5488Y-4595*
X5478Y-4593*
X5467*
X5457Y-4595*
X5448Y-4599*
X5439Y-4605*
X5432Y-4612*
X5426Y-4621*
X5422Y-4629*
X5419Y-4621*
X5413Y-4612*
X5406Y-4605*
X5397Y-4599*
X5388Y-4595*
X5378Y-4593*
X5367*
X5357Y-4595*
X5348Y-4599*
X5339Y-4605*
X5332Y-4612*
X5326Y-4621*
X5322Y-4629*
X5319Y-4621*
X5313Y-4612*
X5306Y-4605*
X5297Y-4599*
X5288Y-4595*
X5278Y-4593*
X5267*
X5257Y-4595*
X5248Y-4599*
X5239Y-4605*
X5232Y-4612*
X5226Y-4621*
X5222Y-4629*
X5220Y-4623*
X5218Y-4619*
X5209Y-4616*
X5180Y-4646*
X5165*
X5136Y-4616*
X5127Y-4619*
X5123Y-4628*
X5120Y-4638*
Y-4649*
X4928*
Y-4609*
X5143*
X5172Y-4639*
X5202Y-4609*
X5199Y-4600*
X5190Y-4596*
X5180Y-4593*
X5170*
X5159Y-4595*
X5150Y-4598*
X5146Y-4600*
X5143Y-4609*
X4928*
Y-4556*
X4931Y-4562*
X4941Y-4572*
X4953Y-4580*
X4966Y-4585*
X4980Y-4588*
X4995*
X5008Y-4585*
X5022Y-4580*
X5033Y-4572*
X5044Y-4562*
X5051Y-4550*
X5057Y-4537*
X5060Y-4523*
Y-4509*
X5057Y-4495*
X5051Y-4482*
Y-4480*
X5064Y-4483*
X5081*
X5098Y-4480*
X5114Y-4473*
X5128Y-4464*
X5140Y-4451*
X5150Y-4437*
X5156Y-4421*
X5160Y-4404*
Y-4387*
X5435*
Y-4404*
X5438Y-4421*
X5445Y-4437*
X5455Y-4451*
X5467Y-4464*
X5481Y-4473*
X5497Y-4480*
X5514Y-4483*
X5531*
X5544Y-4480*
X5543Y-4482*
X5538Y-4495*
X5535Y-4509*
Y-4523*
X5538Y-4537*
X5543Y-4550*
X5551Y-4562*
X5561Y-4572*
X5573Y-4580*
X5586Y-4585*
X5600Y-4588*
X5615*
X5629Y-4585*
X5642Y-4580*
X5654Y-4572*
X5664Y-4562*
X5672Y-4550*
X5677Y-4537*
X5680Y-4523*
Y-4509*
X5677Y-4495*
Y-4494*
X6337*
Y-4502*
X6339Y-4510*
X6342Y-4517*
X6346Y-4524*
X6352Y-4530*
X6359Y-4534*
X6366Y-4537*
X6374Y-4539*
X6382*
X6390Y-4537*
X6397Y-4534*
X6404Y-4530*
X6410Y-4524*
X6414Y-4517*
X6417Y-4510*
Y-4509*
X6470*
Y-4523*
X6473Y-4537*
X6478Y-4550*
X6486Y-4562*
X6496Y-4572*
X6508Y-4580*
X6521Y-4585*
X6535Y-4588*
X6550*
X6564Y-4585*
X6577Y-4580*
X6589Y-4572*
X6599Y-4562*
X6607Y-4550*
X6612Y-4537*
X6615Y-4523*
Y-4509*
X6612Y-4495*
X6607Y-4482*
X6606Y-4480*
X6619Y-4483*
X6636*
X6653Y-4480*
X6669Y-4473*
X6683Y-4464*
X6695Y-4451*
X6705Y-4437*
X6712Y-4421*
X6715Y-4404*
Y-4387*
X6990*
Y-4404*
X6994Y-4421*
X7000Y-4437*
X7010Y-4451*
X7022Y-4464*
X7036Y-4473*
X7052Y-4480*
X7069Y-4483*
X7086*
X7099Y-4480*
Y-4482*
X7093Y-4495*
X7090Y-4509*
Y-4523*
X7093Y-4537*
X7099Y-4550*
X7106Y-4562*
X7117Y-4572*
X7128Y-4580*
X7142Y-4585*
X7155Y-4588*
X7170*
X7184Y-4585*
X7197Y-4580*
X7209Y-4572*
X7219Y-4562*
X7227Y-4550*
X7232Y-4537*
X7235Y-4523*
Y-4509*
X7232Y-4495*
X7227Y-4482*
X7219Y-4470*
X7209Y-4460*
X7197Y-4452*
X7184Y-4446*
X7170Y-4444*
X7155*
X7150Y-4445*
X7155Y-4437*
X7162Y-4421*
X7165Y-4404*
Y-4387*
X7162Y-4370*
X7155Y-4354*
X7145Y-4340*
X7133Y-4328*
X7119Y-4318*
X7103Y-4312*
X7086Y-4308*
X7069*
X7052Y-4312*
X7036Y-4318*
X7022Y-4328*
X7010Y-4340*
X7000Y-4354*
X6994Y-4370*
X6990Y-4387*
X6715*
X6712Y-4370*
X6705Y-4354*
X6695Y-4340*
X6683Y-4328*
X6669Y-4318*
X6653Y-4312*
X6636Y-4308*
X6619*
X6602Y-4312*
X6586Y-4318*
X6572Y-4328*
X6560Y-4340*
X6550Y-4354*
X6544Y-4370*
X6540Y-4387*
Y-4404*
X6544Y-4421*
X6550Y-4437*
X6555Y-4445*
X6550Y-4444*
X6535*
X6521Y-4446*
X6508Y-4452*
X6496Y-4460*
X6486Y-4470*
X6478Y-4482*
X6473Y-4495*
X6470Y-4509*
X6417*
X6419Y-4502*
Y-4494*
X6417Y-4486*
X6414Y-4479*
X6410Y-4472*
X6404Y-4466*
X6397Y-4462*
X6390Y-4459*
X6382Y-4457*
X6374*
X6366Y-4459*
X6359Y-4462*
X6352Y-4466*
X6346Y-4472*
X6342Y-4479*
X6339Y-4486*
X6337Y-4494*
X5677*
X5672Y-4482*
X5664Y-4470*
X5654Y-4460*
X5642Y-4452*
X5629Y-4446*
X5615Y-4444*
X5600*
X5595Y-4445*
X5600Y-4437*
X5606Y-4421*
X5610Y-4404*
Y-4387*
X5606Y-4370*
X5600Y-4354*
X5590Y-4340*
X5578Y-4328*
X5564Y-4318*
X5548Y-4312*
X5531Y-4308*
X5514*
X5497Y-4312*
X5481Y-4318*
X5467Y-4328*
X5455Y-4340*
X5445Y-4354*
X5438Y-4370*
X5435Y-4387*
X5160*
X5156Y-4370*
X5150Y-4354*
X5140Y-4340*
X5128Y-4328*
X5114Y-4318*
X5098Y-4312*
X5081Y-4308*
X5064*
X5047Y-4312*
X5031Y-4318*
X5017Y-4328*
X5005Y-4340*
X4995Y-4354*
X4988Y-4370*
X4985Y-4387*
Y-4404*
X4988Y-4421*
X4995Y-4437*
X5000Y-4445*
X4995Y-4444*
X4980*
X4966Y-4446*
X4953Y-4452*
X4941Y-4460*
X4931Y-4470*
X4928Y-4475*
Y-3506*
X5071*
X5072Y-3511*
X5073Y-3516*
X5076Y-3520*
X5079Y-3524*
X5083Y-3527*
Y-3527*
X5079Y-3533*
X5074Y-3545*
X5071Y-3558*
Y-3571*
X5074Y-3584*
X5079Y-3596*
X5086Y-3607*
X5094Y-3615*
X5086Y-3622*
X5079Y-3633*
X5074Y-3645*
X5071Y-3658*
Y-3671*
X5074Y-3684*
X5079Y-3696*
X5086Y-3707*
X5094Y-3715*
X5086Y-3722*
X5079Y-3733*
X5074Y-3745*
X5071Y-3758*
Y-3771*
X5074Y-3784*
X5079Y-3796*
X5086Y-3807*
X5094Y-3815*
X5086Y-3822*
X5079Y-3833*
X5074Y-3845*
X5071Y-3858*
Y-3871*
X5074Y-3884*
X5079Y-3896*
X5086Y-3907*
X5094Y-3915*
X5086Y-3922*
X5079Y-3933*
X5074Y-3945*
X5071Y-3958*
Y-3971*
X5074Y-3984*
X5079Y-3996*
X5086Y-4007*
X5096Y-4016*
X5106Y-4023*
X5118Y-4028*
X5131Y-4031*
X5144*
X5157Y-4028*
X5169Y-4023*
X5180Y-4016*
X5189Y-4007*
X5192Y-4003*
X5464*
Y-4027*
X5469Y-4050*
X5478Y-4072*
X5491Y-4091*
X5507Y-4108*
X5527Y-4121*
X5549Y-4130*
X5572Y-4135*
X5595*
X5618Y-4130*
X5640Y-4121*
X5660Y-4108*
X5676Y-4091*
X5689Y-4072*
X5698Y-4050*
X5703Y-4027*
Y-4018*
X5803*
X5805Y-4029*
X5808Y-4040*
X5811Y-4045*
X5821Y-4048*
X5853Y-4015*
X5821Y-3982*
X5811Y-3985*
X5806Y-3996*
X5804Y-4006*
X5803Y-4018*
X5703*
Y-4003*
X5698Y-3980*
X5696Y-3975*
X5828*
X5861Y-4008*
Y-4007*
X5868Y-4014*
Y-4015*
Y-4016*
X5861Y-4023*
Y-4022*
X5828Y-4055*
X5831Y-4064*
X5841Y-4069*
X5852Y-4072*
Y-4072*
X5850Y-4076*
X5848Y-4087*
Y-4099*
X5850Y-4110*
X5855Y-4120*
X5861Y-4129*
X5869Y-4137*
X5878Y-4144*
X5889Y-4148*
X5900Y-4150*
X5911*
X5922Y-4148*
X5933Y-4144*
X5942Y-4137*
X5950Y-4129*
X5951*
Y-4129*
X5959Y-4137*
X5968Y-4144*
X5979Y-4148*
X5990Y-4150*
X6001*
X6012Y-4148*
X6023Y-4144*
X6032Y-4137*
X6040Y-4129*
X6041*
Y-4129*
X6049Y-4137*
X6058Y-4144*
X6069Y-4148*
X6080Y-4150*
X6091*
X6102Y-4148*
X6113Y-4144*
X6122Y-4137*
X6130Y-4129*
X6131*
Y-4129*
X6139Y-4137*
X6148Y-4144*
X6159Y-4148*
X6170Y-4150*
X6181*
X6192Y-4148*
X6203Y-4144*
X6212Y-4137*
X6220Y-4129*
X6221*
Y-4129*
X6229Y-4137*
X6238Y-4144*
X6249Y-4148*
X6260Y-4150*
X6271*
X6282Y-4148*
X6293Y-4144*
X6302Y-4137*
X6310Y-4129*
X6316Y-4120*
X6321Y-4110*
X6323Y-4099*
Y-4087*
X6321Y-4076*
X6316Y-4066*
X6310Y-4057*
X6302Y-4049*
X6293Y-4042*
X6282Y-4038*
X6274Y-4036*
X6276Y-4032*
X6278Y-4021*
Y-4009*
X6277Y-4003*
X6448*
Y-4027*
X6453Y-4050*
X6462Y-4072*
X6475Y-4091*
X6491Y-4108*
X6511Y-4121*
X6533Y-4130*
X6556Y-4135*
X6579*
X6602Y-4130*
X6624Y-4121*
X6644Y-4108*
X6660Y-4091*
X6673Y-4072*
X6682Y-4050*
X6687Y-4027*
Y-4003*
X6682Y-3980*
X6673Y-3958*
X6660Y-3939*
X6644Y-3922*
X6624Y-3909*
X6602Y-3900*
X6579Y-3895*
X6556*
X6533Y-3900*
X6511Y-3909*
X6491Y-3922*
X6475Y-3939*
X6462Y-3958*
X6453Y-3980*
X6448Y-4003*
X6277*
X6276Y-3998*
X6274Y-3994*
X6282Y-3992*
X6293Y-3988*
X6302Y-3981*
X6310Y-3973*
X6316Y-3964*
X6321Y-3954*
X6323Y-3943*
Y-3931*
X6321Y-3920*
X6316Y-3910*
X6310Y-3901*
X6302Y-3893*
X6293Y-3886*
X6282Y-3882*
X6271Y-3880*
X6260*
X6249Y-3882*
X6238Y-3886*
X6229Y-3893*
X6221Y-3901*
Y-3901*
X6220*
X6212Y-3893*
X6203Y-3886*
X6192Y-3882*
X6181Y-3880*
X6170*
X6159Y-3882*
X6148Y-3886*
X6139Y-3893*
X6131Y-3901*
Y-3901*
X6130*
X6122Y-3893*
X6113Y-3886*
X6102Y-3882*
X6091Y-3880*
X6080*
X6069Y-3882*
X6058Y-3886*
X6049Y-3893*
X6041Y-3901*
Y-3901*
X6040*
X6032Y-3893*
X6023Y-3886*
X6012Y-3882*
X6001Y-3880*
X5990*
X5979Y-3882*
X5968Y-3886*
X5959Y-3893*
X5951Y-3901*
X5948Y-3905*
X5945Y-3904*
X5913Y-3937*
Y-3938*
X5906Y-3945*
Y-3944*
X5905Y-3945*
X5898Y-3938*
Y-3937*
X5866Y-3904*
X5856Y-3907*
X5851Y-3918*
X5849Y-3928*
X5848Y-3940*
X5850Y-3951*
X5852Y-3958*
X5847Y-3959*
X5836Y-3963*
X5831Y-3966*
X5828Y-3975*
X5696*
X5689Y-3958*
X5676Y-3939*
X5660Y-3922*
X5640Y-3909*
X5618Y-3900*
X5605Y-3897*
X5873*
X5906Y-3930*
X5938Y-3897*
X5935Y-3888*
X5925Y-3883*
X5914Y-3880*
X5903*
X5892Y-3881*
X5881Y-3885*
X5876Y-3888*
X5873Y-3897*
X5605*
X5595Y-3895*
X5572*
X5549Y-3900*
X5527Y-3909*
X5507Y-3922*
X5491Y-3939*
X5478Y-3958*
X5469Y-3980*
X5464Y-4003*
X5192*
X5197Y-3996*
X5202Y-3984*
X5204Y-3971*
Y-3958*
X5202Y-3945*
X5197Y-3933*
X5189Y-3922*
X5182Y-3915*
X5189Y-3907*
X5197Y-3896*
X5202Y-3884*
X5204Y-3871*
Y-3858*
X5202Y-3845*
X5197Y-3833*
X5189Y-3822*
X5182Y-3815*
X5189Y-3807*
X5197Y-3796*
X5202Y-3784*
X5204Y-3771*
Y-3758*
X5202Y-3745*
X5197Y-3733*
X5189Y-3722*
X5182Y-3715*
X5189Y-3707*
X5197Y-3696*
X5202Y-3684*
X5204Y-3671*
Y-3658*
X5202Y-3645*
X5197Y-3633*
X5189Y-3622*
X5182Y-3615*
X5189Y-3607*
X5197Y-3596*
X5202Y-3584*
X5204Y-3571*
Y-3558*
X5202Y-3545*
X5197Y-3533*
X5193Y-3527*
Y-3527*
X5197Y-3524*
X5200Y-3520*
X5202Y-3516*
X5204Y-3511*
Y-3506*
Y-3476*
X5198Y-3470*
X5143*
Y-3470*
X5133*
Y-3470*
X5078*
X5071Y-3476*
Y-3506*
X4928*
Y-3423*
X5071*
Y-3453*
X5078Y-3460*
X5133*
Y-3404*
X5143*
Y-3460*
X5198*
X5204Y-3453*
Y-3430*
X5305*
Y-3444*
X5307Y-3458*
X5313Y-3471*
X5321Y-3483*
X5331Y-3493*
X5343Y-3501*
X5356Y-3506*
X5370Y-3509*
X5384*
X5389Y-3508*
X5384Y-3516*
X5378Y-3532*
X5374Y-3548*
Y-3566*
X5378Y-3583*
X5384Y-3598*
X5394Y-3613*
X5406Y-3625*
X5420Y-3635*
X5436Y-3641*
X5453Y-3644*
X5470*
X5487Y-3641*
X5503Y-3635*
X5518Y-3625*
X5530Y-3613*
X5539Y-3598*
X5546Y-3583*
X5549Y-3566*
Y-3548*
X5824*
Y-3566*
X5828Y-3583*
X5834Y-3598*
X5844Y-3613*
X5856Y-3625*
X5870Y-3635*
X5886Y-3641*
X5903Y-3644*
X5920*
X5937Y-3641*
X5953Y-3635*
X5968Y-3625*
X5980Y-3613*
X5989Y-3598*
X5996Y-3583*
X5999Y-3566*
Y-3548*
X5996Y-3532*
X5989Y-3516*
X5984Y-3508*
X5990Y-3509*
X6004*
X6018Y-3506*
X6031Y-3501*
X6043Y-3493*
X6053Y-3483*
X6061Y-3471*
X6066Y-3458*
X6069Y-3444*
Y-3430*
X6112*
Y-3444*
X6114Y-3458*
X6120Y-3471*
X6128Y-3483*
X6138Y-3493*
X6150Y-3501*
X6163Y-3506*
X6177Y-3509*
X6191*
X6196Y-3508*
X6191Y-3516*
X6185Y-3532*
X6181Y-3548*
Y-3566*
X6185Y-3583*
X6191Y-3598*
X6201Y-3613*
X6213Y-3625*
X6227Y-3635*
X6243Y-3641*
X6260Y-3644*
X6278*
X6294Y-3641*
X6310Y-3635*
X6325Y-3625*
X6337Y-3613*
X6346Y-3598*
X6353Y-3583*
X6356Y-3566*
Y-3548*
X6631*
Y-3566*
X6635Y-3583*
X6641Y-3598*
X6651Y-3613*
X6663Y-3625*
X6677Y-3635*
X6693Y-3641*
X6710Y-3644*
X6728*
X6744Y-3641*
X6760Y-3635*
X6775Y-3625*
X6787Y-3613*
X6796Y-3598*
X6803Y-3583*
X6806Y-3566*
Y-3548*
X6803Y-3532*
X6796Y-3516*
X6792Y-3510*
X6908*
Y-3518*
X6910Y-3526*
X6913Y-3533*
X6917Y-3540*
X6923Y-3545*
X6930Y-3550*
X6937Y-3553*
X6945Y-3555*
X6953*
X6961Y-3553*
X6962Y-3552*
X6961Y-3558*
Y-3571*
X6964Y-3584*
X6969Y-3596*
X6976Y-3607*
X6984Y-3615*
X6976Y-3622*
X6969Y-3633*
X6964Y-3645*
X6961Y-3658*
Y-3671*
X6964Y-3684*
X6969Y-3696*
X6976Y-3707*
X6984Y-3715*
X6976Y-3722*
X6969Y-3733*
X6964Y-3745*
X6961Y-3758*
Y-3771*
X6964Y-3784*
X6969Y-3796*
X6976Y-3807*
X6984Y-3815*
X6976Y-3822*
X6969Y-3833*
X6964Y-3845*
X6961Y-3858*
Y-3871*
X6964Y-3884*
X6969Y-3896*
X6976Y-3907*
X6984Y-3915*
X6976Y-3922*
X6969Y-3933*
X6964Y-3945*
X6961Y-3958*
Y-3971*
X6964Y-3984*
X6969Y-3996*
X6976Y-4007*
X6985Y-4016*
X6996Y-4023*
X7008Y-4028*
X7021Y-4031*
X7034*
X7047Y-4028*
X7059Y-4023*
X7070Y-4016*
X7079Y-4007*
X7086Y-3996*
X7091Y-3984*
X7094Y-3971*
Y-3958*
X7091Y-3945*
X7086Y-3933*
X7079Y-3922*
X7071Y-3915*
X7079Y-3907*
X7086Y-3896*
X7091Y-3884*
X7094Y-3871*
Y-3858*
X7091Y-3845*
X7086Y-3833*
X7079Y-3822*
X7071Y-3815*
X7079Y-3807*
X7086Y-3796*
X7091Y-3784*
X7094Y-3771*
Y-3758*
X7091Y-3745*
X7086Y-3733*
X7079Y-3722*
X7071Y-3715*
X7079Y-3707*
X7086Y-3696*
X7091Y-3684*
X7094Y-3671*
Y-3658*
X7091Y-3645*
X7086Y-3633*
X7079Y-3622*
X7071Y-3615*
X7079Y-3607*
X7086Y-3596*
X7091Y-3584*
X7094Y-3571*
Y-3558*
X7091Y-3545*
X7086Y-3533*
X7082Y-3527*
X7083*
X7087Y-3524*
X7090Y-3520*
X7092Y-3516*
X7094Y-3511*
Y-3506*
Y-3476*
X7088Y-3470*
X7033*
Y-3470*
X7023*
Y-3470*
X6967*
X6962Y-3475*
X6961*
X6953Y-3473*
X6945*
X6937Y-3475*
X6930Y-3478*
X6923Y-3482*
X6917Y-3488*
X6913Y-3494*
X6910Y-3502*
X6908Y-3510*
X6792*
X6791Y-3508*
X6797Y-3509*
X6811*
X6825Y-3506*
X6838Y-3501*
X6850Y-3493*
X6860Y-3483*
X6868Y-3471*
X6873Y-3458*
X6876Y-3444*
Y-3430*
X6875Y-3423*
X6961*
Y-3453*
X6967Y-3460*
X7023*
Y-3404*
X7033*
Y-3460*
X7088*
X7094Y-3453*
Y-3423*
Y-3418*
X7092Y-3414*
X7090Y-3409*
X7087Y-3405*
X7083Y-3402*
X7079Y-3400*
X7074Y-3399*
X7069Y-3398*
X7039*
X7033Y-3404*
X7023*
X7016Y-3398*
X6986*
X6981Y-3399*
X6977Y-3400*
X6972Y-3402*
X6968Y-3405*
X6965Y-3409*
X6963Y-3414*
X6962Y-3418*
X6961Y-3423*
X6875*
X6873Y-3416*
X6868Y-3403*
X6860Y-3391*
X6850Y-3381*
X6838Y-3373*
X6825Y-3368*
X6811Y-3365*
X6797*
X6783Y-3368*
X6770Y-3373*
X6758Y-3381*
X6748Y-3391*
X6740Y-3403*
X6734Y-3416*
X6732Y-3430*
Y-3444*
X6734Y-3458*
X6740Y-3471*
X6741Y-3472*
X6728Y-3470*
X6710*
X6693Y-3473*
X6677Y-3480*
X6663Y-3489*
X6651Y-3501*
X6641Y-3516*
X6635Y-3532*
X6631Y-3548*
X6356*
X6353Y-3532*
X6346Y-3516*
X6337Y-3501*
X6325Y-3489*
X6310Y-3480*
X6294Y-3473*
X6278Y-3470*
X6260*
X6247Y-3472*
X6248Y-3471*
X6253Y-3458*
X6256Y-3444*
Y-3430*
X6253Y-3416*
X6248Y-3403*
X6240Y-3391*
X6230Y-3381*
X6218Y-3373*
X6205Y-3368*
X6191Y-3365*
X6177*
X6163Y-3368*
X6150Y-3373*
X6138Y-3381*
X6128Y-3391*
X6120Y-3403*
X6114Y-3416*
X6112Y-3430*
X6069*
X6066Y-3416*
X6061Y-3403*
X6053Y-3391*
X6043Y-3381*
X6031Y-3373*
X6018Y-3368*
X6004Y-3365*
X5990*
X5976Y-3368*
X5963Y-3373*
X5951Y-3381*
X5941Y-3391*
X5933Y-3403*
X5927Y-3416*
X5925Y-3430*
Y-3444*
X5927Y-3458*
X5933Y-3471*
X5934Y-3472*
X5920Y-3470*
X5903*
X5886Y-3473*
X5870Y-3480*
X5856Y-3489*
X5844Y-3501*
X5834Y-3516*
X5828Y-3532*
X5824Y-3548*
X5549*
X5546Y-3532*
X5539Y-3516*
X5530Y-3501*
X5518Y-3489*
X5503Y-3480*
X5487Y-3473*
X5470Y-3470*
X5453*
X5440Y-3472*
X5441Y-3471*
X5446Y-3458*
X5449Y-3444*
Y-3430*
X5446Y-3416*
X5441Y-3403*
X5433Y-3391*
X5423Y-3381*
X5411Y-3373*
X5398Y-3368*
X5384Y-3365*
X5370*
X5356Y-3368*
X5343Y-3373*
X5331Y-3381*
X5321Y-3391*
X5313Y-3403*
X5307Y-3416*
X5305Y-3430*
X5204*
Y-3423*
Y-3418*
X5202Y-3414*
X5200Y-3409*
X5197Y-3405*
X5193Y-3402*
X5189Y-3400*
X5184Y-3399*
X5179Y-3398*
X5149*
X5143Y-3404*
X5133*
X5127Y-3398*
X5096*
X5092Y-3399*
X5087Y-3400*
X5083Y-3402*
X5079Y-3405*
X5076Y-3409*
X5073Y-3414*
X5072Y-3418*
X5071Y-3423*
X4928*
Y-3302*
X5459*
Y-3312*
X5461Y-3322*
X5465Y-3332*
X5471Y-3341*
X5478Y-3348*
X5487Y-3354*
X5496Y-3358*
X5507Y-3360*
X5517*
X5527Y-3358*
X5537Y-3354*
X5545Y-3348*
X5553Y-3341*
X5558Y-3332*
X5562Y-3324*
X5565Y-3332*
X5571Y-3341*
X5578Y-3348*
X5587Y-3354*
X5596Y-3358*
X5607Y-3360*
X5617*
X5627Y-3358*
X5637Y-3354*
X5645Y-3348*
X5653Y-3341*
X5658Y-3332*
X5662Y-3324*
X5665Y-3332*
X5671Y-3341*
X5678Y-3348*
X5687Y-3354*
X5696Y-3358*
X5707Y-3360*
X5717*
X5727Y-3358*
X5737Y-3354*
X5745Y-3348*
X5750Y-3343*
X5783*
X5785Y-3353*
X5794Y-3357*
X5804Y-3359*
X5815Y-3360*
X5825Y-3358*
X5835Y-3355*
X5839Y-3353*
X5841Y-3343*
X5812Y-3314*
X5783Y-3343*
X5750*
X5753Y-3341*
X5758Y-3332*
X5762Y-3324*
X5764Y-3330*
X5766Y-3334*
X5776Y-3336*
X5805Y-3307*
X5819*
X5848Y-3336*
X5857Y-3334*
X5862Y-3325*
X5864Y-3314*
X5865Y-3304*
X5864Y-3302*
X6266*
Y-3312*
X6268Y-3322*
X6272Y-3332*
X6278Y-3341*
X6285Y-3348*
X6294Y-3354*
X6304Y-3358*
X6314Y-3360*
X6324*
X6334Y-3358*
X6344Y-3354*
X6352Y-3348*
X6360Y-3341*
X6365Y-3332*
X6369Y-3324*
X6372Y-3332*
X6378Y-3341*
X6385Y-3348*
X6394Y-3354*
X6404Y-3358*
X6414Y-3360*
X6424*
X6434Y-3358*
X6444Y-3354*
X6452Y-3348*
X6460Y-3341*
X6465Y-3332*
X6469Y-3324*
X6472Y-3332*
X6478Y-3341*
X6485Y-3348*
X6494Y-3354*
X6504Y-3358*
X6514Y-3360*
X6524*
X6534Y-3358*
X6544Y-3354*
X6552Y-3348*
X6557Y-3343*
X6590*
X6592Y-3353*
X6601Y-3357*
X6611Y-3359*
X6622Y-3360*
X6632Y-3358*
X6642Y-3355*
X6646Y-3353*
X6648Y-3343*
X6619Y-3314*
X6590Y-3343*
X6557*
X6560Y-3341*
X6565Y-3332*
X6569Y-3324*
X6571Y-3330*
X6573Y-3334*
X6583Y-3336*
X6612Y-3307*
X6626*
X6655Y-3336*
X6664Y-3334*
X6669Y-3325*
X6671Y-3314*
X6672Y-3304*
X6670Y-3294*
X6666Y-3284*
X6664Y-3280*
X6655Y-3278*
X6626Y-3307*
X6612*
X6583Y-3278*
X6573Y-3280*
X6569Y-3290*
Y-3290*
X6565Y-3282*
X6560Y-3274*
X6557Y-3271*
X6590*
X6619Y-3300*
X6648Y-3271*
X6646Y-3262*
X6636Y-3257*
X6626Y-3255*
X6616Y-3254*
X6606Y-3256*
X6596Y-3259*
X6592Y-3262*
X6590Y-3271*
X6557*
X6552Y-3266*
X6544Y-3261*
X6534Y-3257*
X6524Y-3255*
X6514*
X6504Y-3257*
X6494Y-3261*
X6485Y-3266*
X6478Y-3274*
X6472Y-3282*
X6469Y-3290*
X6465Y-3282*
X6460Y-3274*
X6452Y-3266*
X6444Y-3261*
X6434Y-3257*
X6424Y-3255*
X6414*
X6404Y-3257*
X6394Y-3261*
X6385Y-3266*
X6378Y-3274*
X6372Y-3282*
X6369Y-3290*
X6365Y-3282*
X6360Y-3274*
X6352Y-3266*
X6344Y-3261*
X6334Y-3257*
X6324Y-3255*
X6314*
X6304Y-3257*
X6294Y-3261*
X6285Y-3266*
X6278Y-3274*
X6272Y-3282*
X6268Y-3292*
X6266Y-3302*
X5864*
X5863Y-3294*
X5859Y-3284*
X5857Y-3280*
X5848Y-3278*
X5819Y-3307*
X5805*
X5776Y-3278*
X5766Y-3280*
X5762Y-3290*
Y-3290*
X5758Y-3282*
X5753Y-3274*
X5750Y-3271*
X5783*
X5812Y-3300*
X5841Y-3271*
X5839Y-3262*
X5829Y-3257*
X5819Y-3255*
X5809Y-3254*
X5799Y-3256*
X5789Y-3259*
X5785Y-3262*
X5783Y-3271*
X5750*
X5745Y-3266*
X5737Y-3261*
X5727Y-3257*
X5717Y-3255*
X5707*
X5696Y-3257*
X5687Y-3261*
X5678Y-3266*
X5671Y-3274*
X5665Y-3282*
X5662Y-3290*
X5658Y-3282*
X5653Y-3274*
X5645Y-3266*
X5637Y-3261*
X5627Y-3257*
X5617Y-3255*
X5607*
X5596Y-3257*
X5587Y-3261*
X5578Y-3266*
X5571Y-3274*
X5565Y-3282*
X5562Y-3290*
X5558Y-3282*
X5553Y-3274*
X5545Y-3266*
X5537Y-3261*
X5527Y-3257*
X5517Y-3255*
X5507*
X5496Y-3257*
X5487Y-3261*
X5478Y-3266*
X5471Y-3274*
X5465Y-3282*
X5461Y-3292*
X5459Y-3302*
X4928*
Y-3112*
X5071*
X5072Y-3117*
X5073Y-3122*
X5076Y-3126*
X5079Y-3130*
X5083Y-3133*
Y-3133*
X5079Y-3139*
X5074Y-3152*
X5071Y-3164*
Y-3177*
X5074Y-3190*
X5079Y-3202*
X5086Y-3213*
X5096Y-3222*
X5106Y-3230*
X5118Y-3235*
X5131Y-3237*
X5144*
X5157Y-3235*
X5169Y-3230*
X5180Y-3222*
X5189Y-3213*
X5197Y-3202*
Y-3202*
X5509*
Y-3212*
X5511Y-3222*
X5515Y-3232*
X5521Y-3241*
X5528Y-3248*
X5537Y-3254*
X5546Y-3258*
X5557Y-3260*
X5567*
X5577Y-3258*
X5587Y-3254*
X5595Y-3248*
X5603Y-3241*
X5608Y-3232*
X5612Y-3224*
X5615Y-3232*
X5621Y-3241*
X5628Y-3248*
X5637Y-3254*
X5646Y-3258*
X5657Y-3260*
X5667*
X5677Y-3258*
X5687Y-3254*
X5695Y-3248*
X5703Y-3241*
X5708Y-3232*
X5712Y-3224*
X5715Y-3232*
X5721Y-3241*
X5728Y-3248*
X5737Y-3254*
X5746Y-3258*
X5757Y-3260*
X5767*
X5777Y-3258*
X5787Y-3254*
X5795Y-3248*
X5800Y-3243*
X5833*
X5835Y-3253*
X5844Y-3257*
X5854Y-3259*
X5865Y-3260*
X5875Y-3258*
X5885Y-3255*
X5889Y-3253*
X5891Y-3243*
X5862Y-3214*
X5833Y-3243*
X5800*
X5803Y-3241*
X5808Y-3232*
X5812Y-3224*
X5814Y-3230*
X5816Y-3234*
X5826Y-3236*
X5855Y-3207*
X5869*
X5898Y-3236*
X5907Y-3234*
X5912Y-3225*
X5914Y-3214*
X5915Y-3204*
X5914Y-3202*
X6316*
Y-3212*
X6318Y-3222*
X6322Y-3232*
X6328Y-3241*
X6335Y-3248*
X6344Y-3254*
X6354Y-3258*
X6364Y-3260*
X6374*
X6384Y-3258*
X6394Y-3254*
X6402Y-3248*
X6410Y-3241*
X6415Y-3232*
X6419Y-3224*
X6422Y-3232*
X6428Y-3241*
X6435Y-3248*
X6444Y-3254*
X6454Y-3258*
X6464Y-3260*
X6474*
X6484Y-3258*
X6494Y-3254*
X6502Y-3248*
X6510Y-3241*
X6515Y-3232*
X6519Y-3224*
X6522Y-3232*
X6528Y-3241*
X6535Y-3248*
X6544Y-3254*
X6554Y-3258*
X6564Y-3260*
X6574*
X6584Y-3258*
X6594Y-3254*
X6602Y-3248*
X6607Y-3243*
X6640*
X6642Y-3253*
X6651Y-3257*
X6661Y-3259*
X6672Y-3260*
X6682Y-3258*
X6692Y-3255*
X6696Y-3253*
X6698Y-3243*
X6669Y-3214*
X6640Y-3243*
X6607*
X6610Y-3241*
X6615Y-3232*
X6619Y-3224*
X6621Y-3230*
X6623Y-3234*
X6633Y-3236*
X6662Y-3207*
X6676*
X6705Y-3236*
X6714Y-3234*
X6719Y-3225*
X6721Y-3214*
X6722Y-3204*
X6720Y-3194*
X6716Y-3184*
X6714Y-3180*
X6705Y-3178*
X6676Y-3207*
X6662*
X6633Y-3178*
X6623Y-3180*
X6619Y-3190*
Y-3190*
X6615Y-3182*
X6610Y-3174*
X6607Y-3171*
X6640*
X6669Y-3200*
X6698Y-3171*
X6696Y-3162*
X6686Y-3157*
X6676Y-3155*
X6666Y-3154*
X6656Y-3156*
X6646Y-3159*
X6642Y-3162*
X6640Y-3171*
X6607*
X6602Y-3166*
X6594Y-3161*
X6584Y-3157*
X6574Y-3155*
X6564*
X6554Y-3157*
X6544Y-3161*
X6535Y-3166*
X6528Y-3174*
X6522Y-3182*
X6519Y-3190*
X6515Y-3182*
X6510Y-3174*
X6502Y-3166*
X6494Y-3161*
X6484Y-3157*
X6474Y-3155*
X6464*
X6454Y-3157*
X6444Y-3161*
X6435Y-3166*
X6428Y-3174*
X6422Y-3182*
X6419Y-3190*
X6415Y-3182*
X6410Y-3174*
X6402Y-3166*
X6394Y-3161*
X6384Y-3157*
X6374Y-3155*
X6364*
X6354Y-3157*
X6344Y-3161*
X6335Y-3166*
X6328Y-3174*
X6322Y-3182*
X6318Y-3192*
X6316Y-3202*
X5914*
X5913Y-3194*
X5909Y-3184*
X5907Y-3180*
X5898Y-3178*
X5869Y-3207*
X5855*
X5826Y-3178*
X5816Y-3180*
X5812Y-3190*
Y-3190*
X5808Y-3182*
X5803Y-3174*
X5800Y-3171*
X5833*
X5862Y-3200*
X5891Y-3171*
X5889Y-3162*
X5879Y-3157*
X5869Y-3155*
X5859Y-3154*
X5849Y-3156*
X5839Y-3159*
X5835Y-3162*
X5833Y-3171*
X5800*
X5795Y-3166*
X5787Y-3161*
X5777Y-3157*
X5767Y-3155*
X5757*
X5746Y-3157*
X5737Y-3161*
X5728Y-3166*
X5721Y-3174*
X5715Y-3182*
X5712Y-3190*
X5708Y-3182*
X5703Y-3174*
X5695Y-3166*
X5687Y-3161*
X5677Y-3157*
X5667Y-3155*
X5657*
X5646Y-3157*
X5637Y-3161*
X5628Y-3166*
X5621Y-3174*
X5615Y-3182*
X5612Y-3190*
X5608Y-3182*
X5603Y-3174*
X5595Y-3166*
X5587Y-3161*
X5577Y-3157*
X5567Y-3155*
X5557*
X5546Y-3157*
X5537Y-3161*
X5528Y-3166*
X5521Y-3174*
X5515Y-3182*
X5511Y-3192*
X5509Y-3202*
X5197*
X5202Y-3190*
X5204Y-3177*
Y-3164*
X5202Y-3152*
X5197Y-3139*
X5193Y-3133*
Y-3133*
X5197Y-3130*
X5200Y-3126*
X5202Y-3122*
X5204Y-3117*
Y-3112*
Y-3082*
X5198Y-3076*
X5143*
Y-3077*
X5133*
Y-3076*
X5078*
X5071Y-3082*
Y-3112*
X4928*
Y-3067*
X5629*
Y-3075*
X5630Y-3083*
X5633Y-3090*
X5638Y-3097*
X5643Y-3103*
X5650Y-3107*
X5657Y-3110*
X5665Y-3112*
X5673*
X5681Y-3110*
X5689Y-3107*
X5695Y-3103*
X5701Y-3097*
X5705Y-3090*
X5708Y-3083*
X5710Y-3075*
Y-3067*
X5708Y-3059*
X5705Y-3052*
X5701Y-3045*
X5695Y-3039*
X5689Y-3035*
X5681Y-3032*
X5673Y-3030*
X5665*
X5657Y-3032*
X5650Y-3035*
X5643Y-3039*
X5638Y-3045*
X5633Y-3052*
X5630Y-3059*
X5629Y-3067*
X4928*
Y-3030*
X5071*
Y-3060*
X5078Y-3066*
X5133*
Y-3011*
X5143*
Y-3066*
X5198*
X5204Y-3060*
Y-3030*
Y-3027*
X6800*
Y-3036*
X6801Y-3043*
X6804Y-3051*
X6809Y-3057*
X6815Y-3063*
X6821Y-3068*
X6829Y-3071*
X6837Y-3072*
X6845*
X6852Y-3071*
X6860Y-3068*
X6867Y-3063*
X6872Y-3057*
X6877Y-3051*
X6880Y-3043*
X6881Y-3036*
Y-3027*
X6880Y-3020*
X6877Y-3012*
X6872Y-3006*
X6867Y-3000*
X6864Y-2998*
X6908*
Y-3006*
X6910Y-3014*
X6913Y-3021*
X6917Y-3028*
X6923Y-3034*
X6930Y-3038*
X6937Y-3041*
X6945Y-3043*
X6953*
X6961Y-3041*
X6968Y-3038*
X6975Y-3034*
X6980Y-3028*
X6983Y-3025*
X6984Y-3026*
X6976Y-3033*
X6969Y-3044*
X6964Y-3056*
X6961Y-3069*
Y-3082*
X6964Y-3095*
X6969Y-3107*
X6976Y-3118*
X6984Y-3126*
X6976Y-3133*
X6969Y-3144*
X6964Y-3156*
X6961Y-3169*
Y-3182*
X6964Y-3195*
X6969Y-3207*
X6976Y-3218*
X6984Y-3226*
X6976Y-3233*
X6969Y-3244*
X6964Y-3256*
X6961Y-3269*
Y-3282*
X6964Y-3295*
X6969Y-3307*
X6976Y-3318*
X6985Y-3327*
X6996Y-3334*
X7008Y-3339*
X7021Y-3342*
X7034*
X7047Y-3339*
X7059Y-3334*
X7070Y-3327*
X7079Y-3318*
X7086Y-3307*
X7091Y-3295*
X7094Y-3282*
Y-3269*
X7091Y-3256*
X7086Y-3244*
X7079Y-3233*
X7071Y-3226*
X7079Y-3218*
X7086Y-3207*
X7091Y-3195*
X7094Y-3182*
Y-3169*
X7091Y-3156*
X7086Y-3144*
X7079Y-3133*
X7071Y-3126*
X7079Y-3118*
X7086Y-3107*
X7091Y-3095*
X7094Y-3082*
Y-3069*
X7091Y-3056*
X7086Y-3044*
X7079Y-3033*
X7071Y-3026*
X7079Y-3018*
X7086Y-3007*
X7091Y-2995*
X7094Y-2982*
Y-2969*
X7091Y-2956*
X7086Y-2944*
X7079Y-2933*
X7071Y-2926*
X7079Y-2918*
X7086Y-2907*
X7091Y-2895*
X7094Y-2882*
Y-2869*
X7091Y-2856*
X7086Y-2844*
X7082Y-2838*
X7083*
X7087Y-2835*
X7090Y-2831*
X7092Y-2827*
X7094Y-2822*
Y-2817*
Y-2787*
X7088Y-2781*
X7033*
Y-2781*
X7023*
Y-2781*
X6967*
X6961Y-2787*
Y-2817*
X6962Y-2822*
X6963Y-2827*
X6965Y-2831*
X6968Y-2835*
X6972Y-2838*
X6973*
X6969Y-2844*
X6964Y-2856*
X6961Y-2869*
Y-2882*
X6964Y-2895*
X6969Y-2907*
X6976Y-2918*
X6984Y-2926*
X6976Y-2933*
X6969Y-2944*
X6964Y-2956*
X6962Y-2963*
X6961*
X6953Y-2961*
X6945*
X6937Y-2963*
X6930Y-2966*
X6923Y-2970*
X6917Y-2976*
X6913Y-2983*
X6910Y-2990*
X6908Y-2998*
X6864*
X6860Y-2995*
X6852Y-2992*
X6845Y-2991*
X6837*
X6829Y-2992*
X6821Y-2995*
X6815Y-3000*
X6809Y-3006*
X6804Y-3012*
X6801Y-3020*
X6800Y-3027*
X5204*
Y-3025*
X5202Y-3020*
X5200Y-3016*
X5197Y-3012*
X5193Y-3009*
X5189Y-3006*
X5184Y-3005*
X5179Y-3004*
X5149Y-3005*
X5143Y-3011*
X5133*
X5127Y-3005*
X5096Y-3004*
X5092Y-3005*
X5087Y-3006*
X5083Y-3009*
X5079Y-3012*
X5076Y-3016*
X5073Y-3020*
X5072Y-3025*
X5071Y-3030*
X4928*
Y-2783*
X5464*
Y-2806*
X5469Y-2829*
X5478Y-2851*
X5491Y-2871*
X5507Y-2887*
X5527Y-2900*
X5549Y-2909*
X5572Y-2914*
X5595*
X5618Y-2909*
X5640Y-2900*
X5660Y-2887*
X5676Y-2871*
X5689Y-2851*
X5698Y-2829*
X5703Y-2806*
Y-2797*
X5803*
X5805Y-2808*
X5808Y-2819*
X5811Y-2824*
X5821Y-2827*
X5853Y-2795*
X5821Y-2762*
X5811Y-2765*
X5806Y-2775*
X5804Y-2786*
X5803Y-2797*
X5703*
Y-2783*
X5698Y-2760*
X5696Y-2755*
X5828*
X5861Y-2787*
Y-2787*
X5868Y-2794*
Y-2795*
Y-2795*
X5861Y-2802*
Y-2802*
X5828Y-2834*
X5831Y-2844*
X5841Y-2849*
X5852Y-2851*
Y-2851*
X5850Y-2856*
X5848Y-2867*
Y-2878*
X5850Y-2889*
X5855Y-2900*
X5861Y-2909*
X5869Y-2917*
X5878Y-2923*
X5889Y-2928*
X5900Y-2930*
X5911*
X5922Y-2928*
X5933Y-2923*
X5942Y-2917*
X5950Y-2909*
X5951Y-2908*
Y-2909*
X5959Y-2917*
X5968Y-2923*
X5979Y-2928*
X5990Y-2930*
X6001*
X6012Y-2928*
X6023Y-2923*
X6032Y-2917*
X6040Y-2909*
X6041Y-2908*
Y-2909*
X6049Y-2917*
X6058Y-2923*
X6069Y-2928*
X6080Y-2930*
X6091*
X6102Y-2928*
X6113Y-2923*
X6122Y-2917*
X6130Y-2909*
X6131Y-2908*
Y-2909*
X6139Y-2917*
X6148Y-2923*
X6159Y-2928*
X6170Y-2930*
X6181*
X6192Y-2928*
X6203Y-2923*
X6212Y-2917*
X6220Y-2909*
X6221Y-2908*
Y-2909*
X6229Y-2917*
X6238Y-2923*
X6249Y-2928*
X6260Y-2930*
X6271*
X6282Y-2928*
X6293Y-2923*
X6302Y-2917*
X6310Y-2909*
X6316Y-2900*
X6321Y-2889*
X6323Y-2878*
Y-2867*
X6321Y-2856*
X6316Y-2845*
X6310Y-2836*
X6302Y-2828*
X6293Y-2822*
X6282Y-2817*
X6274Y-2816*
X6276Y-2811*
X6278Y-2800*
Y-2791*
X6298*
Y-2799*
X6299Y-2807*
X6302Y-2815*
X6307Y-2821*
X6313Y-2827*
X6319Y-2831*
X6327Y-2834*
X6335Y-2836*
X6343*
X6350Y-2834*
X6358Y-2831*
X6365Y-2827*
X6370Y-2821*
X6375Y-2815*
X6378Y-2807*
X6379Y-2799*
Y-2791*
X6378Y-2783*
Y-2783*
X6448*
Y-2806*
X6453Y-2829*
X6462Y-2851*
X6475Y-2871*
X6491Y-2887*
X6511Y-2900*
X6533Y-2909*
X6556Y-2914*
X6579*
X6602Y-2909*
X6624Y-2900*
X6644Y-2887*
X6660Y-2871*
X6673Y-2851*
X6682Y-2829*
X6687Y-2806*
Y-2783*
X6682Y-2760*
X6673Y-2738*
X6671Y-2734*
X6961*
Y-2764*
X6967Y-2771*
X7023*
Y-2716*
X7033*
Y-2771*
X7088*
X7094Y-2764*
Y-2734*
Y-2729*
X7092Y-2725*
X7090Y-2720*
X7087Y-2716*
X7083Y-2713*
X7079Y-2711*
X7074Y-2710*
X7069Y-2709*
X7039*
X7033Y-2716*
X7023*
X7016Y-2709*
X6986*
X6981Y-2710*
X6977Y-2711*
X6972Y-2713*
X6968Y-2716*
X6965Y-2720*
X6963Y-2725*
X6962Y-2729*
X6961Y-2734*
X6671*
X6660Y-2718*
X6644Y-2702*
X6624Y-2689*
X6602Y-2680*
X6579Y-2675*
X6556*
X6533Y-2680*
X6511Y-2689*
X6491Y-2702*
X6475Y-2718*
X6462Y-2738*
X6453Y-2760*
X6448Y-2783*
X6378*
X6375Y-2776*
X6370Y-2769*
X6365Y-2764*
X6358Y-2759*
X6350Y-2756*
X6343Y-2755*
X6335*
X6327Y-2756*
X6319Y-2759*
X6313Y-2764*
X6307Y-2769*
X6302Y-2776*
X6299Y-2783*
X6298Y-2791*
X6278*
Y-2789*
X6276Y-2778*
X6274Y-2773*
X6282Y-2772*
X6293Y-2767*
X6302Y-2761*
X6310Y-2753*
X6316Y-2744*
X6321Y-2733*
X6323Y-2722*
Y-2711*
X6321Y-2700*
X6316Y-2689*
X6310Y-2680*
X6302Y-2672*
X6293Y-2666*
X6282Y-2661*
X6271Y-2659*
X6260*
X6249Y-2661*
X6238Y-2666*
X6229Y-2672*
X6221Y-2680*
Y-2681*
X6220Y-2680*
X6212Y-2672*
X6203Y-2666*
X6192Y-2661*
X6181Y-2659*
X6170*
X6159Y-2661*
X6148Y-2666*
X6139Y-2672*
X6131Y-2680*
Y-2681*
X6130Y-2680*
X6122Y-2672*
X6113Y-2666*
X6102Y-2661*
X6091Y-2659*
X6080*
X6069Y-2661*
X6058Y-2666*
X6049Y-2672*
X6041Y-2680*
Y-2681*
X6040Y-2680*
X6032Y-2672*
X6023Y-2666*
X6012Y-2661*
X6001Y-2659*
X5990*
X5979Y-2661*
X5968Y-2666*
X5959Y-2672*
X5951Y-2680*
X5948Y-2685*
X5945Y-2684*
X5913Y-2717*
Y-2717*
X5906Y-2724*
Y-2724*
X5905*
X5898Y-2717*
Y-2717*
X5866Y-2684*
X5856Y-2687*
X5851Y-2697*
X5849Y-2708*
X5848Y-2719*
X5850Y-2730*
X5852Y-2738*
X5847Y-2739*
X5836Y-2742*
X5831Y-2745*
X5828Y-2755*
X5696*
X5689Y-2738*
X5676Y-2718*
X5660Y-2702*
X5646Y-2693*
X5688*
Y-2701*
X5689Y-2709*
X5692Y-2716*
X5697Y-2723*
X5702Y-2729*
X5709Y-2733*
X5716Y-2736*
X5724Y-2738*
X5732*
X5740Y-2736*
X5748Y-2733*
X5754Y-2729*
X5760Y-2723*
X5764Y-2716*
X5768Y-2709*
X5769Y-2701*
Y-2693*
X5768Y-2685*
X5764Y-2678*
Y-2677*
X5873*
X5906Y-2709*
X5938Y-2677*
X5935Y-2667*
X5925Y-2662*
X5914Y-2660*
X5903Y-2659*
X5892Y-2661*
X5881Y-2665*
X5876Y-2667*
X5873Y-2677*
X5764*
X5760Y-2671*
X5754Y-2665*
X5748Y-2661*
X5740Y-2658*
X5732Y-2656*
X5724*
X5716Y-2658*
X5709Y-2661*
X5702Y-2665*
X5697Y-2671*
X5692Y-2678*
X5689Y-2685*
X5688Y-2693*
X5646*
X5640Y-2689*
X5618Y-2680*
X5595Y-2675*
X5572*
X5549Y-2680*
X5527Y-2689*
X5507Y-2702*
X5491Y-2718*
X5478Y-2738*
X5469Y-2760*
X5464Y-2783*
X4928*
Y-2634*
X5579*
Y-2642*
X5581Y-2650*
X5584Y-2657*
X5588Y-2664*
X5594Y-2669*
X5601Y-2674*
X5608Y-2677*
X5616Y-2679*
X5624*
X5632Y-2677*
X5639Y-2674*
X5646Y-2669*
X5652Y-2664*
X5656Y-2657*
X5659Y-2650*
X5661Y-2642*
Y-2634*
X5659Y-2626*
X5656Y-2618*
X5652Y-2612*
X5646Y-2606*
X5639Y-2602*
X5632Y-2599*
X5624Y-2597*
X5616*
X5608Y-2599*
X5601Y-2602*
X5594Y-2606*
X5588Y-2612*
X5584Y-2618*
X5581Y-2626*
X5579Y-2634*
X4928*
Y-2580*
X4929Y-2565*
X4933Y-2551*
X4940Y-2539*
X4949Y-2528*
X4960Y-2519*
X4972Y-2512*
X4985Y-2508*
X5001Y-2506*
X7164*
X7179Y-2508*
M02*
