G04 CAM350 V10.5 (Build 464) Date:  Mon Feb 15 08:33:08 2021 *
G04 Database: (Untitled) *
G04 Layer 1: ad57_adapter-B_Cu.gbr *
%FSLAX23Y23*%
%MOIN*%
%SFA1.000B1.000*%

%MIA0B0*%
%IPPOS*%
%ADD10R,0.08268X0.08268*%
%ADD11C,0.08268*%
%ADD12C,0.18902*%
%ADD13C,0.06449*%
%ADD14C,0.09449*%
%ADD15C,0.05512*%
%ADD16C,0.03150*%
%ADD17C,0.01181*%
%ADD18C,0.00984*%
%ADD19C,0.00787*%
%LNad57_adapter-B_Cu.gbr*%
%LPD*%
G54D10*
X5138Y-3071D03*
G54D11*
Y-3171D03*
G54D10*
X7028Y-2776D03*
G54D11*
Y-2876D03*
Y-2976D03*
Y-3076D03*
Y-3176D03*
Y-3276D03*
Y-3965D03*
Y-3865D03*
Y-3765D03*
Y-3665D03*
Y-3565D03*
G54D10*
Y-3465D03*
G54D12*
X6568Y-4015D03*
X5584D03*
G54D13*
X6266Y-4093D03*
X6176D03*
X6086D03*
X5996D03*
X5906D03*
X6221Y-4015D03*
X6131D03*
X6041D03*
X5951D03*
X5861D03*
X6266Y-3937D03*
X6176D03*
X6086D03*
X5996D03*
X5906D03*
Y-2717D03*
X5996D03*
X6086D03*
X6176D03*
X6266D03*
X5861Y-2795D03*
X5951D03*
X6041D03*
X6131D03*
X6221D03*
X5906Y-2873D03*
X5996D03*
X6086D03*
X6176D03*
X6266D03*
G54D12*
X5584Y-2795D03*
X6568D03*
G54D14*
X4987Y-4516D03*
X5607D03*
G54D15*
X5122Y-4746D03*
X5172Y-4646D03*
X5222Y-4746D03*
X5272Y-4646D03*
X5322Y-4746D03*
X5372Y-4646D03*
X5422Y-4746D03*
X5472Y-4646D03*
G54D10*
X5138Y-3465D03*
G54D11*
Y-3565D03*
Y-3665D03*
Y-3765D03*
Y-3865D03*
Y-3965D03*
G54D14*
X5997Y-3437D03*
X5377D03*
G54D15*
X5862Y-3207D03*
X5812Y-3307D03*
X5762Y-3207D03*
X5712Y-3307D03*
X5662Y-3207D03*
X5612Y-3307D03*
X5562Y-3207D03*
X5512Y-3307D03*
X7028Y-4646D03*
X6978Y-4746D03*
X6928Y-4646D03*
X6878Y-4746D03*
X6828Y-4646D03*
X6778Y-4746D03*
X6728Y-4646D03*
X6678Y-4746D03*
G54D14*
X7163Y-4516D03*
X6543D03*
G54D15*
X6319Y-3307D03*
X6369Y-3207D03*
X6419Y-3307D03*
X6469Y-3207D03*
X6519Y-3307D03*
X6569Y-3207D03*
X6619Y-3307D03*
X6669Y-3207D03*
G54D14*
X6184Y-3437D03*
X6804D03*
G54D16*
X6949Y-3514D03*
Y-3002D03*
X6841Y-3031D03*
X6378Y-4498D03*
X6585Y-4695D03*
X5728Y-2697D03*
X5620Y-2638D03*
X5669Y-3071D03*
X6339Y-2795D03*
G54D17*
X5906Y-2873D02*
G01X5835D01*
Y-2873D02*
G01X5778Y-2815D01*
Y-2815D02*
G01Y-2697D01*
Y-2697D02*
G01X5856Y-2618D01*
Y-2618D02*
G01X6683D01*
X6941Y-2876D02*
G01X7028D01*
X6683Y-2618D02*
G01X6941Y-2876D01*
X7224Y-3172D02*
G01X7028Y-2976D01*
X7224Y-4065D02*
G01Y-3172D01*
X6112Y-4173D02*
G01X6191Y-4252D01*
X5986Y-4173D02*
G01X6112D01*
X5906Y-4093D02*
G01X5986Y-4173D01*
X7037Y-4252D02*
G01X7116Y-4173D01*
X6191Y-4252D02*
G01X7037D01*
X7116Y-4173D02*
G01X7224Y-4065D01*
X7111Y-4178D02*
G01X7116Y-4173D01*
X7093Y-3176D02*
G01X7028D01*
X7136Y-3219D02*
G01X7093Y-3176D01*
X7136Y-4045D02*
G01Y-3219D01*
X7028Y-4154D02*
G01X7136Y-4045D01*
X6146Y-4154D02*
G01X7028D01*
X6086Y-4093D02*
G01X6146Y-4154D01*
X6949Y-3051D02*
G01Y-3514D01*
Y-3002D02*
G01Y-3051D01*
X6841Y-3031D02*
G01X6880D01*
Y-3031D02*
G01X6909Y-3061D01*
Y-3061D02*
G01Y-3533D01*
X6941Y-3565D02*
G01X7028D01*
X6909Y-3533D02*
G01X6941Y-3565D01*
X6077Y-3839D02*
G01X6073D01*
X5903Y-3665D02*
G01X6176Y-3937D01*
X5138Y-3665D02*
G01X5903D01*
X6886Y-4604D02*
G01X6928Y-4646D01*
X6886Y-4603D02*
G01Y-4604D01*
X6870Y-4587D02*
G01X6886Y-4603D01*
X6112Y-4587D02*
G01X6870D01*
X5758Y-4232D02*
G01X6112Y-4587D01*
X6086Y-3937D02*
G01X6007Y-3858D01*
Y-3858D02*
G01X6004D01*
Y-3858D02*
G01X5896Y-3750D01*
Y-3750D02*
G01X5778D01*
Y-3750D02*
G01X5728Y-3799D01*
Y-4203D02*
G01X5758Y-4232D01*
X5728Y-3799D02*
G01Y-4203D01*
X5996Y-3937D02*
G01Y-3929D01*
X5945Y-3878D02*
G01X5837D01*
X5996Y-3929D02*
G01X5945Y-3878D01*
X6836Y-4704D02*
G01X6831D01*
X6878Y-4746D02*
G01X6836Y-4704D01*
X5837Y-3878D02*
G01X5807Y-3907D01*
Y-4063D02*
G01X5977Y-4232D01*
X5807Y-3907D02*
G01Y-4063D01*
X6112Y-4232D02*
G01X6378Y-4498D01*
X5977Y-4232D02*
G01X6112D01*
X6594Y-4704D02*
G01X6585Y-4695D01*
X6836Y-4704D02*
G01X6594D01*
X5630Y-2598D02*
G01X5728Y-2697D01*
X5571Y-2539D02*
G01X5630Y-2598D01*
X5325Y-2539D02*
G01X5571D01*
X4961Y-2904D02*
G01X5325Y-2539D01*
X4961Y-4171D02*
G01Y-2904D01*
X5322Y-4533D02*
G01X4961Y-4171D01*
X5322Y-4746D02*
G01Y-4533D01*
X5372Y-4646D02*
G01Y-4467D01*
Y-4467D02*
G01X5020Y-4114D01*
Y-4114D02*
G01Y-3061D01*
X5443Y-2638D02*
G01X5620D01*
X5020Y-3061D02*
G01X5443Y-2638D01*
G54D18*
X5662Y-3236D02*
G01X5684Y-3258D01*
X5662Y-3207D02*
G01Y-3236D01*
X6418Y-3258D02*
G01X6469Y-3207D01*
X5684Y-3258D02*
G01X6418D01*
G54D19*
X5951Y-2795D02*
G01Y-2937D01*
X5817Y-3071D02*
G01X5669D01*
X5951Y-2937D02*
G01X5817Y-3071D01*
G54D18*
X5652Y-3347D02*
G01Y-3349D01*
X5612Y-3307D02*
G01X5652Y-3347D01*
Y-3349D02*
G01X5669Y-3366D01*
X6360D02*
G01X6419Y-3307D01*
X5669Y-3366D02*
G01X6360D01*
G54D19*
X5610Y-3306D02*
G01X5612Y-3307D01*
X5610Y-3150D02*
G01Y-3306D01*
X5650Y-3110D02*
G01X5610Y-3150D01*
X5823Y-3110D02*
G01X5650D01*
X6041Y-2893D02*
G01X5823Y-3110D01*
X6041Y-2795D02*
G01Y-2893D01*
G54D17*
X6339Y-2799D02*
G01X6266Y-2873D01*
X6339Y-2795D02*
G01Y-2799D01*
M02*
