%TF.GenerationSoftware,KiCad,Pcbnew,(5.1.7)-1*%
%TF.CreationDate,2021-02-10T20:21:02+01:00*%
%TF.ProjectId,ad57_adapter,61643537-5f61-4646-9170-7465722e6b69,rev?*%
%TF.SameCoordinates,Original*%
%TF.FileFunction,Copper,L3,Inr*%
%TF.FilePolarity,Positive*%
%FSLAX46Y46*%
G04 Gerber Fmt 4.6, Leading zero omitted, Abs format (unit mm)*
G04 Created by KiCad (PCBNEW (5.1.7)-1) date 2021-02-10 20:21:02*
%MOMM*%
%LPD*%
G01*
G04 APERTURE LIST*
%TA.AperFunction,ComponentPad*%
%ADD10R,2.100000X2.100000*%
%TD*%
%TA.AperFunction,ComponentPad*%
%ADD11C,2.100000*%
%TD*%
%TA.AperFunction,ComponentPad*%
%ADD12C,4.801000*%
%TD*%
%TA.AperFunction,ComponentPad*%
%ADD13C,1.638000*%
%TD*%
%TA.AperFunction,ComponentPad*%
%ADD14C,2.400000*%
%TD*%
%TA.AperFunction,ComponentPad*%
%ADD15C,1.400000*%
%TD*%
%TA.AperFunction,ViaPad*%
%ADD16C,0.800000*%
%TD*%
%TA.AperFunction,Conductor*%
%ADD17C,0.254000*%
%TD*%
%TA.AperFunction,Conductor*%
%ADD18C,0.100000*%
%TD*%
G04 APERTURE END LIST*
D10*
%TO.N,VIN*%
%TO.C,J1*%
X130500000Y-78000000D03*
D11*
%TO.N,GND*%
X130500000Y-80540000D03*
%TD*%
D10*
%TO.N,VIN*%
%TO.C,J3*%
X178500000Y-70500000D03*
D11*
%TO.N,USENS1*%
X178500000Y-73040000D03*
%TO.N,USENS2*%
X178500000Y-75580000D03*
%TO.N,DIN1*%
X178500000Y-78120000D03*
%TO.N,DIN2*%
X178500000Y-80660000D03*
%TO.N,GND*%
X178500000Y-83200000D03*
%TD*%
%TO.N,GND*%
%TO.C,J4*%
X178500000Y-100700000D03*
%TO.N,DOUT4*%
X178500000Y-98160000D03*
%TO.N,DOUT3*%
X178500000Y-95620000D03*
%TO.N,DOUT2*%
X178500000Y-93080000D03*
%TO.N,DOUT1*%
X178500000Y-90540000D03*
D10*
%TO.N,VIN*%
X178500000Y-88000000D03*
%TD*%
D12*
%TO.N,GND*%
%TO.C,J5*%
X166815000Y-101981000D03*
X141821000Y-101981000D03*
D13*
%TO.N,BZZOUT2*%
X159144000Y-103962000D03*
%TO.N,GND*%
X156858000Y-103962000D03*
%TO.N,DIN2*%
X154572000Y-103962000D03*
%TO.N,Net-(J5-Pad12)*%
X152286000Y-103962000D03*
%TO.N,USENS2*%
X150000000Y-103962000D03*
%TO.N,DOUT4*%
X158001000Y-101981000D03*
%TO.N,DOUT3*%
X155715000Y-101981000D03*
%TO.N,Net-(J5-Pad8)*%
X153429000Y-101981000D03*
%TO.N,Net-(J5-Pad7)*%
X151143000Y-101981000D03*
%TO.N,VIN*%
X148857000Y-101981000D03*
%TO.N,GND*%
X159144000Y-100000000D03*
%TO.N,EN2*%
X156858000Y-100000000D03*
%TO.N,TXD2*%
X154572000Y-100000000D03*
%TO.N,RXD2*%
X152286000Y-100000000D03*
%TO.N,VIN*%
X150000000Y-100000000D03*
%TD*%
%TO.N,VIN*%
%TO.C,J6*%
X150000000Y-69000000D03*
%TO.N,RXD1*%
X152286000Y-69000000D03*
%TO.N,TXD1*%
X154572000Y-69000000D03*
%TO.N,EN1*%
X156858000Y-69000000D03*
%TO.N,GND*%
X159144000Y-69000000D03*
%TO.N,VIN*%
X148857000Y-70981000D03*
%TO.N,CANLO*%
X151143000Y-70981000D03*
%TO.N,CANHI*%
X153429000Y-70981000D03*
%TO.N,DOUT1*%
X155715000Y-70981000D03*
%TO.N,DOUT2*%
X158001000Y-70981000D03*
%TO.N,USENS1*%
X150000000Y-72962000D03*
%TO.N,CANTERM*%
X152286000Y-72962000D03*
%TO.N,DIN1*%
X154572000Y-72962000D03*
%TO.N,GND*%
X156858000Y-72962000D03*
%TO.N,BZZOUT1*%
X159144000Y-72962000D03*
D12*
%TO.N,GND*%
X141821000Y-70981000D03*
X166815000Y-70981000D03*
%TD*%
D14*
%TO.N,GND*%
%TO.C,J7*%
X126680000Y-114700000D03*
X142430000Y-114700000D03*
D15*
%TO.N,VIN*%
X130110000Y-120540000D03*
X131380000Y-118000000D03*
%TO.N,Net-(J7-Pad6)*%
X132650000Y-120540000D03*
%TO.N,Net-(J7-Pad5)*%
X133920000Y-118000000D03*
%TO.N,RXD1*%
X135190000Y-120540000D03*
%TO.N,TXD1*%
X136460000Y-118000000D03*
%TO.N,GND*%
X137730000Y-120540000D03*
X139000000Y-118000000D03*
%TD*%
D10*
%TO.N,VIN*%
%TO.C,J8*%
X130500000Y-88000000D03*
D11*
%TO.N,EN1*%
X130500000Y-90540000D03*
%TO.N,EN2*%
X130500000Y-93080000D03*
%TO.N,BZZOUT1*%
X130500000Y-95620000D03*
%TO.N,BZZOUT2*%
X130500000Y-98160000D03*
%TO.N,GND*%
X130500000Y-100700000D03*
%TD*%
D14*
%TO.N,GND*%
%TO.C,J9*%
X152320000Y-87300000D03*
X136570000Y-87300000D03*
D15*
%TO.N,VIN*%
X148890000Y-81460000D03*
X147620000Y-84000000D03*
%TO.N,Net-(J9-Pad6)*%
X146350000Y-81460000D03*
%TO.N,GND*%
X145080000Y-84000000D03*
%TO.N,CANLO*%
X143810000Y-81460000D03*
%TO.N,CANHI*%
X142540000Y-84000000D03*
%TO.N,GND*%
X141270000Y-81460000D03*
X140000000Y-84000000D03*
%TD*%
%TO.N,GND*%
%TO.C,J10*%
X178500000Y-118000000D03*
X177230000Y-120540000D03*
%TO.N,TXD2*%
X175960000Y-118000000D03*
%TO.N,RXD2*%
X174690000Y-120540000D03*
%TO.N,Net-(J10-Pad5)*%
X173420000Y-118000000D03*
%TO.N,Net-(J10-Pad6)*%
X172150000Y-120540000D03*
%TO.N,VIN*%
X170880000Y-118000000D03*
X169610000Y-120540000D03*
D14*
%TO.N,GND*%
X181930000Y-114700000D03*
X166180000Y-114700000D03*
%TD*%
D15*
%TO.N,GND*%
%TO.C,J11*%
X160500000Y-84000000D03*
X161770000Y-81460000D03*
%TO.N,CANHI*%
X163040000Y-84000000D03*
%TO.N,CANLO*%
X164310000Y-81460000D03*
%TO.N,GND*%
X165580000Y-84000000D03*
%TO.N,Net-(J11-Pad6)*%
X166850000Y-81460000D03*
%TO.N,VIN*%
X168120000Y-84000000D03*
X169390000Y-81460000D03*
D14*
%TO.N,GND*%
X157070000Y-87300000D03*
X172820000Y-87300000D03*
%TD*%
D16*
%TO.N,DOUT2*%
X176500000Y-89250000D03*
X176500000Y-76250000D03*
%TO.N,DOUT1*%
X173750000Y-77000000D03*
%TO.N,RXD2*%
X162000000Y-114250000D03*
X167250000Y-119250000D03*
%TO.N,RXD1*%
X145500000Y-68500000D03*
%TO.N,TXD1*%
X142750000Y-67000000D03*
%TO.N,CANLO*%
X144000000Y-78000000D03*
%TO.N,BZZOUT1*%
X161000000Y-71000000D03*
%TD*%
D17*
%TO.N,VIN*%
X182356775Y-63698147D02*
X182699967Y-63801763D01*
X183016489Y-63970062D01*
X183294299Y-64196637D01*
X183522806Y-64472856D01*
X183693310Y-64788197D01*
X183799319Y-65130656D01*
X183840000Y-65517712D01*
X183840001Y-120467711D01*
X183801853Y-120856776D01*
X183698238Y-121199964D01*
X183529939Y-121516489D01*
X183303365Y-121794296D01*
X183027146Y-122022805D01*
X182711803Y-122193310D01*
X182369344Y-122299319D01*
X181982288Y-122340000D01*
X127032279Y-122340000D01*
X126643224Y-122301853D01*
X126300036Y-122198238D01*
X125983511Y-122029939D01*
X125705704Y-121803365D01*
X125477195Y-121527146D01*
X125441576Y-121461269D01*
X129368336Y-121461269D01*
X129427797Y-121695037D01*
X129666242Y-121805934D01*
X129921740Y-121868183D01*
X130184473Y-121879390D01*
X130444344Y-121839125D01*
X130691366Y-121748935D01*
X130792203Y-121695037D01*
X130851664Y-121461269D01*
X130110000Y-120719605D01*
X129368336Y-121461269D01*
X125441576Y-121461269D01*
X125306690Y-121211803D01*
X125200681Y-120869344D01*
X125173894Y-120614473D01*
X128770610Y-120614473D01*
X128810875Y-120874344D01*
X128901065Y-121121366D01*
X128954963Y-121222203D01*
X129188731Y-121281664D01*
X129930395Y-120540000D01*
X130289605Y-120540000D01*
X131031269Y-121281664D01*
X131265037Y-121222203D01*
X131375934Y-120983758D01*
X131380706Y-120964173D01*
X131466939Y-121172359D01*
X131613038Y-121391013D01*
X131798987Y-121576962D01*
X132017641Y-121723061D01*
X132260595Y-121823696D01*
X132518514Y-121875000D01*
X132781486Y-121875000D01*
X133039405Y-121823696D01*
X133282359Y-121723061D01*
X133501013Y-121576962D01*
X133686962Y-121391013D01*
X133833061Y-121172359D01*
X133920000Y-120962470D01*
X134006939Y-121172359D01*
X134153038Y-121391013D01*
X134338987Y-121576962D01*
X134557641Y-121723061D01*
X134800595Y-121823696D01*
X135058514Y-121875000D01*
X135321486Y-121875000D01*
X135579405Y-121823696D01*
X135822359Y-121723061D01*
X136041013Y-121576962D01*
X136226962Y-121391013D01*
X136373061Y-121172359D01*
X136460000Y-120962470D01*
X136546939Y-121172359D01*
X136693038Y-121391013D01*
X136878987Y-121576962D01*
X137097641Y-121723061D01*
X137340595Y-121823696D01*
X137598514Y-121875000D01*
X137861486Y-121875000D01*
X138119405Y-121823696D01*
X138362359Y-121723061D01*
X138581013Y-121576962D01*
X138696706Y-121461269D01*
X168868336Y-121461269D01*
X168927797Y-121695037D01*
X169166242Y-121805934D01*
X169421740Y-121868183D01*
X169684473Y-121879390D01*
X169944344Y-121839125D01*
X170191366Y-121748935D01*
X170292203Y-121695037D01*
X170351664Y-121461269D01*
X169610000Y-120719605D01*
X168868336Y-121461269D01*
X138696706Y-121461269D01*
X138766962Y-121391013D01*
X138913061Y-121172359D01*
X139013696Y-120929405D01*
X139065000Y-120671486D01*
X139065000Y-120614473D01*
X168270610Y-120614473D01*
X168310875Y-120874344D01*
X168401065Y-121121366D01*
X168454963Y-121222203D01*
X168688731Y-121281664D01*
X169430395Y-120540000D01*
X169789605Y-120540000D01*
X170531269Y-121281664D01*
X170765037Y-121222203D01*
X170875934Y-120983758D01*
X170880706Y-120964173D01*
X170966939Y-121172359D01*
X171113038Y-121391013D01*
X171298987Y-121576962D01*
X171517641Y-121723061D01*
X171760595Y-121823696D01*
X172018514Y-121875000D01*
X172281486Y-121875000D01*
X172539405Y-121823696D01*
X172782359Y-121723061D01*
X173001013Y-121576962D01*
X173186962Y-121391013D01*
X173333061Y-121172359D01*
X173420000Y-120962470D01*
X173506939Y-121172359D01*
X173653038Y-121391013D01*
X173838987Y-121576962D01*
X174057641Y-121723061D01*
X174300595Y-121823696D01*
X174558514Y-121875000D01*
X174821486Y-121875000D01*
X175079405Y-121823696D01*
X175322359Y-121723061D01*
X175541013Y-121576962D01*
X175726962Y-121391013D01*
X175873061Y-121172359D01*
X175960000Y-120962470D01*
X176046939Y-121172359D01*
X176193038Y-121391013D01*
X176378987Y-121576962D01*
X176597641Y-121723061D01*
X176840595Y-121823696D01*
X177098514Y-121875000D01*
X177361486Y-121875000D01*
X177619405Y-121823696D01*
X177862359Y-121723061D01*
X178081013Y-121576962D01*
X178266962Y-121391013D01*
X178413061Y-121172359D01*
X178513696Y-120929405D01*
X178565000Y-120671486D01*
X178565000Y-120408514D01*
X178513696Y-120150595D01*
X178413061Y-119907641D01*
X178266962Y-119688987D01*
X178081013Y-119503038D01*
X177862359Y-119356939D01*
X177619405Y-119256304D01*
X177361486Y-119205000D01*
X177098514Y-119205000D01*
X176840595Y-119256304D01*
X176597641Y-119356939D01*
X176378987Y-119503038D01*
X176193038Y-119688987D01*
X176046939Y-119907641D01*
X175960000Y-120117530D01*
X175873061Y-119907641D01*
X175726962Y-119688987D01*
X175541013Y-119503038D01*
X175322359Y-119356939D01*
X175079405Y-119256304D01*
X174821486Y-119205000D01*
X174558514Y-119205000D01*
X174300595Y-119256304D01*
X174057641Y-119356939D01*
X173838987Y-119503038D01*
X173653038Y-119688987D01*
X173506939Y-119907641D01*
X173420000Y-120117530D01*
X173333061Y-119907641D01*
X173186962Y-119688987D01*
X173001013Y-119503038D01*
X172782359Y-119356939D01*
X172539405Y-119256304D01*
X172281486Y-119205000D01*
X172018514Y-119205000D01*
X171760595Y-119256304D01*
X171517641Y-119356939D01*
X171298987Y-119503038D01*
X171113038Y-119688987D01*
X170966939Y-119907641D01*
X170878379Y-120121444D01*
X170818935Y-119958634D01*
X170765037Y-119857797D01*
X170531269Y-119798336D01*
X169789605Y-120540000D01*
X169430395Y-120540000D01*
X168688731Y-119798336D01*
X168454963Y-119857797D01*
X168344066Y-120096242D01*
X168281817Y-120351740D01*
X168270610Y-120614473D01*
X139065000Y-120614473D01*
X139065000Y-120408514D01*
X139013696Y-120150595D01*
X138913061Y-119907641D01*
X138766962Y-119688987D01*
X138581013Y-119503038D01*
X138362359Y-119356939D01*
X138119405Y-119256304D01*
X137861486Y-119205000D01*
X137598514Y-119205000D01*
X137340595Y-119256304D01*
X137097641Y-119356939D01*
X136878987Y-119503038D01*
X136693038Y-119688987D01*
X136546939Y-119907641D01*
X136460000Y-120117530D01*
X136373061Y-119907641D01*
X136226962Y-119688987D01*
X136041013Y-119503038D01*
X135822359Y-119356939D01*
X135579405Y-119256304D01*
X135321486Y-119205000D01*
X135058514Y-119205000D01*
X134800595Y-119256304D01*
X134557641Y-119356939D01*
X134338987Y-119503038D01*
X134153038Y-119688987D01*
X134006939Y-119907641D01*
X133920000Y-120117530D01*
X133833061Y-119907641D01*
X133686962Y-119688987D01*
X133501013Y-119503038D01*
X133282359Y-119356939D01*
X133039405Y-119256304D01*
X132781486Y-119205000D01*
X132518514Y-119205000D01*
X132260595Y-119256304D01*
X132017641Y-119356939D01*
X131798987Y-119503038D01*
X131613038Y-119688987D01*
X131466939Y-119907641D01*
X131378379Y-120121444D01*
X131318935Y-119958634D01*
X131265037Y-119857797D01*
X131031269Y-119798336D01*
X130289605Y-120540000D01*
X129930395Y-120540000D01*
X129188731Y-119798336D01*
X128954963Y-119857797D01*
X128844066Y-120096242D01*
X128781817Y-120351740D01*
X128770610Y-120614473D01*
X125173894Y-120614473D01*
X125160000Y-120482288D01*
X125160000Y-119618731D01*
X129368336Y-119618731D01*
X130110000Y-120360395D01*
X130851664Y-119618731D01*
X130792203Y-119384963D01*
X130553758Y-119274066D01*
X130298260Y-119211817D01*
X130035527Y-119200610D01*
X129775656Y-119240875D01*
X129528634Y-119331065D01*
X129427797Y-119384963D01*
X129368336Y-119618731D01*
X125160000Y-119618731D01*
X125160000Y-118921269D01*
X130638336Y-118921269D01*
X130697797Y-119155037D01*
X130936242Y-119265934D01*
X131191740Y-119328183D01*
X131454473Y-119339390D01*
X131714344Y-119299125D01*
X131961366Y-119208935D01*
X132062203Y-119155037D01*
X132121664Y-118921269D01*
X131380000Y-118179605D01*
X130638336Y-118921269D01*
X125160000Y-118921269D01*
X125160000Y-118074473D01*
X130040610Y-118074473D01*
X130080875Y-118334344D01*
X130171065Y-118581366D01*
X130224963Y-118682203D01*
X130458731Y-118741664D01*
X131200395Y-118000000D01*
X131559605Y-118000000D01*
X132301269Y-118741664D01*
X132535037Y-118682203D01*
X132645934Y-118443758D01*
X132650706Y-118424173D01*
X132736939Y-118632359D01*
X132883038Y-118851013D01*
X133068987Y-119036962D01*
X133287641Y-119183061D01*
X133530595Y-119283696D01*
X133788514Y-119335000D01*
X134051486Y-119335000D01*
X134309405Y-119283696D01*
X134552359Y-119183061D01*
X134771013Y-119036962D01*
X134956962Y-118851013D01*
X135103061Y-118632359D01*
X135190000Y-118422470D01*
X135276939Y-118632359D01*
X135423038Y-118851013D01*
X135608987Y-119036962D01*
X135827641Y-119183061D01*
X136070595Y-119283696D01*
X136328514Y-119335000D01*
X136591486Y-119335000D01*
X136849405Y-119283696D01*
X137092359Y-119183061D01*
X137311013Y-119036962D01*
X137496962Y-118851013D01*
X137643061Y-118632359D01*
X137730000Y-118422470D01*
X137816939Y-118632359D01*
X137963038Y-118851013D01*
X138148987Y-119036962D01*
X138367641Y-119183061D01*
X138610595Y-119283696D01*
X138868514Y-119335000D01*
X139131486Y-119335000D01*
X139389405Y-119283696D01*
X139632359Y-119183061D01*
X139684740Y-119148061D01*
X166215000Y-119148061D01*
X166215000Y-119351939D01*
X166254774Y-119551898D01*
X166332795Y-119740256D01*
X166446063Y-119909774D01*
X166590226Y-120053937D01*
X166759744Y-120167205D01*
X166948102Y-120245226D01*
X167148061Y-120285000D01*
X167351939Y-120285000D01*
X167551898Y-120245226D01*
X167740256Y-120167205D01*
X167909774Y-120053937D01*
X168053937Y-119909774D01*
X168167205Y-119740256D01*
X168217542Y-119618731D01*
X168868336Y-119618731D01*
X169610000Y-120360395D01*
X170351664Y-119618731D01*
X170292203Y-119384963D01*
X170053758Y-119274066D01*
X169798260Y-119211817D01*
X169535527Y-119200610D01*
X169275656Y-119240875D01*
X169028634Y-119331065D01*
X168927797Y-119384963D01*
X168868336Y-119618731D01*
X168217542Y-119618731D01*
X168245226Y-119551898D01*
X168285000Y-119351939D01*
X168285000Y-119148061D01*
X168245226Y-118948102D01*
X168234112Y-118921269D01*
X170138336Y-118921269D01*
X170197797Y-119155037D01*
X170436242Y-119265934D01*
X170691740Y-119328183D01*
X170954473Y-119339390D01*
X171214344Y-119299125D01*
X171461366Y-119208935D01*
X171562203Y-119155037D01*
X171621664Y-118921269D01*
X170880000Y-118179605D01*
X170138336Y-118921269D01*
X168234112Y-118921269D01*
X168167205Y-118759744D01*
X168053937Y-118590226D01*
X167909774Y-118446063D01*
X167740256Y-118332795D01*
X167551898Y-118254774D01*
X167351939Y-118215000D01*
X167148061Y-118215000D01*
X166948102Y-118254774D01*
X166759744Y-118332795D01*
X166590226Y-118446063D01*
X166446063Y-118590226D01*
X166332795Y-118759744D01*
X166254774Y-118948102D01*
X166215000Y-119148061D01*
X139684740Y-119148061D01*
X139851013Y-119036962D01*
X140036962Y-118851013D01*
X140183061Y-118632359D01*
X140283696Y-118389405D01*
X140335000Y-118131486D01*
X140335000Y-118074473D01*
X169540610Y-118074473D01*
X169580875Y-118334344D01*
X169671065Y-118581366D01*
X169724963Y-118682203D01*
X169958731Y-118741664D01*
X170700395Y-118000000D01*
X171059605Y-118000000D01*
X171801269Y-118741664D01*
X172035037Y-118682203D01*
X172145934Y-118443758D01*
X172150706Y-118424173D01*
X172236939Y-118632359D01*
X172383038Y-118851013D01*
X172568987Y-119036962D01*
X172787641Y-119183061D01*
X173030595Y-119283696D01*
X173288514Y-119335000D01*
X173551486Y-119335000D01*
X173809405Y-119283696D01*
X174052359Y-119183061D01*
X174271013Y-119036962D01*
X174456962Y-118851013D01*
X174603061Y-118632359D01*
X174690000Y-118422470D01*
X174776939Y-118632359D01*
X174923038Y-118851013D01*
X175108987Y-119036962D01*
X175327641Y-119183061D01*
X175570595Y-119283696D01*
X175828514Y-119335000D01*
X176091486Y-119335000D01*
X176349405Y-119283696D01*
X176592359Y-119183061D01*
X176811013Y-119036962D01*
X176996962Y-118851013D01*
X177143061Y-118632359D01*
X177230000Y-118422470D01*
X177316939Y-118632359D01*
X177463038Y-118851013D01*
X177648987Y-119036962D01*
X177867641Y-119183061D01*
X178110595Y-119283696D01*
X178368514Y-119335000D01*
X178631486Y-119335000D01*
X178889405Y-119283696D01*
X179132359Y-119183061D01*
X179351013Y-119036962D01*
X179536962Y-118851013D01*
X179683061Y-118632359D01*
X179783696Y-118389405D01*
X179835000Y-118131486D01*
X179835000Y-117868514D01*
X179783696Y-117610595D01*
X179683061Y-117367641D01*
X179536962Y-117148987D01*
X179351013Y-116963038D01*
X179132359Y-116816939D01*
X178889405Y-116716304D01*
X178631486Y-116665000D01*
X178368514Y-116665000D01*
X178110595Y-116716304D01*
X177867641Y-116816939D01*
X177648987Y-116963038D01*
X177463038Y-117148987D01*
X177316939Y-117367641D01*
X177230000Y-117577530D01*
X177143061Y-117367641D01*
X176996962Y-117148987D01*
X176811013Y-116963038D01*
X176592359Y-116816939D01*
X176349405Y-116716304D01*
X176091486Y-116665000D01*
X175828514Y-116665000D01*
X175570595Y-116716304D01*
X175327641Y-116816939D01*
X175108987Y-116963038D01*
X174923038Y-117148987D01*
X174776939Y-117367641D01*
X174690000Y-117577530D01*
X174603061Y-117367641D01*
X174456962Y-117148987D01*
X174271013Y-116963038D01*
X174052359Y-116816939D01*
X173809405Y-116716304D01*
X173551486Y-116665000D01*
X173288514Y-116665000D01*
X173030595Y-116716304D01*
X172787641Y-116816939D01*
X172568987Y-116963038D01*
X172383038Y-117148987D01*
X172236939Y-117367641D01*
X172148379Y-117581444D01*
X172088935Y-117418634D01*
X172035037Y-117317797D01*
X171801269Y-117258336D01*
X171059605Y-118000000D01*
X170700395Y-118000000D01*
X169958731Y-117258336D01*
X169724963Y-117317797D01*
X169614066Y-117556242D01*
X169551817Y-117811740D01*
X169540610Y-118074473D01*
X140335000Y-118074473D01*
X140335000Y-117868514D01*
X140283696Y-117610595D01*
X140183061Y-117367641D01*
X140036962Y-117148987D01*
X139966706Y-117078731D01*
X170138336Y-117078731D01*
X170880000Y-117820395D01*
X171621664Y-117078731D01*
X171562203Y-116844963D01*
X171323758Y-116734066D01*
X171068260Y-116671817D01*
X170805527Y-116660610D01*
X170545656Y-116700875D01*
X170298634Y-116791065D01*
X170197797Y-116844963D01*
X170138336Y-117078731D01*
X139966706Y-117078731D01*
X139851013Y-116963038D01*
X139632359Y-116816939D01*
X139389405Y-116716304D01*
X139131486Y-116665000D01*
X138868514Y-116665000D01*
X138610595Y-116716304D01*
X138367641Y-116816939D01*
X138148987Y-116963038D01*
X137963038Y-117148987D01*
X137816939Y-117367641D01*
X137730000Y-117577530D01*
X137643061Y-117367641D01*
X137496962Y-117148987D01*
X137311013Y-116963038D01*
X137092359Y-116816939D01*
X136849405Y-116716304D01*
X136591486Y-116665000D01*
X136328514Y-116665000D01*
X136070595Y-116716304D01*
X135827641Y-116816939D01*
X135608987Y-116963038D01*
X135423038Y-117148987D01*
X135276939Y-117367641D01*
X135190000Y-117577530D01*
X135103061Y-117367641D01*
X134956962Y-117148987D01*
X134771013Y-116963038D01*
X134552359Y-116816939D01*
X134309405Y-116716304D01*
X134051486Y-116665000D01*
X133788514Y-116665000D01*
X133530595Y-116716304D01*
X133287641Y-116816939D01*
X133068987Y-116963038D01*
X132883038Y-117148987D01*
X132736939Y-117367641D01*
X132648379Y-117581444D01*
X132588935Y-117418634D01*
X132535037Y-117317797D01*
X132301269Y-117258336D01*
X131559605Y-118000000D01*
X131200395Y-118000000D01*
X130458731Y-117258336D01*
X130224963Y-117317797D01*
X130114066Y-117556242D01*
X130051817Y-117811740D01*
X130040610Y-118074473D01*
X125160000Y-118074473D01*
X125160000Y-117078731D01*
X130638336Y-117078731D01*
X131380000Y-117820395D01*
X132121664Y-117078731D01*
X132062203Y-116844963D01*
X131823758Y-116734066D01*
X131568260Y-116671817D01*
X131305527Y-116660610D01*
X131045656Y-116700875D01*
X130798634Y-116791065D01*
X130697797Y-116844963D01*
X130638336Y-117078731D01*
X125160000Y-117078731D01*
X125160000Y-115728072D01*
X125254662Y-115869744D01*
X125510256Y-116125338D01*
X125810801Y-116326156D01*
X126144750Y-116464482D01*
X126499268Y-116535000D01*
X126860732Y-116535000D01*
X127215250Y-116464482D01*
X127549199Y-116326156D01*
X127849744Y-116125338D01*
X128105338Y-115869744D01*
X128306156Y-115569199D01*
X128444482Y-115235250D01*
X128515000Y-114880732D01*
X128515000Y-114519268D01*
X128444482Y-114164750D01*
X128306156Y-113830801D01*
X128288050Y-113803703D01*
X128621349Y-113870000D01*
X129058651Y-113870000D01*
X129487550Y-113784687D01*
X129891564Y-113617339D01*
X130255168Y-113374387D01*
X130564387Y-113065168D01*
X130807339Y-112701564D01*
X130974687Y-112297550D01*
X131060000Y-111868651D01*
X131060000Y-111431349D01*
X138050000Y-111431349D01*
X138050000Y-111868651D01*
X138135313Y-112297550D01*
X138302661Y-112701564D01*
X138545613Y-113065168D01*
X138854832Y-113374387D01*
X139218436Y-113617339D01*
X139622450Y-113784687D01*
X140051349Y-113870000D01*
X140488651Y-113870000D01*
X140821950Y-113803703D01*
X140803844Y-113830801D01*
X140665518Y-114164750D01*
X140595000Y-114519268D01*
X140595000Y-114880732D01*
X140665518Y-115235250D01*
X140803844Y-115569199D01*
X141004662Y-115869744D01*
X141260256Y-116125338D01*
X141560801Y-116326156D01*
X141894750Y-116464482D01*
X142249268Y-116535000D01*
X142610732Y-116535000D01*
X142965250Y-116464482D01*
X143299199Y-116326156D01*
X143599744Y-116125338D01*
X143855338Y-115869744D01*
X144056156Y-115569199D01*
X144194482Y-115235250D01*
X144265000Y-114880732D01*
X144265000Y-114519268D01*
X144194482Y-114164750D01*
X144187570Y-114148061D01*
X160965000Y-114148061D01*
X160965000Y-114351939D01*
X161004774Y-114551898D01*
X161082795Y-114740256D01*
X161196063Y-114909774D01*
X161340226Y-115053937D01*
X161509744Y-115167205D01*
X161698102Y-115245226D01*
X161898061Y-115285000D01*
X162101939Y-115285000D01*
X162301898Y-115245226D01*
X162490256Y-115167205D01*
X162659774Y-115053937D01*
X162803937Y-114909774D01*
X162917205Y-114740256D01*
X162995226Y-114551898D01*
X163001716Y-114519268D01*
X164345000Y-114519268D01*
X164345000Y-114880732D01*
X164415518Y-115235250D01*
X164553844Y-115569199D01*
X164754662Y-115869744D01*
X165010256Y-116125338D01*
X165310801Y-116326156D01*
X165644750Y-116464482D01*
X165999268Y-116535000D01*
X166360732Y-116535000D01*
X166715250Y-116464482D01*
X167049199Y-116326156D01*
X167349744Y-116125338D01*
X167605338Y-115869744D01*
X167806156Y-115569199D01*
X167944482Y-115235250D01*
X168015000Y-114880732D01*
X168015000Y-114519268D01*
X167944482Y-114164750D01*
X167806156Y-113830801D01*
X167788050Y-113803703D01*
X168121349Y-113870000D01*
X168558651Y-113870000D01*
X168987550Y-113784687D01*
X169391564Y-113617339D01*
X169755168Y-113374387D01*
X170064387Y-113065168D01*
X170307339Y-112701564D01*
X170474687Y-112297550D01*
X170560000Y-111868651D01*
X170560000Y-111431349D01*
X177550000Y-111431349D01*
X177550000Y-111868651D01*
X177635313Y-112297550D01*
X177802661Y-112701564D01*
X178045613Y-113065168D01*
X178354832Y-113374387D01*
X178718436Y-113617339D01*
X179122450Y-113784687D01*
X179551349Y-113870000D01*
X179988651Y-113870000D01*
X180321950Y-113803703D01*
X180303844Y-113830801D01*
X180165518Y-114164750D01*
X180095000Y-114519268D01*
X180095000Y-114880732D01*
X180165518Y-115235250D01*
X180303844Y-115569199D01*
X180504662Y-115869744D01*
X180760256Y-116125338D01*
X181060801Y-116326156D01*
X181394750Y-116464482D01*
X181749268Y-116535000D01*
X182110732Y-116535000D01*
X182465250Y-116464482D01*
X182799199Y-116326156D01*
X183099744Y-116125338D01*
X183355338Y-115869744D01*
X183556156Y-115569199D01*
X183694482Y-115235250D01*
X183765000Y-114880732D01*
X183765000Y-114519268D01*
X183694482Y-114164750D01*
X183556156Y-113830801D01*
X183355338Y-113530256D01*
X183099744Y-113274662D01*
X182799199Y-113073844D01*
X182465250Y-112935518D01*
X182110732Y-112865000D01*
X181749268Y-112865000D01*
X181609567Y-112892788D01*
X181737339Y-112701564D01*
X181904687Y-112297550D01*
X181990000Y-111868651D01*
X181990000Y-111431349D01*
X181904687Y-111002450D01*
X181737339Y-110598436D01*
X181494387Y-110234832D01*
X181185168Y-109925613D01*
X180821564Y-109682661D01*
X180417550Y-109515313D01*
X179988651Y-109430000D01*
X179551349Y-109430000D01*
X179122450Y-109515313D01*
X178718436Y-109682661D01*
X178354832Y-109925613D01*
X178045613Y-110234832D01*
X177802661Y-110598436D01*
X177635313Y-111002450D01*
X177550000Y-111431349D01*
X170560000Y-111431349D01*
X170474687Y-111002450D01*
X170307339Y-110598436D01*
X170064387Y-110234832D01*
X169755168Y-109925613D01*
X169391564Y-109682661D01*
X168987550Y-109515313D01*
X168558651Y-109430000D01*
X168121349Y-109430000D01*
X167692450Y-109515313D01*
X167288436Y-109682661D01*
X166924832Y-109925613D01*
X166615613Y-110234832D01*
X166372661Y-110598436D01*
X166205313Y-111002450D01*
X166120000Y-111431349D01*
X166120000Y-111868651D01*
X166205313Y-112297550D01*
X166372661Y-112701564D01*
X166500433Y-112892788D01*
X166360732Y-112865000D01*
X165999268Y-112865000D01*
X165644750Y-112935518D01*
X165310801Y-113073844D01*
X165010256Y-113274662D01*
X164754662Y-113530256D01*
X164553844Y-113830801D01*
X164415518Y-114164750D01*
X164345000Y-114519268D01*
X163001716Y-114519268D01*
X163035000Y-114351939D01*
X163035000Y-114148061D01*
X162995226Y-113948102D01*
X162917205Y-113759744D01*
X162803937Y-113590226D01*
X162659774Y-113446063D01*
X162490256Y-113332795D01*
X162301898Y-113254774D01*
X162101939Y-113215000D01*
X161898061Y-113215000D01*
X161698102Y-113254774D01*
X161509744Y-113332795D01*
X161340226Y-113446063D01*
X161196063Y-113590226D01*
X161082795Y-113759744D01*
X161004774Y-113948102D01*
X160965000Y-114148061D01*
X144187570Y-114148061D01*
X144056156Y-113830801D01*
X143855338Y-113530256D01*
X143599744Y-113274662D01*
X143299199Y-113073844D01*
X142965250Y-112935518D01*
X142610732Y-112865000D01*
X142249268Y-112865000D01*
X142109567Y-112892788D01*
X142237339Y-112701564D01*
X142404687Y-112297550D01*
X142490000Y-111868651D01*
X142490000Y-111431349D01*
X142404687Y-111002450D01*
X142237339Y-110598436D01*
X141994387Y-110234832D01*
X141685168Y-109925613D01*
X141321564Y-109682661D01*
X140917550Y-109515313D01*
X140488651Y-109430000D01*
X140051349Y-109430000D01*
X139622450Y-109515313D01*
X139218436Y-109682661D01*
X138854832Y-109925613D01*
X138545613Y-110234832D01*
X138302661Y-110598436D01*
X138135313Y-111002450D01*
X138050000Y-111431349D01*
X131060000Y-111431349D01*
X130974687Y-111002450D01*
X130807339Y-110598436D01*
X130564387Y-110234832D01*
X130255168Y-109925613D01*
X129891564Y-109682661D01*
X129487550Y-109515313D01*
X129058651Y-109430000D01*
X128621349Y-109430000D01*
X128192450Y-109515313D01*
X127788436Y-109682661D01*
X127424832Y-109925613D01*
X127115613Y-110234832D01*
X126872661Y-110598436D01*
X126705313Y-111002450D01*
X126620000Y-111431349D01*
X126620000Y-111868651D01*
X126705313Y-112297550D01*
X126872661Y-112701564D01*
X127000433Y-112892788D01*
X126860732Y-112865000D01*
X126499268Y-112865000D01*
X126144750Y-112935518D01*
X125810801Y-113073844D01*
X125510256Y-113274662D01*
X125254662Y-113530256D01*
X125160000Y-113671928D01*
X125160000Y-89050000D01*
X128811928Y-89050000D01*
X128824188Y-89174482D01*
X128860498Y-89294180D01*
X128919463Y-89404494D01*
X128998815Y-89501185D01*
X129095506Y-89580537D01*
X129109546Y-89588042D01*
X129006772Y-89741853D01*
X128879754Y-90048504D01*
X128815000Y-90374042D01*
X128815000Y-90705958D01*
X128879754Y-91031496D01*
X129006772Y-91338147D01*
X129191175Y-91614125D01*
X129387050Y-91810000D01*
X129191175Y-92005875D01*
X129006772Y-92281853D01*
X128879754Y-92588504D01*
X128815000Y-92914042D01*
X128815000Y-93245958D01*
X128879754Y-93571496D01*
X129006772Y-93878147D01*
X129191175Y-94154125D01*
X129387050Y-94350000D01*
X129191175Y-94545875D01*
X129006772Y-94821853D01*
X128879754Y-95128504D01*
X128815000Y-95454042D01*
X128815000Y-95785958D01*
X128879754Y-96111496D01*
X129006772Y-96418147D01*
X129191175Y-96694125D01*
X129387050Y-96890000D01*
X129191175Y-97085875D01*
X129006772Y-97361853D01*
X128879754Y-97668504D01*
X128815000Y-97994042D01*
X128815000Y-98325958D01*
X128879754Y-98651496D01*
X129006772Y-98958147D01*
X129191175Y-99234125D01*
X129387050Y-99430000D01*
X129191175Y-99625875D01*
X129006772Y-99901853D01*
X128879754Y-100208504D01*
X128815000Y-100534042D01*
X128815000Y-100865958D01*
X128879754Y-101191496D01*
X129006772Y-101498147D01*
X129191175Y-101774125D01*
X129425875Y-102008825D01*
X129701853Y-102193228D01*
X130008504Y-102320246D01*
X130334042Y-102385000D01*
X130665958Y-102385000D01*
X130991496Y-102320246D01*
X131298147Y-102193228D01*
X131574125Y-102008825D01*
X131808825Y-101774125D01*
X131870361Y-101682029D01*
X138785500Y-101682029D01*
X138785500Y-102279971D01*
X138902153Y-102866423D01*
X139130975Y-103418848D01*
X139463174Y-103916018D01*
X139885982Y-104338826D01*
X140383152Y-104671025D01*
X140935577Y-104899847D01*
X141522029Y-105016500D01*
X142119971Y-105016500D01*
X142706423Y-104899847D01*
X143258848Y-104671025D01*
X143756018Y-104338826D01*
X144178826Y-103916018D01*
X144511025Y-103418848D01*
X144739847Y-102866423D01*
X144856500Y-102279971D01*
X144856500Y-102050760D01*
X147397631Y-102050760D01*
X147439282Y-102334128D01*
X147535415Y-102603926D01*
X147604823Y-102733779D01*
X147850732Y-102807663D01*
X148677395Y-101981000D01*
X147850732Y-101154337D01*
X147604823Y-101228221D01*
X147482023Y-101486973D01*
X147412063Y-101764711D01*
X147397631Y-102050760D01*
X144856500Y-102050760D01*
X144856500Y-101682029D01*
X144739847Y-101095577D01*
X144689792Y-100974732D01*
X148030337Y-100974732D01*
X148857000Y-101801395D01*
X148871143Y-101787253D01*
X149050748Y-101966858D01*
X149036605Y-101981000D01*
X149050748Y-101995143D01*
X148871143Y-102174748D01*
X148857000Y-102160605D01*
X148030337Y-102987268D01*
X148104221Y-103233177D01*
X148362973Y-103355977D01*
X148640711Y-103425937D01*
X148648093Y-103426309D01*
X148601877Y-103537884D01*
X148546000Y-103818794D01*
X148546000Y-104105206D01*
X148601877Y-104386116D01*
X148711482Y-104650727D01*
X148870605Y-104888871D01*
X149073129Y-105091395D01*
X149311273Y-105250518D01*
X149575884Y-105360123D01*
X149856794Y-105416000D01*
X150143206Y-105416000D01*
X150424116Y-105360123D01*
X150688727Y-105250518D01*
X150926871Y-105091395D01*
X151129395Y-104888871D01*
X151143000Y-104868510D01*
X151156605Y-104888871D01*
X151359129Y-105091395D01*
X151597273Y-105250518D01*
X151861884Y-105360123D01*
X152142794Y-105416000D01*
X152429206Y-105416000D01*
X152710116Y-105360123D01*
X152974727Y-105250518D01*
X153212871Y-105091395D01*
X153415395Y-104888871D01*
X153429000Y-104868510D01*
X153442605Y-104888871D01*
X153645129Y-105091395D01*
X153883273Y-105250518D01*
X154147884Y-105360123D01*
X154428794Y-105416000D01*
X154715206Y-105416000D01*
X154996116Y-105360123D01*
X155260727Y-105250518D01*
X155498871Y-105091395D01*
X155701395Y-104888871D01*
X155715000Y-104868510D01*
X155728605Y-104888871D01*
X155931129Y-105091395D01*
X156169273Y-105250518D01*
X156433884Y-105360123D01*
X156714794Y-105416000D01*
X157001206Y-105416000D01*
X157282116Y-105360123D01*
X157546727Y-105250518D01*
X157784871Y-105091395D01*
X157987395Y-104888871D01*
X158001000Y-104868510D01*
X158014605Y-104888871D01*
X158217129Y-105091395D01*
X158455273Y-105250518D01*
X158719884Y-105360123D01*
X159000794Y-105416000D01*
X159287206Y-105416000D01*
X159568116Y-105360123D01*
X159832727Y-105250518D01*
X160070871Y-105091395D01*
X160273395Y-104888871D01*
X160432518Y-104650727D01*
X160542123Y-104386116D01*
X160598000Y-104105206D01*
X160598000Y-103818794D01*
X160542123Y-103537884D01*
X160432518Y-103273273D01*
X160273395Y-103035129D01*
X160070871Y-102832605D01*
X159832727Y-102673482D01*
X159568116Y-102563877D01*
X159351232Y-102520736D01*
X159399123Y-102405116D01*
X159455000Y-102124206D01*
X159455000Y-101837794D01*
X159424017Y-101682029D01*
X163779500Y-101682029D01*
X163779500Y-102279971D01*
X163896153Y-102866423D01*
X164124975Y-103418848D01*
X164457174Y-103916018D01*
X164879982Y-104338826D01*
X165377152Y-104671025D01*
X165929577Y-104899847D01*
X166516029Y-105016500D01*
X167113971Y-105016500D01*
X167700423Y-104899847D01*
X168252848Y-104671025D01*
X168750018Y-104338826D01*
X169172826Y-103916018D01*
X169505025Y-103418848D01*
X169733847Y-102866423D01*
X169850500Y-102279971D01*
X169850500Y-101682029D01*
X169733847Y-101095577D01*
X169505025Y-100543152D01*
X169172826Y-100045982D01*
X168750018Y-99623174D01*
X168252848Y-99290975D01*
X167700423Y-99062153D01*
X167113971Y-98945500D01*
X166516029Y-98945500D01*
X165929577Y-99062153D01*
X165377152Y-99290975D01*
X164879982Y-99623174D01*
X164457174Y-100045982D01*
X164124975Y-100543152D01*
X163896153Y-101095577D01*
X163779500Y-101682029D01*
X159424017Y-101682029D01*
X159399123Y-101556884D01*
X159351232Y-101441264D01*
X159568116Y-101398123D01*
X159832727Y-101288518D01*
X160070871Y-101129395D01*
X160273395Y-100926871D01*
X160432518Y-100688727D01*
X160542123Y-100424116D01*
X160598000Y-100143206D01*
X160598000Y-99856794D01*
X160542123Y-99575884D01*
X160432518Y-99311273D01*
X160273395Y-99073129D01*
X160070871Y-98870605D01*
X159832727Y-98711482D01*
X159568116Y-98601877D01*
X159287206Y-98546000D01*
X159000794Y-98546000D01*
X158719884Y-98601877D01*
X158455273Y-98711482D01*
X158217129Y-98870605D01*
X158014605Y-99073129D01*
X158001000Y-99093490D01*
X157987395Y-99073129D01*
X157784871Y-98870605D01*
X157546727Y-98711482D01*
X157282116Y-98601877D01*
X157001206Y-98546000D01*
X156714794Y-98546000D01*
X156433884Y-98601877D01*
X156169273Y-98711482D01*
X155931129Y-98870605D01*
X155728605Y-99073129D01*
X155715000Y-99093490D01*
X155701395Y-99073129D01*
X155498871Y-98870605D01*
X155260727Y-98711482D01*
X154996116Y-98601877D01*
X154715206Y-98546000D01*
X154428794Y-98546000D01*
X154147884Y-98601877D01*
X153883273Y-98711482D01*
X153645129Y-98870605D01*
X153442605Y-99073129D01*
X153429000Y-99093490D01*
X153415395Y-99073129D01*
X153212871Y-98870605D01*
X152974727Y-98711482D01*
X152710116Y-98601877D01*
X152429206Y-98546000D01*
X152142794Y-98546000D01*
X151861884Y-98601877D01*
X151597273Y-98711482D01*
X151359129Y-98870605D01*
X151156605Y-99073129D01*
X151075708Y-99194200D01*
X151006268Y-99173337D01*
X150179605Y-100000000D01*
X150193748Y-100014143D01*
X150014143Y-100193748D01*
X150000000Y-100179605D01*
X149985858Y-100193748D01*
X149806253Y-100014143D01*
X149820395Y-100000000D01*
X148993732Y-99173337D01*
X148747823Y-99247221D01*
X148625023Y-99505973D01*
X148555063Y-99783711D01*
X148540631Y-100069760D01*
X148582282Y-100353128D01*
X148649534Y-100541872D01*
X148503872Y-100563282D01*
X148234074Y-100659415D01*
X148104221Y-100728823D01*
X148030337Y-100974732D01*
X144689792Y-100974732D01*
X144511025Y-100543152D01*
X144178826Y-100045982D01*
X143756018Y-99623174D01*
X143258848Y-99290975D01*
X142706423Y-99062153D01*
X142362449Y-98993732D01*
X149173337Y-98993732D01*
X150000000Y-99820395D01*
X150826663Y-98993732D01*
X150752779Y-98747823D01*
X150494027Y-98625023D01*
X150216289Y-98555063D01*
X149930240Y-98540631D01*
X149646872Y-98582282D01*
X149377074Y-98678415D01*
X149247221Y-98747823D01*
X149173337Y-98993732D01*
X142362449Y-98993732D01*
X142119971Y-98945500D01*
X141522029Y-98945500D01*
X140935577Y-99062153D01*
X140383152Y-99290975D01*
X139885982Y-99623174D01*
X139463174Y-100045982D01*
X139130975Y-100543152D01*
X138902153Y-101095577D01*
X138785500Y-101682029D01*
X131870361Y-101682029D01*
X131993228Y-101498147D01*
X132120246Y-101191496D01*
X132185000Y-100865958D01*
X132185000Y-100534042D01*
X132120246Y-100208504D01*
X131993228Y-99901853D01*
X131808825Y-99625875D01*
X131612950Y-99430000D01*
X131808825Y-99234125D01*
X131993228Y-98958147D01*
X132120246Y-98651496D01*
X132185000Y-98325958D01*
X132185000Y-97994042D01*
X132120246Y-97668504D01*
X131993228Y-97361853D01*
X131808825Y-97085875D01*
X131612950Y-96890000D01*
X131808825Y-96694125D01*
X131993228Y-96418147D01*
X132120246Y-96111496D01*
X132185000Y-95785958D01*
X132185000Y-95454042D01*
X132120246Y-95128504D01*
X131993228Y-94821853D01*
X131808825Y-94545875D01*
X131612950Y-94350000D01*
X131808825Y-94154125D01*
X131993228Y-93878147D01*
X132120246Y-93571496D01*
X132185000Y-93245958D01*
X132185000Y-92914042D01*
X132120246Y-92588504D01*
X131993228Y-92281853D01*
X131808825Y-92005875D01*
X131612950Y-91810000D01*
X131808825Y-91614125D01*
X131993228Y-91338147D01*
X132120246Y-91031496D01*
X132185000Y-90705958D01*
X132185000Y-90374042D01*
X132120246Y-90048504D01*
X131993228Y-89741853D01*
X131890454Y-89588042D01*
X131904494Y-89580537D01*
X132001185Y-89501185D01*
X132080537Y-89404494D01*
X132139502Y-89294180D01*
X132175812Y-89174482D01*
X132188072Y-89050000D01*
X132185000Y-88285750D01*
X132026250Y-88127000D01*
X130627000Y-88127000D01*
X130627000Y-88147000D01*
X130373000Y-88147000D01*
X130373000Y-88127000D01*
X128973750Y-88127000D01*
X128815000Y-88285750D01*
X128811928Y-89050000D01*
X125160000Y-89050000D01*
X125160000Y-86950000D01*
X128811928Y-86950000D01*
X128815000Y-87714250D01*
X128973750Y-87873000D01*
X130373000Y-87873000D01*
X130373000Y-86473750D01*
X130627000Y-86473750D01*
X130627000Y-87873000D01*
X132026250Y-87873000D01*
X132185000Y-87714250D01*
X132187391Y-87119268D01*
X134735000Y-87119268D01*
X134735000Y-87480732D01*
X134805518Y-87835250D01*
X134943844Y-88169199D01*
X135144662Y-88469744D01*
X135400256Y-88725338D01*
X135700801Y-88926156D01*
X136034750Y-89064482D01*
X136389268Y-89135000D01*
X136750732Y-89135000D01*
X136890433Y-89107212D01*
X136762661Y-89298436D01*
X136595313Y-89702450D01*
X136510000Y-90131349D01*
X136510000Y-90568651D01*
X136595313Y-90997550D01*
X136762661Y-91401564D01*
X137005613Y-91765168D01*
X137314832Y-92074387D01*
X137678436Y-92317339D01*
X138082450Y-92484687D01*
X138511349Y-92570000D01*
X138948651Y-92570000D01*
X139377550Y-92484687D01*
X139781564Y-92317339D01*
X140145168Y-92074387D01*
X140454387Y-91765168D01*
X140697339Y-91401564D01*
X140864687Y-90997550D01*
X140950000Y-90568651D01*
X140950000Y-90131349D01*
X147940000Y-90131349D01*
X147940000Y-90568651D01*
X148025313Y-90997550D01*
X148192661Y-91401564D01*
X148435613Y-91765168D01*
X148744832Y-92074387D01*
X149108436Y-92317339D01*
X149512450Y-92484687D01*
X149941349Y-92570000D01*
X150378651Y-92570000D01*
X150807550Y-92484687D01*
X151211564Y-92317339D01*
X151575168Y-92074387D01*
X151884387Y-91765168D01*
X152127339Y-91401564D01*
X152294687Y-90997550D01*
X152380000Y-90568651D01*
X152380000Y-90131349D01*
X152294687Y-89702450D01*
X152127339Y-89298436D01*
X151999567Y-89107212D01*
X152139268Y-89135000D01*
X152500732Y-89135000D01*
X152855250Y-89064482D01*
X153189199Y-88926156D01*
X153489744Y-88725338D01*
X153745338Y-88469744D01*
X153946156Y-88169199D01*
X154084482Y-87835250D01*
X154155000Y-87480732D01*
X154155000Y-87119268D01*
X155235000Y-87119268D01*
X155235000Y-87480732D01*
X155305518Y-87835250D01*
X155443844Y-88169199D01*
X155644662Y-88469744D01*
X155900256Y-88725338D01*
X156200801Y-88926156D01*
X156534750Y-89064482D01*
X156889268Y-89135000D01*
X157250732Y-89135000D01*
X157390433Y-89107212D01*
X157262661Y-89298436D01*
X157095313Y-89702450D01*
X157010000Y-90131349D01*
X157010000Y-90568651D01*
X157095313Y-90997550D01*
X157262661Y-91401564D01*
X157505613Y-91765168D01*
X157814832Y-92074387D01*
X158178436Y-92317339D01*
X158582450Y-92484687D01*
X159011349Y-92570000D01*
X159448651Y-92570000D01*
X159877550Y-92484687D01*
X160281564Y-92317339D01*
X160645168Y-92074387D01*
X160954387Y-91765168D01*
X161197339Y-91401564D01*
X161364687Y-90997550D01*
X161450000Y-90568651D01*
X161450000Y-90131349D01*
X168440000Y-90131349D01*
X168440000Y-90568651D01*
X168525313Y-90997550D01*
X168692661Y-91401564D01*
X168935613Y-91765168D01*
X169244832Y-92074387D01*
X169608436Y-92317339D01*
X170012450Y-92484687D01*
X170441349Y-92570000D01*
X170878651Y-92570000D01*
X171307550Y-92484687D01*
X171711564Y-92317339D01*
X172075168Y-92074387D01*
X172384387Y-91765168D01*
X172627339Y-91401564D01*
X172794687Y-90997550D01*
X172880000Y-90568651D01*
X172880000Y-90131349D01*
X172794687Y-89702450D01*
X172627339Y-89298436D01*
X172526862Y-89148061D01*
X175465000Y-89148061D01*
X175465000Y-89351939D01*
X175504774Y-89551898D01*
X175582795Y-89740256D01*
X175696063Y-89909774D01*
X175840226Y-90053937D01*
X176009744Y-90167205D01*
X176198102Y-90245226D01*
X176398061Y-90285000D01*
X176601939Y-90285000D01*
X176801898Y-90245226D01*
X176844100Y-90227745D01*
X176815000Y-90374042D01*
X176815000Y-90705958D01*
X176879754Y-91031496D01*
X177006772Y-91338147D01*
X177191175Y-91614125D01*
X177387050Y-91810000D01*
X177191175Y-92005875D01*
X177006772Y-92281853D01*
X176879754Y-92588504D01*
X176815000Y-92914042D01*
X176815000Y-93245958D01*
X176879754Y-93571496D01*
X177006772Y-93878147D01*
X177191175Y-94154125D01*
X177387050Y-94350000D01*
X177191175Y-94545875D01*
X177006772Y-94821853D01*
X176879754Y-95128504D01*
X176815000Y-95454042D01*
X176815000Y-95785958D01*
X176879754Y-96111496D01*
X177006772Y-96418147D01*
X177191175Y-96694125D01*
X177387050Y-96890000D01*
X177191175Y-97085875D01*
X177006772Y-97361853D01*
X176879754Y-97668504D01*
X176815000Y-97994042D01*
X176815000Y-98325958D01*
X176879754Y-98651496D01*
X177006772Y-98958147D01*
X177191175Y-99234125D01*
X177387050Y-99430000D01*
X177191175Y-99625875D01*
X177006772Y-99901853D01*
X176879754Y-100208504D01*
X176815000Y-100534042D01*
X176815000Y-100865958D01*
X176879754Y-101191496D01*
X177006772Y-101498147D01*
X177191175Y-101774125D01*
X177425875Y-102008825D01*
X177701853Y-102193228D01*
X178008504Y-102320246D01*
X178334042Y-102385000D01*
X178665958Y-102385000D01*
X178991496Y-102320246D01*
X179298147Y-102193228D01*
X179574125Y-102008825D01*
X179808825Y-101774125D01*
X179993228Y-101498147D01*
X180120246Y-101191496D01*
X180185000Y-100865958D01*
X180185000Y-100534042D01*
X180120246Y-100208504D01*
X179993228Y-99901853D01*
X179808825Y-99625875D01*
X179612950Y-99430000D01*
X179808825Y-99234125D01*
X179993228Y-98958147D01*
X180120246Y-98651496D01*
X180185000Y-98325958D01*
X180185000Y-97994042D01*
X180120246Y-97668504D01*
X179993228Y-97361853D01*
X179808825Y-97085875D01*
X179612950Y-96890000D01*
X179808825Y-96694125D01*
X179993228Y-96418147D01*
X180120246Y-96111496D01*
X180185000Y-95785958D01*
X180185000Y-95454042D01*
X180120246Y-95128504D01*
X179993228Y-94821853D01*
X179808825Y-94545875D01*
X179612950Y-94350000D01*
X179808825Y-94154125D01*
X179993228Y-93878147D01*
X180120246Y-93571496D01*
X180185000Y-93245958D01*
X180185000Y-92914042D01*
X180120246Y-92588504D01*
X179993228Y-92281853D01*
X179808825Y-92005875D01*
X179612950Y-91810000D01*
X179808825Y-91614125D01*
X179993228Y-91338147D01*
X180120246Y-91031496D01*
X180185000Y-90705958D01*
X180185000Y-90374042D01*
X180120246Y-90048504D01*
X179993228Y-89741853D01*
X179890454Y-89588042D01*
X179904494Y-89580537D01*
X180001185Y-89501185D01*
X180080537Y-89404494D01*
X180139502Y-89294180D01*
X180175812Y-89174482D01*
X180188072Y-89050000D01*
X180185000Y-88285750D01*
X180026250Y-88127000D01*
X178627000Y-88127000D01*
X178627000Y-88147000D01*
X178373000Y-88147000D01*
X178373000Y-88127000D01*
X176973750Y-88127000D01*
X176833066Y-88267684D01*
X176801898Y-88254774D01*
X176601939Y-88215000D01*
X176398061Y-88215000D01*
X176198102Y-88254774D01*
X176009744Y-88332795D01*
X175840226Y-88446063D01*
X175696063Y-88590226D01*
X175582795Y-88759744D01*
X175504774Y-88948102D01*
X175465000Y-89148061D01*
X172526862Y-89148061D01*
X172499567Y-89107212D01*
X172639268Y-89135000D01*
X173000732Y-89135000D01*
X173355250Y-89064482D01*
X173689199Y-88926156D01*
X173989744Y-88725338D01*
X174245338Y-88469744D01*
X174446156Y-88169199D01*
X174584482Y-87835250D01*
X174655000Y-87480732D01*
X174655000Y-87119268D01*
X174621331Y-86950000D01*
X176811928Y-86950000D01*
X176815000Y-87714250D01*
X176973750Y-87873000D01*
X178373000Y-87873000D01*
X178373000Y-86473750D01*
X178627000Y-86473750D01*
X178627000Y-87873000D01*
X180026250Y-87873000D01*
X180185000Y-87714250D01*
X180188072Y-86950000D01*
X180175812Y-86825518D01*
X180139502Y-86705820D01*
X180080537Y-86595506D01*
X180001185Y-86498815D01*
X179904494Y-86419463D01*
X179794180Y-86360498D01*
X179674482Y-86324188D01*
X179550000Y-86311928D01*
X178785750Y-86315000D01*
X178627000Y-86473750D01*
X178373000Y-86473750D01*
X178214250Y-86315000D01*
X177450000Y-86311928D01*
X177325518Y-86324188D01*
X177205820Y-86360498D01*
X177095506Y-86419463D01*
X176998815Y-86498815D01*
X176919463Y-86595506D01*
X176860498Y-86705820D01*
X176824188Y-86825518D01*
X176811928Y-86950000D01*
X174621331Y-86950000D01*
X174584482Y-86764750D01*
X174446156Y-86430801D01*
X174245338Y-86130256D01*
X173989744Y-85874662D01*
X173689199Y-85673844D01*
X173355250Y-85535518D01*
X173000732Y-85465000D01*
X172639268Y-85465000D01*
X172284750Y-85535518D01*
X171950801Y-85673844D01*
X171650256Y-85874662D01*
X171394662Y-86130256D01*
X171193844Y-86430801D01*
X171055518Y-86764750D01*
X170985000Y-87119268D01*
X170985000Y-87480732D01*
X171055518Y-87835250D01*
X171193844Y-88169199D01*
X171211950Y-88196297D01*
X170878651Y-88130000D01*
X170441349Y-88130000D01*
X170012450Y-88215313D01*
X169608436Y-88382661D01*
X169244832Y-88625613D01*
X168935613Y-88934832D01*
X168692661Y-89298436D01*
X168525313Y-89702450D01*
X168440000Y-90131349D01*
X161450000Y-90131349D01*
X161364687Y-89702450D01*
X161197339Y-89298436D01*
X160954387Y-88934832D01*
X160645168Y-88625613D01*
X160281564Y-88382661D01*
X159877550Y-88215313D01*
X159448651Y-88130000D01*
X159011349Y-88130000D01*
X158678050Y-88196297D01*
X158696156Y-88169199D01*
X158834482Y-87835250D01*
X158905000Y-87480732D01*
X158905000Y-87119268D01*
X158834482Y-86764750D01*
X158696156Y-86430801D01*
X158495338Y-86130256D01*
X158239744Y-85874662D01*
X157939199Y-85673844D01*
X157605250Y-85535518D01*
X157250732Y-85465000D01*
X156889268Y-85465000D01*
X156534750Y-85535518D01*
X156200801Y-85673844D01*
X155900256Y-85874662D01*
X155644662Y-86130256D01*
X155443844Y-86430801D01*
X155305518Y-86764750D01*
X155235000Y-87119268D01*
X154155000Y-87119268D01*
X154084482Y-86764750D01*
X153946156Y-86430801D01*
X153745338Y-86130256D01*
X153489744Y-85874662D01*
X153189199Y-85673844D01*
X152855250Y-85535518D01*
X152500732Y-85465000D01*
X152139268Y-85465000D01*
X151784750Y-85535518D01*
X151450801Y-85673844D01*
X151150256Y-85874662D01*
X150894662Y-86130256D01*
X150693844Y-86430801D01*
X150555518Y-86764750D01*
X150485000Y-87119268D01*
X150485000Y-87480732D01*
X150555518Y-87835250D01*
X150693844Y-88169199D01*
X150711950Y-88196297D01*
X150378651Y-88130000D01*
X149941349Y-88130000D01*
X149512450Y-88215313D01*
X149108436Y-88382661D01*
X148744832Y-88625613D01*
X148435613Y-88934832D01*
X148192661Y-89298436D01*
X148025313Y-89702450D01*
X147940000Y-90131349D01*
X140950000Y-90131349D01*
X140864687Y-89702450D01*
X140697339Y-89298436D01*
X140454387Y-88934832D01*
X140145168Y-88625613D01*
X139781564Y-88382661D01*
X139377550Y-88215313D01*
X138948651Y-88130000D01*
X138511349Y-88130000D01*
X138178050Y-88196297D01*
X138196156Y-88169199D01*
X138334482Y-87835250D01*
X138405000Y-87480732D01*
X138405000Y-87119268D01*
X138334482Y-86764750D01*
X138196156Y-86430801D01*
X137995338Y-86130256D01*
X137739744Y-85874662D01*
X137439199Y-85673844D01*
X137105250Y-85535518D01*
X136750732Y-85465000D01*
X136389268Y-85465000D01*
X136034750Y-85535518D01*
X135700801Y-85673844D01*
X135400256Y-85874662D01*
X135144662Y-86130256D01*
X134943844Y-86430801D01*
X134805518Y-86764750D01*
X134735000Y-87119268D01*
X132187391Y-87119268D01*
X132188072Y-86950000D01*
X132175812Y-86825518D01*
X132139502Y-86705820D01*
X132080537Y-86595506D01*
X132001185Y-86498815D01*
X131904494Y-86419463D01*
X131794180Y-86360498D01*
X131674482Y-86324188D01*
X131550000Y-86311928D01*
X130785750Y-86315000D01*
X130627000Y-86473750D01*
X130373000Y-86473750D01*
X130214250Y-86315000D01*
X129450000Y-86311928D01*
X129325518Y-86324188D01*
X129205820Y-86360498D01*
X129095506Y-86419463D01*
X128998815Y-86498815D01*
X128919463Y-86595506D01*
X128860498Y-86705820D01*
X128824188Y-86825518D01*
X128811928Y-86950000D01*
X125160000Y-86950000D01*
X125160000Y-83868514D01*
X138665000Y-83868514D01*
X138665000Y-84131486D01*
X138716304Y-84389405D01*
X138816939Y-84632359D01*
X138963038Y-84851013D01*
X139148987Y-85036962D01*
X139367641Y-85183061D01*
X139610595Y-85283696D01*
X139868514Y-85335000D01*
X140131486Y-85335000D01*
X140389405Y-85283696D01*
X140632359Y-85183061D01*
X140851013Y-85036962D01*
X141036962Y-84851013D01*
X141183061Y-84632359D01*
X141270000Y-84422470D01*
X141356939Y-84632359D01*
X141503038Y-84851013D01*
X141688987Y-85036962D01*
X141907641Y-85183061D01*
X142150595Y-85283696D01*
X142408514Y-85335000D01*
X142671486Y-85335000D01*
X142929405Y-85283696D01*
X143172359Y-85183061D01*
X143391013Y-85036962D01*
X143576962Y-84851013D01*
X143723061Y-84632359D01*
X143810000Y-84422470D01*
X143896939Y-84632359D01*
X144043038Y-84851013D01*
X144228987Y-85036962D01*
X144447641Y-85183061D01*
X144690595Y-85283696D01*
X144948514Y-85335000D01*
X145211486Y-85335000D01*
X145469405Y-85283696D01*
X145712359Y-85183061D01*
X145931013Y-85036962D01*
X146046706Y-84921269D01*
X146878336Y-84921269D01*
X146937797Y-85155037D01*
X147176242Y-85265934D01*
X147431740Y-85328183D01*
X147694473Y-85339390D01*
X147954344Y-85299125D01*
X148201366Y-85208935D01*
X148302203Y-85155037D01*
X148361664Y-84921269D01*
X147620000Y-84179605D01*
X146878336Y-84921269D01*
X146046706Y-84921269D01*
X146116962Y-84851013D01*
X146263061Y-84632359D01*
X146351621Y-84418556D01*
X146411065Y-84581366D01*
X146464963Y-84682203D01*
X146698731Y-84741664D01*
X147440395Y-84000000D01*
X147799605Y-84000000D01*
X148541269Y-84741664D01*
X148775037Y-84682203D01*
X148885934Y-84443758D01*
X148948183Y-84188260D01*
X148959390Y-83925527D01*
X148950557Y-83868514D01*
X159165000Y-83868514D01*
X159165000Y-84131486D01*
X159216304Y-84389405D01*
X159316939Y-84632359D01*
X159463038Y-84851013D01*
X159648987Y-85036962D01*
X159867641Y-85183061D01*
X160110595Y-85283696D01*
X160368514Y-85335000D01*
X160631486Y-85335000D01*
X160889405Y-85283696D01*
X161132359Y-85183061D01*
X161351013Y-85036962D01*
X161536962Y-84851013D01*
X161683061Y-84632359D01*
X161770000Y-84422470D01*
X161856939Y-84632359D01*
X162003038Y-84851013D01*
X162188987Y-85036962D01*
X162407641Y-85183061D01*
X162650595Y-85283696D01*
X162908514Y-85335000D01*
X163171486Y-85335000D01*
X163429405Y-85283696D01*
X163672359Y-85183061D01*
X163891013Y-85036962D01*
X164076962Y-84851013D01*
X164223061Y-84632359D01*
X164310000Y-84422470D01*
X164396939Y-84632359D01*
X164543038Y-84851013D01*
X164728987Y-85036962D01*
X164947641Y-85183061D01*
X165190595Y-85283696D01*
X165448514Y-85335000D01*
X165711486Y-85335000D01*
X165969405Y-85283696D01*
X166212359Y-85183061D01*
X166431013Y-85036962D01*
X166546706Y-84921269D01*
X167378336Y-84921269D01*
X167437797Y-85155037D01*
X167676242Y-85265934D01*
X167931740Y-85328183D01*
X168194473Y-85339390D01*
X168454344Y-85299125D01*
X168701366Y-85208935D01*
X168802203Y-85155037D01*
X168861664Y-84921269D01*
X168120000Y-84179605D01*
X167378336Y-84921269D01*
X166546706Y-84921269D01*
X166616962Y-84851013D01*
X166763061Y-84632359D01*
X166851621Y-84418556D01*
X166911065Y-84581366D01*
X166964963Y-84682203D01*
X167198731Y-84741664D01*
X167940395Y-84000000D01*
X168299605Y-84000000D01*
X169041269Y-84741664D01*
X169275037Y-84682203D01*
X169385934Y-84443758D01*
X169448183Y-84188260D01*
X169459390Y-83925527D01*
X169419125Y-83665656D01*
X169328935Y-83418634D01*
X169275037Y-83317797D01*
X169041269Y-83258336D01*
X168299605Y-84000000D01*
X167940395Y-84000000D01*
X167198731Y-83258336D01*
X166964963Y-83317797D01*
X166854066Y-83556242D01*
X166849294Y-83575827D01*
X166763061Y-83367641D01*
X166616962Y-83148987D01*
X166546706Y-83078731D01*
X167378336Y-83078731D01*
X168120000Y-83820395D01*
X168861664Y-83078731D01*
X168802203Y-82844963D01*
X168563758Y-82734066D01*
X168308260Y-82671817D01*
X168045527Y-82660610D01*
X167785656Y-82700875D01*
X167538634Y-82791065D01*
X167437797Y-82844963D01*
X167378336Y-83078731D01*
X166546706Y-83078731D01*
X166431013Y-82963038D01*
X166212359Y-82816939D01*
X165969405Y-82716304D01*
X165711486Y-82665000D01*
X165448514Y-82665000D01*
X165190595Y-82716304D01*
X164947641Y-82816939D01*
X164728987Y-82963038D01*
X164543038Y-83148987D01*
X164396939Y-83367641D01*
X164310000Y-83577530D01*
X164223061Y-83367641D01*
X164076962Y-83148987D01*
X163891013Y-82963038D01*
X163672359Y-82816939D01*
X163429405Y-82716304D01*
X163171486Y-82665000D01*
X162908514Y-82665000D01*
X162650595Y-82716304D01*
X162407641Y-82816939D01*
X162188987Y-82963038D01*
X162003038Y-83148987D01*
X161856939Y-83367641D01*
X161770000Y-83577530D01*
X161683061Y-83367641D01*
X161536962Y-83148987D01*
X161351013Y-82963038D01*
X161132359Y-82816939D01*
X160889405Y-82716304D01*
X160631486Y-82665000D01*
X160368514Y-82665000D01*
X160110595Y-82716304D01*
X159867641Y-82816939D01*
X159648987Y-82963038D01*
X159463038Y-83148987D01*
X159316939Y-83367641D01*
X159216304Y-83610595D01*
X159165000Y-83868514D01*
X148950557Y-83868514D01*
X148919125Y-83665656D01*
X148828935Y-83418634D01*
X148775037Y-83317797D01*
X148541269Y-83258336D01*
X147799605Y-84000000D01*
X147440395Y-84000000D01*
X146698731Y-83258336D01*
X146464963Y-83317797D01*
X146354066Y-83556242D01*
X146349294Y-83575827D01*
X146263061Y-83367641D01*
X146116962Y-83148987D01*
X146046706Y-83078731D01*
X146878336Y-83078731D01*
X147620000Y-83820395D01*
X148361664Y-83078731D01*
X148302203Y-82844963D01*
X148063758Y-82734066D01*
X147808260Y-82671817D01*
X147545527Y-82660610D01*
X147285656Y-82700875D01*
X147038634Y-82791065D01*
X146937797Y-82844963D01*
X146878336Y-83078731D01*
X146046706Y-83078731D01*
X145931013Y-82963038D01*
X145712359Y-82816939D01*
X145469405Y-82716304D01*
X145211486Y-82665000D01*
X144948514Y-82665000D01*
X144690595Y-82716304D01*
X144447641Y-82816939D01*
X144228987Y-82963038D01*
X144043038Y-83148987D01*
X143896939Y-83367641D01*
X143810000Y-83577530D01*
X143723061Y-83367641D01*
X143576962Y-83148987D01*
X143391013Y-82963038D01*
X143172359Y-82816939D01*
X142929405Y-82716304D01*
X142671486Y-82665000D01*
X142408514Y-82665000D01*
X142150595Y-82716304D01*
X141907641Y-82816939D01*
X141688987Y-82963038D01*
X141503038Y-83148987D01*
X141356939Y-83367641D01*
X141270000Y-83577530D01*
X141183061Y-83367641D01*
X141036962Y-83148987D01*
X140851013Y-82963038D01*
X140632359Y-82816939D01*
X140389405Y-82716304D01*
X140131486Y-82665000D01*
X139868514Y-82665000D01*
X139610595Y-82716304D01*
X139367641Y-82816939D01*
X139148987Y-82963038D01*
X138963038Y-83148987D01*
X138816939Y-83367641D01*
X138716304Y-83610595D01*
X138665000Y-83868514D01*
X125160000Y-83868514D01*
X125160000Y-79050000D01*
X128811928Y-79050000D01*
X128824188Y-79174482D01*
X128860498Y-79294180D01*
X128919463Y-79404494D01*
X128998815Y-79501185D01*
X129095506Y-79580537D01*
X129109546Y-79588042D01*
X129006772Y-79741853D01*
X128879754Y-80048504D01*
X128815000Y-80374042D01*
X128815000Y-80705958D01*
X128879754Y-81031496D01*
X129006772Y-81338147D01*
X129191175Y-81614125D01*
X129425875Y-81848825D01*
X129701853Y-82033228D01*
X130008504Y-82160246D01*
X130334042Y-82225000D01*
X130665958Y-82225000D01*
X130991496Y-82160246D01*
X131298147Y-82033228D01*
X131574125Y-81848825D01*
X131808825Y-81614125D01*
X131993228Y-81338147D01*
X131997218Y-81328514D01*
X139935000Y-81328514D01*
X139935000Y-81591486D01*
X139986304Y-81849405D01*
X140086939Y-82092359D01*
X140233038Y-82311013D01*
X140418987Y-82496962D01*
X140637641Y-82643061D01*
X140880595Y-82743696D01*
X141138514Y-82795000D01*
X141401486Y-82795000D01*
X141659405Y-82743696D01*
X141902359Y-82643061D01*
X142121013Y-82496962D01*
X142306962Y-82311013D01*
X142453061Y-82092359D01*
X142540000Y-81882470D01*
X142626939Y-82092359D01*
X142773038Y-82311013D01*
X142958987Y-82496962D01*
X143177641Y-82643061D01*
X143420595Y-82743696D01*
X143678514Y-82795000D01*
X143941486Y-82795000D01*
X144199405Y-82743696D01*
X144442359Y-82643061D01*
X144661013Y-82496962D01*
X144846962Y-82311013D01*
X144993061Y-82092359D01*
X145080000Y-81882470D01*
X145166939Y-82092359D01*
X145313038Y-82311013D01*
X145498987Y-82496962D01*
X145717641Y-82643061D01*
X145960595Y-82743696D01*
X146218514Y-82795000D01*
X146481486Y-82795000D01*
X146739405Y-82743696D01*
X146982359Y-82643061D01*
X147201013Y-82496962D01*
X147316706Y-82381269D01*
X148148336Y-82381269D01*
X148207797Y-82615037D01*
X148446242Y-82725934D01*
X148701740Y-82788183D01*
X148964473Y-82799390D01*
X149224344Y-82759125D01*
X149471366Y-82668935D01*
X149572203Y-82615037D01*
X149631664Y-82381269D01*
X148890000Y-81639605D01*
X148148336Y-82381269D01*
X147316706Y-82381269D01*
X147386962Y-82311013D01*
X147533061Y-82092359D01*
X147621621Y-81878556D01*
X147681065Y-82041366D01*
X147734963Y-82142203D01*
X147968731Y-82201664D01*
X148710395Y-81460000D01*
X149069605Y-81460000D01*
X149811269Y-82201664D01*
X150045037Y-82142203D01*
X150155934Y-81903758D01*
X150218183Y-81648260D01*
X150229390Y-81385527D01*
X150220557Y-81328514D01*
X160435000Y-81328514D01*
X160435000Y-81591486D01*
X160486304Y-81849405D01*
X160586939Y-82092359D01*
X160733038Y-82311013D01*
X160918987Y-82496962D01*
X161137641Y-82643061D01*
X161380595Y-82743696D01*
X161638514Y-82795000D01*
X161901486Y-82795000D01*
X162159405Y-82743696D01*
X162402359Y-82643061D01*
X162621013Y-82496962D01*
X162806962Y-82311013D01*
X162953061Y-82092359D01*
X163040000Y-81882470D01*
X163126939Y-82092359D01*
X163273038Y-82311013D01*
X163458987Y-82496962D01*
X163677641Y-82643061D01*
X163920595Y-82743696D01*
X164178514Y-82795000D01*
X164441486Y-82795000D01*
X164699405Y-82743696D01*
X164942359Y-82643061D01*
X165161013Y-82496962D01*
X165346962Y-82311013D01*
X165493061Y-82092359D01*
X165580000Y-81882470D01*
X165666939Y-82092359D01*
X165813038Y-82311013D01*
X165998987Y-82496962D01*
X166217641Y-82643061D01*
X166460595Y-82743696D01*
X166718514Y-82795000D01*
X166981486Y-82795000D01*
X167239405Y-82743696D01*
X167482359Y-82643061D01*
X167701013Y-82496962D01*
X167816706Y-82381269D01*
X168648336Y-82381269D01*
X168707797Y-82615037D01*
X168946242Y-82725934D01*
X169201740Y-82788183D01*
X169464473Y-82799390D01*
X169724344Y-82759125D01*
X169971366Y-82668935D01*
X170072203Y-82615037D01*
X170131664Y-82381269D01*
X169390000Y-81639605D01*
X168648336Y-82381269D01*
X167816706Y-82381269D01*
X167886962Y-82311013D01*
X168033061Y-82092359D01*
X168121621Y-81878556D01*
X168181065Y-82041366D01*
X168234963Y-82142203D01*
X168468731Y-82201664D01*
X169210395Y-81460000D01*
X169569605Y-81460000D01*
X170311269Y-82201664D01*
X170545037Y-82142203D01*
X170655934Y-81903758D01*
X170718183Y-81648260D01*
X170729390Y-81385527D01*
X170689125Y-81125656D01*
X170598935Y-80878634D01*
X170545037Y-80777797D01*
X170311269Y-80718336D01*
X169569605Y-81460000D01*
X169210395Y-81460000D01*
X168468731Y-80718336D01*
X168234963Y-80777797D01*
X168124066Y-81016242D01*
X168119294Y-81035827D01*
X168033061Y-80827641D01*
X167886962Y-80608987D01*
X167816706Y-80538731D01*
X168648336Y-80538731D01*
X169390000Y-81280395D01*
X170131664Y-80538731D01*
X170072203Y-80304963D01*
X169833758Y-80194066D01*
X169578260Y-80131817D01*
X169315527Y-80120610D01*
X169055656Y-80160875D01*
X168808634Y-80251065D01*
X168707797Y-80304963D01*
X168648336Y-80538731D01*
X167816706Y-80538731D01*
X167701013Y-80423038D01*
X167482359Y-80276939D01*
X167239405Y-80176304D01*
X166981486Y-80125000D01*
X166718514Y-80125000D01*
X166460595Y-80176304D01*
X166217641Y-80276939D01*
X165998987Y-80423038D01*
X165813038Y-80608987D01*
X165666939Y-80827641D01*
X165580000Y-81037530D01*
X165493061Y-80827641D01*
X165346962Y-80608987D01*
X165161013Y-80423038D01*
X164942359Y-80276939D01*
X164699405Y-80176304D01*
X164441486Y-80125000D01*
X164178514Y-80125000D01*
X163920595Y-80176304D01*
X163677641Y-80276939D01*
X163458987Y-80423038D01*
X163273038Y-80608987D01*
X163126939Y-80827641D01*
X163040000Y-81037530D01*
X162953061Y-80827641D01*
X162806962Y-80608987D01*
X162621013Y-80423038D01*
X162402359Y-80276939D01*
X162159405Y-80176304D01*
X161901486Y-80125000D01*
X161638514Y-80125000D01*
X161380595Y-80176304D01*
X161137641Y-80276939D01*
X160918987Y-80423038D01*
X160733038Y-80608987D01*
X160586939Y-80827641D01*
X160486304Y-81070595D01*
X160435000Y-81328514D01*
X150220557Y-81328514D01*
X150189125Y-81125656D01*
X150098935Y-80878634D01*
X150045037Y-80777797D01*
X149811269Y-80718336D01*
X149069605Y-81460000D01*
X148710395Y-81460000D01*
X147968731Y-80718336D01*
X147734963Y-80777797D01*
X147624066Y-81016242D01*
X147619294Y-81035827D01*
X147533061Y-80827641D01*
X147386962Y-80608987D01*
X147316706Y-80538731D01*
X148148336Y-80538731D01*
X148890000Y-81280395D01*
X149631664Y-80538731D01*
X149572203Y-80304963D01*
X149333758Y-80194066D01*
X149078260Y-80131817D01*
X148815527Y-80120610D01*
X148555656Y-80160875D01*
X148308634Y-80251065D01*
X148207797Y-80304963D01*
X148148336Y-80538731D01*
X147316706Y-80538731D01*
X147201013Y-80423038D01*
X146982359Y-80276939D01*
X146739405Y-80176304D01*
X146481486Y-80125000D01*
X146218514Y-80125000D01*
X145960595Y-80176304D01*
X145717641Y-80276939D01*
X145498987Y-80423038D01*
X145313038Y-80608987D01*
X145166939Y-80827641D01*
X145080000Y-81037530D01*
X144993061Y-80827641D01*
X144846962Y-80608987D01*
X144661013Y-80423038D01*
X144442359Y-80276939D01*
X144199405Y-80176304D01*
X143941486Y-80125000D01*
X143678514Y-80125000D01*
X143420595Y-80176304D01*
X143177641Y-80276939D01*
X142958987Y-80423038D01*
X142773038Y-80608987D01*
X142626939Y-80827641D01*
X142540000Y-81037530D01*
X142453061Y-80827641D01*
X142306962Y-80608987D01*
X142121013Y-80423038D01*
X141902359Y-80276939D01*
X141659405Y-80176304D01*
X141401486Y-80125000D01*
X141138514Y-80125000D01*
X140880595Y-80176304D01*
X140637641Y-80276939D01*
X140418987Y-80423038D01*
X140233038Y-80608987D01*
X140086939Y-80827641D01*
X139986304Y-81070595D01*
X139935000Y-81328514D01*
X131997218Y-81328514D01*
X132120246Y-81031496D01*
X132185000Y-80705958D01*
X132185000Y-80374042D01*
X132120246Y-80048504D01*
X131993228Y-79741853D01*
X131890454Y-79588042D01*
X131904494Y-79580537D01*
X132001185Y-79501185D01*
X132080537Y-79404494D01*
X132139502Y-79294180D01*
X132175812Y-79174482D01*
X132188072Y-79050000D01*
X132185000Y-78285750D01*
X132026250Y-78127000D01*
X130627000Y-78127000D01*
X130627000Y-78147000D01*
X130373000Y-78147000D01*
X130373000Y-78127000D01*
X128973750Y-78127000D01*
X128815000Y-78285750D01*
X128811928Y-79050000D01*
X125160000Y-79050000D01*
X125160000Y-77898061D01*
X142965000Y-77898061D01*
X142965000Y-78101939D01*
X143004774Y-78301898D01*
X143082795Y-78490256D01*
X143196063Y-78659774D01*
X143340226Y-78803937D01*
X143509744Y-78917205D01*
X143698102Y-78995226D01*
X143898061Y-79035000D01*
X144101939Y-79035000D01*
X144301898Y-78995226D01*
X144490256Y-78917205D01*
X144659774Y-78803937D01*
X144803937Y-78659774D01*
X144917205Y-78490256D01*
X144995226Y-78301898D01*
X145035000Y-78101939D01*
X145035000Y-77898061D01*
X144995226Y-77698102D01*
X144917205Y-77509744D01*
X144803937Y-77340226D01*
X144659774Y-77196063D01*
X144490256Y-77082795D01*
X144301898Y-77004774D01*
X144101939Y-76965000D01*
X143898061Y-76965000D01*
X143698102Y-77004774D01*
X143509744Y-77082795D01*
X143340226Y-77196063D01*
X143196063Y-77340226D01*
X143082795Y-77509744D01*
X143004774Y-77698102D01*
X142965000Y-77898061D01*
X125160000Y-77898061D01*
X125160000Y-76950000D01*
X128811928Y-76950000D01*
X128815000Y-77714250D01*
X128973750Y-77873000D01*
X130373000Y-77873000D01*
X130373000Y-76473750D01*
X130627000Y-76473750D01*
X130627000Y-77873000D01*
X132026250Y-77873000D01*
X132185000Y-77714250D01*
X132188072Y-76950000D01*
X132182957Y-76898061D01*
X172715000Y-76898061D01*
X172715000Y-77101939D01*
X172754774Y-77301898D01*
X172832795Y-77490256D01*
X172946063Y-77659774D01*
X173090226Y-77803937D01*
X173259744Y-77917205D01*
X173448102Y-77995226D01*
X173648061Y-78035000D01*
X173851939Y-78035000D01*
X174051898Y-77995226D01*
X174240256Y-77917205D01*
X174409774Y-77803937D01*
X174553937Y-77659774D01*
X174667205Y-77490256D01*
X174745226Y-77301898D01*
X174785000Y-77101939D01*
X174785000Y-76898061D01*
X174745226Y-76698102D01*
X174667205Y-76509744D01*
X174553937Y-76340226D01*
X174409774Y-76196063D01*
X174337934Y-76148061D01*
X175465000Y-76148061D01*
X175465000Y-76351939D01*
X175504774Y-76551898D01*
X175582795Y-76740256D01*
X175696063Y-76909774D01*
X175840226Y-77053937D01*
X176009744Y-77167205D01*
X176198102Y-77245226D01*
X176398061Y-77285000D01*
X176601939Y-77285000D01*
X176801898Y-77245226D01*
X176990256Y-77167205D01*
X177159774Y-77053937D01*
X177303937Y-76909774D01*
X177361169Y-76824119D01*
X177387050Y-76850000D01*
X177191175Y-77045875D01*
X177006772Y-77321853D01*
X176879754Y-77628504D01*
X176815000Y-77954042D01*
X176815000Y-78285958D01*
X176879754Y-78611496D01*
X177006772Y-78918147D01*
X177191175Y-79194125D01*
X177387050Y-79390000D01*
X177191175Y-79585875D01*
X177006772Y-79861853D01*
X176879754Y-80168504D01*
X176815000Y-80494042D01*
X176815000Y-80825958D01*
X176879754Y-81151496D01*
X177006772Y-81458147D01*
X177191175Y-81734125D01*
X177387050Y-81930000D01*
X177191175Y-82125875D01*
X177006772Y-82401853D01*
X176879754Y-82708504D01*
X176815000Y-83034042D01*
X176815000Y-83365958D01*
X176879754Y-83691496D01*
X177006772Y-83998147D01*
X177191175Y-84274125D01*
X177425875Y-84508825D01*
X177701853Y-84693228D01*
X178008504Y-84820246D01*
X178334042Y-84885000D01*
X178665958Y-84885000D01*
X178991496Y-84820246D01*
X179298147Y-84693228D01*
X179574125Y-84508825D01*
X179808825Y-84274125D01*
X179993228Y-83998147D01*
X180120246Y-83691496D01*
X180185000Y-83365958D01*
X180185000Y-83034042D01*
X180120246Y-82708504D01*
X179993228Y-82401853D01*
X179808825Y-82125875D01*
X179612950Y-81930000D01*
X179808825Y-81734125D01*
X179993228Y-81458147D01*
X180120246Y-81151496D01*
X180185000Y-80825958D01*
X180185000Y-80494042D01*
X180120246Y-80168504D01*
X179993228Y-79861853D01*
X179808825Y-79585875D01*
X179612950Y-79390000D01*
X179808825Y-79194125D01*
X179993228Y-78918147D01*
X180120246Y-78611496D01*
X180185000Y-78285958D01*
X180185000Y-77954042D01*
X180120246Y-77628504D01*
X179993228Y-77321853D01*
X179808825Y-77045875D01*
X179612950Y-76850000D01*
X179808825Y-76654125D01*
X179993228Y-76378147D01*
X180120246Y-76071496D01*
X180185000Y-75745958D01*
X180185000Y-75414042D01*
X180120246Y-75088504D01*
X179993228Y-74781853D01*
X179808825Y-74505875D01*
X179612950Y-74310000D01*
X179808825Y-74114125D01*
X179993228Y-73838147D01*
X180120246Y-73531496D01*
X180185000Y-73205958D01*
X180185000Y-72874042D01*
X180120246Y-72548504D01*
X179993228Y-72241853D01*
X179890454Y-72088042D01*
X179904494Y-72080537D01*
X180001185Y-72001185D01*
X180080537Y-71904494D01*
X180139502Y-71794180D01*
X180175812Y-71674482D01*
X180188072Y-71550000D01*
X180185000Y-70785750D01*
X180026250Y-70627000D01*
X178627000Y-70627000D01*
X178627000Y-70647000D01*
X178373000Y-70647000D01*
X178373000Y-70627000D01*
X176973750Y-70627000D01*
X176815000Y-70785750D01*
X176811928Y-71550000D01*
X176824188Y-71674482D01*
X176860498Y-71794180D01*
X176919463Y-71904494D01*
X176998815Y-72001185D01*
X177095506Y-72080537D01*
X177109546Y-72088042D01*
X177006772Y-72241853D01*
X176879754Y-72548504D01*
X176815000Y-72874042D01*
X176815000Y-73205958D01*
X176879754Y-73531496D01*
X177006772Y-73838147D01*
X177191175Y-74114125D01*
X177387050Y-74310000D01*
X177191175Y-74505875D01*
X177006772Y-74781853D01*
X176879754Y-75088504D01*
X176843272Y-75271912D01*
X176801898Y-75254774D01*
X176601939Y-75215000D01*
X176398061Y-75215000D01*
X176198102Y-75254774D01*
X176009744Y-75332795D01*
X175840226Y-75446063D01*
X175696063Y-75590226D01*
X175582795Y-75759744D01*
X175504774Y-75948102D01*
X175465000Y-76148061D01*
X174337934Y-76148061D01*
X174240256Y-76082795D01*
X174051898Y-76004774D01*
X173851939Y-75965000D01*
X173648061Y-75965000D01*
X173448102Y-76004774D01*
X173259744Y-76082795D01*
X173090226Y-76196063D01*
X172946063Y-76340226D01*
X172832795Y-76509744D01*
X172754774Y-76698102D01*
X172715000Y-76898061D01*
X132182957Y-76898061D01*
X132175812Y-76825518D01*
X132139502Y-76705820D01*
X132080537Y-76595506D01*
X132001185Y-76498815D01*
X131904494Y-76419463D01*
X131794180Y-76360498D01*
X131674482Y-76324188D01*
X131550000Y-76311928D01*
X130785750Y-76315000D01*
X130627000Y-76473750D01*
X130373000Y-76473750D01*
X130214250Y-76315000D01*
X129450000Y-76311928D01*
X129325518Y-76324188D01*
X129205820Y-76360498D01*
X129095506Y-76419463D01*
X128998815Y-76498815D01*
X128919463Y-76595506D01*
X128860498Y-76705820D01*
X128824188Y-76825518D01*
X128811928Y-76950000D01*
X125160000Y-76950000D01*
X125160000Y-70682029D01*
X138785500Y-70682029D01*
X138785500Y-71279971D01*
X138902153Y-71866423D01*
X139130975Y-72418848D01*
X139463174Y-72916018D01*
X139885982Y-73338826D01*
X140383152Y-73671025D01*
X140935577Y-73899847D01*
X141522029Y-74016500D01*
X142119971Y-74016500D01*
X142706423Y-73899847D01*
X143258848Y-73671025D01*
X143756018Y-73338826D01*
X144178826Y-72916018D01*
X144511025Y-72418848D01*
X144739847Y-71866423D01*
X144856500Y-71279971D01*
X144856500Y-71050760D01*
X147397631Y-71050760D01*
X147439282Y-71334128D01*
X147535415Y-71603926D01*
X147604823Y-71733779D01*
X147850732Y-71807663D01*
X148677395Y-70981000D01*
X147850732Y-70154337D01*
X147604823Y-70228221D01*
X147482023Y-70486973D01*
X147412063Y-70764711D01*
X147397631Y-71050760D01*
X144856500Y-71050760D01*
X144856500Y-70682029D01*
X144739847Y-70095577D01*
X144689792Y-69974732D01*
X148030337Y-69974732D01*
X148857000Y-70801395D01*
X148871143Y-70787253D01*
X149050748Y-70966858D01*
X149036605Y-70981000D01*
X149050748Y-70995143D01*
X148871143Y-71174748D01*
X148857000Y-71160605D01*
X148030337Y-71987268D01*
X148104221Y-72233177D01*
X148362973Y-72355977D01*
X148640711Y-72425937D01*
X148648093Y-72426309D01*
X148601877Y-72537884D01*
X148546000Y-72818794D01*
X148546000Y-73105206D01*
X148601877Y-73386116D01*
X148711482Y-73650727D01*
X148870605Y-73888871D01*
X149073129Y-74091395D01*
X149311273Y-74250518D01*
X149575884Y-74360123D01*
X149856794Y-74416000D01*
X150143206Y-74416000D01*
X150424116Y-74360123D01*
X150688727Y-74250518D01*
X150926871Y-74091395D01*
X151129395Y-73888871D01*
X151143000Y-73868510D01*
X151156605Y-73888871D01*
X151359129Y-74091395D01*
X151597273Y-74250518D01*
X151861884Y-74360123D01*
X152142794Y-74416000D01*
X152429206Y-74416000D01*
X152710116Y-74360123D01*
X152974727Y-74250518D01*
X153212871Y-74091395D01*
X153415395Y-73888871D01*
X153429000Y-73868510D01*
X153442605Y-73888871D01*
X153645129Y-74091395D01*
X153883273Y-74250518D01*
X154147884Y-74360123D01*
X154428794Y-74416000D01*
X154715206Y-74416000D01*
X154996116Y-74360123D01*
X155260727Y-74250518D01*
X155498871Y-74091395D01*
X155701395Y-73888871D01*
X155715000Y-73868510D01*
X155728605Y-73888871D01*
X155931129Y-74091395D01*
X156169273Y-74250518D01*
X156433884Y-74360123D01*
X156714794Y-74416000D01*
X157001206Y-74416000D01*
X157282116Y-74360123D01*
X157546727Y-74250518D01*
X157784871Y-74091395D01*
X157987395Y-73888871D01*
X158001000Y-73868510D01*
X158014605Y-73888871D01*
X158217129Y-74091395D01*
X158455273Y-74250518D01*
X158719884Y-74360123D01*
X159000794Y-74416000D01*
X159287206Y-74416000D01*
X159568116Y-74360123D01*
X159832727Y-74250518D01*
X160070871Y-74091395D01*
X160273395Y-73888871D01*
X160432518Y-73650727D01*
X160542123Y-73386116D01*
X160598000Y-73105206D01*
X160598000Y-72818794D01*
X160542123Y-72537884D01*
X160432518Y-72273273D01*
X160273395Y-72035129D01*
X160070871Y-71832605D01*
X159832727Y-71673482D01*
X159568116Y-71563877D01*
X159351232Y-71520736D01*
X159399123Y-71405116D01*
X159455000Y-71124206D01*
X159455000Y-70898061D01*
X159965000Y-70898061D01*
X159965000Y-71101939D01*
X160004774Y-71301898D01*
X160082795Y-71490256D01*
X160196063Y-71659774D01*
X160340226Y-71803937D01*
X160509744Y-71917205D01*
X160698102Y-71995226D01*
X160898061Y-72035000D01*
X161101939Y-72035000D01*
X161301898Y-71995226D01*
X161490256Y-71917205D01*
X161659774Y-71803937D01*
X161803937Y-71659774D01*
X161917205Y-71490256D01*
X161995226Y-71301898D01*
X162035000Y-71101939D01*
X162035000Y-70898061D01*
X161995226Y-70698102D01*
X161988569Y-70682029D01*
X163779500Y-70682029D01*
X163779500Y-71279971D01*
X163896153Y-71866423D01*
X164124975Y-72418848D01*
X164457174Y-72916018D01*
X164879982Y-73338826D01*
X165377152Y-73671025D01*
X165929577Y-73899847D01*
X166516029Y-74016500D01*
X167113971Y-74016500D01*
X167700423Y-73899847D01*
X168252848Y-73671025D01*
X168750018Y-73338826D01*
X169172826Y-72916018D01*
X169505025Y-72418848D01*
X169733847Y-71866423D01*
X169850500Y-71279971D01*
X169850500Y-70682029D01*
X169733847Y-70095577D01*
X169505025Y-69543152D01*
X169442783Y-69450000D01*
X176811928Y-69450000D01*
X176815000Y-70214250D01*
X176973750Y-70373000D01*
X178373000Y-70373000D01*
X178373000Y-68973750D01*
X178627000Y-68973750D01*
X178627000Y-70373000D01*
X180026250Y-70373000D01*
X180185000Y-70214250D01*
X180188072Y-69450000D01*
X180175812Y-69325518D01*
X180139502Y-69205820D01*
X180080537Y-69095506D01*
X180001185Y-68998815D01*
X179904494Y-68919463D01*
X179794180Y-68860498D01*
X179674482Y-68824188D01*
X179550000Y-68811928D01*
X178785750Y-68815000D01*
X178627000Y-68973750D01*
X178373000Y-68973750D01*
X178214250Y-68815000D01*
X177450000Y-68811928D01*
X177325518Y-68824188D01*
X177205820Y-68860498D01*
X177095506Y-68919463D01*
X176998815Y-68998815D01*
X176919463Y-69095506D01*
X176860498Y-69205820D01*
X176824188Y-69325518D01*
X176811928Y-69450000D01*
X169442783Y-69450000D01*
X169172826Y-69045982D01*
X168750018Y-68623174D01*
X168252848Y-68290975D01*
X167700423Y-68062153D01*
X167113971Y-67945500D01*
X166516029Y-67945500D01*
X165929577Y-68062153D01*
X165377152Y-68290975D01*
X164879982Y-68623174D01*
X164457174Y-69045982D01*
X164124975Y-69543152D01*
X163896153Y-70095577D01*
X163779500Y-70682029D01*
X161988569Y-70682029D01*
X161917205Y-70509744D01*
X161803937Y-70340226D01*
X161659774Y-70196063D01*
X161490256Y-70082795D01*
X161301898Y-70004774D01*
X161101939Y-69965000D01*
X160898061Y-69965000D01*
X160698102Y-70004774D01*
X160509744Y-70082795D01*
X160340226Y-70196063D01*
X160196063Y-70340226D01*
X160082795Y-70509744D01*
X160004774Y-70698102D01*
X159965000Y-70898061D01*
X159455000Y-70898061D01*
X159455000Y-70837794D01*
X159399123Y-70556884D01*
X159351232Y-70441264D01*
X159568116Y-70398123D01*
X159832727Y-70288518D01*
X160070871Y-70129395D01*
X160273395Y-69926871D01*
X160432518Y-69688727D01*
X160542123Y-69424116D01*
X160598000Y-69143206D01*
X160598000Y-68856794D01*
X160542123Y-68575884D01*
X160432518Y-68311273D01*
X160273395Y-68073129D01*
X160070871Y-67870605D01*
X159832727Y-67711482D01*
X159568116Y-67601877D01*
X159287206Y-67546000D01*
X159000794Y-67546000D01*
X158719884Y-67601877D01*
X158455273Y-67711482D01*
X158217129Y-67870605D01*
X158014605Y-68073129D01*
X158001000Y-68093490D01*
X157987395Y-68073129D01*
X157784871Y-67870605D01*
X157546727Y-67711482D01*
X157282116Y-67601877D01*
X157001206Y-67546000D01*
X156714794Y-67546000D01*
X156433884Y-67601877D01*
X156169273Y-67711482D01*
X155931129Y-67870605D01*
X155728605Y-68073129D01*
X155715000Y-68093490D01*
X155701395Y-68073129D01*
X155498871Y-67870605D01*
X155260727Y-67711482D01*
X154996116Y-67601877D01*
X154715206Y-67546000D01*
X154428794Y-67546000D01*
X154147884Y-67601877D01*
X153883273Y-67711482D01*
X153645129Y-67870605D01*
X153442605Y-68073129D01*
X153429000Y-68093490D01*
X153415395Y-68073129D01*
X153212871Y-67870605D01*
X152974727Y-67711482D01*
X152710116Y-67601877D01*
X152429206Y-67546000D01*
X152142794Y-67546000D01*
X151861884Y-67601877D01*
X151597273Y-67711482D01*
X151359129Y-67870605D01*
X151156605Y-68073129D01*
X151075708Y-68194200D01*
X151006268Y-68173337D01*
X150179605Y-69000000D01*
X150193748Y-69014143D01*
X150014143Y-69193748D01*
X150000000Y-69179605D01*
X149985858Y-69193748D01*
X149806253Y-69014143D01*
X149820395Y-69000000D01*
X148993732Y-68173337D01*
X148747823Y-68247221D01*
X148625023Y-68505973D01*
X148555063Y-68783711D01*
X148540631Y-69069760D01*
X148582282Y-69353128D01*
X148649534Y-69541872D01*
X148503872Y-69563282D01*
X148234074Y-69659415D01*
X148104221Y-69728823D01*
X148030337Y-69974732D01*
X144689792Y-69974732D01*
X144511025Y-69543152D01*
X144178826Y-69045982D01*
X143756018Y-68623174D01*
X143419114Y-68398061D01*
X144465000Y-68398061D01*
X144465000Y-68601939D01*
X144504774Y-68801898D01*
X144582795Y-68990256D01*
X144696063Y-69159774D01*
X144840226Y-69303937D01*
X145009744Y-69417205D01*
X145198102Y-69495226D01*
X145398061Y-69535000D01*
X145601939Y-69535000D01*
X145801898Y-69495226D01*
X145990256Y-69417205D01*
X146159774Y-69303937D01*
X146303937Y-69159774D01*
X146417205Y-68990256D01*
X146495226Y-68801898D01*
X146535000Y-68601939D01*
X146535000Y-68398061D01*
X146495226Y-68198102D01*
X146417205Y-68009744D01*
X146406507Y-67993732D01*
X149173337Y-67993732D01*
X150000000Y-68820395D01*
X150826663Y-67993732D01*
X150752779Y-67747823D01*
X150494027Y-67625023D01*
X150216289Y-67555063D01*
X149930240Y-67540631D01*
X149646872Y-67582282D01*
X149377074Y-67678415D01*
X149247221Y-67747823D01*
X149173337Y-67993732D01*
X146406507Y-67993732D01*
X146303937Y-67840226D01*
X146159774Y-67696063D01*
X145990256Y-67582795D01*
X145801898Y-67504774D01*
X145601939Y-67465000D01*
X145398061Y-67465000D01*
X145198102Y-67504774D01*
X145009744Y-67582795D01*
X144840226Y-67696063D01*
X144696063Y-67840226D01*
X144582795Y-68009744D01*
X144504774Y-68198102D01*
X144465000Y-68398061D01*
X143419114Y-68398061D01*
X143258848Y-68290975D01*
X142706423Y-68062153D01*
X142119971Y-67945500D01*
X141522029Y-67945500D01*
X140935577Y-68062153D01*
X140383152Y-68290975D01*
X139885982Y-68623174D01*
X139463174Y-69045982D01*
X139130975Y-69543152D01*
X138902153Y-70095577D01*
X138785500Y-70682029D01*
X125160000Y-70682029D01*
X125160000Y-66898061D01*
X141715000Y-66898061D01*
X141715000Y-67101939D01*
X141754774Y-67301898D01*
X141832795Y-67490256D01*
X141946063Y-67659774D01*
X142090226Y-67803937D01*
X142259744Y-67917205D01*
X142448102Y-67995226D01*
X142648061Y-68035000D01*
X142851939Y-68035000D01*
X143051898Y-67995226D01*
X143240256Y-67917205D01*
X143409774Y-67803937D01*
X143553937Y-67659774D01*
X143667205Y-67490256D01*
X143745226Y-67301898D01*
X143785000Y-67101939D01*
X143785000Y-66898061D01*
X143745226Y-66698102D01*
X143667205Y-66509744D01*
X143553937Y-66340226D01*
X143409774Y-66196063D01*
X143240256Y-66082795D01*
X143051898Y-66004774D01*
X142851939Y-65965000D01*
X142648061Y-65965000D01*
X142448102Y-66004774D01*
X142259744Y-66082795D01*
X142090226Y-66196063D01*
X141946063Y-66340226D01*
X141832795Y-66509744D01*
X141754774Y-66698102D01*
X141715000Y-66898061D01*
X125160000Y-66898061D01*
X125160000Y-65532279D01*
X125198147Y-65143225D01*
X125301763Y-64800033D01*
X125470062Y-64483511D01*
X125696637Y-64205701D01*
X125972856Y-63977194D01*
X126288197Y-63806690D01*
X126630656Y-63700681D01*
X127017712Y-63660000D01*
X181967721Y-63660000D01*
X182356775Y-63698147D01*
%TA.AperFunction,Conductor*%
D18*
G36*
X182356775Y-63698147D02*
G01*
X182699967Y-63801763D01*
X183016489Y-63970062D01*
X183294299Y-64196637D01*
X183522806Y-64472856D01*
X183693310Y-64788197D01*
X183799319Y-65130656D01*
X183840000Y-65517712D01*
X183840001Y-120467711D01*
X183801853Y-120856776D01*
X183698238Y-121199964D01*
X183529939Y-121516489D01*
X183303365Y-121794296D01*
X183027146Y-122022805D01*
X182711803Y-122193310D01*
X182369344Y-122299319D01*
X181982288Y-122340000D01*
X127032279Y-122340000D01*
X126643224Y-122301853D01*
X126300036Y-122198238D01*
X125983511Y-122029939D01*
X125705704Y-121803365D01*
X125477195Y-121527146D01*
X125441576Y-121461269D01*
X129368336Y-121461269D01*
X129427797Y-121695037D01*
X129666242Y-121805934D01*
X129921740Y-121868183D01*
X130184473Y-121879390D01*
X130444344Y-121839125D01*
X130691366Y-121748935D01*
X130792203Y-121695037D01*
X130851664Y-121461269D01*
X130110000Y-120719605D01*
X129368336Y-121461269D01*
X125441576Y-121461269D01*
X125306690Y-121211803D01*
X125200681Y-120869344D01*
X125173894Y-120614473D01*
X128770610Y-120614473D01*
X128810875Y-120874344D01*
X128901065Y-121121366D01*
X128954963Y-121222203D01*
X129188731Y-121281664D01*
X129930395Y-120540000D01*
X130289605Y-120540000D01*
X131031269Y-121281664D01*
X131265037Y-121222203D01*
X131375934Y-120983758D01*
X131380706Y-120964173D01*
X131466939Y-121172359D01*
X131613038Y-121391013D01*
X131798987Y-121576962D01*
X132017641Y-121723061D01*
X132260595Y-121823696D01*
X132518514Y-121875000D01*
X132781486Y-121875000D01*
X133039405Y-121823696D01*
X133282359Y-121723061D01*
X133501013Y-121576962D01*
X133686962Y-121391013D01*
X133833061Y-121172359D01*
X133920000Y-120962470D01*
X134006939Y-121172359D01*
X134153038Y-121391013D01*
X134338987Y-121576962D01*
X134557641Y-121723061D01*
X134800595Y-121823696D01*
X135058514Y-121875000D01*
X135321486Y-121875000D01*
X135579405Y-121823696D01*
X135822359Y-121723061D01*
X136041013Y-121576962D01*
X136226962Y-121391013D01*
X136373061Y-121172359D01*
X136460000Y-120962470D01*
X136546939Y-121172359D01*
X136693038Y-121391013D01*
X136878987Y-121576962D01*
X137097641Y-121723061D01*
X137340595Y-121823696D01*
X137598514Y-121875000D01*
X137861486Y-121875000D01*
X138119405Y-121823696D01*
X138362359Y-121723061D01*
X138581013Y-121576962D01*
X138696706Y-121461269D01*
X168868336Y-121461269D01*
X168927797Y-121695037D01*
X169166242Y-121805934D01*
X169421740Y-121868183D01*
X169684473Y-121879390D01*
X169944344Y-121839125D01*
X170191366Y-121748935D01*
X170292203Y-121695037D01*
X170351664Y-121461269D01*
X169610000Y-120719605D01*
X168868336Y-121461269D01*
X138696706Y-121461269D01*
X138766962Y-121391013D01*
X138913061Y-121172359D01*
X139013696Y-120929405D01*
X139065000Y-120671486D01*
X139065000Y-120614473D01*
X168270610Y-120614473D01*
X168310875Y-120874344D01*
X168401065Y-121121366D01*
X168454963Y-121222203D01*
X168688731Y-121281664D01*
X169430395Y-120540000D01*
X169789605Y-120540000D01*
X170531269Y-121281664D01*
X170765037Y-121222203D01*
X170875934Y-120983758D01*
X170880706Y-120964173D01*
X170966939Y-121172359D01*
X171113038Y-121391013D01*
X171298987Y-121576962D01*
X171517641Y-121723061D01*
X171760595Y-121823696D01*
X172018514Y-121875000D01*
X172281486Y-121875000D01*
X172539405Y-121823696D01*
X172782359Y-121723061D01*
X173001013Y-121576962D01*
X173186962Y-121391013D01*
X173333061Y-121172359D01*
X173420000Y-120962470D01*
X173506939Y-121172359D01*
X173653038Y-121391013D01*
X173838987Y-121576962D01*
X174057641Y-121723061D01*
X174300595Y-121823696D01*
X174558514Y-121875000D01*
X174821486Y-121875000D01*
X175079405Y-121823696D01*
X175322359Y-121723061D01*
X175541013Y-121576962D01*
X175726962Y-121391013D01*
X175873061Y-121172359D01*
X175960000Y-120962470D01*
X176046939Y-121172359D01*
X176193038Y-121391013D01*
X176378987Y-121576962D01*
X176597641Y-121723061D01*
X176840595Y-121823696D01*
X177098514Y-121875000D01*
X177361486Y-121875000D01*
X177619405Y-121823696D01*
X177862359Y-121723061D01*
X178081013Y-121576962D01*
X178266962Y-121391013D01*
X178413061Y-121172359D01*
X178513696Y-120929405D01*
X178565000Y-120671486D01*
X178565000Y-120408514D01*
X178513696Y-120150595D01*
X178413061Y-119907641D01*
X178266962Y-119688987D01*
X178081013Y-119503038D01*
X177862359Y-119356939D01*
X177619405Y-119256304D01*
X177361486Y-119205000D01*
X177098514Y-119205000D01*
X176840595Y-119256304D01*
X176597641Y-119356939D01*
X176378987Y-119503038D01*
X176193038Y-119688987D01*
X176046939Y-119907641D01*
X175960000Y-120117530D01*
X175873061Y-119907641D01*
X175726962Y-119688987D01*
X175541013Y-119503038D01*
X175322359Y-119356939D01*
X175079405Y-119256304D01*
X174821486Y-119205000D01*
X174558514Y-119205000D01*
X174300595Y-119256304D01*
X174057641Y-119356939D01*
X173838987Y-119503038D01*
X173653038Y-119688987D01*
X173506939Y-119907641D01*
X173420000Y-120117530D01*
X173333061Y-119907641D01*
X173186962Y-119688987D01*
X173001013Y-119503038D01*
X172782359Y-119356939D01*
X172539405Y-119256304D01*
X172281486Y-119205000D01*
X172018514Y-119205000D01*
X171760595Y-119256304D01*
X171517641Y-119356939D01*
X171298987Y-119503038D01*
X171113038Y-119688987D01*
X170966939Y-119907641D01*
X170878379Y-120121444D01*
X170818935Y-119958634D01*
X170765037Y-119857797D01*
X170531269Y-119798336D01*
X169789605Y-120540000D01*
X169430395Y-120540000D01*
X168688731Y-119798336D01*
X168454963Y-119857797D01*
X168344066Y-120096242D01*
X168281817Y-120351740D01*
X168270610Y-120614473D01*
X139065000Y-120614473D01*
X139065000Y-120408514D01*
X139013696Y-120150595D01*
X138913061Y-119907641D01*
X138766962Y-119688987D01*
X138581013Y-119503038D01*
X138362359Y-119356939D01*
X138119405Y-119256304D01*
X137861486Y-119205000D01*
X137598514Y-119205000D01*
X137340595Y-119256304D01*
X137097641Y-119356939D01*
X136878987Y-119503038D01*
X136693038Y-119688987D01*
X136546939Y-119907641D01*
X136460000Y-120117530D01*
X136373061Y-119907641D01*
X136226962Y-119688987D01*
X136041013Y-119503038D01*
X135822359Y-119356939D01*
X135579405Y-119256304D01*
X135321486Y-119205000D01*
X135058514Y-119205000D01*
X134800595Y-119256304D01*
X134557641Y-119356939D01*
X134338987Y-119503038D01*
X134153038Y-119688987D01*
X134006939Y-119907641D01*
X133920000Y-120117530D01*
X133833061Y-119907641D01*
X133686962Y-119688987D01*
X133501013Y-119503038D01*
X133282359Y-119356939D01*
X133039405Y-119256304D01*
X132781486Y-119205000D01*
X132518514Y-119205000D01*
X132260595Y-119256304D01*
X132017641Y-119356939D01*
X131798987Y-119503038D01*
X131613038Y-119688987D01*
X131466939Y-119907641D01*
X131378379Y-120121444D01*
X131318935Y-119958634D01*
X131265037Y-119857797D01*
X131031269Y-119798336D01*
X130289605Y-120540000D01*
X129930395Y-120540000D01*
X129188731Y-119798336D01*
X128954963Y-119857797D01*
X128844066Y-120096242D01*
X128781817Y-120351740D01*
X128770610Y-120614473D01*
X125173894Y-120614473D01*
X125160000Y-120482288D01*
X125160000Y-119618731D01*
X129368336Y-119618731D01*
X130110000Y-120360395D01*
X130851664Y-119618731D01*
X130792203Y-119384963D01*
X130553758Y-119274066D01*
X130298260Y-119211817D01*
X130035527Y-119200610D01*
X129775656Y-119240875D01*
X129528634Y-119331065D01*
X129427797Y-119384963D01*
X129368336Y-119618731D01*
X125160000Y-119618731D01*
X125160000Y-118921269D01*
X130638336Y-118921269D01*
X130697797Y-119155037D01*
X130936242Y-119265934D01*
X131191740Y-119328183D01*
X131454473Y-119339390D01*
X131714344Y-119299125D01*
X131961366Y-119208935D01*
X132062203Y-119155037D01*
X132121664Y-118921269D01*
X131380000Y-118179605D01*
X130638336Y-118921269D01*
X125160000Y-118921269D01*
X125160000Y-118074473D01*
X130040610Y-118074473D01*
X130080875Y-118334344D01*
X130171065Y-118581366D01*
X130224963Y-118682203D01*
X130458731Y-118741664D01*
X131200395Y-118000000D01*
X131559605Y-118000000D01*
X132301269Y-118741664D01*
X132535037Y-118682203D01*
X132645934Y-118443758D01*
X132650706Y-118424173D01*
X132736939Y-118632359D01*
X132883038Y-118851013D01*
X133068987Y-119036962D01*
X133287641Y-119183061D01*
X133530595Y-119283696D01*
X133788514Y-119335000D01*
X134051486Y-119335000D01*
X134309405Y-119283696D01*
X134552359Y-119183061D01*
X134771013Y-119036962D01*
X134956962Y-118851013D01*
X135103061Y-118632359D01*
X135190000Y-118422470D01*
X135276939Y-118632359D01*
X135423038Y-118851013D01*
X135608987Y-119036962D01*
X135827641Y-119183061D01*
X136070595Y-119283696D01*
X136328514Y-119335000D01*
X136591486Y-119335000D01*
X136849405Y-119283696D01*
X137092359Y-119183061D01*
X137311013Y-119036962D01*
X137496962Y-118851013D01*
X137643061Y-118632359D01*
X137730000Y-118422470D01*
X137816939Y-118632359D01*
X137963038Y-118851013D01*
X138148987Y-119036962D01*
X138367641Y-119183061D01*
X138610595Y-119283696D01*
X138868514Y-119335000D01*
X139131486Y-119335000D01*
X139389405Y-119283696D01*
X139632359Y-119183061D01*
X139684740Y-119148061D01*
X166215000Y-119148061D01*
X166215000Y-119351939D01*
X166254774Y-119551898D01*
X166332795Y-119740256D01*
X166446063Y-119909774D01*
X166590226Y-120053937D01*
X166759744Y-120167205D01*
X166948102Y-120245226D01*
X167148061Y-120285000D01*
X167351939Y-120285000D01*
X167551898Y-120245226D01*
X167740256Y-120167205D01*
X167909774Y-120053937D01*
X168053937Y-119909774D01*
X168167205Y-119740256D01*
X168217542Y-119618731D01*
X168868336Y-119618731D01*
X169610000Y-120360395D01*
X170351664Y-119618731D01*
X170292203Y-119384963D01*
X170053758Y-119274066D01*
X169798260Y-119211817D01*
X169535527Y-119200610D01*
X169275656Y-119240875D01*
X169028634Y-119331065D01*
X168927797Y-119384963D01*
X168868336Y-119618731D01*
X168217542Y-119618731D01*
X168245226Y-119551898D01*
X168285000Y-119351939D01*
X168285000Y-119148061D01*
X168245226Y-118948102D01*
X168234112Y-118921269D01*
X170138336Y-118921269D01*
X170197797Y-119155037D01*
X170436242Y-119265934D01*
X170691740Y-119328183D01*
X170954473Y-119339390D01*
X171214344Y-119299125D01*
X171461366Y-119208935D01*
X171562203Y-119155037D01*
X171621664Y-118921269D01*
X170880000Y-118179605D01*
X170138336Y-118921269D01*
X168234112Y-118921269D01*
X168167205Y-118759744D01*
X168053937Y-118590226D01*
X167909774Y-118446063D01*
X167740256Y-118332795D01*
X167551898Y-118254774D01*
X167351939Y-118215000D01*
X167148061Y-118215000D01*
X166948102Y-118254774D01*
X166759744Y-118332795D01*
X166590226Y-118446063D01*
X166446063Y-118590226D01*
X166332795Y-118759744D01*
X166254774Y-118948102D01*
X166215000Y-119148061D01*
X139684740Y-119148061D01*
X139851013Y-119036962D01*
X140036962Y-118851013D01*
X140183061Y-118632359D01*
X140283696Y-118389405D01*
X140335000Y-118131486D01*
X140335000Y-118074473D01*
X169540610Y-118074473D01*
X169580875Y-118334344D01*
X169671065Y-118581366D01*
X169724963Y-118682203D01*
X169958731Y-118741664D01*
X170700395Y-118000000D01*
X171059605Y-118000000D01*
X171801269Y-118741664D01*
X172035037Y-118682203D01*
X172145934Y-118443758D01*
X172150706Y-118424173D01*
X172236939Y-118632359D01*
X172383038Y-118851013D01*
X172568987Y-119036962D01*
X172787641Y-119183061D01*
X173030595Y-119283696D01*
X173288514Y-119335000D01*
X173551486Y-119335000D01*
X173809405Y-119283696D01*
X174052359Y-119183061D01*
X174271013Y-119036962D01*
X174456962Y-118851013D01*
X174603061Y-118632359D01*
X174690000Y-118422470D01*
X174776939Y-118632359D01*
X174923038Y-118851013D01*
X175108987Y-119036962D01*
X175327641Y-119183061D01*
X175570595Y-119283696D01*
X175828514Y-119335000D01*
X176091486Y-119335000D01*
X176349405Y-119283696D01*
X176592359Y-119183061D01*
X176811013Y-119036962D01*
X176996962Y-118851013D01*
X177143061Y-118632359D01*
X177230000Y-118422470D01*
X177316939Y-118632359D01*
X177463038Y-118851013D01*
X177648987Y-119036962D01*
X177867641Y-119183061D01*
X178110595Y-119283696D01*
X178368514Y-119335000D01*
X178631486Y-119335000D01*
X178889405Y-119283696D01*
X179132359Y-119183061D01*
X179351013Y-119036962D01*
X179536962Y-118851013D01*
X179683061Y-118632359D01*
X179783696Y-118389405D01*
X179835000Y-118131486D01*
X179835000Y-117868514D01*
X179783696Y-117610595D01*
X179683061Y-117367641D01*
X179536962Y-117148987D01*
X179351013Y-116963038D01*
X179132359Y-116816939D01*
X178889405Y-116716304D01*
X178631486Y-116665000D01*
X178368514Y-116665000D01*
X178110595Y-116716304D01*
X177867641Y-116816939D01*
X177648987Y-116963038D01*
X177463038Y-117148987D01*
X177316939Y-117367641D01*
X177230000Y-117577530D01*
X177143061Y-117367641D01*
X176996962Y-117148987D01*
X176811013Y-116963038D01*
X176592359Y-116816939D01*
X176349405Y-116716304D01*
X176091486Y-116665000D01*
X175828514Y-116665000D01*
X175570595Y-116716304D01*
X175327641Y-116816939D01*
X175108987Y-116963038D01*
X174923038Y-117148987D01*
X174776939Y-117367641D01*
X174690000Y-117577530D01*
X174603061Y-117367641D01*
X174456962Y-117148987D01*
X174271013Y-116963038D01*
X174052359Y-116816939D01*
X173809405Y-116716304D01*
X173551486Y-116665000D01*
X173288514Y-116665000D01*
X173030595Y-116716304D01*
X172787641Y-116816939D01*
X172568987Y-116963038D01*
X172383038Y-117148987D01*
X172236939Y-117367641D01*
X172148379Y-117581444D01*
X172088935Y-117418634D01*
X172035037Y-117317797D01*
X171801269Y-117258336D01*
X171059605Y-118000000D01*
X170700395Y-118000000D01*
X169958731Y-117258336D01*
X169724963Y-117317797D01*
X169614066Y-117556242D01*
X169551817Y-117811740D01*
X169540610Y-118074473D01*
X140335000Y-118074473D01*
X140335000Y-117868514D01*
X140283696Y-117610595D01*
X140183061Y-117367641D01*
X140036962Y-117148987D01*
X139966706Y-117078731D01*
X170138336Y-117078731D01*
X170880000Y-117820395D01*
X171621664Y-117078731D01*
X171562203Y-116844963D01*
X171323758Y-116734066D01*
X171068260Y-116671817D01*
X170805527Y-116660610D01*
X170545656Y-116700875D01*
X170298634Y-116791065D01*
X170197797Y-116844963D01*
X170138336Y-117078731D01*
X139966706Y-117078731D01*
X139851013Y-116963038D01*
X139632359Y-116816939D01*
X139389405Y-116716304D01*
X139131486Y-116665000D01*
X138868514Y-116665000D01*
X138610595Y-116716304D01*
X138367641Y-116816939D01*
X138148987Y-116963038D01*
X137963038Y-117148987D01*
X137816939Y-117367641D01*
X137730000Y-117577530D01*
X137643061Y-117367641D01*
X137496962Y-117148987D01*
X137311013Y-116963038D01*
X137092359Y-116816939D01*
X136849405Y-116716304D01*
X136591486Y-116665000D01*
X136328514Y-116665000D01*
X136070595Y-116716304D01*
X135827641Y-116816939D01*
X135608987Y-116963038D01*
X135423038Y-117148987D01*
X135276939Y-117367641D01*
X135190000Y-117577530D01*
X135103061Y-117367641D01*
X134956962Y-117148987D01*
X134771013Y-116963038D01*
X134552359Y-116816939D01*
X134309405Y-116716304D01*
X134051486Y-116665000D01*
X133788514Y-116665000D01*
X133530595Y-116716304D01*
X133287641Y-116816939D01*
X133068987Y-116963038D01*
X132883038Y-117148987D01*
X132736939Y-117367641D01*
X132648379Y-117581444D01*
X132588935Y-117418634D01*
X132535037Y-117317797D01*
X132301269Y-117258336D01*
X131559605Y-118000000D01*
X131200395Y-118000000D01*
X130458731Y-117258336D01*
X130224963Y-117317797D01*
X130114066Y-117556242D01*
X130051817Y-117811740D01*
X130040610Y-118074473D01*
X125160000Y-118074473D01*
X125160000Y-117078731D01*
X130638336Y-117078731D01*
X131380000Y-117820395D01*
X132121664Y-117078731D01*
X132062203Y-116844963D01*
X131823758Y-116734066D01*
X131568260Y-116671817D01*
X131305527Y-116660610D01*
X131045656Y-116700875D01*
X130798634Y-116791065D01*
X130697797Y-116844963D01*
X130638336Y-117078731D01*
X125160000Y-117078731D01*
X125160000Y-115728072D01*
X125254662Y-115869744D01*
X125510256Y-116125338D01*
X125810801Y-116326156D01*
X126144750Y-116464482D01*
X126499268Y-116535000D01*
X126860732Y-116535000D01*
X127215250Y-116464482D01*
X127549199Y-116326156D01*
X127849744Y-116125338D01*
X128105338Y-115869744D01*
X128306156Y-115569199D01*
X128444482Y-115235250D01*
X128515000Y-114880732D01*
X128515000Y-114519268D01*
X128444482Y-114164750D01*
X128306156Y-113830801D01*
X128288050Y-113803703D01*
X128621349Y-113870000D01*
X129058651Y-113870000D01*
X129487550Y-113784687D01*
X129891564Y-113617339D01*
X130255168Y-113374387D01*
X130564387Y-113065168D01*
X130807339Y-112701564D01*
X130974687Y-112297550D01*
X131060000Y-111868651D01*
X131060000Y-111431349D01*
X138050000Y-111431349D01*
X138050000Y-111868651D01*
X138135313Y-112297550D01*
X138302661Y-112701564D01*
X138545613Y-113065168D01*
X138854832Y-113374387D01*
X139218436Y-113617339D01*
X139622450Y-113784687D01*
X140051349Y-113870000D01*
X140488651Y-113870000D01*
X140821950Y-113803703D01*
X140803844Y-113830801D01*
X140665518Y-114164750D01*
X140595000Y-114519268D01*
X140595000Y-114880732D01*
X140665518Y-115235250D01*
X140803844Y-115569199D01*
X141004662Y-115869744D01*
X141260256Y-116125338D01*
X141560801Y-116326156D01*
X141894750Y-116464482D01*
X142249268Y-116535000D01*
X142610732Y-116535000D01*
X142965250Y-116464482D01*
X143299199Y-116326156D01*
X143599744Y-116125338D01*
X143855338Y-115869744D01*
X144056156Y-115569199D01*
X144194482Y-115235250D01*
X144265000Y-114880732D01*
X144265000Y-114519268D01*
X144194482Y-114164750D01*
X144187570Y-114148061D01*
X160965000Y-114148061D01*
X160965000Y-114351939D01*
X161004774Y-114551898D01*
X161082795Y-114740256D01*
X161196063Y-114909774D01*
X161340226Y-115053937D01*
X161509744Y-115167205D01*
X161698102Y-115245226D01*
X161898061Y-115285000D01*
X162101939Y-115285000D01*
X162301898Y-115245226D01*
X162490256Y-115167205D01*
X162659774Y-115053937D01*
X162803937Y-114909774D01*
X162917205Y-114740256D01*
X162995226Y-114551898D01*
X163001716Y-114519268D01*
X164345000Y-114519268D01*
X164345000Y-114880732D01*
X164415518Y-115235250D01*
X164553844Y-115569199D01*
X164754662Y-115869744D01*
X165010256Y-116125338D01*
X165310801Y-116326156D01*
X165644750Y-116464482D01*
X165999268Y-116535000D01*
X166360732Y-116535000D01*
X166715250Y-116464482D01*
X167049199Y-116326156D01*
X167349744Y-116125338D01*
X167605338Y-115869744D01*
X167806156Y-115569199D01*
X167944482Y-115235250D01*
X168015000Y-114880732D01*
X168015000Y-114519268D01*
X167944482Y-114164750D01*
X167806156Y-113830801D01*
X167788050Y-113803703D01*
X168121349Y-113870000D01*
X168558651Y-113870000D01*
X168987550Y-113784687D01*
X169391564Y-113617339D01*
X169755168Y-113374387D01*
X170064387Y-113065168D01*
X170307339Y-112701564D01*
X170474687Y-112297550D01*
X170560000Y-111868651D01*
X170560000Y-111431349D01*
X177550000Y-111431349D01*
X177550000Y-111868651D01*
X177635313Y-112297550D01*
X177802661Y-112701564D01*
X178045613Y-113065168D01*
X178354832Y-113374387D01*
X178718436Y-113617339D01*
X179122450Y-113784687D01*
X179551349Y-113870000D01*
X179988651Y-113870000D01*
X180321950Y-113803703D01*
X180303844Y-113830801D01*
X180165518Y-114164750D01*
X180095000Y-114519268D01*
X180095000Y-114880732D01*
X180165518Y-115235250D01*
X180303844Y-115569199D01*
X180504662Y-115869744D01*
X180760256Y-116125338D01*
X181060801Y-116326156D01*
X181394750Y-116464482D01*
X181749268Y-116535000D01*
X182110732Y-116535000D01*
X182465250Y-116464482D01*
X182799199Y-116326156D01*
X183099744Y-116125338D01*
X183355338Y-115869744D01*
X183556156Y-115569199D01*
X183694482Y-115235250D01*
X183765000Y-114880732D01*
X183765000Y-114519268D01*
X183694482Y-114164750D01*
X183556156Y-113830801D01*
X183355338Y-113530256D01*
X183099744Y-113274662D01*
X182799199Y-113073844D01*
X182465250Y-112935518D01*
X182110732Y-112865000D01*
X181749268Y-112865000D01*
X181609567Y-112892788D01*
X181737339Y-112701564D01*
X181904687Y-112297550D01*
X181990000Y-111868651D01*
X181990000Y-111431349D01*
X181904687Y-111002450D01*
X181737339Y-110598436D01*
X181494387Y-110234832D01*
X181185168Y-109925613D01*
X180821564Y-109682661D01*
X180417550Y-109515313D01*
X179988651Y-109430000D01*
X179551349Y-109430000D01*
X179122450Y-109515313D01*
X178718436Y-109682661D01*
X178354832Y-109925613D01*
X178045613Y-110234832D01*
X177802661Y-110598436D01*
X177635313Y-111002450D01*
X177550000Y-111431349D01*
X170560000Y-111431349D01*
X170474687Y-111002450D01*
X170307339Y-110598436D01*
X170064387Y-110234832D01*
X169755168Y-109925613D01*
X169391564Y-109682661D01*
X168987550Y-109515313D01*
X168558651Y-109430000D01*
X168121349Y-109430000D01*
X167692450Y-109515313D01*
X167288436Y-109682661D01*
X166924832Y-109925613D01*
X166615613Y-110234832D01*
X166372661Y-110598436D01*
X166205313Y-111002450D01*
X166120000Y-111431349D01*
X166120000Y-111868651D01*
X166205313Y-112297550D01*
X166372661Y-112701564D01*
X166500433Y-112892788D01*
X166360732Y-112865000D01*
X165999268Y-112865000D01*
X165644750Y-112935518D01*
X165310801Y-113073844D01*
X165010256Y-113274662D01*
X164754662Y-113530256D01*
X164553844Y-113830801D01*
X164415518Y-114164750D01*
X164345000Y-114519268D01*
X163001716Y-114519268D01*
X163035000Y-114351939D01*
X163035000Y-114148061D01*
X162995226Y-113948102D01*
X162917205Y-113759744D01*
X162803937Y-113590226D01*
X162659774Y-113446063D01*
X162490256Y-113332795D01*
X162301898Y-113254774D01*
X162101939Y-113215000D01*
X161898061Y-113215000D01*
X161698102Y-113254774D01*
X161509744Y-113332795D01*
X161340226Y-113446063D01*
X161196063Y-113590226D01*
X161082795Y-113759744D01*
X161004774Y-113948102D01*
X160965000Y-114148061D01*
X144187570Y-114148061D01*
X144056156Y-113830801D01*
X143855338Y-113530256D01*
X143599744Y-113274662D01*
X143299199Y-113073844D01*
X142965250Y-112935518D01*
X142610732Y-112865000D01*
X142249268Y-112865000D01*
X142109567Y-112892788D01*
X142237339Y-112701564D01*
X142404687Y-112297550D01*
X142490000Y-111868651D01*
X142490000Y-111431349D01*
X142404687Y-111002450D01*
X142237339Y-110598436D01*
X141994387Y-110234832D01*
X141685168Y-109925613D01*
X141321564Y-109682661D01*
X140917550Y-109515313D01*
X140488651Y-109430000D01*
X140051349Y-109430000D01*
X139622450Y-109515313D01*
X139218436Y-109682661D01*
X138854832Y-109925613D01*
X138545613Y-110234832D01*
X138302661Y-110598436D01*
X138135313Y-111002450D01*
X138050000Y-111431349D01*
X131060000Y-111431349D01*
X130974687Y-111002450D01*
X130807339Y-110598436D01*
X130564387Y-110234832D01*
X130255168Y-109925613D01*
X129891564Y-109682661D01*
X129487550Y-109515313D01*
X129058651Y-109430000D01*
X128621349Y-109430000D01*
X128192450Y-109515313D01*
X127788436Y-109682661D01*
X127424832Y-109925613D01*
X127115613Y-110234832D01*
X126872661Y-110598436D01*
X126705313Y-111002450D01*
X126620000Y-111431349D01*
X126620000Y-111868651D01*
X126705313Y-112297550D01*
X126872661Y-112701564D01*
X127000433Y-112892788D01*
X126860732Y-112865000D01*
X126499268Y-112865000D01*
X126144750Y-112935518D01*
X125810801Y-113073844D01*
X125510256Y-113274662D01*
X125254662Y-113530256D01*
X125160000Y-113671928D01*
X125160000Y-89050000D01*
X128811928Y-89050000D01*
X128824188Y-89174482D01*
X128860498Y-89294180D01*
X128919463Y-89404494D01*
X128998815Y-89501185D01*
X129095506Y-89580537D01*
X129109546Y-89588042D01*
X129006772Y-89741853D01*
X128879754Y-90048504D01*
X128815000Y-90374042D01*
X128815000Y-90705958D01*
X128879754Y-91031496D01*
X129006772Y-91338147D01*
X129191175Y-91614125D01*
X129387050Y-91810000D01*
X129191175Y-92005875D01*
X129006772Y-92281853D01*
X128879754Y-92588504D01*
X128815000Y-92914042D01*
X128815000Y-93245958D01*
X128879754Y-93571496D01*
X129006772Y-93878147D01*
X129191175Y-94154125D01*
X129387050Y-94350000D01*
X129191175Y-94545875D01*
X129006772Y-94821853D01*
X128879754Y-95128504D01*
X128815000Y-95454042D01*
X128815000Y-95785958D01*
X128879754Y-96111496D01*
X129006772Y-96418147D01*
X129191175Y-96694125D01*
X129387050Y-96890000D01*
X129191175Y-97085875D01*
X129006772Y-97361853D01*
X128879754Y-97668504D01*
X128815000Y-97994042D01*
X128815000Y-98325958D01*
X128879754Y-98651496D01*
X129006772Y-98958147D01*
X129191175Y-99234125D01*
X129387050Y-99430000D01*
X129191175Y-99625875D01*
X129006772Y-99901853D01*
X128879754Y-100208504D01*
X128815000Y-100534042D01*
X128815000Y-100865958D01*
X128879754Y-101191496D01*
X129006772Y-101498147D01*
X129191175Y-101774125D01*
X129425875Y-102008825D01*
X129701853Y-102193228D01*
X130008504Y-102320246D01*
X130334042Y-102385000D01*
X130665958Y-102385000D01*
X130991496Y-102320246D01*
X131298147Y-102193228D01*
X131574125Y-102008825D01*
X131808825Y-101774125D01*
X131870361Y-101682029D01*
X138785500Y-101682029D01*
X138785500Y-102279971D01*
X138902153Y-102866423D01*
X139130975Y-103418848D01*
X139463174Y-103916018D01*
X139885982Y-104338826D01*
X140383152Y-104671025D01*
X140935577Y-104899847D01*
X141522029Y-105016500D01*
X142119971Y-105016500D01*
X142706423Y-104899847D01*
X143258848Y-104671025D01*
X143756018Y-104338826D01*
X144178826Y-103916018D01*
X144511025Y-103418848D01*
X144739847Y-102866423D01*
X144856500Y-102279971D01*
X144856500Y-102050760D01*
X147397631Y-102050760D01*
X147439282Y-102334128D01*
X147535415Y-102603926D01*
X147604823Y-102733779D01*
X147850732Y-102807663D01*
X148677395Y-101981000D01*
X147850732Y-101154337D01*
X147604823Y-101228221D01*
X147482023Y-101486973D01*
X147412063Y-101764711D01*
X147397631Y-102050760D01*
X144856500Y-102050760D01*
X144856500Y-101682029D01*
X144739847Y-101095577D01*
X144689792Y-100974732D01*
X148030337Y-100974732D01*
X148857000Y-101801395D01*
X148871143Y-101787253D01*
X149050748Y-101966858D01*
X149036605Y-101981000D01*
X149050748Y-101995143D01*
X148871143Y-102174748D01*
X148857000Y-102160605D01*
X148030337Y-102987268D01*
X148104221Y-103233177D01*
X148362973Y-103355977D01*
X148640711Y-103425937D01*
X148648093Y-103426309D01*
X148601877Y-103537884D01*
X148546000Y-103818794D01*
X148546000Y-104105206D01*
X148601877Y-104386116D01*
X148711482Y-104650727D01*
X148870605Y-104888871D01*
X149073129Y-105091395D01*
X149311273Y-105250518D01*
X149575884Y-105360123D01*
X149856794Y-105416000D01*
X150143206Y-105416000D01*
X150424116Y-105360123D01*
X150688727Y-105250518D01*
X150926871Y-105091395D01*
X151129395Y-104888871D01*
X151143000Y-104868510D01*
X151156605Y-104888871D01*
X151359129Y-105091395D01*
X151597273Y-105250518D01*
X151861884Y-105360123D01*
X152142794Y-105416000D01*
X152429206Y-105416000D01*
X152710116Y-105360123D01*
X152974727Y-105250518D01*
X153212871Y-105091395D01*
X153415395Y-104888871D01*
X153429000Y-104868510D01*
X153442605Y-104888871D01*
X153645129Y-105091395D01*
X153883273Y-105250518D01*
X154147884Y-105360123D01*
X154428794Y-105416000D01*
X154715206Y-105416000D01*
X154996116Y-105360123D01*
X155260727Y-105250518D01*
X155498871Y-105091395D01*
X155701395Y-104888871D01*
X155715000Y-104868510D01*
X155728605Y-104888871D01*
X155931129Y-105091395D01*
X156169273Y-105250518D01*
X156433884Y-105360123D01*
X156714794Y-105416000D01*
X157001206Y-105416000D01*
X157282116Y-105360123D01*
X157546727Y-105250518D01*
X157784871Y-105091395D01*
X157987395Y-104888871D01*
X158001000Y-104868510D01*
X158014605Y-104888871D01*
X158217129Y-105091395D01*
X158455273Y-105250518D01*
X158719884Y-105360123D01*
X159000794Y-105416000D01*
X159287206Y-105416000D01*
X159568116Y-105360123D01*
X159832727Y-105250518D01*
X160070871Y-105091395D01*
X160273395Y-104888871D01*
X160432518Y-104650727D01*
X160542123Y-104386116D01*
X160598000Y-104105206D01*
X160598000Y-103818794D01*
X160542123Y-103537884D01*
X160432518Y-103273273D01*
X160273395Y-103035129D01*
X160070871Y-102832605D01*
X159832727Y-102673482D01*
X159568116Y-102563877D01*
X159351232Y-102520736D01*
X159399123Y-102405116D01*
X159455000Y-102124206D01*
X159455000Y-101837794D01*
X159424017Y-101682029D01*
X163779500Y-101682029D01*
X163779500Y-102279971D01*
X163896153Y-102866423D01*
X164124975Y-103418848D01*
X164457174Y-103916018D01*
X164879982Y-104338826D01*
X165377152Y-104671025D01*
X165929577Y-104899847D01*
X166516029Y-105016500D01*
X167113971Y-105016500D01*
X167700423Y-104899847D01*
X168252848Y-104671025D01*
X168750018Y-104338826D01*
X169172826Y-103916018D01*
X169505025Y-103418848D01*
X169733847Y-102866423D01*
X169850500Y-102279971D01*
X169850500Y-101682029D01*
X169733847Y-101095577D01*
X169505025Y-100543152D01*
X169172826Y-100045982D01*
X168750018Y-99623174D01*
X168252848Y-99290975D01*
X167700423Y-99062153D01*
X167113971Y-98945500D01*
X166516029Y-98945500D01*
X165929577Y-99062153D01*
X165377152Y-99290975D01*
X164879982Y-99623174D01*
X164457174Y-100045982D01*
X164124975Y-100543152D01*
X163896153Y-101095577D01*
X163779500Y-101682029D01*
X159424017Y-101682029D01*
X159399123Y-101556884D01*
X159351232Y-101441264D01*
X159568116Y-101398123D01*
X159832727Y-101288518D01*
X160070871Y-101129395D01*
X160273395Y-100926871D01*
X160432518Y-100688727D01*
X160542123Y-100424116D01*
X160598000Y-100143206D01*
X160598000Y-99856794D01*
X160542123Y-99575884D01*
X160432518Y-99311273D01*
X160273395Y-99073129D01*
X160070871Y-98870605D01*
X159832727Y-98711482D01*
X159568116Y-98601877D01*
X159287206Y-98546000D01*
X159000794Y-98546000D01*
X158719884Y-98601877D01*
X158455273Y-98711482D01*
X158217129Y-98870605D01*
X158014605Y-99073129D01*
X158001000Y-99093490D01*
X157987395Y-99073129D01*
X157784871Y-98870605D01*
X157546727Y-98711482D01*
X157282116Y-98601877D01*
X157001206Y-98546000D01*
X156714794Y-98546000D01*
X156433884Y-98601877D01*
X156169273Y-98711482D01*
X155931129Y-98870605D01*
X155728605Y-99073129D01*
X155715000Y-99093490D01*
X155701395Y-99073129D01*
X155498871Y-98870605D01*
X155260727Y-98711482D01*
X154996116Y-98601877D01*
X154715206Y-98546000D01*
X154428794Y-98546000D01*
X154147884Y-98601877D01*
X153883273Y-98711482D01*
X153645129Y-98870605D01*
X153442605Y-99073129D01*
X153429000Y-99093490D01*
X153415395Y-99073129D01*
X153212871Y-98870605D01*
X152974727Y-98711482D01*
X152710116Y-98601877D01*
X152429206Y-98546000D01*
X152142794Y-98546000D01*
X151861884Y-98601877D01*
X151597273Y-98711482D01*
X151359129Y-98870605D01*
X151156605Y-99073129D01*
X151075708Y-99194200D01*
X151006268Y-99173337D01*
X150179605Y-100000000D01*
X150193748Y-100014143D01*
X150014143Y-100193748D01*
X150000000Y-100179605D01*
X149985858Y-100193748D01*
X149806253Y-100014143D01*
X149820395Y-100000000D01*
X148993732Y-99173337D01*
X148747823Y-99247221D01*
X148625023Y-99505973D01*
X148555063Y-99783711D01*
X148540631Y-100069760D01*
X148582282Y-100353128D01*
X148649534Y-100541872D01*
X148503872Y-100563282D01*
X148234074Y-100659415D01*
X148104221Y-100728823D01*
X148030337Y-100974732D01*
X144689792Y-100974732D01*
X144511025Y-100543152D01*
X144178826Y-100045982D01*
X143756018Y-99623174D01*
X143258848Y-99290975D01*
X142706423Y-99062153D01*
X142362449Y-98993732D01*
X149173337Y-98993732D01*
X150000000Y-99820395D01*
X150826663Y-98993732D01*
X150752779Y-98747823D01*
X150494027Y-98625023D01*
X150216289Y-98555063D01*
X149930240Y-98540631D01*
X149646872Y-98582282D01*
X149377074Y-98678415D01*
X149247221Y-98747823D01*
X149173337Y-98993732D01*
X142362449Y-98993732D01*
X142119971Y-98945500D01*
X141522029Y-98945500D01*
X140935577Y-99062153D01*
X140383152Y-99290975D01*
X139885982Y-99623174D01*
X139463174Y-100045982D01*
X139130975Y-100543152D01*
X138902153Y-101095577D01*
X138785500Y-101682029D01*
X131870361Y-101682029D01*
X131993228Y-101498147D01*
X132120246Y-101191496D01*
X132185000Y-100865958D01*
X132185000Y-100534042D01*
X132120246Y-100208504D01*
X131993228Y-99901853D01*
X131808825Y-99625875D01*
X131612950Y-99430000D01*
X131808825Y-99234125D01*
X131993228Y-98958147D01*
X132120246Y-98651496D01*
X132185000Y-98325958D01*
X132185000Y-97994042D01*
X132120246Y-97668504D01*
X131993228Y-97361853D01*
X131808825Y-97085875D01*
X131612950Y-96890000D01*
X131808825Y-96694125D01*
X131993228Y-96418147D01*
X132120246Y-96111496D01*
X132185000Y-95785958D01*
X132185000Y-95454042D01*
X132120246Y-95128504D01*
X131993228Y-94821853D01*
X131808825Y-94545875D01*
X131612950Y-94350000D01*
X131808825Y-94154125D01*
X131993228Y-93878147D01*
X132120246Y-93571496D01*
X132185000Y-93245958D01*
X132185000Y-92914042D01*
X132120246Y-92588504D01*
X131993228Y-92281853D01*
X131808825Y-92005875D01*
X131612950Y-91810000D01*
X131808825Y-91614125D01*
X131993228Y-91338147D01*
X132120246Y-91031496D01*
X132185000Y-90705958D01*
X132185000Y-90374042D01*
X132120246Y-90048504D01*
X131993228Y-89741853D01*
X131890454Y-89588042D01*
X131904494Y-89580537D01*
X132001185Y-89501185D01*
X132080537Y-89404494D01*
X132139502Y-89294180D01*
X132175812Y-89174482D01*
X132188072Y-89050000D01*
X132185000Y-88285750D01*
X132026250Y-88127000D01*
X130627000Y-88127000D01*
X130627000Y-88147000D01*
X130373000Y-88147000D01*
X130373000Y-88127000D01*
X128973750Y-88127000D01*
X128815000Y-88285750D01*
X128811928Y-89050000D01*
X125160000Y-89050000D01*
X125160000Y-86950000D01*
X128811928Y-86950000D01*
X128815000Y-87714250D01*
X128973750Y-87873000D01*
X130373000Y-87873000D01*
X130373000Y-86473750D01*
X130627000Y-86473750D01*
X130627000Y-87873000D01*
X132026250Y-87873000D01*
X132185000Y-87714250D01*
X132187391Y-87119268D01*
X134735000Y-87119268D01*
X134735000Y-87480732D01*
X134805518Y-87835250D01*
X134943844Y-88169199D01*
X135144662Y-88469744D01*
X135400256Y-88725338D01*
X135700801Y-88926156D01*
X136034750Y-89064482D01*
X136389268Y-89135000D01*
X136750732Y-89135000D01*
X136890433Y-89107212D01*
X136762661Y-89298436D01*
X136595313Y-89702450D01*
X136510000Y-90131349D01*
X136510000Y-90568651D01*
X136595313Y-90997550D01*
X136762661Y-91401564D01*
X137005613Y-91765168D01*
X137314832Y-92074387D01*
X137678436Y-92317339D01*
X138082450Y-92484687D01*
X138511349Y-92570000D01*
X138948651Y-92570000D01*
X139377550Y-92484687D01*
X139781564Y-92317339D01*
X140145168Y-92074387D01*
X140454387Y-91765168D01*
X140697339Y-91401564D01*
X140864687Y-90997550D01*
X140950000Y-90568651D01*
X140950000Y-90131349D01*
X147940000Y-90131349D01*
X147940000Y-90568651D01*
X148025313Y-90997550D01*
X148192661Y-91401564D01*
X148435613Y-91765168D01*
X148744832Y-92074387D01*
X149108436Y-92317339D01*
X149512450Y-92484687D01*
X149941349Y-92570000D01*
X150378651Y-92570000D01*
X150807550Y-92484687D01*
X151211564Y-92317339D01*
X151575168Y-92074387D01*
X151884387Y-91765168D01*
X152127339Y-91401564D01*
X152294687Y-90997550D01*
X152380000Y-90568651D01*
X152380000Y-90131349D01*
X152294687Y-89702450D01*
X152127339Y-89298436D01*
X151999567Y-89107212D01*
X152139268Y-89135000D01*
X152500732Y-89135000D01*
X152855250Y-89064482D01*
X153189199Y-88926156D01*
X153489744Y-88725338D01*
X153745338Y-88469744D01*
X153946156Y-88169199D01*
X154084482Y-87835250D01*
X154155000Y-87480732D01*
X154155000Y-87119268D01*
X155235000Y-87119268D01*
X155235000Y-87480732D01*
X155305518Y-87835250D01*
X155443844Y-88169199D01*
X155644662Y-88469744D01*
X155900256Y-88725338D01*
X156200801Y-88926156D01*
X156534750Y-89064482D01*
X156889268Y-89135000D01*
X157250732Y-89135000D01*
X157390433Y-89107212D01*
X157262661Y-89298436D01*
X157095313Y-89702450D01*
X157010000Y-90131349D01*
X157010000Y-90568651D01*
X157095313Y-90997550D01*
X157262661Y-91401564D01*
X157505613Y-91765168D01*
X157814832Y-92074387D01*
X158178436Y-92317339D01*
X158582450Y-92484687D01*
X159011349Y-92570000D01*
X159448651Y-92570000D01*
X159877550Y-92484687D01*
X160281564Y-92317339D01*
X160645168Y-92074387D01*
X160954387Y-91765168D01*
X161197339Y-91401564D01*
X161364687Y-90997550D01*
X161450000Y-90568651D01*
X161450000Y-90131349D01*
X168440000Y-90131349D01*
X168440000Y-90568651D01*
X168525313Y-90997550D01*
X168692661Y-91401564D01*
X168935613Y-91765168D01*
X169244832Y-92074387D01*
X169608436Y-92317339D01*
X170012450Y-92484687D01*
X170441349Y-92570000D01*
X170878651Y-92570000D01*
X171307550Y-92484687D01*
X171711564Y-92317339D01*
X172075168Y-92074387D01*
X172384387Y-91765168D01*
X172627339Y-91401564D01*
X172794687Y-90997550D01*
X172880000Y-90568651D01*
X172880000Y-90131349D01*
X172794687Y-89702450D01*
X172627339Y-89298436D01*
X172526862Y-89148061D01*
X175465000Y-89148061D01*
X175465000Y-89351939D01*
X175504774Y-89551898D01*
X175582795Y-89740256D01*
X175696063Y-89909774D01*
X175840226Y-90053937D01*
X176009744Y-90167205D01*
X176198102Y-90245226D01*
X176398061Y-90285000D01*
X176601939Y-90285000D01*
X176801898Y-90245226D01*
X176844100Y-90227745D01*
X176815000Y-90374042D01*
X176815000Y-90705958D01*
X176879754Y-91031496D01*
X177006772Y-91338147D01*
X177191175Y-91614125D01*
X177387050Y-91810000D01*
X177191175Y-92005875D01*
X177006772Y-92281853D01*
X176879754Y-92588504D01*
X176815000Y-92914042D01*
X176815000Y-93245958D01*
X176879754Y-93571496D01*
X177006772Y-93878147D01*
X177191175Y-94154125D01*
X177387050Y-94350000D01*
X177191175Y-94545875D01*
X177006772Y-94821853D01*
X176879754Y-95128504D01*
X176815000Y-95454042D01*
X176815000Y-95785958D01*
X176879754Y-96111496D01*
X177006772Y-96418147D01*
X177191175Y-96694125D01*
X177387050Y-96890000D01*
X177191175Y-97085875D01*
X177006772Y-97361853D01*
X176879754Y-97668504D01*
X176815000Y-97994042D01*
X176815000Y-98325958D01*
X176879754Y-98651496D01*
X177006772Y-98958147D01*
X177191175Y-99234125D01*
X177387050Y-99430000D01*
X177191175Y-99625875D01*
X177006772Y-99901853D01*
X176879754Y-100208504D01*
X176815000Y-100534042D01*
X176815000Y-100865958D01*
X176879754Y-101191496D01*
X177006772Y-101498147D01*
X177191175Y-101774125D01*
X177425875Y-102008825D01*
X177701853Y-102193228D01*
X178008504Y-102320246D01*
X178334042Y-102385000D01*
X178665958Y-102385000D01*
X178991496Y-102320246D01*
X179298147Y-102193228D01*
X179574125Y-102008825D01*
X179808825Y-101774125D01*
X179993228Y-101498147D01*
X180120246Y-101191496D01*
X180185000Y-100865958D01*
X180185000Y-100534042D01*
X180120246Y-100208504D01*
X179993228Y-99901853D01*
X179808825Y-99625875D01*
X179612950Y-99430000D01*
X179808825Y-99234125D01*
X179993228Y-98958147D01*
X180120246Y-98651496D01*
X180185000Y-98325958D01*
X180185000Y-97994042D01*
X180120246Y-97668504D01*
X179993228Y-97361853D01*
X179808825Y-97085875D01*
X179612950Y-96890000D01*
X179808825Y-96694125D01*
X179993228Y-96418147D01*
X180120246Y-96111496D01*
X180185000Y-95785958D01*
X180185000Y-95454042D01*
X180120246Y-95128504D01*
X179993228Y-94821853D01*
X179808825Y-94545875D01*
X179612950Y-94350000D01*
X179808825Y-94154125D01*
X179993228Y-93878147D01*
X180120246Y-93571496D01*
X180185000Y-93245958D01*
X180185000Y-92914042D01*
X180120246Y-92588504D01*
X179993228Y-92281853D01*
X179808825Y-92005875D01*
X179612950Y-91810000D01*
X179808825Y-91614125D01*
X179993228Y-91338147D01*
X180120246Y-91031496D01*
X180185000Y-90705958D01*
X180185000Y-90374042D01*
X180120246Y-90048504D01*
X179993228Y-89741853D01*
X179890454Y-89588042D01*
X179904494Y-89580537D01*
X180001185Y-89501185D01*
X180080537Y-89404494D01*
X180139502Y-89294180D01*
X180175812Y-89174482D01*
X180188072Y-89050000D01*
X180185000Y-88285750D01*
X180026250Y-88127000D01*
X178627000Y-88127000D01*
X178627000Y-88147000D01*
X178373000Y-88147000D01*
X178373000Y-88127000D01*
X176973750Y-88127000D01*
X176833066Y-88267684D01*
X176801898Y-88254774D01*
X176601939Y-88215000D01*
X176398061Y-88215000D01*
X176198102Y-88254774D01*
X176009744Y-88332795D01*
X175840226Y-88446063D01*
X175696063Y-88590226D01*
X175582795Y-88759744D01*
X175504774Y-88948102D01*
X175465000Y-89148061D01*
X172526862Y-89148061D01*
X172499567Y-89107212D01*
X172639268Y-89135000D01*
X173000732Y-89135000D01*
X173355250Y-89064482D01*
X173689199Y-88926156D01*
X173989744Y-88725338D01*
X174245338Y-88469744D01*
X174446156Y-88169199D01*
X174584482Y-87835250D01*
X174655000Y-87480732D01*
X174655000Y-87119268D01*
X174621331Y-86950000D01*
X176811928Y-86950000D01*
X176815000Y-87714250D01*
X176973750Y-87873000D01*
X178373000Y-87873000D01*
X178373000Y-86473750D01*
X178627000Y-86473750D01*
X178627000Y-87873000D01*
X180026250Y-87873000D01*
X180185000Y-87714250D01*
X180188072Y-86950000D01*
X180175812Y-86825518D01*
X180139502Y-86705820D01*
X180080537Y-86595506D01*
X180001185Y-86498815D01*
X179904494Y-86419463D01*
X179794180Y-86360498D01*
X179674482Y-86324188D01*
X179550000Y-86311928D01*
X178785750Y-86315000D01*
X178627000Y-86473750D01*
X178373000Y-86473750D01*
X178214250Y-86315000D01*
X177450000Y-86311928D01*
X177325518Y-86324188D01*
X177205820Y-86360498D01*
X177095506Y-86419463D01*
X176998815Y-86498815D01*
X176919463Y-86595506D01*
X176860498Y-86705820D01*
X176824188Y-86825518D01*
X176811928Y-86950000D01*
X174621331Y-86950000D01*
X174584482Y-86764750D01*
X174446156Y-86430801D01*
X174245338Y-86130256D01*
X173989744Y-85874662D01*
X173689199Y-85673844D01*
X173355250Y-85535518D01*
X173000732Y-85465000D01*
X172639268Y-85465000D01*
X172284750Y-85535518D01*
X171950801Y-85673844D01*
X171650256Y-85874662D01*
X171394662Y-86130256D01*
X171193844Y-86430801D01*
X171055518Y-86764750D01*
X170985000Y-87119268D01*
X170985000Y-87480732D01*
X171055518Y-87835250D01*
X171193844Y-88169199D01*
X171211950Y-88196297D01*
X170878651Y-88130000D01*
X170441349Y-88130000D01*
X170012450Y-88215313D01*
X169608436Y-88382661D01*
X169244832Y-88625613D01*
X168935613Y-88934832D01*
X168692661Y-89298436D01*
X168525313Y-89702450D01*
X168440000Y-90131349D01*
X161450000Y-90131349D01*
X161364687Y-89702450D01*
X161197339Y-89298436D01*
X160954387Y-88934832D01*
X160645168Y-88625613D01*
X160281564Y-88382661D01*
X159877550Y-88215313D01*
X159448651Y-88130000D01*
X159011349Y-88130000D01*
X158678050Y-88196297D01*
X158696156Y-88169199D01*
X158834482Y-87835250D01*
X158905000Y-87480732D01*
X158905000Y-87119268D01*
X158834482Y-86764750D01*
X158696156Y-86430801D01*
X158495338Y-86130256D01*
X158239744Y-85874662D01*
X157939199Y-85673844D01*
X157605250Y-85535518D01*
X157250732Y-85465000D01*
X156889268Y-85465000D01*
X156534750Y-85535518D01*
X156200801Y-85673844D01*
X155900256Y-85874662D01*
X155644662Y-86130256D01*
X155443844Y-86430801D01*
X155305518Y-86764750D01*
X155235000Y-87119268D01*
X154155000Y-87119268D01*
X154084482Y-86764750D01*
X153946156Y-86430801D01*
X153745338Y-86130256D01*
X153489744Y-85874662D01*
X153189199Y-85673844D01*
X152855250Y-85535518D01*
X152500732Y-85465000D01*
X152139268Y-85465000D01*
X151784750Y-85535518D01*
X151450801Y-85673844D01*
X151150256Y-85874662D01*
X150894662Y-86130256D01*
X150693844Y-86430801D01*
X150555518Y-86764750D01*
X150485000Y-87119268D01*
X150485000Y-87480732D01*
X150555518Y-87835250D01*
X150693844Y-88169199D01*
X150711950Y-88196297D01*
X150378651Y-88130000D01*
X149941349Y-88130000D01*
X149512450Y-88215313D01*
X149108436Y-88382661D01*
X148744832Y-88625613D01*
X148435613Y-88934832D01*
X148192661Y-89298436D01*
X148025313Y-89702450D01*
X147940000Y-90131349D01*
X140950000Y-90131349D01*
X140864687Y-89702450D01*
X140697339Y-89298436D01*
X140454387Y-88934832D01*
X140145168Y-88625613D01*
X139781564Y-88382661D01*
X139377550Y-88215313D01*
X138948651Y-88130000D01*
X138511349Y-88130000D01*
X138178050Y-88196297D01*
X138196156Y-88169199D01*
X138334482Y-87835250D01*
X138405000Y-87480732D01*
X138405000Y-87119268D01*
X138334482Y-86764750D01*
X138196156Y-86430801D01*
X137995338Y-86130256D01*
X137739744Y-85874662D01*
X137439199Y-85673844D01*
X137105250Y-85535518D01*
X136750732Y-85465000D01*
X136389268Y-85465000D01*
X136034750Y-85535518D01*
X135700801Y-85673844D01*
X135400256Y-85874662D01*
X135144662Y-86130256D01*
X134943844Y-86430801D01*
X134805518Y-86764750D01*
X134735000Y-87119268D01*
X132187391Y-87119268D01*
X132188072Y-86950000D01*
X132175812Y-86825518D01*
X132139502Y-86705820D01*
X132080537Y-86595506D01*
X132001185Y-86498815D01*
X131904494Y-86419463D01*
X131794180Y-86360498D01*
X131674482Y-86324188D01*
X131550000Y-86311928D01*
X130785750Y-86315000D01*
X130627000Y-86473750D01*
X130373000Y-86473750D01*
X130214250Y-86315000D01*
X129450000Y-86311928D01*
X129325518Y-86324188D01*
X129205820Y-86360498D01*
X129095506Y-86419463D01*
X128998815Y-86498815D01*
X128919463Y-86595506D01*
X128860498Y-86705820D01*
X128824188Y-86825518D01*
X128811928Y-86950000D01*
X125160000Y-86950000D01*
X125160000Y-83868514D01*
X138665000Y-83868514D01*
X138665000Y-84131486D01*
X138716304Y-84389405D01*
X138816939Y-84632359D01*
X138963038Y-84851013D01*
X139148987Y-85036962D01*
X139367641Y-85183061D01*
X139610595Y-85283696D01*
X139868514Y-85335000D01*
X140131486Y-85335000D01*
X140389405Y-85283696D01*
X140632359Y-85183061D01*
X140851013Y-85036962D01*
X141036962Y-84851013D01*
X141183061Y-84632359D01*
X141270000Y-84422470D01*
X141356939Y-84632359D01*
X141503038Y-84851013D01*
X141688987Y-85036962D01*
X141907641Y-85183061D01*
X142150595Y-85283696D01*
X142408514Y-85335000D01*
X142671486Y-85335000D01*
X142929405Y-85283696D01*
X143172359Y-85183061D01*
X143391013Y-85036962D01*
X143576962Y-84851013D01*
X143723061Y-84632359D01*
X143810000Y-84422470D01*
X143896939Y-84632359D01*
X144043038Y-84851013D01*
X144228987Y-85036962D01*
X144447641Y-85183061D01*
X144690595Y-85283696D01*
X144948514Y-85335000D01*
X145211486Y-85335000D01*
X145469405Y-85283696D01*
X145712359Y-85183061D01*
X145931013Y-85036962D01*
X146046706Y-84921269D01*
X146878336Y-84921269D01*
X146937797Y-85155037D01*
X147176242Y-85265934D01*
X147431740Y-85328183D01*
X147694473Y-85339390D01*
X147954344Y-85299125D01*
X148201366Y-85208935D01*
X148302203Y-85155037D01*
X148361664Y-84921269D01*
X147620000Y-84179605D01*
X146878336Y-84921269D01*
X146046706Y-84921269D01*
X146116962Y-84851013D01*
X146263061Y-84632359D01*
X146351621Y-84418556D01*
X146411065Y-84581366D01*
X146464963Y-84682203D01*
X146698731Y-84741664D01*
X147440395Y-84000000D01*
X147799605Y-84000000D01*
X148541269Y-84741664D01*
X148775037Y-84682203D01*
X148885934Y-84443758D01*
X148948183Y-84188260D01*
X148959390Y-83925527D01*
X148950557Y-83868514D01*
X159165000Y-83868514D01*
X159165000Y-84131486D01*
X159216304Y-84389405D01*
X159316939Y-84632359D01*
X159463038Y-84851013D01*
X159648987Y-85036962D01*
X159867641Y-85183061D01*
X160110595Y-85283696D01*
X160368514Y-85335000D01*
X160631486Y-85335000D01*
X160889405Y-85283696D01*
X161132359Y-85183061D01*
X161351013Y-85036962D01*
X161536962Y-84851013D01*
X161683061Y-84632359D01*
X161770000Y-84422470D01*
X161856939Y-84632359D01*
X162003038Y-84851013D01*
X162188987Y-85036962D01*
X162407641Y-85183061D01*
X162650595Y-85283696D01*
X162908514Y-85335000D01*
X163171486Y-85335000D01*
X163429405Y-85283696D01*
X163672359Y-85183061D01*
X163891013Y-85036962D01*
X164076962Y-84851013D01*
X164223061Y-84632359D01*
X164310000Y-84422470D01*
X164396939Y-84632359D01*
X164543038Y-84851013D01*
X164728987Y-85036962D01*
X164947641Y-85183061D01*
X165190595Y-85283696D01*
X165448514Y-85335000D01*
X165711486Y-85335000D01*
X165969405Y-85283696D01*
X166212359Y-85183061D01*
X166431013Y-85036962D01*
X166546706Y-84921269D01*
X167378336Y-84921269D01*
X167437797Y-85155037D01*
X167676242Y-85265934D01*
X167931740Y-85328183D01*
X168194473Y-85339390D01*
X168454344Y-85299125D01*
X168701366Y-85208935D01*
X168802203Y-85155037D01*
X168861664Y-84921269D01*
X168120000Y-84179605D01*
X167378336Y-84921269D01*
X166546706Y-84921269D01*
X166616962Y-84851013D01*
X166763061Y-84632359D01*
X166851621Y-84418556D01*
X166911065Y-84581366D01*
X166964963Y-84682203D01*
X167198731Y-84741664D01*
X167940395Y-84000000D01*
X168299605Y-84000000D01*
X169041269Y-84741664D01*
X169275037Y-84682203D01*
X169385934Y-84443758D01*
X169448183Y-84188260D01*
X169459390Y-83925527D01*
X169419125Y-83665656D01*
X169328935Y-83418634D01*
X169275037Y-83317797D01*
X169041269Y-83258336D01*
X168299605Y-84000000D01*
X167940395Y-84000000D01*
X167198731Y-83258336D01*
X166964963Y-83317797D01*
X166854066Y-83556242D01*
X166849294Y-83575827D01*
X166763061Y-83367641D01*
X166616962Y-83148987D01*
X166546706Y-83078731D01*
X167378336Y-83078731D01*
X168120000Y-83820395D01*
X168861664Y-83078731D01*
X168802203Y-82844963D01*
X168563758Y-82734066D01*
X168308260Y-82671817D01*
X168045527Y-82660610D01*
X167785656Y-82700875D01*
X167538634Y-82791065D01*
X167437797Y-82844963D01*
X167378336Y-83078731D01*
X166546706Y-83078731D01*
X166431013Y-82963038D01*
X166212359Y-82816939D01*
X165969405Y-82716304D01*
X165711486Y-82665000D01*
X165448514Y-82665000D01*
X165190595Y-82716304D01*
X164947641Y-82816939D01*
X164728987Y-82963038D01*
X164543038Y-83148987D01*
X164396939Y-83367641D01*
X164310000Y-83577530D01*
X164223061Y-83367641D01*
X164076962Y-83148987D01*
X163891013Y-82963038D01*
X163672359Y-82816939D01*
X163429405Y-82716304D01*
X163171486Y-82665000D01*
X162908514Y-82665000D01*
X162650595Y-82716304D01*
X162407641Y-82816939D01*
X162188987Y-82963038D01*
X162003038Y-83148987D01*
X161856939Y-83367641D01*
X161770000Y-83577530D01*
X161683061Y-83367641D01*
X161536962Y-83148987D01*
X161351013Y-82963038D01*
X161132359Y-82816939D01*
X160889405Y-82716304D01*
X160631486Y-82665000D01*
X160368514Y-82665000D01*
X160110595Y-82716304D01*
X159867641Y-82816939D01*
X159648987Y-82963038D01*
X159463038Y-83148987D01*
X159316939Y-83367641D01*
X159216304Y-83610595D01*
X159165000Y-83868514D01*
X148950557Y-83868514D01*
X148919125Y-83665656D01*
X148828935Y-83418634D01*
X148775037Y-83317797D01*
X148541269Y-83258336D01*
X147799605Y-84000000D01*
X147440395Y-84000000D01*
X146698731Y-83258336D01*
X146464963Y-83317797D01*
X146354066Y-83556242D01*
X146349294Y-83575827D01*
X146263061Y-83367641D01*
X146116962Y-83148987D01*
X146046706Y-83078731D01*
X146878336Y-83078731D01*
X147620000Y-83820395D01*
X148361664Y-83078731D01*
X148302203Y-82844963D01*
X148063758Y-82734066D01*
X147808260Y-82671817D01*
X147545527Y-82660610D01*
X147285656Y-82700875D01*
X147038634Y-82791065D01*
X146937797Y-82844963D01*
X146878336Y-83078731D01*
X146046706Y-83078731D01*
X145931013Y-82963038D01*
X145712359Y-82816939D01*
X145469405Y-82716304D01*
X145211486Y-82665000D01*
X144948514Y-82665000D01*
X144690595Y-82716304D01*
X144447641Y-82816939D01*
X144228987Y-82963038D01*
X144043038Y-83148987D01*
X143896939Y-83367641D01*
X143810000Y-83577530D01*
X143723061Y-83367641D01*
X143576962Y-83148987D01*
X143391013Y-82963038D01*
X143172359Y-82816939D01*
X142929405Y-82716304D01*
X142671486Y-82665000D01*
X142408514Y-82665000D01*
X142150595Y-82716304D01*
X141907641Y-82816939D01*
X141688987Y-82963038D01*
X141503038Y-83148987D01*
X141356939Y-83367641D01*
X141270000Y-83577530D01*
X141183061Y-83367641D01*
X141036962Y-83148987D01*
X140851013Y-82963038D01*
X140632359Y-82816939D01*
X140389405Y-82716304D01*
X140131486Y-82665000D01*
X139868514Y-82665000D01*
X139610595Y-82716304D01*
X139367641Y-82816939D01*
X139148987Y-82963038D01*
X138963038Y-83148987D01*
X138816939Y-83367641D01*
X138716304Y-83610595D01*
X138665000Y-83868514D01*
X125160000Y-83868514D01*
X125160000Y-79050000D01*
X128811928Y-79050000D01*
X128824188Y-79174482D01*
X128860498Y-79294180D01*
X128919463Y-79404494D01*
X128998815Y-79501185D01*
X129095506Y-79580537D01*
X129109546Y-79588042D01*
X129006772Y-79741853D01*
X128879754Y-80048504D01*
X128815000Y-80374042D01*
X128815000Y-80705958D01*
X128879754Y-81031496D01*
X129006772Y-81338147D01*
X129191175Y-81614125D01*
X129425875Y-81848825D01*
X129701853Y-82033228D01*
X130008504Y-82160246D01*
X130334042Y-82225000D01*
X130665958Y-82225000D01*
X130991496Y-82160246D01*
X131298147Y-82033228D01*
X131574125Y-81848825D01*
X131808825Y-81614125D01*
X131993228Y-81338147D01*
X131997218Y-81328514D01*
X139935000Y-81328514D01*
X139935000Y-81591486D01*
X139986304Y-81849405D01*
X140086939Y-82092359D01*
X140233038Y-82311013D01*
X140418987Y-82496962D01*
X140637641Y-82643061D01*
X140880595Y-82743696D01*
X141138514Y-82795000D01*
X141401486Y-82795000D01*
X141659405Y-82743696D01*
X141902359Y-82643061D01*
X142121013Y-82496962D01*
X142306962Y-82311013D01*
X142453061Y-82092359D01*
X142540000Y-81882470D01*
X142626939Y-82092359D01*
X142773038Y-82311013D01*
X142958987Y-82496962D01*
X143177641Y-82643061D01*
X143420595Y-82743696D01*
X143678514Y-82795000D01*
X143941486Y-82795000D01*
X144199405Y-82743696D01*
X144442359Y-82643061D01*
X144661013Y-82496962D01*
X144846962Y-82311013D01*
X144993061Y-82092359D01*
X145080000Y-81882470D01*
X145166939Y-82092359D01*
X145313038Y-82311013D01*
X145498987Y-82496962D01*
X145717641Y-82643061D01*
X145960595Y-82743696D01*
X146218514Y-82795000D01*
X146481486Y-82795000D01*
X146739405Y-82743696D01*
X146982359Y-82643061D01*
X147201013Y-82496962D01*
X147316706Y-82381269D01*
X148148336Y-82381269D01*
X148207797Y-82615037D01*
X148446242Y-82725934D01*
X148701740Y-82788183D01*
X148964473Y-82799390D01*
X149224344Y-82759125D01*
X149471366Y-82668935D01*
X149572203Y-82615037D01*
X149631664Y-82381269D01*
X148890000Y-81639605D01*
X148148336Y-82381269D01*
X147316706Y-82381269D01*
X147386962Y-82311013D01*
X147533061Y-82092359D01*
X147621621Y-81878556D01*
X147681065Y-82041366D01*
X147734963Y-82142203D01*
X147968731Y-82201664D01*
X148710395Y-81460000D01*
X149069605Y-81460000D01*
X149811269Y-82201664D01*
X150045037Y-82142203D01*
X150155934Y-81903758D01*
X150218183Y-81648260D01*
X150229390Y-81385527D01*
X150220557Y-81328514D01*
X160435000Y-81328514D01*
X160435000Y-81591486D01*
X160486304Y-81849405D01*
X160586939Y-82092359D01*
X160733038Y-82311013D01*
X160918987Y-82496962D01*
X161137641Y-82643061D01*
X161380595Y-82743696D01*
X161638514Y-82795000D01*
X161901486Y-82795000D01*
X162159405Y-82743696D01*
X162402359Y-82643061D01*
X162621013Y-82496962D01*
X162806962Y-82311013D01*
X162953061Y-82092359D01*
X163040000Y-81882470D01*
X163126939Y-82092359D01*
X163273038Y-82311013D01*
X163458987Y-82496962D01*
X163677641Y-82643061D01*
X163920595Y-82743696D01*
X164178514Y-82795000D01*
X164441486Y-82795000D01*
X164699405Y-82743696D01*
X164942359Y-82643061D01*
X165161013Y-82496962D01*
X165346962Y-82311013D01*
X165493061Y-82092359D01*
X165580000Y-81882470D01*
X165666939Y-82092359D01*
X165813038Y-82311013D01*
X165998987Y-82496962D01*
X166217641Y-82643061D01*
X166460595Y-82743696D01*
X166718514Y-82795000D01*
X166981486Y-82795000D01*
X167239405Y-82743696D01*
X167482359Y-82643061D01*
X167701013Y-82496962D01*
X167816706Y-82381269D01*
X168648336Y-82381269D01*
X168707797Y-82615037D01*
X168946242Y-82725934D01*
X169201740Y-82788183D01*
X169464473Y-82799390D01*
X169724344Y-82759125D01*
X169971366Y-82668935D01*
X170072203Y-82615037D01*
X170131664Y-82381269D01*
X169390000Y-81639605D01*
X168648336Y-82381269D01*
X167816706Y-82381269D01*
X167886962Y-82311013D01*
X168033061Y-82092359D01*
X168121621Y-81878556D01*
X168181065Y-82041366D01*
X168234963Y-82142203D01*
X168468731Y-82201664D01*
X169210395Y-81460000D01*
X169569605Y-81460000D01*
X170311269Y-82201664D01*
X170545037Y-82142203D01*
X170655934Y-81903758D01*
X170718183Y-81648260D01*
X170729390Y-81385527D01*
X170689125Y-81125656D01*
X170598935Y-80878634D01*
X170545037Y-80777797D01*
X170311269Y-80718336D01*
X169569605Y-81460000D01*
X169210395Y-81460000D01*
X168468731Y-80718336D01*
X168234963Y-80777797D01*
X168124066Y-81016242D01*
X168119294Y-81035827D01*
X168033061Y-80827641D01*
X167886962Y-80608987D01*
X167816706Y-80538731D01*
X168648336Y-80538731D01*
X169390000Y-81280395D01*
X170131664Y-80538731D01*
X170072203Y-80304963D01*
X169833758Y-80194066D01*
X169578260Y-80131817D01*
X169315527Y-80120610D01*
X169055656Y-80160875D01*
X168808634Y-80251065D01*
X168707797Y-80304963D01*
X168648336Y-80538731D01*
X167816706Y-80538731D01*
X167701013Y-80423038D01*
X167482359Y-80276939D01*
X167239405Y-80176304D01*
X166981486Y-80125000D01*
X166718514Y-80125000D01*
X166460595Y-80176304D01*
X166217641Y-80276939D01*
X165998987Y-80423038D01*
X165813038Y-80608987D01*
X165666939Y-80827641D01*
X165580000Y-81037530D01*
X165493061Y-80827641D01*
X165346962Y-80608987D01*
X165161013Y-80423038D01*
X164942359Y-80276939D01*
X164699405Y-80176304D01*
X164441486Y-80125000D01*
X164178514Y-80125000D01*
X163920595Y-80176304D01*
X163677641Y-80276939D01*
X163458987Y-80423038D01*
X163273038Y-80608987D01*
X163126939Y-80827641D01*
X163040000Y-81037530D01*
X162953061Y-80827641D01*
X162806962Y-80608987D01*
X162621013Y-80423038D01*
X162402359Y-80276939D01*
X162159405Y-80176304D01*
X161901486Y-80125000D01*
X161638514Y-80125000D01*
X161380595Y-80176304D01*
X161137641Y-80276939D01*
X160918987Y-80423038D01*
X160733038Y-80608987D01*
X160586939Y-80827641D01*
X160486304Y-81070595D01*
X160435000Y-81328514D01*
X150220557Y-81328514D01*
X150189125Y-81125656D01*
X150098935Y-80878634D01*
X150045037Y-80777797D01*
X149811269Y-80718336D01*
X149069605Y-81460000D01*
X148710395Y-81460000D01*
X147968731Y-80718336D01*
X147734963Y-80777797D01*
X147624066Y-81016242D01*
X147619294Y-81035827D01*
X147533061Y-80827641D01*
X147386962Y-80608987D01*
X147316706Y-80538731D01*
X148148336Y-80538731D01*
X148890000Y-81280395D01*
X149631664Y-80538731D01*
X149572203Y-80304963D01*
X149333758Y-80194066D01*
X149078260Y-80131817D01*
X148815527Y-80120610D01*
X148555656Y-80160875D01*
X148308634Y-80251065D01*
X148207797Y-80304963D01*
X148148336Y-80538731D01*
X147316706Y-80538731D01*
X147201013Y-80423038D01*
X146982359Y-80276939D01*
X146739405Y-80176304D01*
X146481486Y-80125000D01*
X146218514Y-80125000D01*
X145960595Y-80176304D01*
X145717641Y-80276939D01*
X145498987Y-80423038D01*
X145313038Y-80608987D01*
X145166939Y-80827641D01*
X145080000Y-81037530D01*
X144993061Y-80827641D01*
X144846962Y-80608987D01*
X144661013Y-80423038D01*
X144442359Y-80276939D01*
X144199405Y-80176304D01*
X143941486Y-80125000D01*
X143678514Y-80125000D01*
X143420595Y-80176304D01*
X143177641Y-80276939D01*
X142958987Y-80423038D01*
X142773038Y-80608987D01*
X142626939Y-80827641D01*
X142540000Y-81037530D01*
X142453061Y-80827641D01*
X142306962Y-80608987D01*
X142121013Y-80423038D01*
X141902359Y-80276939D01*
X141659405Y-80176304D01*
X141401486Y-80125000D01*
X141138514Y-80125000D01*
X140880595Y-80176304D01*
X140637641Y-80276939D01*
X140418987Y-80423038D01*
X140233038Y-80608987D01*
X140086939Y-80827641D01*
X139986304Y-81070595D01*
X139935000Y-81328514D01*
X131997218Y-81328514D01*
X132120246Y-81031496D01*
X132185000Y-80705958D01*
X132185000Y-80374042D01*
X132120246Y-80048504D01*
X131993228Y-79741853D01*
X131890454Y-79588042D01*
X131904494Y-79580537D01*
X132001185Y-79501185D01*
X132080537Y-79404494D01*
X132139502Y-79294180D01*
X132175812Y-79174482D01*
X132188072Y-79050000D01*
X132185000Y-78285750D01*
X132026250Y-78127000D01*
X130627000Y-78127000D01*
X130627000Y-78147000D01*
X130373000Y-78147000D01*
X130373000Y-78127000D01*
X128973750Y-78127000D01*
X128815000Y-78285750D01*
X128811928Y-79050000D01*
X125160000Y-79050000D01*
X125160000Y-77898061D01*
X142965000Y-77898061D01*
X142965000Y-78101939D01*
X143004774Y-78301898D01*
X143082795Y-78490256D01*
X143196063Y-78659774D01*
X143340226Y-78803937D01*
X143509744Y-78917205D01*
X143698102Y-78995226D01*
X143898061Y-79035000D01*
X144101939Y-79035000D01*
X144301898Y-78995226D01*
X144490256Y-78917205D01*
X144659774Y-78803937D01*
X144803937Y-78659774D01*
X144917205Y-78490256D01*
X144995226Y-78301898D01*
X145035000Y-78101939D01*
X145035000Y-77898061D01*
X144995226Y-77698102D01*
X144917205Y-77509744D01*
X144803937Y-77340226D01*
X144659774Y-77196063D01*
X144490256Y-77082795D01*
X144301898Y-77004774D01*
X144101939Y-76965000D01*
X143898061Y-76965000D01*
X143698102Y-77004774D01*
X143509744Y-77082795D01*
X143340226Y-77196063D01*
X143196063Y-77340226D01*
X143082795Y-77509744D01*
X143004774Y-77698102D01*
X142965000Y-77898061D01*
X125160000Y-77898061D01*
X125160000Y-76950000D01*
X128811928Y-76950000D01*
X128815000Y-77714250D01*
X128973750Y-77873000D01*
X130373000Y-77873000D01*
X130373000Y-76473750D01*
X130627000Y-76473750D01*
X130627000Y-77873000D01*
X132026250Y-77873000D01*
X132185000Y-77714250D01*
X132188072Y-76950000D01*
X132182957Y-76898061D01*
X172715000Y-76898061D01*
X172715000Y-77101939D01*
X172754774Y-77301898D01*
X172832795Y-77490256D01*
X172946063Y-77659774D01*
X173090226Y-77803937D01*
X173259744Y-77917205D01*
X173448102Y-77995226D01*
X173648061Y-78035000D01*
X173851939Y-78035000D01*
X174051898Y-77995226D01*
X174240256Y-77917205D01*
X174409774Y-77803937D01*
X174553937Y-77659774D01*
X174667205Y-77490256D01*
X174745226Y-77301898D01*
X174785000Y-77101939D01*
X174785000Y-76898061D01*
X174745226Y-76698102D01*
X174667205Y-76509744D01*
X174553937Y-76340226D01*
X174409774Y-76196063D01*
X174337934Y-76148061D01*
X175465000Y-76148061D01*
X175465000Y-76351939D01*
X175504774Y-76551898D01*
X175582795Y-76740256D01*
X175696063Y-76909774D01*
X175840226Y-77053937D01*
X176009744Y-77167205D01*
X176198102Y-77245226D01*
X176398061Y-77285000D01*
X176601939Y-77285000D01*
X176801898Y-77245226D01*
X176990256Y-77167205D01*
X177159774Y-77053937D01*
X177303937Y-76909774D01*
X177361169Y-76824119D01*
X177387050Y-76850000D01*
X177191175Y-77045875D01*
X177006772Y-77321853D01*
X176879754Y-77628504D01*
X176815000Y-77954042D01*
X176815000Y-78285958D01*
X176879754Y-78611496D01*
X177006772Y-78918147D01*
X177191175Y-79194125D01*
X177387050Y-79390000D01*
X177191175Y-79585875D01*
X177006772Y-79861853D01*
X176879754Y-80168504D01*
X176815000Y-80494042D01*
X176815000Y-80825958D01*
X176879754Y-81151496D01*
X177006772Y-81458147D01*
X177191175Y-81734125D01*
X177387050Y-81930000D01*
X177191175Y-82125875D01*
X177006772Y-82401853D01*
X176879754Y-82708504D01*
X176815000Y-83034042D01*
X176815000Y-83365958D01*
X176879754Y-83691496D01*
X177006772Y-83998147D01*
X177191175Y-84274125D01*
X177425875Y-84508825D01*
X177701853Y-84693228D01*
X178008504Y-84820246D01*
X178334042Y-84885000D01*
X178665958Y-84885000D01*
X178991496Y-84820246D01*
X179298147Y-84693228D01*
X179574125Y-84508825D01*
X179808825Y-84274125D01*
X179993228Y-83998147D01*
X180120246Y-83691496D01*
X180185000Y-83365958D01*
X180185000Y-83034042D01*
X180120246Y-82708504D01*
X179993228Y-82401853D01*
X179808825Y-82125875D01*
X179612950Y-81930000D01*
X179808825Y-81734125D01*
X179993228Y-81458147D01*
X180120246Y-81151496D01*
X180185000Y-80825958D01*
X180185000Y-80494042D01*
X180120246Y-80168504D01*
X179993228Y-79861853D01*
X179808825Y-79585875D01*
X179612950Y-79390000D01*
X179808825Y-79194125D01*
X179993228Y-78918147D01*
X180120246Y-78611496D01*
X180185000Y-78285958D01*
X180185000Y-77954042D01*
X180120246Y-77628504D01*
X179993228Y-77321853D01*
X179808825Y-77045875D01*
X179612950Y-76850000D01*
X179808825Y-76654125D01*
X179993228Y-76378147D01*
X180120246Y-76071496D01*
X180185000Y-75745958D01*
X180185000Y-75414042D01*
X180120246Y-75088504D01*
X179993228Y-74781853D01*
X179808825Y-74505875D01*
X179612950Y-74310000D01*
X179808825Y-74114125D01*
X179993228Y-73838147D01*
X180120246Y-73531496D01*
X180185000Y-73205958D01*
X180185000Y-72874042D01*
X180120246Y-72548504D01*
X179993228Y-72241853D01*
X179890454Y-72088042D01*
X179904494Y-72080537D01*
X180001185Y-72001185D01*
X180080537Y-71904494D01*
X180139502Y-71794180D01*
X180175812Y-71674482D01*
X180188072Y-71550000D01*
X180185000Y-70785750D01*
X180026250Y-70627000D01*
X178627000Y-70627000D01*
X178627000Y-70647000D01*
X178373000Y-70647000D01*
X178373000Y-70627000D01*
X176973750Y-70627000D01*
X176815000Y-70785750D01*
X176811928Y-71550000D01*
X176824188Y-71674482D01*
X176860498Y-71794180D01*
X176919463Y-71904494D01*
X176998815Y-72001185D01*
X177095506Y-72080537D01*
X177109546Y-72088042D01*
X177006772Y-72241853D01*
X176879754Y-72548504D01*
X176815000Y-72874042D01*
X176815000Y-73205958D01*
X176879754Y-73531496D01*
X177006772Y-73838147D01*
X177191175Y-74114125D01*
X177387050Y-74310000D01*
X177191175Y-74505875D01*
X177006772Y-74781853D01*
X176879754Y-75088504D01*
X176843272Y-75271912D01*
X176801898Y-75254774D01*
X176601939Y-75215000D01*
X176398061Y-75215000D01*
X176198102Y-75254774D01*
X176009744Y-75332795D01*
X175840226Y-75446063D01*
X175696063Y-75590226D01*
X175582795Y-75759744D01*
X175504774Y-75948102D01*
X175465000Y-76148061D01*
X174337934Y-76148061D01*
X174240256Y-76082795D01*
X174051898Y-76004774D01*
X173851939Y-75965000D01*
X173648061Y-75965000D01*
X173448102Y-76004774D01*
X173259744Y-76082795D01*
X173090226Y-76196063D01*
X172946063Y-76340226D01*
X172832795Y-76509744D01*
X172754774Y-76698102D01*
X172715000Y-76898061D01*
X132182957Y-76898061D01*
X132175812Y-76825518D01*
X132139502Y-76705820D01*
X132080537Y-76595506D01*
X132001185Y-76498815D01*
X131904494Y-76419463D01*
X131794180Y-76360498D01*
X131674482Y-76324188D01*
X131550000Y-76311928D01*
X130785750Y-76315000D01*
X130627000Y-76473750D01*
X130373000Y-76473750D01*
X130214250Y-76315000D01*
X129450000Y-76311928D01*
X129325518Y-76324188D01*
X129205820Y-76360498D01*
X129095506Y-76419463D01*
X128998815Y-76498815D01*
X128919463Y-76595506D01*
X128860498Y-76705820D01*
X128824188Y-76825518D01*
X128811928Y-76950000D01*
X125160000Y-76950000D01*
X125160000Y-70682029D01*
X138785500Y-70682029D01*
X138785500Y-71279971D01*
X138902153Y-71866423D01*
X139130975Y-72418848D01*
X139463174Y-72916018D01*
X139885982Y-73338826D01*
X140383152Y-73671025D01*
X140935577Y-73899847D01*
X141522029Y-74016500D01*
X142119971Y-74016500D01*
X142706423Y-73899847D01*
X143258848Y-73671025D01*
X143756018Y-73338826D01*
X144178826Y-72916018D01*
X144511025Y-72418848D01*
X144739847Y-71866423D01*
X144856500Y-71279971D01*
X144856500Y-71050760D01*
X147397631Y-71050760D01*
X147439282Y-71334128D01*
X147535415Y-71603926D01*
X147604823Y-71733779D01*
X147850732Y-71807663D01*
X148677395Y-70981000D01*
X147850732Y-70154337D01*
X147604823Y-70228221D01*
X147482023Y-70486973D01*
X147412063Y-70764711D01*
X147397631Y-71050760D01*
X144856500Y-71050760D01*
X144856500Y-70682029D01*
X144739847Y-70095577D01*
X144689792Y-69974732D01*
X148030337Y-69974732D01*
X148857000Y-70801395D01*
X148871143Y-70787253D01*
X149050748Y-70966858D01*
X149036605Y-70981000D01*
X149050748Y-70995143D01*
X148871143Y-71174748D01*
X148857000Y-71160605D01*
X148030337Y-71987268D01*
X148104221Y-72233177D01*
X148362973Y-72355977D01*
X148640711Y-72425937D01*
X148648093Y-72426309D01*
X148601877Y-72537884D01*
X148546000Y-72818794D01*
X148546000Y-73105206D01*
X148601877Y-73386116D01*
X148711482Y-73650727D01*
X148870605Y-73888871D01*
X149073129Y-74091395D01*
X149311273Y-74250518D01*
X149575884Y-74360123D01*
X149856794Y-74416000D01*
X150143206Y-74416000D01*
X150424116Y-74360123D01*
X150688727Y-74250518D01*
X150926871Y-74091395D01*
X151129395Y-73888871D01*
X151143000Y-73868510D01*
X151156605Y-73888871D01*
X151359129Y-74091395D01*
X151597273Y-74250518D01*
X151861884Y-74360123D01*
X152142794Y-74416000D01*
X152429206Y-74416000D01*
X152710116Y-74360123D01*
X152974727Y-74250518D01*
X153212871Y-74091395D01*
X153415395Y-73888871D01*
X153429000Y-73868510D01*
X153442605Y-73888871D01*
X153645129Y-74091395D01*
X153883273Y-74250518D01*
X154147884Y-74360123D01*
X154428794Y-74416000D01*
X154715206Y-74416000D01*
X154996116Y-74360123D01*
X155260727Y-74250518D01*
X155498871Y-74091395D01*
X155701395Y-73888871D01*
X155715000Y-73868510D01*
X155728605Y-73888871D01*
X155931129Y-74091395D01*
X156169273Y-74250518D01*
X156433884Y-74360123D01*
X156714794Y-74416000D01*
X157001206Y-74416000D01*
X157282116Y-74360123D01*
X157546727Y-74250518D01*
X157784871Y-74091395D01*
X157987395Y-73888871D01*
X158001000Y-73868510D01*
X158014605Y-73888871D01*
X158217129Y-74091395D01*
X158455273Y-74250518D01*
X158719884Y-74360123D01*
X159000794Y-74416000D01*
X159287206Y-74416000D01*
X159568116Y-74360123D01*
X159832727Y-74250518D01*
X160070871Y-74091395D01*
X160273395Y-73888871D01*
X160432518Y-73650727D01*
X160542123Y-73386116D01*
X160598000Y-73105206D01*
X160598000Y-72818794D01*
X160542123Y-72537884D01*
X160432518Y-72273273D01*
X160273395Y-72035129D01*
X160070871Y-71832605D01*
X159832727Y-71673482D01*
X159568116Y-71563877D01*
X159351232Y-71520736D01*
X159399123Y-71405116D01*
X159455000Y-71124206D01*
X159455000Y-70898061D01*
X159965000Y-70898061D01*
X159965000Y-71101939D01*
X160004774Y-71301898D01*
X160082795Y-71490256D01*
X160196063Y-71659774D01*
X160340226Y-71803937D01*
X160509744Y-71917205D01*
X160698102Y-71995226D01*
X160898061Y-72035000D01*
X161101939Y-72035000D01*
X161301898Y-71995226D01*
X161490256Y-71917205D01*
X161659774Y-71803937D01*
X161803937Y-71659774D01*
X161917205Y-71490256D01*
X161995226Y-71301898D01*
X162035000Y-71101939D01*
X162035000Y-70898061D01*
X161995226Y-70698102D01*
X161988569Y-70682029D01*
X163779500Y-70682029D01*
X163779500Y-71279971D01*
X163896153Y-71866423D01*
X164124975Y-72418848D01*
X164457174Y-72916018D01*
X164879982Y-73338826D01*
X165377152Y-73671025D01*
X165929577Y-73899847D01*
X166516029Y-74016500D01*
X167113971Y-74016500D01*
X167700423Y-73899847D01*
X168252848Y-73671025D01*
X168750018Y-73338826D01*
X169172826Y-72916018D01*
X169505025Y-72418848D01*
X169733847Y-71866423D01*
X169850500Y-71279971D01*
X169850500Y-70682029D01*
X169733847Y-70095577D01*
X169505025Y-69543152D01*
X169442783Y-69450000D01*
X176811928Y-69450000D01*
X176815000Y-70214250D01*
X176973750Y-70373000D01*
X178373000Y-70373000D01*
X178373000Y-68973750D01*
X178627000Y-68973750D01*
X178627000Y-70373000D01*
X180026250Y-70373000D01*
X180185000Y-70214250D01*
X180188072Y-69450000D01*
X180175812Y-69325518D01*
X180139502Y-69205820D01*
X180080537Y-69095506D01*
X180001185Y-68998815D01*
X179904494Y-68919463D01*
X179794180Y-68860498D01*
X179674482Y-68824188D01*
X179550000Y-68811928D01*
X178785750Y-68815000D01*
X178627000Y-68973750D01*
X178373000Y-68973750D01*
X178214250Y-68815000D01*
X177450000Y-68811928D01*
X177325518Y-68824188D01*
X177205820Y-68860498D01*
X177095506Y-68919463D01*
X176998815Y-68998815D01*
X176919463Y-69095506D01*
X176860498Y-69205820D01*
X176824188Y-69325518D01*
X176811928Y-69450000D01*
X169442783Y-69450000D01*
X169172826Y-69045982D01*
X168750018Y-68623174D01*
X168252848Y-68290975D01*
X167700423Y-68062153D01*
X167113971Y-67945500D01*
X166516029Y-67945500D01*
X165929577Y-68062153D01*
X165377152Y-68290975D01*
X164879982Y-68623174D01*
X164457174Y-69045982D01*
X164124975Y-69543152D01*
X163896153Y-70095577D01*
X163779500Y-70682029D01*
X161988569Y-70682029D01*
X161917205Y-70509744D01*
X161803937Y-70340226D01*
X161659774Y-70196063D01*
X161490256Y-70082795D01*
X161301898Y-70004774D01*
X161101939Y-69965000D01*
X160898061Y-69965000D01*
X160698102Y-70004774D01*
X160509744Y-70082795D01*
X160340226Y-70196063D01*
X160196063Y-70340226D01*
X160082795Y-70509744D01*
X160004774Y-70698102D01*
X159965000Y-70898061D01*
X159455000Y-70898061D01*
X159455000Y-70837794D01*
X159399123Y-70556884D01*
X159351232Y-70441264D01*
X159568116Y-70398123D01*
X159832727Y-70288518D01*
X160070871Y-70129395D01*
X160273395Y-69926871D01*
X160432518Y-69688727D01*
X160542123Y-69424116D01*
X160598000Y-69143206D01*
X160598000Y-68856794D01*
X160542123Y-68575884D01*
X160432518Y-68311273D01*
X160273395Y-68073129D01*
X160070871Y-67870605D01*
X159832727Y-67711482D01*
X159568116Y-67601877D01*
X159287206Y-67546000D01*
X159000794Y-67546000D01*
X158719884Y-67601877D01*
X158455273Y-67711482D01*
X158217129Y-67870605D01*
X158014605Y-68073129D01*
X158001000Y-68093490D01*
X157987395Y-68073129D01*
X157784871Y-67870605D01*
X157546727Y-67711482D01*
X157282116Y-67601877D01*
X157001206Y-67546000D01*
X156714794Y-67546000D01*
X156433884Y-67601877D01*
X156169273Y-67711482D01*
X155931129Y-67870605D01*
X155728605Y-68073129D01*
X155715000Y-68093490D01*
X155701395Y-68073129D01*
X155498871Y-67870605D01*
X155260727Y-67711482D01*
X154996116Y-67601877D01*
X154715206Y-67546000D01*
X154428794Y-67546000D01*
X154147884Y-67601877D01*
X153883273Y-67711482D01*
X153645129Y-67870605D01*
X153442605Y-68073129D01*
X153429000Y-68093490D01*
X153415395Y-68073129D01*
X153212871Y-67870605D01*
X152974727Y-67711482D01*
X152710116Y-67601877D01*
X152429206Y-67546000D01*
X152142794Y-67546000D01*
X151861884Y-67601877D01*
X151597273Y-67711482D01*
X151359129Y-67870605D01*
X151156605Y-68073129D01*
X151075708Y-68194200D01*
X151006268Y-68173337D01*
X150179605Y-69000000D01*
X150193748Y-69014143D01*
X150014143Y-69193748D01*
X150000000Y-69179605D01*
X149985858Y-69193748D01*
X149806253Y-69014143D01*
X149820395Y-69000000D01*
X148993732Y-68173337D01*
X148747823Y-68247221D01*
X148625023Y-68505973D01*
X148555063Y-68783711D01*
X148540631Y-69069760D01*
X148582282Y-69353128D01*
X148649534Y-69541872D01*
X148503872Y-69563282D01*
X148234074Y-69659415D01*
X148104221Y-69728823D01*
X148030337Y-69974732D01*
X144689792Y-69974732D01*
X144511025Y-69543152D01*
X144178826Y-69045982D01*
X143756018Y-68623174D01*
X143419114Y-68398061D01*
X144465000Y-68398061D01*
X144465000Y-68601939D01*
X144504774Y-68801898D01*
X144582795Y-68990256D01*
X144696063Y-69159774D01*
X144840226Y-69303937D01*
X145009744Y-69417205D01*
X145198102Y-69495226D01*
X145398061Y-69535000D01*
X145601939Y-69535000D01*
X145801898Y-69495226D01*
X145990256Y-69417205D01*
X146159774Y-69303937D01*
X146303937Y-69159774D01*
X146417205Y-68990256D01*
X146495226Y-68801898D01*
X146535000Y-68601939D01*
X146535000Y-68398061D01*
X146495226Y-68198102D01*
X146417205Y-68009744D01*
X146406507Y-67993732D01*
X149173337Y-67993732D01*
X150000000Y-68820395D01*
X150826663Y-67993732D01*
X150752779Y-67747823D01*
X150494027Y-67625023D01*
X150216289Y-67555063D01*
X149930240Y-67540631D01*
X149646872Y-67582282D01*
X149377074Y-67678415D01*
X149247221Y-67747823D01*
X149173337Y-67993732D01*
X146406507Y-67993732D01*
X146303937Y-67840226D01*
X146159774Y-67696063D01*
X145990256Y-67582795D01*
X145801898Y-67504774D01*
X145601939Y-67465000D01*
X145398061Y-67465000D01*
X145198102Y-67504774D01*
X145009744Y-67582795D01*
X144840226Y-67696063D01*
X144696063Y-67840226D01*
X144582795Y-68009744D01*
X144504774Y-68198102D01*
X144465000Y-68398061D01*
X143419114Y-68398061D01*
X143258848Y-68290975D01*
X142706423Y-68062153D01*
X142119971Y-67945500D01*
X141522029Y-67945500D01*
X140935577Y-68062153D01*
X140383152Y-68290975D01*
X139885982Y-68623174D01*
X139463174Y-69045982D01*
X139130975Y-69543152D01*
X138902153Y-70095577D01*
X138785500Y-70682029D01*
X125160000Y-70682029D01*
X125160000Y-66898061D01*
X141715000Y-66898061D01*
X141715000Y-67101939D01*
X141754774Y-67301898D01*
X141832795Y-67490256D01*
X141946063Y-67659774D01*
X142090226Y-67803937D01*
X142259744Y-67917205D01*
X142448102Y-67995226D01*
X142648061Y-68035000D01*
X142851939Y-68035000D01*
X143051898Y-67995226D01*
X143240256Y-67917205D01*
X143409774Y-67803937D01*
X143553937Y-67659774D01*
X143667205Y-67490256D01*
X143745226Y-67301898D01*
X143785000Y-67101939D01*
X143785000Y-66898061D01*
X143745226Y-66698102D01*
X143667205Y-66509744D01*
X143553937Y-66340226D01*
X143409774Y-66196063D01*
X143240256Y-66082795D01*
X143051898Y-66004774D01*
X142851939Y-65965000D01*
X142648061Y-65965000D01*
X142448102Y-66004774D01*
X142259744Y-66082795D01*
X142090226Y-66196063D01*
X141946063Y-66340226D01*
X141832795Y-66509744D01*
X141754774Y-66698102D01*
X141715000Y-66898061D01*
X125160000Y-66898061D01*
X125160000Y-65532279D01*
X125198147Y-65143225D01*
X125301763Y-64800033D01*
X125470062Y-64483511D01*
X125696637Y-64205701D01*
X125972856Y-63977194D01*
X126288197Y-63806690D01*
X126630656Y-63700681D01*
X127017712Y-63660000D01*
X181967721Y-63660000D01*
X182356775Y-63698147D01*
G37*
%TD.AperFunction*%
%TD*%
M02*
