M48
; DRILL file {KiCad (5.1.7)-1} date 02/10/21 20:21:22
; FORMAT={-:-/ absolute / inch / decimal}
; #@! TF.CreationDate,2021-02-10T20:21:22+01:00
; #@! TF.GenerationSoftware,Kicad,Pcbnew,(5.1.7)-1
; #@! TF.FileFunction,Plated,1,4,PTH
FMAT,2
INCH
T1C0.0157
T2C0.0354
T3C0.0430
T4C0.0433
T5C0.0630
T6C0.1260
%
G90
G05
T1
X5.6201Y-2.6378
X5.6693Y-3.0709
X5.7283Y-2.6969
X6.3386Y-2.7953
X6.378Y-4.498
X6.5846Y-4.6949
X6.8406Y-3.0315
X6.9488Y-3.002
X6.9488Y-3.5138
T2
X6.3189Y-3.3071
X6.3689Y-3.2071
X6.4189Y-3.3071
X6.4689Y-3.2071
X6.5189Y-3.3071
X6.5689Y-3.2071
X6.6189Y-3.3071
X6.6689Y-3.2071
X6.6776Y-4.7457
X6.7276Y-4.6457
X6.7776Y-4.7457
X6.8276Y-4.6457
X6.8776Y-4.7457
X6.9276Y-4.6457
X6.9776Y-4.7457
X7.0276Y-4.6457
X5.1224Y-4.7457
X5.1724Y-4.6457
X5.2224Y-4.7457
X5.2724Y-4.6457
X5.3224Y-4.7457
X5.3724Y-4.6457
X5.4224Y-4.7457
X5.4724Y-4.6457
X5.5118Y-3.3071
X5.5618Y-3.2071
X5.6118Y-3.3071
X5.6618Y-3.2071
X5.7118Y-3.3071
X5.7618Y-3.2071
X5.8118Y-3.3071
X5.8618Y-3.2071
T3
X5.8605Y-2.7945
X5.9055Y-2.7165
X5.9055Y-2.8725
X5.9505Y-2.7945
X5.9955Y-2.7165
X5.9955Y-2.8725
X6.0405Y-2.7945
X6.0855Y-2.7165
X6.0855Y-2.8725
X6.1305Y-2.7945
X6.1755Y-2.7165
X6.1755Y-2.8725
X6.2205Y-2.7945
X6.2655Y-2.7165
X6.2655Y-2.8725
X5.8605Y-4.015
X5.9055Y-3.937
X5.9055Y-4.093
X5.9505Y-4.015
X5.9955Y-3.937
X5.9955Y-4.093
X6.0405Y-4.015
X6.0855Y-3.937
X6.0855Y-4.093
X6.1305Y-4.015
X6.1755Y-3.937
X6.1755Y-4.093
X6.2205Y-4.015
X6.2655Y-3.937
X6.2655Y-4.093
T4
X5.1378Y-3.4646
X5.1378Y-3.5646
X5.1378Y-3.6646
X5.1378Y-3.7646
X5.1378Y-3.8646
X5.1378Y-3.9646
X5.1378Y-3.0709
X5.1378Y-3.1709
X7.0276Y-2.7756
X7.0276Y-2.8756
X7.0276Y-2.9756
X7.0276Y-3.0756
X7.0276Y-3.1756
X7.0276Y-3.2756
X7.0276Y-3.4646
X7.0276Y-3.5646
X7.0276Y-3.6646
X7.0276Y-3.7646
X7.0276Y-3.8646
X7.0276Y-3.9646
T5
X4.9874Y-4.5157
X5.6075Y-4.5157
X5.3768Y-3.437
X5.9969Y-3.437
X6.1839Y-3.437
X6.8039Y-3.437
X6.5425Y-4.5157
X7.1626Y-4.5157
T6
X5.5835Y-2.7945
X6.5675Y-2.7945
X5.5835Y-4.015
X6.5675Y-4.015
T0
M30
