%TF.GenerationSoftware,KiCad,Pcbnew,(5.1.7)-1*%
%TF.CreationDate,2021-02-10T20:21:02+01:00*%
%TF.ProjectId,ad57_adapter,61643537-5f61-4646-9170-7465722e6b69,rev?*%
%TF.SameCoordinates,Original*%
%TF.FileFunction,Copper,L4,Bot*%
%TF.FilePolarity,Positive*%
%FSLAX46Y46*%
G04 Gerber Fmt 4.6, Leading zero omitted, Abs format (unit mm)*
G04 Created by KiCad (PCBNEW (5.1.7)-1) date 2021-02-10 20:21:02*
%MOMM*%
%LPD*%
G01*
G04 APERTURE LIST*
%TA.AperFunction,ComponentPad*%
%ADD10R,2.100000X2.100000*%
%TD*%
%TA.AperFunction,ComponentPad*%
%ADD11C,2.100000*%
%TD*%
%TA.AperFunction,ComponentPad*%
%ADD12C,4.801000*%
%TD*%
%TA.AperFunction,ComponentPad*%
%ADD13C,1.638000*%
%TD*%
%TA.AperFunction,ComponentPad*%
%ADD14C,2.400000*%
%TD*%
%TA.AperFunction,ComponentPad*%
%ADD15C,1.400000*%
%TD*%
%TA.AperFunction,ViaPad*%
%ADD16C,0.800000*%
%TD*%
%TA.AperFunction,Conductor*%
%ADD17C,0.300000*%
%TD*%
%TA.AperFunction,Conductor*%
%ADD18C,0.250000*%
%TD*%
%TA.AperFunction,Conductor*%
%ADD19C,0.200000*%
%TD*%
G04 APERTURE END LIST*
D10*
%TO.P,J1,1*%
%TO.N,VIN*%
X130500000Y-78000000D03*
D11*
%TO.P,J1,2*%
%TO.N,GND*%
X130500000Y-80540000D03*
%TD*%
D10*
%TO.P,J3,1*%
%TO.N,VIN*%
X178500000Y-70500000D03*
D11*
%TO.P,J3,2*%
%TO.N,USENS1*%
X178500000Y-73040000D03*
%TO.P,J3,3*%
%TO.N,USENS2*%
X178500000Y-75580000D03*
%TO.P,J3,4*%
%TO.N,DIN1*%
X178500000Y-78120000D03*
%TO.P,J3,5*%
%TO.N,DIN2*%
X178500000Y-80660000D03*
%TO.P,J3,6*%
%TO.N,GND*%
X178500000Y-83200000D03*
%TD*%
%TO.P,J4,6*%
%TO.N,GND*%
X178500000Y-100700000D03*
%TO.P,J4,5*%
%TO.N,DOUT4*%
X178500000Y-98160000D03*
%TO.P,J4,4*%
%TO.N,DOUT3*%
X178500000Y-95620000D03*
%TO.P,J4,3*%
%TO.N,DOUT2*%
X178500000Y-93080000D03*
%TO.P,J4,2*%
%TO.N,DOUT1*%
X178500000Y-90540000D03*
D10*
%TO.P,J4,1*%
%TO.N,VIN*%
X178500000Y-88000000D03*
%TD*%
D12*
%TO.P,J5,MH2*%
%TO.N,GND*%
X166815000Y-101981000D03*
%TO.P,J5,MH1*%
X141821000Y-101981000D03*
D13*
%TO.P,J5,15*%
%TO.N,BZZOUT2*%
X159144000Y-103962000D03*
%TO.P,J5,14*%
%TO.N,GND*%
X156858000Y-103962000D03*
%TO.P,J5,13*%
%TO.N,DIN2*%
X154572000Y-103962000D03*
%TO.P,J5,12*%
%TO.N,Net-(J5-Pad12)*%
X152286000Y-103962000D03*
%TO.P,J5,11*%
%TO.N,USENS2*%
X150000000Y-103962000D03*
%TO.P,J5,10*%
%TO.N,DOUT4*%
X158001000Y-101981000D03*
%TO.P,J5,9*%
%TO.N,DOUT3*%
X155715000Y-101981000D03*
%TO.P,J5,8*%
%TO.N,Net-(J5-Pad8)*%
X153429000Y-101981000D03*
%TO.P,J5,7*%
%TO.N,Net-(J5-Pad7)*%
X151143000Y-101981000D03*
%TO.P,J5,6*%
%TO.N,VIN*%
X148857000Y-101981000D03*
%TO.P,J5,5*%
%TO.N,GND*%
X159144000Y-100000000D03*
%TO.P,J5,4*%
%TO.N,EN2*%
X156858000Y-100000000D03*
%TO.P,J5,3*%
%TO.N,TXD2*%
X154572000Y-100000000D03*
%TO.P,J5,2*%
%TO.N,RXD2*%
X152286000Y-100000000D03*
%TO.P,J5,1*%
%TO.N,VIN*%
X150000000Y-100000000D03*
%TD*%
%TO.P,J6,1*%
%TO.N,VIN*%
X150000000Y-69000000D03*
%TO.P,J6,2*%
%TO.N,RXD1*%
X152286000Y-69000000D03*
%TO.P,J6,3*%
%TO.N,TXD1*%
X154572000Y-69000000D03*
%TO.P,J6,4*%
%TO.N,EN1*%
X156858000Y-69000000D03*
%TO.P,J6,5*%
%TO.N,GND*%
X159144000Y-69000000D03*
%TO.P,J6,6*%
%TO.N,VIN*%
X148857000Y-70981000D03*
%TO.P,J6,7*%
%TO.N,CANLO*%
X151143000Y-70981000D03*
%TO.P,J6,8*%
%TO.N,CANHI*%
X153429000Y-70981000D03*
%TO.P,J6,9*%
%TO.N,DOUT1*%
X155715000Y-70981000D03*
%TO.P,J6,10*%
%TO.N,DOUT2*%
X158001000Y-70981000D03*
%TO.P,J6,11*%
%TO.N,USENS1*%
X150000000Y-72962000D03*
%TO.P,J6,12*%
%TO.N,CANTERM*%
X152286000Y-72962000D03*
%TO.P,J6,13*%
%TO.N,DIN1*%
X154572000Y-72962000D03*
%TO.P,J6,14*%
%TO.N,GND*%
X156858000Y-72962000D03*
%TO.P,J6,15*%
%TO.N,BZZOUT1*%
X159144000Y-72962000D03*
D12*
%TO.P,J6,MH1*%
%TO.N,GND*%
X141821000Y-70981000D03*
%TO.P,J6,MH2*%
X166815000Y-70981000D03*
%TD*%
D14*
%TO.P,J7,MH2*%
%TO.N,GND*%
X126680000Y-114700000D03*
%TO.P,J7,MH1*%
X142430000Y-114700000D03*
D15*
%TO.P,J7,8*%
%TO.N,VIN*%
X130110000Y-120540000D03*
%TO.P,J7,7*%
X131380000Y-118000000D03*
%TO.P,J7,6*%
%TO.N,Net-(J7-Pad6)*%
X132650000Y-120540000D03*
%TO.P,J7,5*%
%TO.N,Net-(J7-Pad5)*%
X133920000Y-118000000D03*
%TO.P,J7,4*%
%TO.N,RXD1*%
X135190000Y-120540000D03*
%TO.P,J7,3*%
%TO.N,TXD1*%
X136460000Y-118000000D03*
%TO.P,J7,2*%
%TO.N,GND*%
X137730000Y-120540000D03*
%TO.P,J7,1*%
X139000000Y-118000000D03*
%TD*%
D10*
%TO.P,J8,1*%
%TO.N,VIN*%
X130500000Y-88000000D03*
D11*
%TO.P,J8,2*%
%TO.N,EN1*%
X130500000Y-90540000D03*
%TO.P,J8,3*%
%TO.N,EN2*%
X130500000Y-93080000D03*
%TO.P,J8,4*%
%TO.N,BZZOUT1*%
X130500000Y-95620000D03*
%TO.P,J8,5*%
%TO.N,BZZOUT2*%
X130500000Y-98160000D03*
%TO.P,J8,6*%
%TO.N,GND*%
X130500000Y-100700000D03*
%TD*%
D14*
%TO.P,J9,MH2*%
%TO.N,GND*%
X152320000Y-87300000D03*
%TO.P,J9,MH1*%
X136570000Y-87300000D03*
D15*
%TO.P,J9,8*%
%TO.N,VIN*%
X148890000Y-81460000D03*
%TO.P,J9,7*%
X147620000Y-84000000D03*
%TO.P,J9,6*%
%TO.N,Net-(J9-Pad6)*%
X146350000Y-81460000D03*
%TO.P,J9,5*%
%TO.N,GND*%
X145080000Y-84000000D03*
%TO.P,J9,4*%
%TO.N,CANLO*%
X143810000Y-81460000D03*
%TO.P,J9,3*%
%TO.N,CANHI*%
X142540000Y-84000000D03*
%TO.P,J9,2*%
%TO.N,GND*%
X141270000Y-81460000D03*
%TO.P,J9,1*%
X140000000Y-84000000D03*
%TD*%
%TO.P,J10,1*%
%TO.N,GND*%
X178500000Y-118000000D03*
%TO.P,J10,2*%
X177230000Y-120540000D03*
%TO.P,J10,3*%
%TO.N,TXD2*%
X175960000Y-118000000D03*
%TO.P,J10,4*%
%TO.N,RXD2*%
X174690000Y-120540000D03*
%TO.P,J10,5*%
%TO.N,Net-(J10-Pad5)*%
X173420000Y-118000000D03*
%TO.P,J10,6*%
%TO.N,Net-(J10-Pad6)*%
X172150000Y-120540000D03*
%TO.P,J10,7*%
%TO.N,VIN*%
X170880000Y-118000000D03*
%TO.P,J10,8*%
X169610000Y-120540000D03*
D14*
%TO.P,J10,MH1*%
%TO.N,GND*%
X181930000Y-114700000D03*
%TO.P,J10,MH2*%
X166180000Y-114700000D03*
%TD*%
D15*
%TO.P,J11,1*%
%TO.N,GND*%
X160500000Y-84000000D03*
%TO.P,J11,2*%
X161770000Y-81460000D03*
%TO.P,J11,3*%
%TO.N,CANHI*%
X163040000Y-84000000D03*
%TO.P,J11,4*%
%TO.N,CANLO*%
X164310000Y-81460000D03*
%TO.P,J11,5*%
%TO.N,GND*%
X165580000Y-84000000D03*
%TO.P,J11,6*%
%TO.N,Net-(J11-Pad6)*%
X166850000Y-81460000D03*
%TO.P,J11,7*%
%TO.N,VIN*%
X168120000Y-84000000D03*
%TO.P,J11,8*%
X169390000Y-81460000D03*
D14*
%TO.P,J11,MH1*%
%TO.N,GND*%
X157070000Y-87300000D03*
%TO.P,J11,MH2*%
X172820000Y-87300000D03*
%TD*%
D16*
%TO.N,DOUT2*%
X176500000Y-89250000D03*
X176500000Y-76250000D03*
%TO.N,DOUT1*%
X173750000Y-77000000D03*
%TO.N,RXD2*%
X162000000Y-114250000D03*
X167250000Y-119250000D03*
%TO.N,RXD1*%
X145500000Y-68500000D03*
%TO.N,TXD1*%
X142750000Y-67000000D03*
%TO.N,CANLO*%
X144000000Y-78000000D03*
%TO.N,BZZOUT1*%
X161000000Y-71000000D03*
%TD*%
D17*
%TO.N,USENS1*%
X150000000Y-72962000D02*
X148212000Y-72962000D01*
X148212000Y-72962000D02*
X146750000Y-71500000D01*
X146750000Y-71500000D02*
X146750000Y-68500000D01*
X146750000Y-68500000D02*
X148750000Y-66500000D01*
X148750000Y-66500000D02*
X169750000Y-66500000D01*
X176290000Y-73040000D02*
X178500000Y-73040000D01*
X169750000Y-66500000D02*
X176290000Y-73040000D01*
%TO.N,USENS2*%
X183500000Y-80580000D02*
X178500000Y-75580000D01*
X183500000Y-103250000D02*
X183500000Y-80580000D01*
X155250010Y-106000010D02*
X157250000Y-108000000D01*
X152038010Y-106000010D02*
X155250010Y-106000010D01*
X150000000Y-103962000D02*
X152038010Y-106000010D01*
X178750000Y-108000000D02*
X180750000Y-106000000D01*
X157250000Y-108000000D02*
X178750000Y-108000000D01*
X180750000Y-106000000D02*
X183500000Y-103250000D01*
X180624990Y-106125010D02*
X180750000Y-106000000D01*
%TO.N,DIN2*%
X180160000Y-80660000D02*
X178500000Y-80660000D01*
X181250000Y-81750000D02*
X180160000Y-80660000D01*
X181250000Y-102750000D02*
X181250000Y-81750000D01*
X178500000Y-105500000D02*
X181250000Y-102750000D01*
X156110000Y-105500000D02*
X178500000Y-105500000D01*
X154572000Y-103962000D02*
X156110000Y-105500000D01*
%TO.N,DOUT2*%
X176500000Y-77500000D02*
X176500000Y-89250000D01*
X176500000Y-76250000D02*
X176500000Y-77500000D01*
%TO.N,DOUT1*%
X173750000Y-77000000D02*
X174750000Y-77000000D01*
X174750000Y-77000000D02*
X175500000Y-77750000D01*
X175500000Y-77750000D02*
X175500000Y-89750000D01*
X176290000Y-90540000D02*
X178500000Y-90540000D01*
X175500000Y-89750000D02*
X176290000Y-90540000D01*
%TO.N,EN2*%
X154357990Y-97499990D02*
X154249990Y-97499990D01*
X149938000Y-93080000D02*
X156858000Y-100000000D01*
X130500000Y-93080000D02*
X149938000Y-93080000D01*
%TO.N,TXD2*%
X174909999Y-116949999D02*
X175960000Y-118000000D01*
X174909999Y-116909999D02*
X174909999Y-116949999D01*
X174500000Y-116500000D02*
X174909999Y-116909999D01*
X155250000Y-116500000D02*
X174500000Y-116500000D01*
X146250000Y-107500000D02*
X155250000Y-116500000D01*
X154572000Y-100000000D02*
X152572000Y-98000000D01*
X152572000Y-98000000D02*
X152500000Y-98000000D01*
X152500000Y-98000000D02*
X149750000Y-95250000D01*
X149750000Y-95250000D02*
X146750000Y-95250000D01*
X146750000Y-95250000D02*
X145500000Y-96500000D01*
X145500000Y-106750000D02*
X146250000Y-107500000D01*
X145500000Y-96500000D02*
X145500000Y-106750000D01*
%TO.N,RXD2*%
X152286000Y-100000000D02*
X152286000Y-99786000D01*
X151000000Y-98500000D02*
X148250000Y-98500000D01*
X152286000Y-99786000D02*
X151000000Y-98500000D01*
X173639999Y-119489999D02*
X173510001Y-119489999D01*
X174690000Y-120540000D02*
X173639999Y-119489999D01*
X148250000Y-98500000D02*
X147500000Y-99250000D01*
X147500000Y-103192122D02*
X151807878Y-107500000D01*
X147500000Y-99250000D02*
X147500000Y-103192122D01*
X155250000Y-107500000D02*
X162000000Y-114250000D01*
X151807878Y-107500000D02*
X155250000Y-107500000D01*
X167489999Y-119489999D02*
X167250000Y-119250000D01*
X173639999Y-119489999D02*
X167489999Y-119489999D01*
%TO.N,RXD1*%
X143000000Y-66000000D02*
X145500000Y-68500000D01*
X141500000Y-64500000D02*
X143000000Y-66000000D01*
X135250000Y-64500000D02*
X141500000Y-64500000D01*
X126000000Y-73750000D02*
X135250000Y-64500000D01*
X126000000Y-105946198D02*
X126000000Y-73750000D01*
X135190000Y-115136198D02*
X126000000Y-105946198D01*
X135190000Y-120540000D02*
X135190000Y-115136198D01*
%TO.N,TXD1*%
X136460000Y-118000000D02*
X136460000Y-113460000D01*
X136460000Y-113460000D02*
X127500000Y-104500000D01*
X127500000Y-104500000D02*
X127500000Y-77750000D01*
X138250000Y-67000000D02*
X142750000Y-67000000D01*
X127500000Y-77750000D02*
X138250000Y-67000000D01*
D18*
%TO.N,CANLO*%
X143810000Y-82197000D02*
X144363000Y-82750000D01*
X143810000Y-81460000D02*
X143810000Y-82197000D01*
X163020000Y-82750000D02*
X164310000Y-81460000D01*
X144363000Y-82750000D02*
X163020000Y-82750000D01*
D19*
X151143000Y-70981000D02*
X151143000Y-74607000D01*
X147750000Y-78000000D02*
X144000000Y-78000000D01*
X151143000Y-74607000D02*
X147750000Y-78000000D01*
D18*
%TO.N,CANHI*%
X143565001Y-85025001D02*
X143565001Y-85065001D01*
X142540000Y-84000000D02*
X143565001Y-85025001D01*
X143565001Y-85065001D02*
X144000000Y-85500000D01*
X161540000Y-85500000D02*
X163040000Y-84000000D01*
X144000000Y-85500000D02*
X161540000Y-85500000D01*
D19*
X142500000Y-83960000D02*
X142540000Y-84000000D01*
X142500000Y-80000000D02*
X142500000Y-83960000D01*
X143500000Y-79000000D02*
X142500000Y-80000000D01*
X147904122Y-79000000D02*
X143500000Y-79000000D01*
X153429000Y-73475122D02*
X147904122Y-79000000D01*
X153429000Y-70981000D02*
X153429000Y-73475122D01*
D17*
%TO.N,BZZOUT1*%
X161000000Y-71106000D02*
X159144000Y-72962000D01*
X161000000Y-71000000D02*
X161000000Y-71106000D01*
%TD*%
M02*
