%TF.GenerationSoftware,KiCad,Pcbnew,(5.1.7)-1*%
%TF.CreationDate,2021-02-10T20:21:02+01:00*%
%TF.ProjectId,ad57_adapter,61643537-5f61-4646-9170-7465722e6b69,rev?*%
%TF.SameCoordinates,Original*%
%TF.FileFunction,Legend,Bot*%
%TF.FilePolarity,Positive*%
%FSLAX46Y46*%
G04 Gerber Fmt 4.6, Leading zero omitted, Abs format (unit mm)*
G04 Created by KiCad (PCBNEW (5.1.7)-1) date 2021-02-10 20:21:02*
%MOMM*%
%LPD*%
G01*
G04 APERTURE LIST*
%ADD10C,0.150000*%
%ADD11C,0.200000*%
%ADD12C,0.100000*%
G04 APERTURE END LIST*
D10*
X137214285Y-104091666D02*
X136738095Y-104091666D01*
X137309523Y-104377380D02*
X136976190Y-103377380D01*
X136642857Y-104377380D01*
X136309523Y-104377380D02*
X136309523Y-103377380D01*
X136071428Y-103377380D01*
X135928571Y-103425000D01*
X135833333Y-103520238D01*
X135785714Y-103615476D01*
X135738095Y-103805952D01*
X135738095Y-103948809D01*
X135785714Y-104139285D01*
X135833333Y-104234523D01*
X135928571Y-104329761D01*
X136071428Y-104377380D01*
X136309523Y-104377380D01*
X134833333Y-103377380D02*
X135309523Y-103377380D01*
X135357142Y-103853571D01*
X135309523Y-103805952D01*
X135214285Y-103758333D01*
X134976190Y-103758333D01*
X134880952Y-103805952D01*
X134833333Y-103853571D01*
X134785714Y-103948809D01*
X134785714Y-104186904D01*
X134833333Y-104282142D01*
X134880952Y-104329761D01*
X134976190Y-104377380D01*
X135214285Y-104377380D01*
X135309523Y-104329761D01*
X135357142Y-104282142D01*
X134452380Y-103377380D02*
X133785714Y-103377380D01*
X134214285Y-104377380D01*
X132309523Y-103853571D02*
X132166666Y-103901190D01*
X132119047Y-103948809D01*
X132071428Y-104044047D01*
X132071428Y-104186904D01*
X132119047Y-104282142D01*
X132166666Y-104329761D01*
X132261904Y-104377380D01*
X132642857Y-104377380D01*
X132642857Y-103377380D01*
X132309523Y-103377380D01*
X132214285Y-103425000D01*
X132166666Y-103472619D01*
X132119047Y-103567857D01*
X132119047Y-103663095D01*
X132166666Y-103758333D01*
X132214285Y-103805952D01*
X132309523Y-103853571D01*
X132642857Y-103853571D01*
X131500000Y-104377380D02*
X131595238Y-104329761D01*
X131642857Y-104282142D01*
X131690476Y-104186904D01*
X131690476Y-103901190D01*
X131642857Y-103805952D01*
X131595238Y-103758333D01*
X131500000Y-103710714D01*
X131357142Y-103710714D01*
X131261904Y-103758333D01*
X131214285Y-103805952D01*
X131166666Y-103901190D01*
X131166666Y-104186904D01*
X131214285Y-104282142D01*
X131261904Y-104329761D01*
X131357142Y-104377380D01*
X131500000Y-104377380D01*
X130880952Y-103710714D02*
X130500000Y-103710714D01*
X130738095Y-103377380D02*
X130738095Y-104234523D01*
X130690476Y-104329761D01*
X130595238Y-104377380D01*
X130500000Y-104377380D01*
X130309523Y-103710714D02*
X129928571Y-103710714D01*
X130166666Y-103377380D02*
X130166666Y-104234523D01*
X130119047Y-104329761D01*
X130023809Y-104377380D01*
X129928571Y-104377380D01*
X129452380Y-104377380D02*
X129547619Y-104329761D01*
X129595238Y-104282142D01*
X129642857Y-104186904D01*
X129642857Y-103901190D01*
X129595238Y-103805952D01*
X129547619Y-103758333D01*
X129452380Y-103710714D01*
X129309523Y-103710714D01*
X129214285Y-103758333D01*
X129166666Y-103805952D01*
X129119047Y-103901190D01*
X129119047Y-104186904D01*
X129166666Y-104282142D01*
X129214285Y-104329761D01*
X129309523Y-104377380D01*
X129452380Y-104377380D01*
X128690476Y-104377380D02*
X128690476Y-103710714D01*
X128690476Y-103805952D02*
X128642857Y-103758333D01*
X128547619Y-103710714D01*
X128404761Y-103710714D01*
X128309523Y-103758333D01*
X128261904Y-103853571D01*
X128261904Y-104377380D01*
X128261904Y-103853571D02*
X128214285Y-103758333D01*
X128119047Y-103710714D01*
X127976190Y-103710714D01*
X127880952Y-103758333D01*
X127833333Y-103853571D01*
X127833333Y-104377380D01*
X135452380Y-105932142D02*
X135500000Y-105979761D01*
X135642857Y-106027380D01*
X135738095Y-106027380D01*
X135880952Y-105979761D01*
X135976190Y-105884523D01*
X136023809Y-105789285D01*
X136071428Y-105598809D01*
X136071428Y-105455952D01*
X136023809Y-105265476D01*
X135976190Y-105170238D01*
X135880952Y-105075000D01*
X135738095Y-105027380D01*
X135642857Y-105027380D01*
X135500000Y-105075000D01*
X135452380Y-105122619D01*
X134880952Y-106027380D02*
X134976190Y-105979761D01*
X135023809Y-105932142D01*
X135071428Y-105836904D01*
X135071428Y-105551190D01*
X135023809Y-105455952D01*
X134976190Y-105408333D01*
X134880952Y-105360714D01*
X134738095Y-105360714D01*
X134642857Y-105408333D01*
X134595238Y-105455952D01*
X134547619Y-105551190D01*
X134547619Y-105836904D01*
X134595238Y-105932142D01*
X134642857Y-105979761D01*
X134738095Y-106027380D01*
X134880952Y-106027380D01*
X134119047Y-105360714D02*
X134119047Y-106027380D01*
X134119047Y-105455952D02*
X134071428Y-105408333D01*
X133976190Y-105360714D01*
X133833333Y-105360714D01*
X133738095Y-105408333D01*
X133690476Y-105503571D01*
X133690476Y-106027380D01*
X133214285Y-105360714D02*
X133214285Y-106027380D01*
X133214285Y-105455952D02*
X133166666Y-105408333D01*
X133071428Y-105360714D01*
X132928571Y-105360714D01*
X132833333Y-105408333D01*
X132785714Y-105503571D01*
X132785714Y-106027380D01*
X131928571Y-105979761D02*
X132023809Y-106027380D01*
X132214285Y-106027380D01*
X132309523Y-105979761D01*
X132357142Y-105884523D01*
X132357142Y-105503571D01*
X132309523Y-105408333D01*
X132214285Y-105360714D01*
X132023809Y-105360714D01*
X131928571Y-105408333D01*
X131880952Y-105503571D01*
X131880952Y-105598809D01*
X132357142Y-105694047D01*
X131023809Y-105979761D02*
X131119047Y-106027380D01*
X131309523Y-106027380D01*
X131404761Y-105979761D01*
X131452380Y-105932142D01*
X131500000Y-105836904D01*
X131500000Y-105551190D01*
X131452380Y-105455952D01*
X131404761Y-105408333D01*
X131309523Y-105360714D01*
X131119047Y-105360714D01*
X131023809Y-105408333D01*
X130738095Y-105360714D02*
X130357142Y-105360714D01*
X130595238Y-105027380D02*
X130595238Y-105884523D01*
X130547619Y-105979761D01*
X130452380Y-106027380D01*
X130357142Y-106027380D01*
X129880952Y-106027380D02*
X129976190Y-105979761D01*
X130023809Y-105932142D01*
X130071428Y-105836904D01*
X130071428Y-105551190D01*
X130023809Y-105455952D01*
X129976190Y-105408333D01*
X129880952Y-105360714D01*
X129738095Y-105360714D01*
X129642857Y-105408333D01*
X129595238Y-105455952D01*
X129547619Y-105551190D01*
X129547619Y-105836904D01*
X129595238Y-105932142D01*
X129642857Y-105979761D01*
X129738095Y-106027380D01*
X129880952Y-106027380D01*
X129119047Y-106027380D02*
X129119047Y-105360714D01*
X129119047Y-105551190D02*
X129071428Y-105455952D01*
X129023809Y-105408333D01*
X128928571Y-105360714D01*
X128833333Y-105360714D01*
X178488095Y-65591666D02*
X178011904Y-65591666D01*
X178583333Y-65877380D02*
X178250000Y-64877380D01*
X177916666Y-65877380D01*
X177583333Y-65877380D02*
X177583333Y-64877380D01*
X177345238Y-64877380D01*
X177202380Y-64925000D01*
X177107142Y-65020238D01*
X177059523Y-65115476D01*
X177011904Y-65305952D01*
X177011904Y-65448809D01*
X177059523Y-65639285D01*
X177107142Y-65734523D01*
X177202380Y-65829761D01*
X177345238Y-65877380D01*
X177583333Y-65877380D01*
X176107142Y-64877380D02*
X176583333Y-64877380D01*
X176630952Y-65353571D01*
X176583333Y-65305952D01*
X176488095Y-65258333D01*
X176250000Y-65258333D01*
X176154761Y-65305952D01*
X176107142Y-65353571D01*
X176059523Y-65448809D01*
X176059523Y-65686904D01*
X176107142Y-65782142D01*
X176154761Y-65829761D01*
X176250000Y-65877380D01*
X176488095Y-65877380D01*
X176583333Y-65829761D01*
X176630952Y-65782142D01*
X175726190Y-64877380D02*
X175059523Y-64877380D01*
X175488095Y-65877380D01*
X174059523Y-64877380D02*
X173488095Y-64877380D01*
X173773809Y-65877380D02*
X173773809Y-64877380D01*
X173011904Y-65877380D02*
X173107142Y-65829761D01*
X173154761Y-65782142D01*
X173202380Y-65686904D01*
X173202380Y-65401190D01*
X173154761Y-65305952D01*
X173107142Y-65258333D01*
X173011904Y-65210714D01*
X172869047Y-65210714D01*
X172773809Y-65258333D01*
X172726190Y-65305952D01*
X172678571Y-65401190D01*
X172678571Y-65686904D01*
X172726190Y-65782142D01*
X172773809Y-65829761D01*
X172869047Y-65877380D01*
X173011904Y-65877380D01*
X172250000Y-65210714D02*
X172250000Y-66210714D01*
X172250000Y-65258333D02*
X172154761Y-65210714D01*
X171964285Y-65210714D01*
X171869047Y-65258333D01*
X171821428Y-65305952D01*
X171773809Y-65401190D01*
X171773809Y-65686904D01*
X171821428Y-65782142D01*
X171869047Y-65829761D01*
X171964285Y-65877380D01*
X172154761Y-65877380D01*
X172250000Y-65829761D01*
X177702380Y-67432142D02*
X177749999Y-67479761D01*
X177892857Y-67527380D01*
X177988095Y-67527380D01*
X178130952Y-67479761D01*
X178226190Y-67384523D01*
X178273809Y-67289285D01*
X178321428Y-67098809D01*
X178321428Y-66955952D01*
X178273809Y-66765476D01*
X178226190Y-66670238D01*
X178130952Y-66575000D01*
X177988095Y-66527380D01*
X177892857Y-66527380D01*
X177749999Y-66575000D01*
X177702380Y-66622619D01*
X177130952Y-67527380D02*
X177226190Y-67479761D01*
X177273809Y-67432142D01*
X177321428Y-67336904D01*
X177321428Y-67051190D01*
X177273809Y-66955952D01*
X177226190Y-66908333D01*
X177130952Y-66860714D01*
X176988095Y-66860714D01*
X176892857Y-66908333D01*
X176845238Y-66955952D01*
X176797619Y-67051190D01*
X176797619Y-67336904D01*
X176845238Y-67432142D01*
X176892857Y-67479761D01*
X176988095Y-67527380D01*
X177130952Y-67527380D01*
X176369047Y-66860714D02*
X176369047Y-67527380D01*
X176369047Y-66955952D02*
X176321428Y-66908333D01*
X176226190Y-66860714D01*
X176083333Y-66860714D01*
X175988095Y-66908333D01*
X175940476Y-67003571D01*
X175940476Y-67527380D01*
X175464285Y-66860714D02*
X175464285Y-67527380D01*
X175464285Y-66955952D02*
X175416666Y-66908333D01*
X175321428Y-66860714D01*
X175178571Y-66860714D01*
X175083333Y-66908333D01*
X175035714Y-67003571D01*
X175035714Y-67527380D01*
X174178571Y-67479761D02*
X174273809Y-67527380D01*
X174464285Y-67527380D01*
X174559523Y-67479761D01*
X174607142Y-67384523D01*
X174607142Y-67003571D01*
X174559523Y-66908333D01*
X174464285Y-66860714D01*
X174273809Y-66860714D01*
X174178571Y-66908333D01*
X174130952Y-67003571D01*
X174130952Y-67098809D01*
X174607142Y-67194047D01*
X173273809Y-67479761D02*
X173369047Y-67527380D01*
X173559523Y-67527380D01*
X173654761Y-67479761D01*
X173702380Y-67432142D01*
X173749999Y-67336904D01*
X173749999Y-67051190D01*
X173702380Y-66955952D01*
X173654761Y-66908333D01*
X173559523Y-66860714D01*
X173369047Y-66860714D01*
X173273809Y-66908333D01*
X172988095Y-66860714D02*
X172607142Y-66860714D01*
X172845238Y-66527380D02*
X172845238Y-67384523D01*
X172797619Y-67479761D01*
X172702380Y-67527380D01*
X172607142Y-67527380D01*
X172130952Y-67527380D02*
X172226190Y-67479761D01*
X172273809Y-67432142D01*
X172321428Y-67336904D01*
X172321428Y-67051190D01*
X172273809Y-66955952D01*
X172226190Y-66908333D01*
X172130952Y-66860714D01*
X171988095Y-66860714D01*
X171892857Y-66908333D01*
X171845238Y-66955952D01*
X171797619Y-67051190D01*
X171797619Y-67336904D01*
X171845238Y-67432142D01*
X171892857Y-67479761D01*
X171988095Y-67527380D01*
X172130952Y-67527380D01*
X171369047Y-67527380D02*
X171369047Y-66860714D01*
X171369047Y-67051190D02*
X171321428Y-66955952D01*
X171273809Y-66908333D01*
X171178571Y-66860714D01*
X171083333Y-66860714D01*
D11*
%TO.C,J5*%
X149700000Y-95100000D02*
G75*
G03*
X149800000Y-95100000I50000J0D01*
G01*
X149800000Y-95100000D02*
G75*
G03*
X149700000Y-95100000I-50000J0D01*
G01*
X149700000Y-95100000D02*
G75*
G03*
X149800000Y-95100000I50000J0D01*
G01*
D12*
X169718000Y-95681000D02*
X138918000Y-95681000D01*
X138918000Y-95681000D02*
X138918000Y-108281000D01*
X138918000Y-108281000D02*
X169718000Y-108281000D01*
X169718000Y-108281000D02*
X169718000Y-95681000D01*
D11*
X149800000Y-95100000D02*
X149800000Y-95100000D01*
X149700000Y-95100000D02*
X149700000Y-95100000D01*
X149800000Y-95100000D02*
X149800000Y-95100000D01*
%TO.C,J6*%
X149800000Y-64100000D02*
X149800000Y-64100000D01*
X149700000Y-64100000D02*
X149700000Y-64100000D01*
X149800000Y-64100000D02*
X149800000Y-64100000D01*
D12*
X169718000Y-77281000D02*
X169718000Y-64681000D01*
X138918000Y-77281000D02*
X169718000Y-77281000D01*
X138918000Y-64681000D02*
X138918000Y-77281000D01*
X169718000Y-64681000D02*
X138918000Y-64681000D01*
D11*
X149700000Y-64100000D02*
G75*
G03*
X149800000Y-64100000I50000J0D01*
G01*
X149800000Y-64100000D02*
G75*
G03*
X149700000Y-64100000I-50000J0D01*
G01*
X149700000Y-64100000D02*
G75*
G03*
X149800000Y-64100000I50000J0D01*
G01*
%TD*%
M02*
