%TF.GenerationSoftware,KiCad,Pcbnew,(5.1.7)-1*%
%TF.CreationDate,2021-02-10T20:21:02+01:00*%
%TF.ProjectId,ad57_adapter,61643537-5f61-4646-9170-7465722e6b69,rev?*%
%TF.SameCoordinates,Original*%
%TF.FileFunction,Soldermask,Top*%
%TF.FilePolarity,Negative*%
%FSLAX46Y46*%
G04 Gerber Fmt 4.6, Leading zero omitted, Abs format (unit mm)*
G04 Created by KiCad (PCBNEW (5.1.7)-1) date 2021-02-10 20:21:02*
%MOMM*%
%LPD*%
G01*
G04 APERTURE LIST*
%ADD10R,2.100000X2.100000*%
%ADD11C,2.100000*%
%ADD12C,4.801000*%
%ADD13C,1.638000*%
%ADD14C,2.400000*%
%ADD15C,1.400000*%
%ADD16R,1.000000X1.500000*%
G04 APERTURE END LIST*
D10*
%TO.C,J1*%
X130500000Y-78000000D03*
D11*
X130500000Y-80540000D03*
%TD*%
D10*
%TO.C,J3*%
X178500000Y-70500000D03*
D11*
X178500000Y-73040000D03*
X178500000Y-75580000D03*
X178500000Y-78120000D03*
X178500000Y-80660000D03*
X178500000Y-83200000D03*
%TD*%
%TO.C,J4*%
X178500000Y-100700000D03*
X178500000Y-98160000D03*
X178500000Y-95620000D03*
X178500000Y-93080000D03*
X178500000Y-90540000D03*
D10*
X178500000Y-88000000D03*
%TD*%
D12*
%TO.C,J5*%
X166815000Y-101981000D03*
X141821000Y-101981000D03*
D13*
X159144000Y-103962000D03*
X156858000Y-103962000D03*
X154572000Y-103962000D03*
X152286000Y-103962000D03*
X150000000Y-103962000D03*
X158001000Y-101981000D03*
X155715000Y-101981000D03*
X153429000Y-101981000D03*
X151143000Y-101981000D03*
X148857000Y-101981000D03*
X159144000Y-100000000D03*
X156858000Y-100000000D03*
X154572000Y-100000000D03*
X152286000Y-100000000D03*
X150000000Y-100000000D03*
%TD*%
%TO.C,J6*%
X150000000Y-69000000D03*
X152286000Y-69000000D03*
X154572000Y-69000000D03*
X156858000Y-69000000D03*
X159144000Y-69000000D03*
X148857000Y-70981000D03*
X151143000Y-70981000D03*
X153429000Y-70981000D03*
X155715000Y-70981000D03*
X158001000Y-70981000D03*
X150000000Y-72962000D03*
X152286000Y-72962000D03*
X154572000Y-72962000D03*
X156858000Y-72962000D03*
X159144000Y-72962000D03*
D12*
X141821000Y-70981000D03*
X166815000Y-70981000D03*
%TD*%
D14*
%TO.C,J7*%
X126680000Y-114700000D03*
X142430000Y-114700000D03*
D15*
X130110000Y-120540000D03*
X131380000Y-118000000D03*
X132650000Y-120540000D03*
X133920000Y-118000000D03*
X135190000Y-120540000D03*
X136460000Y-118000000D03*
X137730000Y-120540000D03*
X139000000Y-118000000D03*
%TD*%
D10*
%TO.C,J8*%
X130500000Y-88000000D03*
D11*
X130500000Y-90540000D03*
X130500000Y-93080000D03*
X130500000Y-95620000D03*
X130500000Y-98160000D03*
X130500000Y-100700000D03*
%TD*%
D14*
%TO.C,J9*%
X152320000Y-87300000D03*
X136570000Y-87300000D03*
D15*
X148890000Y-81460000D03*
X147620000Y-84000000D03*
X146350000Y-81460000D03*
X145080000Y-84000000D03*
X143810000Y-81460000D03*
X142540000Y-84000000D03*
X141270000Y-81460000D03*
X140000000Y-84000000D03*
%TD*%
%TO.C,J10*%
X178500000Y-118000000D03*
X177230000Y-120540000D03*
X175960000Y-118000000D03*
X174690000Y-120540000D03*
X173420000Y-118000000D03*
X172150000Y-120540000D03*
X170880000Y-118000000D03*
X169610000Y-120540000D03*
D14*
X181930000Y-114700000D03*
X166180000Y-114700000D03*
%TD*%
D15*
%TO.C,J11*%
X160500000Y-84000000D03*
X161770000Y-81460000D03*
X163040000Y-84000000D03*
X164310000Y-81460000D03*
X165580000Y-84000000D03*
X166850000Y-81460000D03*
X168120000Y-84000000D03*
X169390000Y-81460000D03*
D14*
X157070000Y-87300000D03*
X172820000Y-87300000D03*
%TD*%
D16*
%TO.C,JP1*%
X145250000Y-75750000D03*
X143950000Y-75750000D03*
%TD*%
M02*
