%TF.GenerationSoftware,KiCad,Pcbnew,(5.1.7)-1*%
%TF.CreationDate,2021-02-10T20:21:02+01:00*%
%TF.ProjectId,ad57_adapter,61643537-5f61-4646-9170-7465722e6b69,rev?*%
%TF.SameCoordinates,Original*%
%TF.FileFunction,Legend,Top*%
%TF.FilePolarity,Positive*%
%FSLAX46Y46*%
G04 Gerber Fmt 4.6, Leading zero omitted, Abs format (unit mm)*
G04 Created by KiCad (PCBNEW (5.1.7)-1) date 2021-02-10 20:21:02*
%MOMM*%
%LPD*%
G01*
G04 APERTURE LIST*
%ADD10C,0.200000*%
%ADD11C,0.100000*%
%ADD12C,0.150000*%
%ADD13C,0.120000*%
%ADD14C,0.300000*%
G04 APERTURE END LIST*
D10*
X137785714Y-79285714D02*
X137714285Y-79357142D01*
X137500000Y-79428571D01*
X137357142Y-79428571D01*
X137142857Y-79357142D01*
X137000000Y-79214285D01*
X136928571Y-79071428D01*
X136857142Y-78785714D01*
X136857142Y-78571428D01*
X136928571Y-78285714D01*
X137000000Y-78142857D01*
X137142857Y-78000000D01*
X137357142Y-77928571D01*
X137500000Y-77928571D01*
X137714285Y-78000000D01*
X137785714Y-78071428D01*
X138357142Y-79000000D02*
X139071428Y-79000000D01*
X138214285Y-79428571D02*
X138714285Y-77928571D01*
X139214285Y-79428571D01*
X139714285Y-79428571D02*
X139714285Y-77928571D01*
X140571428Y-79428571D01*
X140571428Y-77928571D01*
X158285714Y-79285714D02*
X158214285Y-79357142D01*
X158000000Y-79428571D01*
X157857142Y-79428571D01*
X157642857Y-79357142D01*
X157500000Y-79214285D01*
X157428571Y-79071428D01*
X157357142Y-78785714D01*
X157357142Y-78571428D01*
X157428571Y-78285714D01*
X157500000Y-78142857D01*
X157642857Y-78000000D01*
X157857142Y-77928571D01*
X158000000Y-77928571D01*
X158214285Y-78000000D01*
X158285714Y-78071428D01*
X158857142Y-79000000D02*
X159571428Y-79000000D01*
X158714285Y-79428571D02*
X159214285Y-77928571D01*
X159714285Y-79428571D01*
X160214285Y-79428571D02*
X160214285Y-77928571D01*
X161071428Y-79428571D01*
X161071428Y-77928571D01*
X164678571Y-113678571D02*
X163964285Y-114178571D01*
X164678571Y-114535714D02*
X163178571Y-114535714D01*
X163178571Y-113964285D01*
X163250000Y-113821428D01*
X163321428Y-113750000D01*
X163464285Y-113678571D01*
X163678571Y-113678571D01*
X163821428Y-113750000D01*
X163892857Y-113821428D01*
X163964285Y-113964285D01*
X163964285Y-114535714D01*
X164607142Y-113107142D02*
X164678571Y-112892857D01*
X164678571Y-112535714D01*
X164607142Y-112392857D01*
X164535714Y-112321428D01*
X164392857Y-112250000D01*
X164250000Y-112250000D01*
X164107142Y-112321428D01*
X164035714Y-112392857D01*
X163964285Y-112535714D01*
X163892857Y-112821428D01*
X163821428Y-112964285D01*
X163750000Y-113035714D01*
X163607142Y-113107142D01*
X163464285Y-113107142D01*
X163321428Y-113035714D01*
X163250000Y-112964285D01*
X163178571Y-112821428D01*
X163178571Y-112464285D01*
X163250000Y-112250000D01*
X163321428Y-111678571D02*
X163250000Y-111607142D01*
X163178571Y-111464285D01*
X163178571Y-111107142D01*
X163250000Y-110964285D01*
X163321428Y-110892857D01*
X163464285Y-110821428D01*
X163607142Y-110821428D01*
X163821428Y-110892857D01*
X164678571Y-111750000D01*
X164678571Y-110821428D01*
X163178571Y-110321428D02*
X163178571Y-109392857D01*
X163750000Y-109892857D01*
X163750000Y-109678571D01*
X163821428Y-109535714D01*
X163892857Y-109464285D01*
X164035714Y-109392857D01*
X164392857Y-109392857D01*
X164535714Y-109464285D01*
X164607142Y-109535714D01*
X164678571Y-109678571D01*
X164678571Y-110107142D01*
X164607142Y-110250000D01*
X164535714Y-110321428D01*
X163321428Y-108821428D02*
X163250000Y-108750000D01*
X163178571Y-108607142D01*
X163178571Y-108250000D01*
X163250000Y-108107142D01*
X163321428Y-108035714D01*
X163464285Y-107964285D01*
X163607142Y-107964285D01*
X163821428Y-108035714D01*
X164678571Y-108892857D01*
X164678571Y-107964285D01*
X164821428Y-107678571D02*
X164821428Y-106535714D01*
X163321428Y-106250000D02*
X163250000Y-106178571D01*
X163178571Y-106035714D01*
X163178571Y-105678571D01*
X163250000Y-105535714D01*
X163321428Y-105464285D01*
X163464285Y-105392857D01*
X163607142Y-105392857D01*
X163821428Y-105464285D01*
X164678571Y-106321428D01*
X164678571Y-105392857D01*
X145678571Y-113678571D02*
X144964285Y-114178571D01*
X145678571Y-114535714D02*
X144178571Y-114535714D01*
X144178571Y-113964285D01*
X144250000Y-113821428D01*
X144321428Y-113750000D01*
X144464285Y-113678571D01*
X144678571Y-113678571D01*
X144821428Y-113750000D01*
X144892857Y-113821428D01*
X144964285Y-113964285D01*
X144964285Y-114535714D01*
X145607142Y-113107142D02*
X145678571Y-112892857D01*
X145678571Y-112535714D01*
X145607142Y-112392857D01*
X145535714Y-112321428D01*
X145392857Y-112250000D01*
X145250000Y-112250000D01*
X145107142Y-112321428D01*
X145035714Y-112392857D01*
X144964285Y-112535714D01*
X144892857Y-112821428D01*
X144821428Y-112964285D01*
X144750000Y-113035714D01*
X144607142Y-113107142D01*
X144464285Y-113107142D01*
X144321428Y-113035714D01*
X144250000Y-112964285D01*
X144178571Y-112821428D01*
X144178571Y-112464285D01*
X144250000Y-112250000D01*
X144321428Y-111678571D02*
X144250000Y-111607142D01*
X144178571Y-111464285D01*
X144178571Y-111107142D01*
X144250000Y-110964285D01*
X144321428Y-110892857D01*
X144464285Y-110821428D01*
X144607142Y-110821428D01*
X144821428Y-110892857D01*
X145678571Y-111750000D01*
X145678571Y-110821428D01*
X144178571Y-110321428D02*
X144178571Y-109392857D01*
X144750000Y-109892857D01*
X144750000Y-109678571D01*
X144821428Y-109535714D01*
X144892857Y-109464285D01*
X145035714Y-109392857D01*
X145392857Y-109392857D01*
X145535714Y-109464285D01*
X145607142Y-109535714D01*
X145678571Y-109678571D01*
X145678571Y-110107142D01*
X145607142Y-110250000D01*
X145535714Y-110321428D01*
X145678571Y-107964285D02*
X145678571Y-108821428D01*
X145678571Y-108392857D02*
X144178571Y-108392857D01*
X144392857Y-108535714D01*
X144535714Y-108678571D01*
X144607142Y-108821428D01*
X145821428Y-107678571D02*
X145821428Y-106535714D01*
X145678571Y-105392857D02*
X145678571Y-106250000D01*
X145678571Y-105821428D02*
X144178571Y-105821428D01*
X144392857Y-105964285D01*
X144535714Y-106107142D01*
X144607142Y-106250000D01*
D11*
X147109523Y-76035714D02*
X147071428Y-76073809D01*
X146957142Y-76111904D01*
X146880952Y-76111904D01*
X146766666Y-76073809D01*
X146690476Y-75997619D01*
X146652380Y-75921428D01*
X146614285Y-75769047D01*
X146614285Y-75654761D01*
X146652380Y-75502380D01*
X146690476Y-75426190D01*
X146766666Y-75350000D01*
X146880952Y-75311904D01*
X146957142Y-75311904D01*
X147071428Y-75350000D01*
X147109523Y-75388095D01*
X147566666Y-76111904D02*
X147490476Y-76073809D01*
X147452380Y-75997619D01*
X147452380Y-75311904D01*
X147985714Y-76111904D02*
X147909523Y-76073809D01*
X147871428Y-76035714D01*
X147833333Y-75959523D01*
X147833333Y-75730952D01*
X147871428Y-75654761D01*
X147909523Y-75616666D01*
X147985714Y-75578571D01*
X148100000Y-75578571D01*
X148176190Y-75616666D01*
X148214285Y-75654761D01*
X148252380Y-75730952D01*
X148252380Y-75959523D01*
X148214285Y-76035714D01*
X148176190Y-76073809D01*
X148100000Y-76111904D01*
X147985714Y-76111904D01*
X148557142Y-76073809D02*
X148633333Y-76111904D01*
X148785714Y-76111904D01*
X148861904Y-76073809D01*
X148900000Y-75997619D01*
X148900000Y-75959523D01*
X148861904Y-75883333D01*
X148785714Y-75845238D01*
X148671428Y-75845238D01*
X148595238Y-75807142D01*
X148557142Y-75730952D01*
X148557142Y-75692857D01*
X148595238Y-75616666D01*
X148671428Y-75578571D01*
X148785714Y-75578571D01*
X148861904Y-75616666D01*
X149547619Y-76073809D02*
X149471428Y-76111904D01*
X149319047Y-76111904D01*
X149242857Y-76073809D01*
X149204761Y-75997619D01*
X149204761Y-75692857D01*
X149242857Y-75616666D01*
X149319047Y-75578571D01*
X149471428Y-75578571D01*
X149547619Y-75616666D01*
X149585714Y-75692857D01*
X149585714Y-75769047D01*
X149204761Y-75845238D01*
X150423809Y-75578571D02*
X150728571Y-75578571D01*
X150538095Y-76111904D02*
X150538095Y-75426190D01*
X150576190Y-75350000D01*
X150652380Y-75311904D01*
X150728571Y-75311904D01*
X151109523Y-76111904D02*
X151033333Y-76073809D01*
X150995238Y-76035714D01*
X150957142Y-75959523D01*
X150957142Y-75730952D01*
X150995238Y-75654761D01*
X151033333Y-75616666D01*
X151109523Y-75578571D01*
X151223809Y-75578571D01*
X151300000Y-75616666D01*
X151338095Y-75654761D01*
X151376190Y-75730952D01*
X151376190Y-75959523D01*
X151338095Y-76035714D01*
X151300000Y-76073809D01*
X151223809Y-76111904D01*
X151109523Y-76111904D01*
X151719047Y-76111904D02*
X151719047Y-75578571D01*
X151719047Y-75730952D02*
X151757142Y-75654761D01*
X151795238Y-75616666D01*
X151871428Y-75578571D01*
X151947619Y-75578571D01*
X153280952Y-76035714D02*
X153242857Y-76073809D01*
X153128571Y-76111904D01*
X153052380Y-76111904D01*
X152938095Y-76073809D01*
X152861904Y-75997619D01*
X152823809Y-75921428D01*
X152785714Y-75769047D01*
X152785714Y-75654761D01*
X152823809Y-75502380D01*
X152861904Y-75426190D01*
X152938095Y-75350000D01*
X153052380Y-75311904D01*
X153128571Y-75311904D01*
X153242857Y-75350000D01*
X153280952Y-75388095D01*
X153585714Y-75883333D02*
X153966666Y-75883333D01*
X153509523Y-76111904D02*
X153776190Y-75311904D01*
X154042857Y-76111904D01*
X154309523Y-76111904D02*
X154309523Y-75311904D01*
X154766666Y-76111904D01*
X154766666Y-75311904D01*
X155642857Y-75311904D02*
X156100000Y-75311904D01*
X155871428Y-76111904D02*
X155871428Y-75311904D01*
X156671428Y-76073809D02*
X156595238Y-76111904D01*
X156442857Y-76111904D01*
X156366666Y-76073809D01*
X156328571Y-75997619D01*
X156328571Y-75692857D01*
X156366666Y-75616666D01*
X156442857Y-75578571D01*
X156595238Y-75578571D01*
X156671428Y-75616666D01*
X156709523Y-75692857D01*
X156709523Y-75769047D01*
X156328571Y-75845238D01*
X157052380Y-76111904D02*
X157052380Y-75578571D01*
X157052380Y-75730952D02*
X157090476Y-75654761D01*
X157128571Y-75616666D01*
X157204761Y-75578571D01*
X157280952Y-75578571D01*
X157547619Y-76111904D02*
X157547619Y-75578571D01*
X157547619Y-75654761D02*
X157585714Y-75616666D01*
X157661904Y-75578571D01*
X157776190Y-75578571D01*
X157852380Y-75616666D01*
X157890476Y-75692857D01*
X157890476Y-76111904D01*
X157890476Y-75692857D02*
X157928571Y-75616666D01*
X158004761Y-75578571D01*
X158119047Y-75578571D01*
X158195238Y-75616666D01*
X158233333Y-75692857D01*
X158233333Y-76111904D01*
X158614285Y-76111904D02*
X158614285Y-75578571D01*
X158614285Y-75311904D02*
X158576190Y-75350000D01*
X158614285Y-75388095D01*
X158652380Y-75350000D01*
X158614285Y-75311904D01*
X158614285Y-75388095D01*
X158995238Y-75578571D02*
X158995238Y-76111904D01*
X158995238Y-75654761D02*
X159033333Y-75616666D01*
X159109523Y-75578571D01*
X159223809Y-75578571D01*
X159300000Y-75616666D01*
X159338095Y-75692857D01*
X159338095Y-76111904D01*
X160061904Y-76111904D02*
X160061904Y-75692857D01*
X160023809Y-75616666D01*
X159947619Y-75578571D01*
X159795238Y-75578571D01*
X159719047Y-75616666D01*
X160061904Y-76073809D02*
X159985714Y-76111904D01*
X159795238Y-76111904D01*
X159719047Y-76073809D01*
X159680952Y-75997619D01*
X159680952Y-75921428D01*
X159719047Y-75845238D01*
X159795238Y-75807142D01*
X159985714Y-75807142D01*
X160061904Y-75769047D01*
X160328571Y-75578571D02*
X160633333Y-75578571D01*
X160442857Y-75311904D02*
X160442857Y-75997619D01*
X160480952Y-76073809D01*
X160557142Y-76111904D01*
X160633333Y-76111904D01*
X160900000Y-76111904D02*
X160900000Y-75578571D01*
X160900000Y-75311904D02*
X160861904Y-75350000D01*
X160900000Y-75388095D01*
X160938095Y-75350000D01*
X160900000Y-75311904D01*
X160900000Y-75388095D01*
X161395238Y-76111904D02*
X161319047Y-76073809D01*
X161280952Y-76035714D01*
X161242857Y-75959523D01*
X161242857Y-75730952D01*
X161280952Y-75654761D01*
X161319047Y-75616666D01*
X161395238Y-75578571D01*
X161509523Y-75578571D01*
X161585714Y-75616666D01*
X161623809Y-75654761D01*
X161661904Y-75730952D01*
X161661904Y-75959523D01*
X161623809Y-76035714D01*
X161585714Y-76073809D01*
X161509523Y-76111904D01*
X161395238Y-76111904D01*
X162004761Y-75578571D02*
X162004761Y-76111904D01*
X162004761Y-75654761D02*
X162042857Y-75616666D01*
X162119047Y-75578571D01*
X162233333Y-75578571D01*
X162309523Y-75616666D01*
X162347619Y-75692857D01*
X162347619Y-76111904D01*
X125938095Y-70561904D02*
X126204761Y-71361904D01*
X126471428Y-70561904D01*
X127157142Y-71361904D02*
X126700000Y-71361904D01*
X126928571Y-71361904D02*
X126928571Y-70561904D01*
X126852380Y-70676190D01*
X126776190Y-70752380D01*
X126700000Y-70790476D01*
X127500000Y-71285714D02*
X127538095Y-71323809D01*
X127500000Y-71361904D01*
X127461904Y-71323809D01*
X127500000Y-71285714D01*
X127500000Y-71361904D01*
X128033333Y-70561904D02*
X128109523Y-70561904D01*
X128185714Y-70600000D01*
X128223809Y-70638095D01*
X128261904Y-70714285D01*
X128300000Y-70866666D01*
X128300000Y-71057142D01*
X128261904Y-71209523D01*
X128223809Y-71285714D01*
X128185714Y-71323809D01*
X128109523Y-71361904D01*
X128033333Y-71361904D01*
X127957142Y-71323809D01*
X127919047Y-71285714D01*
X127880952Y-71209523D01*
X127842857Y-71057142D01*
X127842857Y-70866666D01*
X127880952Y-70714285D01*
X127919047Y-70638095D01*
X127957142Y-70600000D01*
X128033333Y-70561904D01*
X129214285Y-70638095D02*
X129252380Y-70600000D01*
X129328571Y-70561904D01*
X129519047Y-70561904D01*
X129595238Y-70600000D01*
X129633333Y-70638095D01*
X129671428Y-70714285D01*
X129671428Y-70790476D01*
X129633333Y-70904761D01*
X129176190Y-71361904D01*
X129671428Y-71361904D01*
X130166666Y-70561904D02*
X130242857Y-70561904D01*
X130319047Y-70600000D01*
X130357142Y-70638095D01*
X130395238Y-70714285D01*
X130433333Y-70866666D01*
X130433333Y-71057142D01*
X130395238Y-71209523D01*
X130357142Y-71285714D01*
X130319047Y-71323809D01*
X130242857Y-71361904D01*
X130166666Y-71361904D01*
X130090476Y-71323809D01*
X130052380Y-71285714D01*
X130014285Y-71209523D01*
X129976190Y-71057142D01*
X129976190Y-70866666D01*
X130014285Y-70714285D01*
X130052380Y-70638095D01*
X130090476Y-70600000D01*
X130166666Y-70561904D01*
X130738095Y-70638095D02*
X130776190Y-70600000D01*
X130852380Y-70561904D01*
X131042857Y-70561904D01*
X131119047Y-70600000D01*
X131157142Y-70638095D01*
X131195238Y-70714285D01*
X131195238Y-70790476D01*
X131157142Y-70904761D01*
X130700000Y-71361904D01*
X131195238Y-71361904D01*
X131957142Y-71361904D02*
X131500000Y-71361904D01*
X131728571Y-71361904D02*
X131728571Y-70561904D01*
X131652380Y-70676190D01*
X131576190Y-70752380D01*
X131500000Y-70790476D01*
X132300000Y-71057142D02*
X132909523Y-71057142D01*
X133442857Y-70561904D02*
X133519047Y-70561904D01*
X133595238Y-70600000D01*
X133633333Y-70638095D01*
X133671428Y-70714285D01*
X133709523Y-70866666D01*
X133709523Y-71057142D01*
X133671428Y-71209523D01*
X133633333Y-71285714D01*
X133595238Y-71323809D01*
X133519047Y-71361904D01*
X133442857Y-71361904D01*
X133366666Y-71323809D01*
X133328571Y-71285714D01*
X133290476Y-71209523D01*
X133252380Y-71057142D01*
X133252380Y-70866666D01*
X133290476Y-70714285D01*
X133328571Y-70638095D01*
X133366666Y-70600000D01*
X133442857Y-70561904D01*
X134014285Y-70638095D02*
X134052380Y-70600000D01*
X134128571Y-70561904D01*
X134319047Y-70561904D01*
X134395238Y-70600000D01*
X134433333Y-70638095D01*
X134471428Y-70714285D01*
X134471428Y-70790476D01*
X134433333Y-70904761D01*
X133976190Y-71361904D01*
X134471428Y-71361904D01*
X134814285Y-71057142D02*
X135423809Y-71057142D01*
X136223809Y-71361904D02*
X135766666Y-71361904D01*
X135995238Y-71361904D02*
X135995238Y-70561904D01*
X135919047Y-70676190D01*
X135842857Y-70752380D01*
X135766666Y-70790476D01*
X136985714Y-71361904D02*
X136528571Y-71361904D01*
X136757142Y-71361904D02*
X136757142Y-70561904D01*
X136680952Y-70676190D01*
X136604761Y-70752380D01*
X136528571Y-70790476D01*
D10*
X127142857Y-66025000D02*
X127857142Y-66025000D01*
X127000000Y-66453571D02*
X127500000Y-64953571D01*
X128000000Y-66453571D01*
X128500000Y-66453571D02*
X128500000Y-64953571D01*
X128857142Y-64953571D01*
X129071428Y-65025000D01*
X129214285Y-65167857D01*
X129285714Y-65310714D01*
X129357142Y-65596428D01*
X129357142Y-65810714D01*
X129285714Y-66096428D01*
X129214285Y-66239285D01*
X129071428Y-66382142D01*
X128857142Y-66453571D01*
X128500000Y-66453571D01*
X130714285Y-64953571D02*
X130000000Y-64953571D01*
X129928571Y-65667857D01*
X130000000Y-65596428D01*
X130142857Y-65525000D01*
X130500000Y-65525000D01*
X130642857Y-65596428D01*
X130714285Y-65667857D01*
X130785714Y-65810714D01*
X130785714Y-66167857D01*
X130714285Y-66310714D01*
X130642857Y-66382142D01*
X130500000Y-66453571D01*
X130142857Y-66453571D01*
X130000000Y-66382142D01*
X129928571Y-66310714D01*
X131285714Y-64953571D02*
X132285714Y-64953571D01*
X131642857Y-66453571D01*
X126321428Y-68475000D02*
X127035714Y-68475000D01*
X126178571Y-68903571D02*
X126678571Y-67403571D01*
X127178571Y-68903571D01*
X128321428Y-68903571D02*
X128321428Y-67403571D01*
X128321428Y-68832142D02*
X128178571Y-68903571D01*
X127892857Y-68903571D01*
X127750000Y-68832142D01*
X127678571Y-68760714D01*
X127607142Y-68617857D01*
X127607142Y-68189285D01*
X127678571Y-68046428D01*
X127750000Y-67975000D01*
X127892857Y-67903571D01*
X128178571Y-67903571D01*
X128321428Y-67975000D01*
X129678571Y-68903571D02*
X129678571Y-68117857D01*
X129607142Y-67975000D01*
X129464285Y-67903571D01*
X129178571Y-67903571D01*
X129035714Y-67975000D01*
X129678571Y-68832142D02*
X129535714Y-68903571D01*
X129178571Y-68903571D01*
X129035714Y-68832142D01*
X128964285Y-68689285D01*
X128964285Y-68546428D01*
X129035714Y-68403571D01*
X129178571Y-68332142D01*
X129535714Y-68332142D01*
X129678571Y-68260714D01*
X130392857Y-67903571D02*
X130392857Y-69403571D01*
X130392857Y-67975000D02*
X130535714Y-67903571D01*
X130821428Y-67903571D01*
X130964285Y-67975000D01*
X131035714Y-68046428D01*
X131107142Y-68189285D01*
X131107142Y-68617857D01*
X131035714Y-68760714D01*
X130964285Y-68832142D01*
X130821428Y-68903571D01*
X130535714Y-68903571D01*
X130392857Y-68832142D01*
X131535714Y-67903571D02*
X132107142Y-67903571D01*
X131750000Y-67403571D02*
X131750000Y-68689285D01*
X131821428Y-68832142D01*
X131964285Y-68903571D01*
X132107142Y-68903571D01*
X133178571Y-68832142D02*
X133035714Y-68903571D01*
X132750000Y-68903571D01*
X132607142Y-68832142D01*
X132535714Y-68689285D01*
X132535714Y-68117857D01*
X132607142Y-67975000D01*
X132750000Y-67903571D01*
X133035714Y-67903571D01*
X133178571Y-67975000D01*
X133250000Y-68117857D01*
X133250000Y-68260714D01*
X132535714Y-68403571D01*
X133892857Y-68903571D02*
X133892857Y-67903571D01*
X133892857Y-68189285D02*
X133964285Y-68046428D01*
X134035714Y-67975000D01*
X134178571Y-67903571D01*
X134321428Y-67903571D01*
X146011904Y-121202380D02*
X146011904Y-120202380D01*
X146345238Y-120916666D01*
X146678571Y-120202380D01*
X146678571Y-121202380D01*
X147583333Y-121202380D02*
X147583333Y-120678571D01*
X147535714Y-120583333D01*
X147440476Y-120535714D01*
X147250000Y-120535714D01*
X147154761Y-120583333D01*
X147583333Y-121154761D02*
X147488095Y-121202380D01*
X147250000Y-121202380D01*
X147154761Y-121154761D01*
X147107142Y-121059523D01*
X147107142Y-120964285D01*
X147154761Y-120869047D01*
X147250000Y-120821428D01*
X147488095Y-120821428D01*
X147583333Y-120773809D01*
X147964285Y-121202380D02*
X148488095Y-120535714D01*
X147964285Y-120535714D02*
X148488095Y-121202380D01*
X148869047Y-121202380D02*
X148869047Y-120535714D01*
X148869047Y-120202380D02*
X148821428Y-120250000D01*
X148869047Y-120297619D01*
X148916666Y-120250000D01*
X148869047Y-120202380D01*
X148869047Y-120297619D01*
X149345238Y-121202380D02*
X149345238Y-120535714D01*
X149345238Y-120630952D02*
X149392857Y-120583333D01*
X149488095Y-120535714D01*
X149630952Y-120535714D01*
X149726190Y-120583333D01*
X149773809Y-120678571D01*
X149773809Y-121202380D01*
X149773809Y-120678571D02*
X149821428Y-120583333D01*
X149916666Y-120535714D01*
X150059523Y-120535714D01*
X150154761Y-120583333D01*
X150202380Y-120678571D01*
X150202380Y-121202380D01*
X150678571Y-121202380D02*
X150678571Y-120535714D01*
X150678571Y-120202380D02*
X150630952Y-120250000D01*
X150678571Y-120297619D01*
X150726190Y-120250000D01*
X150678571Y-120202380D01*
X150678571Y-120297619D01*
X151297619Y-121202380D02*
X151202380Y-121154761D01*
X151154761Y-121059523D01*
X151154761Y-120202380D01*
X151678571Y-121202380D02*
X151678571Y-120535714D01*
X151678571Y-120202380D02*
X151630952Y-120250000D01*
X151678571Y-120297619D01*
X151726190Y-120250000D01*
X151678571Y-120202380D01*
X151678571Y-120297619D01*
X152583333Y-121202380D02*
X152583333Y-120678571D01*
X152535714Y-120583333D01*
X152440476Y-120535714D01*
X152250000Y-120535714D01*
X152154761Y-120583333D01*
X152583333Y-121154761D02*
X152488095Y-121202380D01*
X152250000Y-121202380D01*
X152154761Y-121154761D01*
X152107142Y-121059523D01*
X152107142Y-120964285D01*
X152154761Y-120869047D01*
X152250000Y-120821428D01*
X152488095Y-120821428D01*
X152583333Y-120773809D01*
X153059523Y-120535714D02*
X153059523Y-121202380D01*
X153059523Y-120630952D02*
X153107142Y-120583333D01*
X153202380Y-120535714D01*
X153345238Y-120535714D01*
X153440476Y-120583333D01*
X153488095Y-120678571D01*
X153488095Y-121202380D01*
X155059523Y-120678571D02*
X155202380Y-120726190D01*
X155250000Y-120773809D01*
X155297619Y-120869047D01*
X155297619Y-121011904D01*
X155250000Y-121107142D01*
X155202380Y-121154761D01*
X155107142Y-121202380D01*
X154726190Y-121202380D01*
X154726190Y-120202380D01*
X155059523Y-120202380D01*
X155154761Y-120250000D01*
X155202380Y-120297619D01*
X155250000Y-120392857D01*
X155250000Y-120488095D01*
X155202380Y-120583333D01*
X155154761Y-120630952D01*
X155059523Y-120678571D01*
X154726190Y-120678571D01*
X156107142Y-121154761D02*
X156011904Y-121202380D01*
X155821428Y-121202380D01*
X155726190Y-121154761D01*
X155678571Y-121059523D01*
X155678571Y-120678571D01*
X155726190Y-120583333D01*
X155821428Y-120535714D01*
X156011904Y-120535714D01*
X156107142Y-120583333D01*
X156154761Y-120678571D01*
X156154761Y-120773809D01*
X155678571Y-120869047D01*
X156440476Y-120535714D02*
X156821428Y-120535714D01*
X156583333Y-120202380D02*
X156583333Y-121059523D01*
X156630952Y-121154761D01*
X156726190Y-121202380D01*
X156821428Y-121202380D01*
X157059523Y-120535714D02*
X157583333Y-120535714D01*
X157059523Y-121202380D01*
X157583333Y-121202380D01*
D12*
X146071428Y-118807142D02*
X146071428Y-119707142D01*
X146071428Y-118850000D02*
X146157142Y-118807142D01*
X146328571Y-118807142D01*
X146414285Y-118850000D01*
X146457142Y-118892857D01*
X146500000Y-118978571D01*
X146500000Y-119235714D01*
X146457142Y-119321428D01*
X146414285Y-119364285D01*
X146328571Y-119407142D01*
X146157142Y-119407142D01*
X146071428Y-119364285D01*
X147271428Y-119364285D02*
X147185714Y-119407142D01*
X147014285Y-119407142D01*
X146928571Y-119364285D01*
X146885714Y-119321428D01*
X146842857Y-119235714D01*
X146842857Y-118978571D01*
X146885714Y-118892857D01*
X146928571Y-118850000D01*
X147014285Y-118807142D01*
X147185714Y-118807142D01*
X147271428Y-118850000D01*
X147657142Y-119407142D02*
X147657142Y-118507142D01*
X147657142Y-118850000D02*
X147742857Y-118807142D01*
X147914285Y-118807142D01*
X148000000Y-118850000D01*
X148042857Y-118892857D01*
X148085714Y-118978571D01*
X148085714Y-119235714D01*
X148042857Y-119321428D01*
X148000000Y-119364285D01*
X147914285Y-119407142D01*
X147742857Y-119407142D01*
X147657142Y-119364285D01*
X148471428Y-119407142D02*
X148471428Y-118507142D01*
X148685714Y-118507142D01*
X148814285Y-118550000D01*
X148900000Y-118635714D01*
X148942857Y-118721428D01*
X148985714Y-118892857D01*
X148985714Y-119021428D01*
X148942857Y-119192857D01*
X148900000Y-119278571D01*
X148814285Y-119364285D01*
X148685714Y-119407142D01*
X148471428Y-119407142D01*
X149714285Y-119364285D02*
X149628571Y-119407142D01*
X149457142Y-119407142D01*
X149371428Y-119364285D01*
X149328571Y-119278571D01*
X149328571Y-118935714D01*
X149371428Y-118850000D01*
X149457142Y-118807142D01*
X149628571Y-118807142D01*
X149714285Y-118850000D01*
X149757142Y-118935714D01*
X149757142Y-119021428D01*
X149328571Y-119107142D01*
X150100000Y-119364285D02*
X150185714Y-119407142D01*
X150357142Y-119407142D01*
X150442857Y-119364285D01*
X150485714Y-119278571D01*
X150485714Y-119235714D01*
X150442857Y-119150000D01*
X150357142Y-119107142D01*
X150228571Y-119107142D01*
X150142857Y-119064285D01*
X150100000Y-118978571D01*
X150100000Y-118935714D01*
X150142857Y-118850000D01*
X150228571Y-118807142D01*
X150357142Y-118807142D01*
X150442857Y-118850000D01*
X150871428Y-119407142D02*
X150871428Y-118807142D01*
X150871428Y-118507142D02*
X150828571Y-118550000D01*
X150871428Y-118592857D01*
X150914285Y-118550000D01*
X150871428Y-118507142D01*
X150871428Y-118592857D01*
X151685714Y-118807142D02*
X151685714Y-119535714D01*
X151642857Y-119621428D01*
X151600000Y-119664285D01*
X151514285Y-119707142D01*
X151385714Y-119707142D01*
X151300000Y-119664285D01*
X151685714Y-119364285D02*
X151600000Y-119407142D01*
X151428571Y-119407142D01*
X151342857Y-119364285D01*
X151300000Y-119321428D01*
X151257142Y-119235714D01*
X151257142Y-118978571D01*
X151300000Y-118892857D01*
X151342857Y-118850000D01*
X151428571Y-118807142D01*
X151600000Y-118807142D01*
X151685714Y-118850000D01*
X152114285Y-118807142D02*
X152114285Y-119407142D01*
X152114285Y-118892857D02*
X152157142Y-118850000D01*
X152242857Y-118807142D01*
X152371428Y-118807142D01*
X152457142Y-118850000D01*
X152500000Y-118935714D01*
X152500000Y-119407142D01*
X152928571Y-119321428D02*
X152971428Y-119364285D01*
X152928571Y-119407142D01*
X152885714Y-119364285D01*
X152928571Y-119321428D01*
X152928571Y-119407142D01*
X152928571Y-118850000D02*
X152971428Y-118892857D01*
X152928571Y-118935714D01*
X152885714Y-118892857D01*
X152928571Y-118850000D01*
X152928571Y-118935714D01*
D11*
X182259523Y-72811904D02*
X182259523Y-73459523D01*
X182297619Y-73535714D01*
X182335714Y-73573809D01*
X182411904Y-73611904D01*
X182564285Y-73611904D01*
X182640476Y-73573809D01*
X182678571Y-73535714D01*
X182716666Y-73459523D01*
X182716666Y-72811904D01*
X183059523Y-73573809D02*
X183173809Y-73611904D01*
X183364285Y-73611904D01*
X183440476Y-73573809D01*
X183478571Y-73535714D01*
X183516666Y-73459523D01*
X183516666Y-73383333D01*
X183478571Y-73307142D01*
X183440476Y-73269047D01*
X183364285Y-73230952D01*
X183211904Y-73192857D01*
X183135714Y-73154761D01*
X183097619Y-73116666D01*
X183059523Y-73040476D01*
X183059523Y-72964285D01*
X183097619Y-72888095D01*
X183135714Y-72850000D01*
X183211904Y-72811904D01*
X183402380Y-72811904D01*
X183516666Y-72850000D01*
X184278571Y-73611904D02*
X183821428Y-73611904D01*
X184050000Y-73611904D02*
X184050000Y-72811904D01*
X183973809Y-72926190D01*
X183897619Y-73002380D01*
X183821428Y-73040476D01*
X182259523Y-75311904D02*
X182259523Y-75959523D01*
X182297619Y-76035714D01*
X182335714Y-76073809D01*
X182411904Y-76111904D01*
X182564285Y-76111904D01*
X182640476Y-76073809D01*
X182678571Y-76035714D01*
X182716666Y-75959523D01*
X182716666Y-75311904D01*
X183059523Y-76073809D02*
X183173809Y-76111904D01*
X183364285Y-76111904D01*
X183440476Y-76073809D01*
X183478571Y-76035714D01*
X183516666Y-75959523D01*
X183516666Y-75883333D01*
X183478571Y-75807142D01*
X183440476Y-75769047D01*
X183364285Y-75730952D01*
X183211904Y-75692857D01*
X183135714Y-75654761D01*
X183097619Y-75616666D01*
X183059523Y-75540476D01*
X183059523Y-75464285D01*
X183097619Y-75388095D01*
X183135714Y-75350000D01*
X183211904Y-75311904D01*
X183402380Y-75311904D01*
X183516666Y-75350000D01*
X183821428Y-75388095D02*
X183859523Y-75350000D01*
X183935714Y-75311904D01*
X184126190Y-75311904D01*
X184202380Y-75350000D01*
X184240476Y-75388095D01*
X184278571Y-75464285D01*
X184278571Y-75540476D01*
X184240476Y-75654761D01*
X183783333Y-76111904D01*
X184278571Y-76111904D01*
X182219047Y-81111904D02*
X182219047Y-80311904D01*
X182409523Y-80311904D01*
X182523809Y-80350000D01*
X182600000Y-80426190D01*
X182638095Y-80502380D01*
X182676190Y-80654761D01*
X182676190Y-80769047D01*
X182638095Y-80921428D01*
X182600000Y-80997619D01*
X182523809Y-81073809D01*
X182409523Y-81111904D01*
X182219047Y-81111904D01*
X183019047Y-81111904D02*
X183019047Y-80311904D01*
X183361904Y-80388095D02*
X183400000Y-80350000D01*
X183476190Y-80311904D01*
X183666666Y-80311904D01*
X183742857Y-80350000D01*
X183780952Y-80388095D01*
X183819047Y-80464285D01*
X183819047Y-80540476D01*
X183780952Y-80654761D01*
X183323809Y-81111904D01*
X183819047Y-81111904D01*
X182219047Y-78611904D02*
X182219047Y-77811904D01*
X182409523Y-77811904D01*
X182523809Y-77850000D01*
X182600000Y-77926190D01*
X182638095Y-78002380D01*
X182676190Y-78154761D01*
X182676190Y-78269047D01*
X182638095Y-78421428D01*
X182600000Y-78497619D01*
X182523809Y-78573809D01*
X182409523Y-78611904D01*
X182219047Y-78611904D01*
X183019047Y-78611904D02*
X183019047Y-77811904D01*
X183819047Y-78611904D02*
X183361904Y-78611904D01*
X183590476Y-78611904D02*
X183590476Y-77811904D01*
X183514285Y-77926190D01*
X183438095Y-78002380D01*
X183361904Y-78040476D01*
X182240476Y-90861904D02*
X182240476Y-90061904D01*
X182430952Y-90061904D01*
X182545238Y-90100000D01*
X182621428Y-90176190D01*
X182659523Y-90252380D01*
X182697619Y-90404761D01*
X182697619Y-90519047D01*
X182659523Y-90671428D01*
X182621428Y-90747619D01*
X182545238Y-90823809D01*
X182430952Y-90861904D01*
X182240476Y-90861904D01*
X183192857Y-90061904D02*
X183345238Y-90061904D01*
X183421428Y-90100000D01*
X183497619Y-90176190D01*
X183535714Y-90328571D01*
X183535714Y-90595238D01*
X183497619Y-90747619D01*
X183421428Y-90823809D01*
X183345238Y-90861904D01*
X183192857Y-90861904D01*
X183116666Y-90823809D01*
X183040476Y-90747619D01*
X183002380Y-90595238D01*
X183002380Y-90328571D01*
X183040476Y-90176190D01*
X183116666Y-90100000D01*
X183192857Y-90061904D01*
X184297619Y-90861904D02*
X183840476Y-90861904D01*
X184069047Y-90861904D02*
X184069047Y-90061904D01*
X183992857Y-90176190D01*
X183916666Y-90252380D01*
X183840476Y-90290476D01*
X182240476Y-93611904D02*
X182240476Y-92811904D01*
X182430952Y-92811904D01*
X182545238Y-92850000D01*
X182621428Y-92926190D01*
X182659523Y-93002380D01*
X182697619Y-93154761D01*
X182697619Y-93269047D01*
X182659523Y-93421428D01*
X182621428Y-93497619D01*
X182545238Y-93573809D01*
X182430952Y-93611904D01*
X182240476Y-93611904D01*
X183192857Y-92811904D02*
X183345238Y-92811904D01*
X183421428Y-92850000D01*
X183497619Y-92926190D01*
X183535714Y-93078571D01*
X183535714Y-93345238D01*
X183497619Y-93497619D01*
X183421428Y-93573809D01*
X183345238Y-93611904D01*
X183192857Y-93611904D01*
X183116666Y-93573809D01*
X183040476Y-93497619D01*
X183002380Y-93345238D01*
X183002380Y-93078571D01*
X183040476Y-92926190D01*
X183116666Y-92850000D01*
X183192857Y-92811904D01*
X183840476Y-92888095D02*
X183878571Y-92850000D01*
X183954761Y-92811904D01*
X184145238Y-92811904D01*
X184221428Y-92850000D01*
X184259523Y-92888095D01*
X184297619Y-92964285D01*
X184297619Y-93040476D01*
X184259523Y-93154761D01*
X183802380Y-93611904D01*
X184297619Y-93611904D01*
X182240476Y-96111904D02*
X182240476Y-95311904D01*
X182430952Y-95311904D01*
X182545238Y-95350000D01*
X182621428Y-95426190D01*
X182659523Y-95502380D01*
X182697619Y-95654761D01*
X182697619Y-95769047D01*
X182659523Y-95921428D01*
X182621428Y-95997619D01*
X182545238Y-96073809D01*
X182430952Y-96111904D01*
X182240476Y-96111904D01*
X183192857Y-95311904D02*
X183345238Y-95311904D01*
X183421428Y-95350000D01*
X183497619Y-95426190D01*
X183535714Y-95578571D01*
X183535714Y-95845238D01*
X183497619Y-95997619D01*
X183421428Y-96073809D01*
X183345238Y-96111904D01*
X183192857Y-96111904D01*
X183116666Y-96073809D01*
X183040476Y-95997619D01*
X183002380Y-95845238D01*
X183002380Y-95578571D01*
X183040476Y-95426190D01*
X183116666Y-95350000D01*
X183192857Y-95311904D01*
X183802380Y-95311904D02*
X184297619Y-95311904D01*
X184030952Y-95616666D01*
X184145238Y-95616666D01*
X184221428Y-95654761D01*
X184259523Y-95692857D01*
X184297619Y-95769047D01*
X184297619Y-95959523D01*
X184259523Y-96035714D01*
X184221428Y-96073809D01*
X184145238Y-96111904D01*
X183916666Y-96111904D01*
X183840476Y-96073809D01*
X183802380Y-96035714D01*
X182240476Y-98861904D02*
X182240476Y-98061904D01*
X182430952Y-98061904D01*
X182545238Y-98100000D01*
X182621428Y-98176190D01*
X182659523Y-98252380D01*
X182697619Y-98404761D01*
X182697619Y-98519047D01*
X182659523Y-98671428D01*
X182621428Y-98747619D01*
X182545238Y-98823809D01*
X182430952Y-98861904D01*
X182240476Y-98861904D01*
X183192857Y-98061904D02*
X183345238Y-98061904D01*
X183421428Y-98100000D01*
X183497619Y-98176190D01*
X183535714Y-98328571D01*
X183535714Y-98595238D01*
X183497619Y-98747619D01*
X183421428Y-98823809D01*
X183345238Y-98861904D01*
X183192857Y-98861904D01*
X183116666Y-98823809D01*
X183040476Y-98747619D01*
X183002380Y-98595238D01*
X183002380Y-98328571D01*
X183040476Y-98176190D01*
X183116666Y-98100000D01*
X183192857Y-98061904D01*
X184221428Y-98328571D02*
X184221428Y-98861904D01*
X184030952Y-98023809D02*
X183840476Y-98595238D01*
X184335714Y-98595238D01*
X125007142Y-98192857D02*
X125121428Y-98230952D01*
X125159523Y-98269047D01*
X125197619Y-98345238D01*
X125197619Y-98459523D01*
X125159523Y-98535714D01*
X125121428Y-98573809D01*
X125045238Y-98611904D01*
X124740476Y-98611904D01*
X124740476Y-97811904D01*
X125007142Y-97811904D01*
X125083333Y-97850000D01*
X125121428Y-97888095D01*
X125159523Y-97964285D01*
X125159523Y-98040476D01*
X125121428Y-98116666D01*
X125083333Y-98154761D01*
X125007142Y-98192857D01*
X124740476Y-98192857D01*
X125692857Y-97811904D02*
X125845238Y-97811904D01*
X125921428Y-97850000D01*
X125997619Y-97926190D01*
X126035714Y-98078571D01*
X126035714Y-98345238D01*
X125997619Y-98497619D01*
X125921428Y-98573809D01*
X125845238Y-98611904D01*
X125692857Y-98611904D01*
X125616666Y-98573809D01*
X125540476Y-98497619D01*
X125502380Y-98345238D01*
X125502380Y-98078571D01*
X125540476Y-97926190D01*
X125616666Y-97850000D01*
X125692857Y-97811904D01*
X126340476Y-97888095D02*
X126378571Y-97850000D01*
X126454761Y-97811904D01*
X126645238Y-97811904D01*
X126721428Y-97850000D01*
X126759523Y-97888095D01*
X126797619Y-97964285D01*
X126797619Y-98040476D01*
X126759523Y-98154761D01*
X126302380Y-98611904D01*
X126797619Y-98611904D01*
X125007142Y-95692857D02*
X125121428Y-95730952D01*
X125159523Y-95769047D01*
X125197619Y-95845238D01*
X125197619Y-95959523D01*
X125159523Y-96035714D01*
X125121428Y-96073809D01*
X125045238Y-96111904D01*
X124740476Y-96111904D01*
X124740476Y-95311904D01*
X125007142Y-95311904D01*
X125083333Y-95350000D01*
X125121428Y-95388095D01*
X125159523Y-95464285D01*
X125159523Y-95540476D01*
X125121428Y-95616666D01*
X125083333Y-95654761D01*
X125007142Y-95692857D01*
X124740476Y-95692857D01*
X125692857Y-95311904D02*
X125845238Y-95311904D01*
X125921428Y-95350000D01*
X125997619Y-95426190D01*
X126035714Y-95578571D01*
X126035714Y-95845238D01*
X125997619Y-95997619D01*
X125921428Y-96073809D01*
X125845238Y-96111904D01*
X125692857Y-96111904D01*
X125616666Y-96073809D01*
X125540476Y-95997619D01*
X125502380Y-95845238D01*
X125502380Y-95578571D01*
X125540476Y-95426190D01*
X125616666Y-95350000D01*
X125692857Y-95311904D01*
X126797619Y-96111904D02*
X126340476Y-96111904D01*
X126569047Y-96111904D02*
X126569047Y-95311904D01*
X126492857Y-95426190D01*
X126416666Y-95502380D01*
X126340476Y-95540476D01*
X124778571Y-93192857D02*
X125045238Y-93192857D01*
X125159523Y-93611904D02*
X124778571Y-93611904D01*
X124778571Y-92811904D01*
X125159523Y-92811904D01*
X125502380Y-93611904D02*
X125502380Y-92811904D01*
X125959523Y-93611904D01*
X125959523Y-92811904D01*
X126302380Y-92888095D02*
X126340476Y-92850000D01*
X126416666Y-92811904D01*
X126607142Y-92811904D01*
X126683333Y-92850000D01*
X126721428Y-92888095D01*
X126759523Y-92964285D01*
X126759523Y-93040476D01*
X126721428Y-93154761D01*
X126264285Y-93611904D01*
X126759523Y-93611904D01*
X124778571Y-90692857D02*
X125045238Y-90692857D01*
X125159523Y-91111904D02*
X124778571Y-91111904D01*
X124778571Y-90311904D01*
X125159523Y-90311904D01*
X125502380Y-91111904D02*
X125502380Y-90311904D01*
X125959523Y-91111904D01*
X125959523Y-90311904D01*
X126759523Y-91111904D02*
X126302380Y-91111904D01*
X126530952Y-91111904D02*
X126530952Y-90311904D01*
X126454761Y-90426190D01*
X126378571Y-90502380D01*
X126302380Y-90540476D01*
X125140476Y-80100000D02*
X125064285Y-80061904D01*
X124950000Y-80061904D01*
X124835714Y-80100000D01*
X124759523Y-80176190D01*
X124721428Y-80252380D01*
X124683333Y-80404761D01*
X124683333Y-80519047D01*
X124721428Y-80671428D01*
X124759523Y-80747619D01*
X124835714Y-80823809D01*
X124950000Y-80861904D01*
X125026190Y-80861904D01*
X125140476Y-80823809D01*
X125178571Y-80785714D01*
X125178571Y-80519047D01*
X125026190Y-80519047D01*
X125521428Y-80861904D02*
X125521428Y-80061904D01*
X125978571Y-80861904D01*
X125978571Y-80061904D01*
X126359523Y-80861904D02*
X126359523Y-80061904D01*
X126550000Y-80061904D01*
X126664285Y-80100000D01*
X126740476Y-80176190D01*
X126778571Y-80252380D01*
X126816666Y-80404761D01*
X126816666Y-80519047D01*
X126778571Y-80671428D01*
X126740476Y-80747619D01*
X126664285Y-80823809D01*
X126550000Y-80861904D01*
X126359523Y-80861904D01*
X125140476Y-100600000D02*
X125064285Y-100561904D01*
X124950000Y-100561904D01*
X124835714Y-100600000D01*
X124759523Y-100676190D01*
X124721428Y-100752380D01*
X124683333Y-100904761D01*
X124683333Y-101019047D01*
X124721428Y-101171428D01*
X124759523Y-101247619D01*
X124835714Y-101323809D01*
X124950000Y-101361904D01*
X125026190Y-101361904D01*
X125140476Y-101323809D01*
X125178571Y-101285714D01*
X125178571Y-101019047D01*
X125026190Y-101019047D01*
X125521428Y-101361904D02*
X125521428Y-100561904D01*
X125978571Y-101361904D01*
X125978571Y-100561904D01*
X126359523Y-101361904D02*
X126359523Y-100561904D01*
X126550000Y-100561904D01*
X126664285Y-100600000D01*
X126740476Y-100676190D01*
X126778571Y-100752380D01*
X126816666Y-100904761D01*
X126816666Y-101019047D01*
X126778571Y-101171428D01*
X126740476Y-101247619D01*
X126664285Y-101323809D01*
X126550000Y-101361904D01*
X126359523Y-101361904D01*
D12*
X125119047Y-88071428D02*
X125880952Y-88071428D01*
X125500000Y-88452380D02*
X125500000Y-87690476D01*
X125119047Y-78071428D02*
X125880952Y-78071428D01*
X125500000Y-78452380D02*
X125500000Y-77690476D01*
X182619047Y-88071428D02*
X183380952Y-88071428D01*
X183000000Y-88452380D02*
X183000000Y-87690476D01*
D11*
X182640476Y-100600000D02*
X182564285Y-100561904D01*
X182450000Y-100561904D01*
X182335714Y-100600000D01*
X182259523Y-100676190D01*
X182221428Y-100752380D01*
X182183333Y-100904761D01*
X182183333Y-101019047D01*
X182221428Y-101171428D01*
X182259523Y-101247619D01*
X182335714Y-101323809D01*
X182450000Y-101361904D01*
X182526190Y-101361904D01*
X182640476Y-101323809D01*
X182678571Y-101285714D01*
X182678571Y-101019047D01*
X182526190Y-101019047D01*
X183021428Y-101361904D02*
X183021428Y-100561904D01*
X183478571Y-101361904D01*
X183478571Y-100561904D01*
X183859523Y-101361904D02*
X183859523Y-100561904D01*
X184050000Y-100561904D01*
X184164285Y-100600000D01*
X184240476Y-100676190D01*
X184278571Y-100752380D01*
X184316666Y-100904761D01*
X184316666Y-101019047D01*
X184278571Y-101171428D01*
X184240476Y-101247619D01*
X184164285Y-101323809D01*
X184050000Y-101361904D01*
X183859523Y-101361904D01*
X182640476Y-83100000D02*
X182564285Y-83061904D01*
X182450000Y-83061904D01*
X182335714Y-83100000D01*
X182259523Y-83176190D01*
X182221428Y-83252380D01*
X182183333Y-83404761D01*
X182183333Y-83519047D01*
X182221428Y-83671428D01*
X182259523Y-83747619D01*
X182335714Y-83823809D01*
X182450000Y-83861904D01*
X182526190Y-83861904D01*
X182640476Y-83823809D01*
X182678571Y-83785714D01*
X182678571Y-83519047D01*
X182526190Y-83519047D01*
X183021428Y-83861904D02*
X183021428Y-83061904D01*
X183478571Y-83861904D01*
X183478571Y-83061904D01*
X183859523Y-83861904D02*
X183859523Y-83061904D01*
X184050000Y-83061904D01*
X184164285Y-83100000D01*
X184240476Y-83176190D01*
X184278571Y-83252380D01*
X184316666Y-83404761D01*
X184316666Y-83519047D01*
X184278571Y-83671428D01*
X184240476Y-83747619D01*
X184164285Y-83823809D01*
X184050000Y-83861904D01*
X183859523Y-83861904D01*
D12*
X182619047Y-70571428D02*
X183380952Y-70571428D01*
X183000000Y-70952380D02*
X183000000Y-70190476D01*
D13*
%TO.C,J1*%
X126890000Y-76140000D02*
X126890000Y-76540000D01*
X127530000Y-76140000D02*
X126890000Y-76140000D01*
X133870000Y-82160000D02*
X127130000Y-82160000D01*
X133870000Y-76380000D02*
X127130000Y-76380000D01*
X127130000Y-76380000D02*
X127130000Y-82160000D01*
X133870000Y-76380000D02*
X133870000Y-82160000D01*
X132750000Y-76380000D02*
X132750000Y-82160000D01*
X127650000Y-76380000D02*
X127650000Y-82160000D01*
%TO.C,J3*%
X174890000Y-68640000D02*
X174890000Y-69040000D01*
X175530000Y-68640000D02*
X174890000Y-68640000D01*
X181870000Y-84820000D02*
X175130000Y-84820000D01*
X181870000Y-68880000D02*
X175130000Y-68880000D01*
X175130000Y-68880000D02*
X175130000Y-84820000D01*
X181870000Y-68880000D02*
X181870000Y-84820000D01*
X180750000Y-68880000D02*
X180750000Y-84820000D01*
X175650000Y-68880000D02*
X175650000Y-84820000D01*
%TO.C,J4*%
X175650000Y-86380000D02*
X175650000Y-102320000D01*
X180750000Y-86380000D02*
X180750000Y-102320000D01*
X181870000Y-86380000D02*
X181870000Y-102320000D01*
X175130000Y-86380000D02*
X175130000Y-102320000D01*
X181870000Y-86380000D02*
X175130000Y-86380000D01*
X181870000Y-102320000D02*
X175130000Y-102320000D01*
X175530000Y-86140000D02*
X174890000Y-86140000D01*
X174890000Y-86140000D02*
X174890000Y-86540000D01*
D14*
%TO.C,J7*%
X143555000Y-117976000D02*
G75*
G02*
X143655000Y-117976000I50000J0D01*
G01*
X143655000Y-117976000D02*
G75*
G02*
X143555000Y-117976000I-50000J0D01*
G01*
D11*
X142555000Y-116200000D02*
X142555000Y-121801000D01*
X142555000Y-121801000D02*
X126555000Y-121801000D01*
X126555000Y-121801000D02*
X126555000Y-116200000D01*
X142555000Y-113700000D02*
X142555000Y-105151000D01*
X142555000Y-105151000D02*
X126555000Y-105151000D01*
X126555000Y-105151000D02*
X126555000Y-113200000D01*
D14*
X143555000Y-117976000D02*
X143555000Y-117976000D01*
X143655000Y-117976000D02*
X143655000Y-117976000D01*
D13*
%TO.C,J8*%
X126890000Y-86140000D02*
X126890000Y-86540000D01*
X127530000Y-86140000D02*
X126890000Y-86140000D01*
X133870000Y-102320000D02*
X127130000Y-102320000D01*
X133870000Y-86380000D02*
X127130000Y-86380000D01*
X127130000Y-86380000D02*
X127130000Y-102320000D01*
X133870000Y-86380000D02*
X133870000Y-102320000D01*
X132750000Y-86380000D02*
X132750000Y-102320000D01*
X127650000Y-86380000D02*
X127650000Y-102320000D01*
D14*
%TO.C,J9*%
X135445000Y-84024000D02*
G75*
G02*
X135345000Y-84024000I-50000J0D01*
G01*
X135345000Y-84024000D02*
G75*
G02*
X135445000Y-84024000I50000J0D01*
G01*
D11*
X136445000Y-85800000D02*
X136445000Y-80199000D01*
X136445000Y-80199000D02*
X152445000Y-80199000D01*
X152445000Y-80199000D02*
X152445000Y-85800000D01*
X136445000Y-88300000D02*
X136445000Y-96849000D01*
X136445000Y-96849000D02*
X152445000Y-96849000D01*
X152445000Y-96849000D02*
X152445000Y-88800000D01*
D14*
X135445000Y-84024000D02*
X135445000Y-84024000D01*
X135345000Y-84024000D02*
X135345000Y-84024000D01*
%TO.C,J10*%
X183155000Y-117976000D02*
X183155000Y-117976000D01*
X183055000Y-117976000D02*
X183055000Y-117976000D01*
D11*
X166055000Y-105151000D02*
X166055000Y-113200000D01*
X182055000Y-105151000D02*
X166055000Y-105151000D01*
X182055000Y-113700000D02*
X182055000Y-105151000D01*
X166055000Y-121801000D02*
X166055000Y-116200000D01*
X182055000Y-121801000D02*
X166055000Y-121801000D01*
X182055000Y-116200000D02*
X182055000Y-121801000D01*
D14*
X183155000Y-117976000D02*
G75*
G02*
X183055000Y-117976000I-50000J0D01*
G01*
X183055000Y-117976000D02*
G75*
G02*
X183155000Y-117976000I50000J0D01*
G01*
%TO.C,J11*%
X155845000Y-84024000D02*
X155845000Y-84024000D01*
X155945000Y-84024000D02*
X155945000Y-84024000D01*
D11*
X172945000Y-96849000D02*
X172945000Y-88800000D01*
X156945000Y-96849000D02*
X172945000Y-96849000D01*
X156945000Y-88300000D02*
X156945000Y-96849000D01*
X172945000Y-80199000D02*
X172945000Y-85800000D01*
X156945000Y-80199000D02*
X172945000Y-80199000D01*
X156945000Y-85800000D02*
X156945000Y-80199000D01*
D14*
X155845000Y-84024000D02*
G75*
G02*
X155945000Y-84024000I50000J0D01*
G01*
X155945000Y-84024000D02*
G75*
G02*
X155845000Y-84024000I-50000J0D01*
G01*
D13*
%TO.C,JP1*%
X143200000Y-74750000D02*
X146000000Y-74750000D01*
X146000000Y-74750000D02*
X146000000Y-76750000D01*
X146000000Y-76750000D02*
X143200000Y-76750000D01*
X143200000Y-76750000D02*
X143200000Y-74750000D01*
%TD*%
M02*
