%TF.GenerationSoftware,KiCad,Pcbnew,(5.1.7)-1*%
%TF.CreationDate,2021-02-10T20:21:02+01:00*%
%TF.ProjectId,ad57_adapter,61643537-5f61-4646-9170-7465722e6b69,rev?*%
%TF.SameCoordinates,Original*%
%TF.FileFunction,Copper,L1,Top*%
%TF.FilePolarity,Positive*%
%FSLAX46Y46*%
G04 Gerber Fmt 4.6, Leading zero omitted, Abs format (unit mm)*
G04 Created by KiCad (PCBNEW (5.1.7)-1) date 2021-02-10 20:21:02*
%MOMM*%
%LPD*%
G01*
G04 APERTURE LIST*
%TA.AperFunction,ComponentPad*%
%ADD10R,2.100000X2.100000*%
%TD*%
%TA.AperFunction,ComponentPad*%
%ADD11C,2.100000*%
%TD*%
%TA.AperFunction,ComponentPad*%
%ADD12C,4.801000*%
%TD*%
%TA.AperFunction,ComponentPad*%
%ADD13C,1.638000*%
%TD*%
%TA.AperFunction,ComponentPad*%
%ADD14C,2.400000*%
%TD*%
%TA.AperFunction,ComponentPad*%
%ADD15C,1.400000*%
%TD*%
%TA.AperFunction,SMDPad,CuDef*%
%ADD16R,1.000000X1.500000*%
%TD*%
%TA.AperFunction,ViaPad*%
%ADD17C,0.800000*%
%TD*%
%TA.AperFunction,Conductor*%
%ADD18C,0.300000*%
%TD*%
%TA.AperFunction,Conductor*%
%ADD19C,0.200000*%
%TD*%
G04 APERTURE END LIST*
D10*
%TO.P,J1,1*%
%TO.N,VIN*%
X130500000Y-78000000D03*
D11*
%TO.P,J1,2*%
%TO.N,GND*%
X130500000Y-80540000D03*
%TD*%
D10*
%TO.P,J3,1*%
%TO.N,VIN*%
X178500000Y-70500000D03*
D11*
%TO.P,J3,2*%
%TO.N,USENS1*%
X178500000Y-73040000D03*
%TO.P,J3,3*%
%TO.N,USENS2*%
X178500000Y-75580000D03*
%TO.P,J3,4*%
%TO.N,DIN1*%
X178500000Y-78120000D03*
%TO.P,J3,5*%
%TO.N,DIN2*%
X178500000Y-80660000D03*
%TO.P,J3,6*%
%TO.N,GND*%
X178500000Y-83200000D03*
%TD*%
%TO.P,J4,6*%
%TO.N,GND*%
X178500000Y-100700000D03*
%TO.P,J4,5*%
%TO.N,DOUT4*%
X178500000Y-98160000D03*
%TO.P,J4,4*%
%TO.N,DOUT3*%
X178500000Y-95620000D03*
%TO.P,J4,3*%
%TO.N,DOUT2*%
X178500000Y-93080000D03*
%TO.P,J4,2*%
%TO.N,DOUT1*%
X178500000Y-90540000D03*
D10*
%TO.P,J4,1*%
%TO.N,VIN*%
X178500000Y-88000000D03*
%TD*%
D12*
%TO.P,J5,MH2*%
%TO.N,GND*%
X166815000Y-101981000D03*
%TO.P,J5,MH1*%
X141821000Y-101981000D03*
D13*
%TO.P,J5,15*%
%TO.N,BZZOUT2*%
X159144000Y-103962000D03*
%TO.P,J5,14*%
%TO.N,GND*%
X156858000Y-103962000D03*
%TO.P,J5,13*%
%TO.N,DIN2*%
X154572000Y-103962000D03*
%TO.P,J5,12*%
%TO.N,Net-(J5-Pad12)*%
X152286000Y-103962000D03*
%TO.P,J5,11*%
%TO.N,USENS2*%
X150000000Y-103962000D03*
%TO.P,J5,10*%
%TO.N,DOUT4*%
X158001000Y-101981000D03*
%TO.P,J5,9*%
%TO.N,DOUT3*%
X155715000Y-101981000D03*
%TO.P,J5,8*%
%TO.N,Net-(J5-Pad8)*%
X153429000Y-101981000D03*
%TO.P,J5,7*%
%TO.N,Net-(J5-Pad7)*%
X151143000Y-101981000D03*
%TO.P,J5,6*%
%TO.N,VIN*%
X148857000Y-101981000D03*
%TO.P,J5,5*%
%TO.N,GND*%
X159144000Y-100000000D03*
%TO.P,J5,4*%
%TO.N,EN2*%
X156858000Y-100000000D03*
%TO.P,J5,3*%
%TO.N,TXD2*%
X154572000Y-100000000D03*
%TO.P,J5,2*%
%TO.N,RXD2*%
X152286000Y-100000000D03*
%TO.P,J5,1*%
%TO.N,VIN*%
X150000000Y-100000000D03*
%TD*%
%TO.P,J6,1*%
%TO.N,VIN*%
X150000000Y-69000000D03*
%TO.P,J6,2*%
%TO.N,RXD1*%
X152286000Y-69000000D03*
%TO.P,J6,3*%
%TO.N,TXD1*%
X154572000Y-69000000D03*
%TO.P,J6,4*%
%TO.N,EN1*%
X156858000Y-69000000D03*
%TO.P,J6,5*%
%TO.N,GND*%
X159144000Y-69000000D03*
%TO.P,J6,6*%
%TO.N,VIN*%
X148857000Y-70981000D03*
%TO.P,J6,7*%
%TO.N,CANLO*%
X151143000Y-70981000D03*
%TO.P,J6,8*%
%TO.N,CANHI*%
X153429000Y-70981000D03*
%TO.P,J6,9*%
%TO.N,DOUT1*%
X155715000Y-70981000D03*
%TO.P,J6,10*%
%TO.N,DOUT2*%
X158001000Y-70981000D03*
%TO.P,J6,11*%
%TO.N,USENS1*%
X150000000Y-72962000D03*
%TO.P,J6,12*%
%TO.N,CANTERM*%
X152286000Y-72962000D03*
%TO.P,J6,13*%
%TO.N,DIN1*%
X154572000Y-72962000D03*
%TO.P,J6,14*%
%TO.N,GND*%
X156858000Y-72962000D03*
%TO.P,J6,15*%
%TO.N,BZZOUT1*%
X159144000Y-72962000D03*
D12*
%TO.P,J6,MH1*%
%TO.N,GND*%
X141821000Y-70981000D03*
%TO.P,J6,MH2*%
X166815000Y-70981000D03*
%TD*%
D14*
%TO.P,J7,MH2*%
%TO.N,GND*%
X126680000Y-114700000D03*
%TO.P,J7,MH1*%
X142430000Y-114700000D03*
D15*
%TO.P,J7,8*%
%TO.N,VIN*%
X130110000Y-120540000D03*
%TO.P,J7,7*%
X131380000Y-118000000D03*
%TO.P,J7,6*%
%TO.N,Net-(J7-Pad6)*%
X132650000Y-120540000D03*
%TO.P,J7,5*%
%TO.N,Net-(J7-Pad5)*%
X133920000Y-118000000D03*
%TO.P,J7,4*%
%TO.N,RXD1*%
X135190000Y-120540000D03*
%TO.P,J7,3*%
%TO.N,TXD1*%
X136460000Y-118000000D03*
%TO.P,J7,2*%
%TO.N,GND*%
X137730000Y-120540000D03*
%TO.P,J7,1*%
X139000000Y-118000000D03*
%TD*%
D10*
%TO.P,J8,1*%
%TO.N,VIN*%
X130500000Y-88000000D03*
D11*
%TO.P,J8,2*%
%TO.N,EN1*%
X130500000Y-90540000D03*
%TO.P,J8,3*%
%TO.N,EN2*%
X130500000Y-93080000D03*
%TO.P,J8,4*%
%TO.N,BZZOUT1*%
X130500000Y-95620000D03*
%TO.P,J8,5*%
%TO.N,BZZOUT2*%
X130500000Y-98160000D03*
%TO.P,J8,6*%
%TO.N,GND*%
X130500000Y-100700000D03*
%TD*%
D14*
%TO.P,J9,MH2*%
%TO.N,GND*%
X152320000Y-87300000D03*
%TO.P,J9,MH1*%
X136570000Y-87300000D03*
D15*
%TO.P,J9,8*%
%TO.N,VIN*%
X148890000Y-81460000D03*
%TO.P,J9,7*%
X147620000Y-84000000D03*
%TO.P,J9,6*%
%TO.N,Net-(J9-Pad6)*%
X146350000Y-81460000D03*
%TO.P,J9,5*%
%TO.N,GND*%
X145080000Y-84000000D03*
%TO.P,J9,4*%
%TO.N,CANLO*%
X143810000Y-81460000D03*
%TO.P,J9,3*%
%TO.N,CANHI*%
X142540000Y-84000000D03*
%TO.P,J9,2*%
%TO.N,GND*%
X141270000Y-81460000D03*
%TO.P,J9,1*%
X140000000Y-84000000D03*
%TD*%
%TO.P,J10,1*%
%TO.N,GND*%
X178500000Y-118000000D03*
%TO.P,J10,2*%
X177230000Y-120540000D03*
%TO.P,J10,3*%
%TO.N,TXD2*%
X175960000Y-118000000D03*
%TO.P,J10,4*%
%TO.N,RXD2*%
X174690000Y-120540000D03*
%TO.P,J10,5*%
%TO.N,Net-(J10-Pad5)*%
X173420000Y-118000000D03*
%TO.P,J10,6*%
%TO.N,Net-(J10-Pad6)*%
X172150000Y-120540000D03*
%TO.P,J10,7*%
%TO.N,VIN*%
X170880000Y-118000000D03*
%TO.P,J10,8*%
X169610000Y-120540000D03*
D14*
%TO.P,J10,MH1*%
%TO.N,GND*%
X181930000Y-114700000D03*
%TO.P,J10,MH2*%
X166180000Y-114700000D03*
%TD*%
D15*
%TO.P,J11,1*%
%TO.N,GND*%
X160500000Y-84000000D03*
%TO.P,J11,2*%
X161770000Y-81460000D03*
%TO.P,J11,3*%
%TO.N,CANHI*%
X163040000Y-84000000D03*
%TO.P,J11,4*%
%TO.N,CANLO*%
X164310000Y-81460000D03*
%TO.P,J11,5*%
%TO.N,GND*%
X165580000Y-84000000D03*
%TO.P,J11,6*%
%TO.N,Net-(J11-Pad6)*%
X166850000Y-81460000D03*
%TO.P,J11,7*%
%TO.N,VIN*%
X168120000Y-84000000D03*
%TO.P,J11,8*%
X169390000Y-81460000D03*
D14*
%TO.P,J11,MH1*%
%TO.N,GND*%
X157070000Y-87300000D03*
%TO.P,J11,MH2*%
X172820000Y-87300000D03*
%TD*%
D16*
%TO.P,JP1,2*%
%TO.N,CANTERM*%
X145250000Y-75750000D03*
%TO.P,JP1,1*%
%TO.N,CANLO*%
X143950000Y-75750000D03*
%TD*%
D17*
%TO.N,DOUT2*%
X176500000Y-89250000D03*
X176500000Y-76250000D03*
%TO.N,DOUT1*%
X173750000Y-77000000D03*
%TO.N,RXD2*%
X162000000Y-114250000D03*
X167250000Y-119250000D03*
%TO.N,RXD1*%
X145500000Y-68500000D03*
%TO.N,TXD1*%
X142750000Y-67000000D03*
%TO.N,CANLO*%
X144000000Y-78000000D03*
%TO.N,BZZOUT1*%
X161000000Y-71000000D03*
%TD*%
D18*
%TO.N,DIN1*%
X154572000Y-72962000D02*
X154572000Y-73958410D01*
X178500000Y-78120000D02*
X176880000Y-78120000D01*
X176880000Y-78120000D02*
X175750000Y-79250000D01*
X159863590Y-79250000D02*
X158556795Y-77943205D01*
X175750000Y-79250000D02*
X159863590Y-79250000D01*
X158556795Y-77943205D02*
X158733590Y-78120000D01*
X154572000Y-73958410D02*
X158556795Y-77943205D01*
%TO.N,DOUT4*%
X158001000Y-101981000D02*
X161269000Y-101981000D01*
X161269000Y-101981000D02*
X165250000Y-98000000D01*
X178340000Y-98000000D02*
X178500000Y-98160000D01*
X165250000Y-98000000D02*
X178340000Y-98000000D01*
D19*
%TO.N,DOUT3*%
X155715000Y-100465000D02*
X155691001Y-100441001D01*
X155715000Y-101981000D02*
X155715000Y-100465000D01*
D18*
X155691001Y-98058999D02*
X155691001Y-99308999D01*
X158130000Y-95620000D02*
X155691001Y-98058999D01*
X178500000Y-95620000D02*
X158130000Y-95620000D01*
D19*
X155691001Y-99308999D02*
X155691001Y-98308999D01*
X155691001Y-100441001D02*
X155691001Y-99308999D01*
D18*
%TO.N,DOUT2*%
X158001000Y-70981000D02*
X158893122Y-70981000D01*
X176500000Y-91080000D02*
X178500000Y-93080000D01*
X176500000Y-89250000D02*
X176500000Y-91080000D01*
X158893122Y-70981000D02*
X159731000Y-70981000D01*
X159731000Y-70981000D02*
X163000000Y-74250000D01*
X163000000Y-74250000D02*
X175250000Y-74250000D01*
X176500000Y-75500000D02*
X176500000Y-76250000D01*
X175250000Y-74250000D02*
X176500000Y-75500000D01*
%TO.N,DOUT1*%
X158680000Y-77000000D02*
X155715000Y-74035000D01*
X173750000Y-77000000D02*
X158680000Y-77000000D01*
D19*
X155715000Y-70981000D02*
X155715000Y-74035000D01*
D18*
%TO.N,BZZOUT2*%
X130660000Y-98160000D02*
X130500000Y-98160000D01*
X138750000Y-106250000D02*
X130660000Y-98160000D01*
X157750000Y-106250000D02*
X138750000Y-106250000D01*
X159144000Y-104856000D02*
X157750000Y-106250000D01*
X159144000Y-103962000D02*
X159144000Y-104856000D01*
%TO.N,RXD2*%
X167000000Y-119250000D02*
X167250000Y-119250000D01*
X162000000Y-114250000D02*
X167000000Y-119250000D01*
%TO.N,RXD1*%
X151500000Y-67500000D02*
X152286000Y-68286000D01*
X146500000Y-67500000D02*
X151500000Y-67500000D01*
X152286000Y-68286000D02*
X152286000Y-69000000D01*
X145500000Y-68500000D02*
X146500000Y-67500000D01*
%TO.N,TXD1*%
X152571990Y-66999990D02*
X145249990Y-66999990D01*
X154572000Y-69000000D02*
X152571990Y-66999990D01*
X142750010Y-66999990D02*
X142750000Y-67000000D01*
X145249990Y-66999990D02*
X142750010Y-66999990D01*
%TO.N,EN1*%
X128290000Y-90540000D02*
X130500000Y-90540000D01*
X156858000Y-67358000D02*
X155750000Y-66250000D01*
X126750000Y-89000000D02*
X128290000Y-90540000D01*
X156858000Y-69000000D02*
X156858000Y-67358000D01*
X126750000Y-75750000D02*
X136250000Y-66250000D01*
X126750000Y-89000000D02*
X126750000Y-75750000D01*
X155750000Y-66250000D02*
X136250000Y-66250000D01*
D19*
%TO.N,CANLO*%
X144000000Y-81270000D02*
X143810000Y-81460000D01*
X144000000Y-78000000D02*
X144000000Y-81270000D01*
D18*
X143950000Y-77950000D02*
X144000000Y-78000000D01*
X143950000Y-75750000D02*
X143950000Y-77950000D01*
%TO.N,CANTERM*%
X145250000Y-75750000D02*
X150750000Y-75750000D01*
X152286000Y-74214000D02*
X152286000Y-72962000D01*
X150750000Y-75750000D02*
X152286000Y-74214000D01*
%TO.N,BZZOUT1*%
X128870000Y-95620000D02*
X130500000Y-95620000D01*
X125750000Y-92500000D02*
X128870000Y-95620000D01*
X125750000Y-73750000D02*
X125750000Y-92500000D01*
X134250000Y-65250000D02*
X125750000Y-73750000D01*
X157500000Y-65250000D02*
X134250000Y-65250000D01*
X161000000Y-68750000D02*
X157500000Y-65250000D01*
X161000000Y-71000000D02*
X161000000Y-68750000D01*
%TD*%
M02*
