%TF.GenerationSoftware,KiCad,Pcbnew,(5.1.7)-1*%
%TF.CreationDate,2021-02-10T20:21:02+01:00*%
%TF.ProjectId,ad57_adapter,61643537-5f61-4646-9170-7465722e6b69,rev?*%
%TF.SameCoordinates,Original*%
%TF.FileFunction,Copper,L2,Inr*%
%TF.FilePolarity,Positive*%
%FSLAX46Y46*%
G04 Gerber Fmt 4.6, Leading zero omitted, Abs format (unit mm)*
G04 Created by KiCad (PCBNEW (5.1.7)-1) date 2021-02-10 20:21:02*
%MOMM*%
%LPD*%
G01*
G04 APERTURE LIST*
%TA.AperFunction,ComponentPad*%
%ADD10R,2.100000X2.100000*%
%TD*%
%TA.AperFunction,ComponentPad*%
%ADD11C,2.100000*%
%TD*%
%TA.AperFunction,ComponentPad*%
%ADD12C,4.801000*%
%TD*%
%TA.AperFunction,ComponentPad*%
%ADD13C,1.638000*%
%TD*%
%TA.AperFunction,ComponentPad*%
%ADD14C,2.400000*%
%TD*%
%TA.AperFunction,ComponentPad*%
%ADD15C,1.400000*%
%TD*%
%TA.AperFunction,ViaPad*%
%ADD16C,0.800000*%
%TD*%
%TA.AperFunction,Conductor*%
%ADD17C,0.254000*%
%TD*%
%TA.AperFunction,Conductor*%
%ADD18C,0.100000*%
%TD*%
G04 APERTURE END LIST*
D10*
%TO.N,VIN*%
%TO.C,J1*%
X130500000Y-78000000D03*
D11*
%TO.N,GND*%
X130500000Y-80540000D03*
%TD*%
D10*
%TO.N,VIN*%
%TO.C,J3*%
X178500000Y-70500000D03*
D11*
%TO.N,USENS1*%
X178500000Y-73040000D03*
%TO.N,USENS2*%
X178500000Y-75580000D03*
%TO.N,DIN1*%
X178500000Y-78120000D03*
%TO.N,DIN2*%
X178500000Y-80660000D03*
%TO.N,GND*%
X178500000Y-83200000D03*
%TD*%
%TO.N,GND*%
%TO.C,J4*%
X178500000Y-100700000D03*
%TO.N,DOUT4*%
X178500000Y-98160000D03*
%TO.N,DOUT3*%
X178500000Y-95620000D03*
%TO.N,DOUT2*%
X178500000Y-93080000D03*
%TO.N,DOUT1*%
X178500000Y-90540000D03*
D10*
%TO.N,VIN*%
X178500000Y-88000000D03*
%TD*%
D12*
%TO.N,GND*%
%TO.C,J5*%
X166815000Y-101981000D03*
X141821000Y-101981000D03*
D13*
%TO.N,BZZOUT2*%
X159144000Y-103962000D03*
%TO.N,GND*%
X156858000Y-103962000D03*
%TO.N,DIN2*%
X154572000Y-103962000D03*
%TO.N,Net-(J5-Pad12)*%
X152286000Y-103962000D03*
%TO.N,USENS2*%
X150000000Y-103962000D03*
%TO.N,DOUT4*%
X158001000Y-101981000D03*
%TO.N,DOUT3*%
X155715000Y-101981000D03*
%TO.N,Net-(J5-Pad8)*%
X153429000Y-101981000D03*
%TO.N,Net-(J5-Pad7)*%
X151143000Y-101981000D03*
%TO.N,VIN*%
X148857000Y-101981000D03*
%TO.N,GND*%
X159144000Y-100000000D03*
%TO.N,EN2*%
X156858000Y-100000000D03*
%TO.N,TXD2*%
X154572000Y-100000000D03*
%TO.N,RXD2*%
X152286000Y-100000000D03*
%TO.N,VIN*%
X150000000Y-100000000D03*
%TD*%
%TO.N,VIN*%
%TO.C,J6*%
X150000000Y-69000000D03*
%TO.N,RXD1*%
X152286000Y-69000000D03*
%TO.N,TXD1*%
X154572000Y-69000000D03*
%TO.N,EN1*%
X156858000Y-69000000D03*
%TO.N,GND*%
X159144000Y-69000000D03*
%TO.N,VIN*%
X148857000Y-70981000D03*
%TO.N,CANLO*%
X151143000Y-70981000D03*
%TO.N,CANHI*%
X153429000Y-70981000D03*
%TO.N,DOUT1*%
X155715000Y-70981000D03*
%TO.N,DOUT2*%
X158001000Y-70981000D03*
%TO.N,USENS1*%
X150000000Y-72962000D03*
%TO.N,CANTERM*%
X152286000Y-72962000D03*
%TO.N,DIN1*%
X154572000Y-72962000D03*
%TO.N,GND*%
X156858000Y-72962000D03*
%TO.N,BZZOUT1*%
X159144000Y-72962000D03*
D12*
%TO.N,GND*%
X141821000Y-70981000D03*
X166815000Y-70981000D03*
%TD*%
D14*
%TO.N,GND*%
%TO.C,J7*%
X126680000Y-114700000D03*
X142430000Y-114700000D03*
D15*
%TO.N,VIN*%
X130110000Y-120540000D03*
X131380000Y-118000000D03*
%TO.N,Net-(J7-Pad6)*%
X132650000Y-120540000D03*
%TO.N,Net-(J7-Pad5)*%
X133920000Y-118000000D03*
%TO.N,RXD1*%
X135190000Y-120540000D03*
%TO.N,TXD1*%
X136460000Y-118000000D03*
%TO.N,GND*%
X137730000Y-120540000D03*
X139000000Y-118000000D03*
%TD*%
D10*
%TO.N,VIN*%
%TO.C,J8*%
X130500000Y-88000000D03*
D11*
%TO.N,EN1*%
X130500000Y-90540000D03*
%TO.N,EN2*%
X130500000Y-93080000D03*
%TO.N,BZZOUT1*%
X130500000Y-95620000D03*
%TO.N,BZZOUT2*%
X130500000Y-98160000D03*
%TO.N,GND*%
X130500000Y-100700000D03*
%TD*%
D14*
%TO.N,GND*%
%TO.C,J9*%
X152320000Y-87300000D03*
X136570000Y-87300000D03*
D15*
%TO.N,VIN*%
X148890000Y-81460000D03*
X147620000Y-84000000D03*
%TO.N,Net-(J9-Pad6)*%
X146350000Y-81460000D03*
%TO.N,GND*%
X145080000Y-84000000D03*
%TO.N,CANLO*%
X143810000Y-81460000D03*
%TO.N,CANHI*%
X142540000Y-84000000D03*
%TO.N,GND*%
X141270000Y-81460000D03*
X140000000Y-84000000D03*
%TD*%
%TO.N,GND*%
%TO.C,J10*%
X178500000Y-118000000D03*
X177230000Y-120540000D03*
%TO.N,TXD2*%
X175960000Y-118000000D03*
%TO.N,RXD2*%
X174690000Y-120540000D03*
%TO.N,Net-(J10-Pad5)*%
X173420000Y-118000000D03*
%TO.N,Net-(J10-Pad6)*%
X172150000Y-120540000D03*
%TO.N,VIN*%
X170880000Y-118000000D03*
X169610000Y-120540000D03*
D14*
%TO.N,GND*%
X181930000Y-114700000D03*
X166180000Y-114700000D03*
%TD*%
D15*
%TO.N,GND*%
%TO.C,J11*%
X160500000Y-84000000D03*
X161770000Y-81460000D03*
%TO.N,CANHI*%
X163040000Y-84000000D03*
%TO.N,CANLO*%
X164310000Y-81460000D03*
%TO.N,GND*%
X165580000Y-84000000D03*
%TO.N,Net-(J11-Pad6)*%
X166850000Y-81460000D03*
%TO.N,VIN*%
X168120000Y-84000000D03*
X169390000Y-81460000D03*
D14*
%TO.N,GND*%
X157070000Y-87300000D03*
X172820000Y-87300000D03*
%TD*%
D16*
%TO.N,DOUT2*%
X176500000Y-89250000D03*
X176500000Y-76250000D03*
%TO.N,DOUT1*%
X173750000Y-77000000D03*
%TO.N,RXD2*%
X162000000Y-114250000D03*
X167250000Y-119250000D03*
%TO.N,RXD1*%
X145500000Y-68500000D03*
%TO.N,TXD1*%
X142750000Y-67000000D03*
%TO.N,CANLO*%
X144000000Y-78000000D03*
%TO.N,BZZOUT1*%
X161000000Y-71000000D03*
%TD*%
D17*
%TO.N,GND*%
X182356775Y-63698147D02*
X182699967Y-63801763D01*
X183016489Y-63970062D01*
X183294299Y-64196637D01*
X183522806Y-64472856D01*
X183693310Y-64788197D01*
X183799319Y-65130656D01*
X183840000Y-65517712D01*
X183840001Y-120467711D01*
X183801853Y-120856776D01*
X183698238Y-121199964D01*
X183529939Y-121516489D01*
X183303365Y-121794296D01*
X183027146Y-122022805D01*
X182711803Y-122193310D01*
X182369344Y-122299319D01*
X181982288Y-122340000D01*
X127032279Y-122340000D01*
X126643224Y-122301853D01*
X126300036Y-122198238D01*
X125983511Y-122029939D01*
X125705704Y-121803365D01*
X125477195Y-121527146D01*
X125306690Y-121211803D01*
X125200681Y-120869344D01*
X125160000Y-120482288D01*
X125160000Y-120408514D01*
X128775000Y-120408514D01*
X128775000Y-120671486D01*
X128826304Y-120929405D01*
X128926939Y-121172359D01*
X129073038Y-121391013D01*
X129258987Y-121576962D01*
X129477641Y-121723061D01*
X129720595Y-121823696D01*
X129978514Y-121875000D01*
X130241486Y-121875000D01*
X130499405Y-121823696D01*
X130742359Y-121723061D01*
X130961013Y-121576962D01*
X131146962Y-121391013D01*
X131293061Y-121172359D01*
X131380000Y-120962470D01*
X131466939Y-121172359D01*
X131613038Y-121391013D01*
X131798987Y-121576962D01*
X132017641Y-121723061D01*
X132260595Y-121823696D01*
X132518514Y-121875000D01*
X132781486Y-121875000D01*
X133039405Y-121823696D01*
X133282359Y-121723061D01*
X133501013Y-121576962D01*
X133686962Y-121391013D01*
X133833061Y-121172359D01*
X133920000Y-120962470D01*
X134006939Y-121172359D01*
X134153038Y-121391013D01*
X134338987Y-121576962D01*
X134557641Y-121723061D01*
X134800595Y-121823696D01*
X135058514Y-121875000D01*
X135321486Y-121875000D01*
X135579405Y-121823696D01*
X135822359Y-121723061D01*
X136041013Y-121576962D01*
X136156706Y-121461269D01*
X136988336Y-121461269D01*
X137047797Y-121695037D01*
X137286242Y-121805934D01*
X137541740Y-121868183D01*
X137804473Y-121879390D01*
X138064344Y-121839125D01*
X138311366Y-121748935D01*
X138412203Y-121695037D01*
X138471664Y-121461269D01*
X137730000Y-120719605D01*
X136988336Y-121461269D01*
X136156706Y-121461269D01*
X136226962Y-121391013D01*
X136373061Y-121172359D01*
X136461621Y-120958556D01*
X136521065Y-121121366D01*
X136574963Y-121222203D01*
X136808731Y-121281664D01*
X137550395Y-120540000D01*
X137909605Y-120540000D01*
X138651269Y-121281664D01*
X138885037Y-121222203D01*
X138995934Y-120983758D01*
X139058183Y-120728260D01*
X139069390Y-120465527D01*
X139060557Y-120408514D01*
X168275000Y-120408514D01*
X168275000Y-120671486D01*
X168326304Y-120929405D01*
X168426939Y-121172359D01*
X168573038Y-121391013D01*
X168758987Y-121576962D01*
X168977641Y-121723061D01*
X169220595Y-121823696D01*
X169478514Y-121875000D01*
X169741486Y-121875000D01*
X169999405Y-121823696D01*
X170242359Y-121723061D01*
X170461013Y-121576962D01*
X170646962Y-121391013D01*
X170793061Y-121172359D01*
X170880000Y-120962470D01*
X170966939Y-121172359D01*
X171113038Y-121391013D01*
X171298987Y-121576962D01*
X171517641Y-121723061D01*
X171760595Y-121823696D01*
X172018514Y-121875000D01*
X172281486Y-121875000D01*
X172539405Y-121823696D01*
X172782359Y-121723061D01*
X173001013Y-121576962D01*
X173186962Y-121391013D01*
X173333061Y-121172359D01*
X173420000Y-120962470D01*
X173506939Y-121172359D01*
X173653038Y-121391013D01*
X173838987Y-121576962D01*
X174057641Y-121723061D01*
X174300595Y-121823696D01*
X174558514Y-121875000D01*
X174821486Y-121875000D01*
X175079405Y-121823696D01*
X175322359Y-121723061D01*
X175541013Y-121576962D01*
X175656706Y-121461269D01*
X176488336Y-121461269D01*
X176547797Y-121695037D01*
X176786242Y-121805934D01*
X177041740Y-121868183D01*
X177304473Y-121879390D01*
X177564344Y-121839125D01*
X177811366Y-121748935D01*
X177912203Y-121695037D01*
X177971664Y-121461269D01*
X177230000Y-120719605D01*
X176488336Y-121461269D01*
X175656706Y-121461269D01*
X175726962Y-121391013D01*
X175873061Y-121172359D01*
X175961621Y-120958556D01*
X176021065Y-121121366D01*
X176074963Y-121222203D01*
X176308731Y-121281664D01*
X177050395Y-120540000D01*
X177409605Y-120540000D01*
X178151269Y-121281664D01*
X178385037Y-121222203D01*
X178495934Y-120983758D01*
X178558183Y-120728260D01*
X178569390Y-120465527D01*
X178529125Y-120205656D01*
X178438935Y-119958634D01*
X178385037Y-119857797D01*
X178151269Y-119798336D01*
X177409605Y-120540000D01*
X177050395Y-120540000D01*
X176308731Y-119798336D01*
X176074963Y-119857797D01*
X175964066Y-120096242D01*
X175959294Y-120115827D01*
X175873061Y-119907641D01*
X175726962Y-119688987D01*
X175656706Y-119618731D01*
X176488336Y-119618731D01*
X177230000Y-120360395D01*
X177971664Y-119618731D01*
X177912203Y-119384963D01*
X177673758Y-119274066D01*
X177418260Y-119211817D01*
X177155527Y-119200610D01*
X176895656Y-119240875D01*
X176648634Y-119331065D01*
X176547797Y-119384963D01*
X176488336Y-119618731D01*
X175656706Y-119618731D01*
X175541013Y-119503038D01*
X175322359Y-119356939D01*
X175079405Y-119256304D01*
X174821486Y-119205000D01*
X174558514Y-119205000D01*
X174300595Y-119256304D01*
X174057641Y-119356939D01*
X173838987Y-119503038D01*
X173653038Y-119688987D01*
X173506939Y-119907641D01*
X173420000Y-120117530D01*
X173333061Y-119907641D01*
X173186962Y-119688987D01*
X173001013Y-119503038D01*
X172782359Y-119356939D01*
X172539405Y-119256304D01*
X172281486Y-119205000D01*
X172018514Y-119205000D01*
X171760595Y-119256304D01*
X171517641Y-119356939D01*
X171298987Y-119503038D01*
X171113038Y-119688987D01*
X170966939Y-119907641D01*
X170880000Y-120117530D01*
X170793061Y-119907641D01*
X170646962Y-119688987D01*
X170461013Y-119503038D01*
X170242359Y-119356939D01*
X169999405Y-119256304D01*
X169741486Y-119205000D01*
X169478514Y-119205000D01*
X169220595Y-119256304D01*
X168977641Y-119356939D01*
X168758987Y-119503038D01*
X168573038Y-119688987D01*
X168426939Y-119907641D01*
X168326304Y-120150595D01*
X168275000Y-120408514D01*
X139060557Y-120408514D01*
X139029125Y-120205656D01*
X138938935Y-119958634D01*
X138885037Y-119857797D01*
X138651269Y-119798336D01*
X137909605Y-120540000D01*
X137550395Y-120540000D01*
X136808731Y-119798336D01*
X136574963Y-119857797D01*
X136464066Y-120096242D01*
X136459294Y-120115827D01*
X136373061Y-119907641D01*
X136226962Y-119688987D01*
X136156706Y-119618731D01*
X136988336Y-119618731D01*
X137730000Y-120360395D01*
X138471664Y-119618731D01*
X138412203Y-119384963D01*
X138173758Y-119274066D01*
X137918260Y-119211817D01*
X137655527Y-119200610D01*
X137395656Y-119240875D01*
X137148634Y-119331065D01*
X137047797Y-119384963D01*
X136988336Y-119618731D01*
X136156706Y-119618731D01*
X136041013Y-119503038D01*
X135822359Y-119356939D01*
X135579405Y-119256304D01*
X135321486Y-119205000D01*
X135058514Y-119205000D01*
X134800595Y-119256304D01*
X134557641Y-119356939D01*
X134338987Y-119503038D01*
X134153038Y-119688987D01*
X134006939Y-119907641D01*
X133920000Y-120117530D01*
X133833061Y-119907641D01*
X133686962Y-119688987D01*
X133501013Y-119503038D01*
X133282359Y-119356939D01*
X133039405Y-119256304D01*
X132781486Y-119205000D01*
X132518514Y-119205000D01*
X132260595Y-119256304D01*
X132017641Y-119356939D01*
X131798987Y-119503038D01*
X131613038Y-119688987D01*
X131466939Y-119907641D01*
X131380000Y-120117530D01*
X131293061Y-119907641D01*
X131146962Y-119688987D01*
X130961013Y-119503038D01*
X130742359Y-119356939D01*
X130499405Y-119256304D01*
X130241486Y-119205000D01*
X129978514Y-119205000D01*
X129720595Y-119256304D01*
X129477641Y-119356939D01*
X129258987Y-119503038D01*
X129073038Y-119688987D01*
X128926939Y-119907641D01*
X128826304Y-120150595D01*
X128775000Y-120408514D01*
X125160000Y-120408514D01*
X125160000Y-117868514D01*
X130045000Y-117868514D01*
X130045000Y-118131486D01*
X130096304Y-118389405D01*
X130196939Y-118632359D01*
X130343038Y-118851013D01*
X130528987Y-119036962D01*
X130747641Y-119183061D01*
X130990595Y-119283696D01*
X131248514Y-119335000D01*
X131511486Y-119335000D01*
X131769405Y-119283696D01*
X132012359Y-119183061D01*
X132231013Y-119036962D01*
X132416962Y-118851013D01*
X132563061Y-118632359D01*
X132650000Y-118422470D01*
X132736939Y-118632359D01*
X132883038Y-118851013D01*
X133068987Y-119036962D01*
X133287641Y-119183061D01*
X133530595Y-119283696D01*
X133788514Y-119335000D01*
X134051486Y-119335000D01*
X134309405Y-119283696D01*
X134552359Y-119183061D01*
X134771013Y-119036962D01*
X134956962Y-118851013D01*
X135103061Y-118632359D01*
X135190000Y-118422470D01*
X135276939Y-118632359D01*
X135423038Y-118851013D01*
X135608987Y-119036962D01*
X135827641Y-119183061D01*
X136070595Y-119283696D01*
X136328514Y-119335000D01*
X136591486Y-119335000D01*
X136849405Y-119283696D01*
X137092359Y-119183061D01*
X137311013Y-119036962D01*
X137426706Y-118921269D01*
X138258336Y-118921269D01*
X138317797Y-119155037D01*
X138556242Y-119265934D01*
X138811740Y-119328183D01*
X139074473Y-119339390D01*
X139334344Y-119299125D01*
X139581366Y-119208935D01*
X139682203Y-119155037D01*
X139683977Y-119148061D01*
X166215000Y-119148061D01*
X166215000Y-119351939D01*
X166254774Y-119551898D01*
X166332795Y-119740256D01*
X166446063Y-119909774D01*
X166590226Y-120053937D01*
X166759744Y-120167205D01*
X166948102Y-120245226D01*
X167148061Y-120285000D01*
X167351939Y-120285000D01*
X167551898Y-120245226D01*
X167740256Y-120167205D01*
X167909774Y-120053937D01*
X168053937Y-119909774D01*
X168167205Y-119740256D01*
X168245226Y-119551898D01*
X168285000Y-119351939D01*
X168285000Y-119148061D01*
X168245226Y-118948102D01*
X168167205Y-118759744D01*
X168053937Y-118590226D01*
X167909774Y-118446063D01*
X167740256Y-118332795D01*
X167551898Y-118254774D01*
X167351939Y-118215000D01*
X167148061Y-118215000D01*
X166948102Y-118254774D01*
X166759744Y-118332795D01*
X166590226Y-118446063D01*
X166446063Y-118590226D01*
X166332795Y-118759744D01*
X166254774Y-118948102D01*
X166215000Y-119148061D01*
X139683977Y-119148061D01*
X139741664Y-118921269D01*
X139000000Y-118179605D01*
X138258336Y-118921269D01*
X137426706Y-118921269D01*
X137496962Y-118851013D01*
X137643061Y-118632359D01*
X137731621Y-118418556D01*
X137791065Y-118581366D01*
X137844963Y-118682203D01*
X138078731Y-118741664D01*
X138820395Y-118000000D01*
X139179605Y-118000000D01*
X139921269Y-118741664D01*
X140155037Y-118682203D01*
X140265934Y-118443758D01*
X140328183Y-118188260D01*
X140339390Y-117925527D01*
X140330557Y-117868514D01*
X169545000Y-117868514D01*
X169545000Y-118131486D01*
X169596304Y-118389405D01*
X169696939Y-118632359D01*
X169843038Y-118851013D01*
X170028987Y-119036962D01*
X170247641Y-119183061D01*
X170490595Y-119283696D01*
X170748514Y-119335000D01*
X171011486Y-119335000D01*
X171269405Y-119283696D01*
X171512359Y-119183061D01*
X171731013Y-119036962D01*
X171916962Y-118851013D01*
X172063061Y-118632359D01*
X172150000Y-118422470D01*
X172236939Y-118632359D01*
X172383038Y-118851013D01*
X172568987Y-119036962D01*
X172787641Y-119183061D01*
X173030595Y-119283696D01*
X173288514Y-119335000D01*
X173551486Y-119335000D01*
X173809405Y-119283696D01*
X174052359Y-119183061D01*
X174271013Y-119036962D01*
X174456962Y-118851013D01*
X174603061Y-118632359D01*
X174690000Y-118422470D01*
X174776939Y-118632359D01*
X174923038Y-118851013D01*
X175108987Y-119036962D01*
X175327641Y-119183061D01*
X175570595Y-119283696D01*
X175828514Y-119335000D01*
X176091486Y-119335000D01*
X176349405Y-119283696D01*
X176592359Y-119183061D01*
X176811013Y-119036962D01*
X176926706Y-118921269D01*
X177758336Y-118921269D01*
X177817797Y-119155037D01*
X178056242Y-119265934D01*
X178311740Y-119328183D01*
X178574473Y-119339390D01*
X178834344Y-119299125D01*
X179081366Y-119208935D01*
X179182203Y-119155037D01*
X179241664Y-118921269D01*
X178500000Y-118179605D01*
X177758336Y-118921269D01*
X176926706Y-118921269D01*
X176996962Y-118851013D01*
X177143061Y-118632359D01*
X177231621Y-118418556D01*
X177291065Y-118581366D01*
X177344963Y-118682203D01*
X177578731Y-118741664D01*
X178320395Y-118000000D01*
X178679605Y-118000000D01*
X179421269Y-118741664D01*
X179655037Y-118682203D01*
X179765934Y-118443758D01*
X179828183Y-118188260D01*
X179839390Y-117925527D01*
X179799125Y-117665656D01*
X179708935Y-117418634D01*
X179655037Y-117317797D01*
X179421269Y-117258336D01*
X178679605Y-118000000D01*
X178320395Y-118000000D01*
X177578731Y-117258336D01*
X177344963Y-117317797D01*
X177234066Y-117556242D01*
X177229294Y-117575827D01*
X177143061Y-117367641D01*
X176996962Y-117148987D01*
X176926706Y-117078731D01*
X177758336Y-117078731D01*
X178500000Y-117820395D01*
X179241664Y-117078731D01*
X179182203Y-116844963D01*
X178943758Y-116734066D01*
X178688260Y-116671817D01*
X178425527Y-116660610D01*
X178165656Y-116700875D01*
X177918634Y-116791065D01*
X177817797Y-116844963D01*
X177758336Y-117078731D01*
X176926706Y-117078731D01*
X176811013Y-116963038D01*
X176592359Y-116816939D01*
X176349405Y-116716304D01*
X176091486Y-116665000D01*
X175828514Y-116665000D01*
X175570595Y-116716304D01*
X175327641Y-116816939D01*
X175108987Y-116963038D01*
X174923038Y-117148987D01*
X174776939Y-117367641D01*
X174690000Y-117577530D01*
X174603061Y-117367641D01*
X174456962Y-117148987D01*
X174271013Y-116963038D01*
X174052359Y-116816939D01*
X173809405Y-116716304D01*
X173551486Y-116665000D01*
X173288514Y-116665000D01*
X173030595Y-116716304D01*
X172787641Y-116816939D01*
X172568987Y-116963038D01*
X172383038Y-117148987D01*
X172236939Y-117367641D01*
X172150000Y-117577530D01*
X172063061Y-117367641D01*
X171916962Y-117148987D01*
X171731013Y-116963038D01*
X171512359Y-116816939D01*
X171269405Y-116716304D01*
X171011486Y-116665000D01*
X170748514Y-116665000D01*
X170490595Y-116716304D01*
X170247641Y-116816939D01*
X170028987Y-116963038D01*
X169843038Y-117148987D01*
X169696939Y-117367641D01*
X169596304Y-117610595D01*
X169545000Y-117868514D01*
X140330557Y-117868514D01*
X140299125Y-117665656D01*
X140208935Y-117418634D01*
X140155037Y-117317797D01*
X139921269Y-117258336D01*
X139179605Y-118000000D01*
X138820395Y-118000000D01*
X138078731Y-117258336D01*
X137844963Y-117317797D01*
X137734066Y-117556242D01*
X137729294Y-117575827D01*
X137643061Y-117367641D01*
X137496962Y-117148987D01*
X137426706Y-117078731D01*
X138258336Y-117078731D01*
X139000000Y-117820395D01*
X139741664Y-117078731D01*
X139682203Y-116844963D01*
X139443758Y-116734066D01*
X139188260Y-116671817D01*
X138925527Y-116660610D01*
X138665656Y-116700875D01*
X138418634Y-116791065D01*
X138317797Y-116844963D01*
X138258336Y-117078731D01*
X137426706Y-117078731D01*
X137311013Y-116963038D01*
X137092359Y-116816939D01*
X136849405Y-116716304D01*
X136591486Y-116665000D01*
X136328514Y-116665000D01*
X136070595Y-116716304D01*
X135827641Y-116816939D01*
X135608987Y-116963038D01*
X135423038Y-117148987D01*
X135276939Y-117367641D01*
X135190000Y-117577530D01*
X135103061Y-117367641D01*
X134956962Y-117148987D01*
X134771013Y-116963038D01*
X134552359Y-116816939D01*
X134309405Y-116716304D01*
X134051486Y-116665000D01*
X133788514Y-116665000D01*
X133530595Y-116716304D01*
X133287641Y-116816939D01*
X133068987Y-116963038D01*
X132883038Y-117148987D01*
X132736939Y-117367641D01*
X132650000Y-117577530D01*
X132563061Y-117367641D01*
X132416962Y-117148987D01*
X132231013Y-116963038D01*
X132012359Y-116816939D01*
X131769405Y-116716304D01*
X131511486Y-116665000D01*
X131248514Y-116665000D01*
X130990595Y-116716304D01*
X130747641Y-116816939D01*
X130528987Y-116963038D01*
X130343038Y-117148987D01*
X130196939Y-117367641D01*
X130096304Y-117610595D01*
X130045000Y-117868514D01*
X125160000Y-117868514D01*
X125160000Y-115977980D01*
X125581626Y-115977980D01*
X125701514Y-116262836D01*
X126025210Y-116423699D01*
X126374069Y-116518322D01*
X126734684Y-116543067D01*
X127093198Y-116496985D01*
X127435833Y-116381846D01*
X127658486Y-116262836D01*
X127778374Y-115977980D01*
X141331626Y-115977980D01*
X141451514Y-116262836D01*
X141775210Y-116423699D01*
X142124069Y-116518322D01*
X142484684Y-116543067D01*
X142843198Y-116496985D01*
X143185833Y-116381846D01*
X143408486Y-116262836D01*
X143528374Y-115977980D01*
X165081626Y-115977980D01*
X165201514Y-116262836D01*
X165525210Y-116423699D01*
X165874069Y-116518322D01*
X166234684Y-116543067D01*
X166593198Y-116496985D01*
X166935833Y-116381846D01*
X167158486Y-116262836D01*
X167278374Y-115977980D01*
X180831626Y-115977980D01*
X180951514Y-116262836D01*
X181275210Y-116423699D01*
X181624069Y-116518322D01*
X181984684Y-116543067D01*
X182343198Y-116496985D01*
X182685833Y-116381846D01*
X182908486Y-116262836D01*
X183028374Y-115977980D01*
X181930000Y-114879605D01*
X180831626Y-115977980D01*
X167278374Y-115977980D01*
X166180000Y-114879605D01*
X165081626Y-115977980D01*
X143528374Y-115977980D01*
X142430000Y-114879605D01*
X141331626Y-115977980D01*
X127778374Y-115977980D01*
X126680000Y-114879605D01*
X125581626Y-115977980D01*
X125160000Y-115977980D01*
X125160000Y-115696514D01*
X125402020Y-115798374D01*
X126500395Y-114700000D01*
X125402020Y-113601626D01*
X125160000Y-113703486D01*
X125160000Y-113422020D01*
X125581626Y-113422020D01*
X126680000Y-114520395D01*
X126694142Y-114506252D01*
X126873748Y-114685858D01*
X126859605Y-114700000D01*
X127957980Y-115798374D01*
X128242836Y-115678486D01*
X128403699Y-115354790D01*
X128498322Y-115005931D01*
X128523067Y-114645316D01*
X128476985Y-114286802D01*
X128361846Y-113944167D01*
X128286614Y-113803417D01*
X128621349Y-113870000D01*
X129058651Y-113870000D01*
X129487550Y-113784687D01*
X129891564Y-113617339D01*
X130255168Y-113374387D01*
X130564387Y-113065168D01*
X130807339Y-112701564D01*
X130974687Y-112297550D01*
X131060000Y-111868651D01*
X131060000Y-111431349D01*
X138050000Y-111431349D01*
X138050000Y-111868651D01*
X138135313Y-112297550D01*
X138302661Y-112701564D01*
X138545613Y-113065168D01*
X138854832Y-113374387D01*
X139218436Y-113617339D01*
X139622450Y-113784687D01*
X140051349Y-113870000D01*
X140488651Y-113870000D01*
X140826799Y-113802738D01*
X140706301Y-114045210D01*
X140611678Y-114394069D01*
X140586933Y-114754684D01*
X140633015Y-115113198D01*
X140748154Y-115455833D01*
X140867164Y-115678486D01*
X141152020Y-115798374D01*
X142250395Y-114700000D01*
X142609605Y-114700000D01*
X143707980Y-115798374D01*
X143992836Y-115678486D01*
X144153699Y-115354790D01*
X144248322Y-115005931D01*
X144273067Y-114645316D01*
X144226985Y-114286802D01*
X144180363Y-114148061D01*
X160965000Y-114148061D01*
X160965000Y-114351939D01*
X161004774Y-114551898D01*
X161082795Y-114740256D01*
X161196063Y-114909774D01*
X161340226Y-115053937D01*
X161509744Y-115167205D01*
X161698102Y-115245226D01*
X161898061Y-115285000D01*
X162101939Y-115285000D01*
X162301898Y-115245226D01*
X162490256Y-115167205D01*
X162659774Y-115053937D01*
X162803937Y-114909774D01*
X162907564Y-114754684D01*
X164336933Y-114754684D01*
X164383015Y-115113198D01*
X164498154Y-115455833D01*
X164617164Y-115678486D01*
X164902020Y-115798374D01*
X166000395Y-114700000D01*
X164902020Y-113601626D01*
X164617164Y-113721514D01*
X164456301Y-114045210D01*
X164361678Y-114394069D01*
X164336933Y-114754684D01*
X162907564Y-114754684D01*
X162917205Y-114740256D01*
X162995226Y-114551898D01*
X163035000Y-114351939D01*
X163035000Y-114148061D01*
X162995226Y-113948102D01*
X162917205Y-113759744D01*
X162803937Y-113590226D01*
X162659774Y-113446063D01*
X162623792Y-113422020D01*
X165081626Y-113422020D01*
X166180000Y-114520395D01*
X166194142Y-114506252D01*
X166373748Y-114685858D01*
X166359605Y-114700000D01*
X167457980Y-115798374D01*
X167742836Y-115678486D01*
X167903699Y-115354790D01*
X167998322Y-115005931D01*
X168023067Y-114645316D01*
X167976985Y-114286802D01*
X167861846Y-113944167D01*
X167786614Y-113803417D01*
X168121349Y-113870000D01*
X168558651Y-113870000D01*
X168987550Y-113784687D01*
X169391564Y-113617339D01*
X169755168Y-113374387D01*
X170064387Y-113065168D01*
X170307339Y-112701564D01*
X170474687Y-112297550D01*
X170560000Y-111868651D01*
X170560000Y-111431349D01*
X177550000Y-111431349D01*
X177550000Y-111868651D01*
X177635313Y-112297550D01*
X177802661Y-112701564D01*
X178045613Y-113065168D01*
X178354832Y-113374387D01*
X178718436Y-113617339D01*
X179122450Y-113784687D01*
X179551349Y-113870000D01*
X179988651Y-113870000D01*
X180326799Y-113802738D01*
X180206301Y-114045210D01*
X180111678Y-114394069D01*
X180086933Y-114754684D01*
X180133015Y-115113198D01*
X180248154Y-115455833D01*
X180367164Y-115678486D01*
X180652020Y-115798374D01*
X181750395Y-114700000D01*
X182109605Y-114700000D01*
X183207980Y-115798374D01*
X183492836Y-115678486D01*
X183653699Y-115354790D01*
X183748322Y-115005931D01*
X183773067Y-114645316D01*
X183726985Y-114286802D01*
X183611846Y-113944167D01*
X183492836Y-113721514D01*
X183207980Y-113601626D01*
X182109605Y-114700000D01*
X181750395Y-114700000D01*
X181736252Y-114685858D01*
X181915858Y-114506252D01*
X181930000Y-114520395D01*
X183028374Y-113422020D01*
X182908486Y-113137164D01*
X182584790Y-112976301D01*
X182235931Y-112881678D01*
X181875316Y-112856933D01*
X181610808Y-112890932D01*
X181737339Y-112701564D01*
X181904687Y-112297550D01*
X181990000Y-111868651D01*
X181990000Y-111431349D01*
X181904687Y-111002450D01*
X181737339Y-110598436D01*
X181494387Y-110234832D01*
X181185168Y-109925613D01*
X180821564Y-109682661D01*
X180417550Y-109515313D01*
X179988651Y-109430000D01*
X179551349Y-109430000D01*
X179122450Y-109515313D01*
X178718436Y-109682661D01*
X178354832Y-109925613D01*
X178045613Y-110234832D01*
X177802661Y-110598436D01*
X177635313Y-111002450D01*
X177550000Y-111431349D01*
X170560000Y-111431349D01*
X170474687Y-111002450D01*
X170307339Y-110598436D01*
X170064387Y-110234832D01*
X169755168Y-109925613D01*
X169391564Y-109682661D01*
X168987550Y-109515313D01*
X168558651Y-109430000D01*
X168121349Y-109430000D01*
X167692450Y-109515313D01*
X167288436Y-109682661D01*
X166924832Y-109925613D01*
X166615613Y-110234832D01*
X166372661Y-110598436D01*
X166205313Y-111002450D01*
X166120000Y-111431349D01*
X166120000Y-111868651D01*
X166205313Y-112297550D01*
X166372661Y-112701564D01*
X166494576Y-112884023D01*
X166485931Y-112881678D01*
X166125316Y-112856933D01*
X165766802Y-112903015D01*
X165424167Y-113018154D01*
X165201514Y-113137164D01*
X165081626Y-113422020D01*
X162623792Y-113422020D01*
X162490256Y-113332795D01*
X162301898Y-113254774D01*
X162101939Y-113215000D01*
X161898061Y-113215000D01*
X161698102Y-113254774D01*
X161509744Y-113332795D01*
X161340226Y-113446063D01*
X161196063Y-113590226D01*
X161082795Y-113759744D01*
X161004774Y-113948102D01*
X160965000Y-114148061D01*
X144180363Y-114148061D01*
X144111846Y-113944167D01*
X143992836Y-113721514D01*
X143707980Y-113601626D01*
X142609605Y-114700000D01*
X142250395Y-114700000D01*
X142236252Y-114685858D01*
X142415858Y-114506252D01*
X142430000Y-114520395D01*
X143528374Y-113422020D01*
X143408486Y-113137164D01*
X143084790Y-112976301D01*
X142735931Y-112881678D01*
X142375316Y-112856933D01*
X142110808Y-112890932D01*
X142237339Y-112701564D01*
X142404687Y-112297550D01*
X142490000Y-111868651D01*
X142490000Y-111431349D01*
X142404687Y-111002450D01*
X142237339Y-110598436D01*
X141994387Y-110234832D01*
X141685168Y-109925613D01*
X141321564Y-109682661D01*
X140917550Y-109515313D01*
X140488651Y-109430000D01*
X140051349Y-109430000D01*
X139622450Y-109515313D01*
X139218436Y-109682661D01*
X138854832Y-109925613D01*
X138545613Y-110234832D01*
X138302661Y-110598436D01*
X138135313Y-111002450D01*
X138050000Y-111431349D01*
X131060000Y-111431349D01*
X130974687Y-111002450D01*
X130807339Y-110598436D01*
X130564387Y-110234832D01*
X130255168Y-109925613D01*
X129891564Y-109682661D01*
X129487550Y-109515313D01*
X129058651Y-109430000D01*
X128621349Y-109430000D01*
X128192450Y-109515313D01*
X127788436Y-109682661D01*
X127424832Y-109925613D01*
X127115613Y-110234832D01*
X126872661Y-110598436D01*
X126705313Y-111002450D01*
X126620000Y-111431349D01*
X126620000Y-111868651D01*
X126705313Y-112297550D01*
X126872661Y-112701564D01*
X126994576Y-112884023D01*
X126985931Y-112881678D01*
X126625316Y-112856933D01*
X126266802Y-112903015D01*
X125924167Y-113018154D01*
X125701514Y-113137164D01*
X125581626Y-113422020D01*
X125160000Y-113422020D01*
X125160000Y-104113384D01*
X139868221Y-104113384D01*
X140132445Y-104521162D01*
X140660451Y-104801775D01*
X141233056Y-104973986D01*
X141828256Y-105031179D01*
X142423176Y-104971155D01*
X142994956Y-104796221D01*
X143509555Y-104521162D01*
X143773779Y-104113384D01*
X141821000Y-102160605D01*
X139868221Y-104113384D01*
X125160000Y-104113384D01*
X125160000Y-101871066D01*
X129508539Y-101871066D01*
X129610339Y-102140579D01*
X129908477Y-102286463D01*
X130229346Y-102371380D01*
X130560617Y-102392066D01*
X130889557Y-102347728D01*
X131203527Y-102240069D01*
X131389661Y-102140579D01*
X131447196Y-101988256D01*
X138770821Y-101988256D01*
X138830845Y-102583176D01*
X139005779Y-103154956D01*
X139280838Y-103669555D01*
X139688616Y-103933779D01*
X141641395Y-101981000D01*
X142000605Y-101981000D01*
X143953384Y-103933779D01*
X144361162Y-103669555D01*
X144641775Y-103141549D01*
X144813986Y-102568944D01*
X144871179Y-101973744D01*
X144857463Y-101837794D01*
X147403000Y-101837794D01*
X147403000Y-102124206D01*
X147458877Y-102405116D01*
X147568482Y-102669727D01*
X147727605Y-102907871D01*
X147930129Y-103110395D01*
X148168273Y-103269518D01*
X148432884Y-103379123D01*
X148649768Y-103422264D01*
X148601877Y-103537884D01*
X148546000Y-103818794D01*
X148546000Y-104105206D01*
X148601877Y-104386116D01*
X148711482Y-104650727D01*
X148870605Y-104888871D01*
X149073129Y-105091395D01*
X149311273Y-105250518D01*
X149575884Y-105360123D01*
X149856794Y-105416000D01*
X150143206Y-105416000D01*
X150424116Y-105360123D01*
X150688727Y-105250518D01*
X150926871Y-105091395D01*
X151129395Y-104888871D01*
X151143000Y-104868510D01*
X151156605Y-104888871D01*
X151359129Y-105091395D01*
X151597273Y-105250518D01*
X151861884Y-105360123D01*
X152142794Y-105416000D01*
X152429206Y-105416000D01*
X152710116Y-105360123D01*
X152974727Y-105250518D01*
X153212871Y-105091395D01*
X153415395Y-104888871D01*
X153429000Y-104868510D01*
X153442605Y-104888871D01*
X153645129Y-105091395D01*
X153883273Y-105250518D01*
X154147884Y-105360123D01*
X154428794Y-105416000D01*
X154715206Y-105416000D01*
X154996116Y-105360123D01*
X155260727Y-105250518D01*
X155498871Y-105091395D01*
X155621998Y-104968268D01*
X156031337Y-104968268D01*
X156105221Y-105214177D01*
X156363973Y-105336977D01*
X156641711Y-105406937D01*
X156927760Y-105421369D01*
X157211128Y-105379718D01*
X157480926Y-105283585D01*
X157610779Y-105214177D01*
X157684663Y-104968268D01*
X156858000Y-104141605D01*
X156031337Y-104968268D01*
X155621998Y-104968268D01*
X155701395Y-104888871D01*
X155782292Y-104767800D01*
X155851732Y-104788663D01*
X156678395Y-103962000D01*
X156664253Y-103947858D01*
X156843858Y-103768253D01*
X156858000Y-103782395D01*
X156872143Y-103768253D01*
X157051748Y-103947858D01*
X157037605Y-103962000D01*
X157864268Y-104788663D01*
X157933708Y-104767800D01*
X158014605Y-104888871D01*
X158217129Y-105091395D01*
X158455273Y-105250518D01*
X158719884Y-105360123D01*
X159000794Y-105416000D01*
X159287206Y-105416000D01*
X159568116Y-105360123D01*
X159832727Y-105250518D01*
X160070871Y-105091395D01*
X160273395Y-104888871D01*
X160432518Y-104650727D01*
X160542123Y-104386116D01*
X160596373Y-104113384D01*
X164862221Y-104113384D01*
X165126445Y-104521162D01*
X165654451Y-104801775D01*
X166227056Y-104973986D01*
X166822256Y-105031179D01*
X167417176Y-104971155D01*
X167988956Y-104796221D01*
X168503555Y-104521162D01*
X168767779Y-104113384D01*
X166815000Y-102160605D01*
X164862221Y-104113384D01*
X160596373Y-104113384D01*
X160598000Y-104105206D01*
X160598000Y-103818794D01*
X160542123Y-103537884D01*
X160432518Y-103273273D01*
X160273395Y-103035129D01*
X160070871Y-102832605D01*
X159832727Y-102673482D01*
X159568116Y-102563877D01*
X159351232Y-102520736D01*
X159399123Y-102405116D01*
X159455000Y-102124206D01*
X159455000Y-101988256D01*
X163764821Y-101988256D01*
X163824845Y-102583176D01*
X163999779Y-103154956D01*
X164274838Y-103669555D01*
X164682616Y-103933779D01*
X166635395Y-101981000D01*
X166994605Y-101981000D01*
X168947384Y-103933779D01*
X169355162Y-103669555D01*
X169635775Y-103141549D01*
X169807986Y-102568944D01*
X169865179Y-101973744D01*
X169854820Y-101871066D01*
X177508539Y-101871066D01*
X177610339Y-102140579D01*
X177908477Y-102286463D01*
X178229346Y-102371380D01*
X178560617Y-102392066D01*
X178889557Y-102347728D01*
X179203527Y-102240069D01*
X179389661Y-102140579D01*
X179491461Y-101871066D01*
X178500000Y-100879605D01*
X177508539Y-101871066D01*
X169854820Y-101871066D01*
X169805155Y-101378824D01*
X169630221Y-100807044D01*
X169605406Y-100760617D01*
X176807934Y-100760617D01*
X176852272Y-101089557D01*
X176959931Y-101403527D01*
X177059421Y-101589661D01*
X177328934Y-101691461D01*
X178320395Y-100700000D01*
X178679605Y-100700000D01*
X179671066Y-101691461D01*
X179940579Y-101589661D01*
X180086463Y-101291523D01*
X180171380Y-100970654D01*
X180192066Y-100639383D01*
X180147728Y-100310443D01*
X180040069Y-99996473D01*
X179940579Y-99810339D01*
X179671066Y-99708539D01*
X178679605Y-100700000D01*
X178320395Y-100700000D01*
X177328934Y-99708539D01*
X177059421Y-99810339D01*
X176913537Y-100108477D01*
X176828620Y-100429346D01*
X176807934Y-100760617D01*
X169605406Y-100760617D01*
X169355162Y-100292445D01*
X168947384Y-100028221D01*
X166994605Y-101981000D01*
X166635395Y-101981000D01*
X164682616Y-100028221D01*
X164274838Y-100292445D01*
X163994225Y-100820451D01*
X163822014Y-101393056D01*
X163764821Y-101988256D01*
X159455000Y-101988256D01*
X159455000Y-101837794D01*
X159399123Y-101556884D01*
X159350411Y-101439283D01*
X159497128Y-101417718D01*
X159766926Y-101321585D01*
X159896779Y-101252177D01*
X159970663Y-101006268D01*
X159144000Y-100179605D01*
X159129858Y-100193748D01*
X158950253Y-100014143D01*
X158964395Y-100000000D01*
X159323605Y-100000000D01*
X160150268Y-100826663D01*
X160396177Y-100752779D01*
X160518977Y-100494027D01*
X160588937Y-100216289D01*
X160603369Y-99930240D01*
X160591372Y-99848616D01*
X164862221Y-99848616D01*
X166815000Y-101801395D01*
X168767779Y-99848616D01*
X168503555Y-99440838D01*
X167975549Y-99160225D01*
X167402944Y-98988014D01*
X166807744Y-98930821D01*
X166212824Y-98990845D01*
X165641044Y-99165779D01*
X165126445Y-99440838D01*
X164862221Y-99848616D01*
X160591372Y-99848616D01*
X160561718Y-99646872D01*
X160465585Y-99377074D01*
X160396177Y-99247221D01*
X160150268Y-99173337D01*
X159323605Y-100000000D01*
X158964395Y-100000000D01*
X158137732Y-99173337D01*
X158068292Y-99194200D01*
X157987395Y-99073129D01*
X157907998Y-98993732D01*
X158317337Y-98993732D01*
X159144000Y-99820395D01*
X159970663Y-98993732D01*
X159896779Y-98747823D01*
X159638027Y-98625023D01*
X159360289Y-98555063D01*
X159074240Y-98540631D01*
X158790872Y-98582282D01*
X158521074Y-98678415D01*
X158391221Y-98747823D01*
X158317337Y-98993732D01*
X157907998Y-98993732D01*
X157784871Y-98870605D01*
X157546727Y-98711482D01*
X157282116Y-98601877D01*
X157001206Y-98546000D01*
X156714794Y-98546000D01*
X156433884Y-98601877D01*
X156169273Y-98711482D01*
X155931129Y-98870605D01*
X155728605Y-99073129D01*
X155715000Y-99093490D01*
X155701395Y-99073129D01*
X155498871Y-98870605D01*
X155260727Y-98711482D01*
X154996116Y-98601877D01*
X154715206Y-98546000D01*
X154428794Y-98546000D01*
X154147884Y-98601877D01*
X153883273Y-98711482D01*
X153645129Y-98870605D01*
X153442605Y-99073129D01*
X153429000Y-99093490D01*
X153415395Y-99073129D01*
X153212871Y-98870605D01*
X152974727Y-98711482D01*
X152710116Y-98601877D01*
X152429206Y-98546000D01*
X152142794Y-98546000D01*
X151861884Y-98601877D01*
X151597273Y-98711482D01*
X151359129Y-98870605D01*
X151156605Y-99073129D01*
X151143000Y-99093490D01*
X151129395Y-99073129D01*
X150926871Y-98870605D01*
X150688727Y-98711482D01*
X150424116Y-98601877D01*
X150143206Y-98546000D01*
X149856794Y-98546000D01*
X149575884Y-98601877D01*
X149311273Y-98711482D01*
X149073129Y-98870605D01*
X148870605Y-99073129D01*
X148711482Y-99311273D01*
X148601877Y-99575884D01*
X148546000Y-99856794D01*
X148546000Y-100143206D01*
X148601877Y-100424116D01*
X148649768Y-100539736D01*
X148432884Y-100582877D01*
X148168273Y-100692482D01*
X147930129Y-100851605D01*
X147727605Y-101054129D01*
X147568482Y-101292273D01*
X147458877Y-101556884D01*
X147403000Y-101837794D01*
X144857463Y-101837794D01*
X144811155Y-101378824D01*
X144636221Y-100807044D01*
X144361162Y-100292445D01*
X143953384Y-100028221D01*
X142000605Y-101981000D01*
X141641395Y-101981000D01*
X139688616Y-100028221D01*
X139280838Y-100292445D01*
X139000225Y-100820451D01*
X138828014Y-101393056D01*
X138770821Y-101988256D01*
X131447196Y-101988256D01*
X131491461Y-101871066D01*
X130500000Y-100879605D01*
X129508539Y-101871066D01*
X125160000Y-101871066D01*
X125160000Y-100760617D01*
X128807934Y-100760617D01*
X128852272Y-101089557D01*
X128959931Y-101403527D01*
X129059421Y-101589661D01*
X129328934Y-101691461D01*
X130320395Y-100700000D01*
X130679605Y-100700000D01*
X131671066Y-101691461D01*
X131940579Y-101589661D01*
X132086463Y-101291523D01*
X132171380Y-100970654D01*
X132192066Y-100639383D01*
X132147728Y-100310443D01*
X132040069Y-99996473D01*
X131961039Y-99848616D01*
X139868221Y-99848616D01*
X141821000Y-101801395D01*
X143773779Y-99848616D01*
X143509555Y-99440838D01*
X142981549Y-99160225D01*
X142408944Y-98988014D01*
X141813744Y-98930821D01*
X141218824Y-98990845D01*
X140647044Y-99165779D01*
X140132445Y-99440838D01*
X139868221Y-99848616D01*
X131961039Y-99848616D01*
X131940579Y-99810339D01*
X131671066Y-99708539D01*
X130679605Y-100700000D01*
X130320395Y-100700000D01*
X129328934Y-99708539D01*
X129059421Y-99810339D01*
X128913537Y-100108477D01*
X128828620Y-100429346D01*
X128807934Y-100760617D01*
X125160000Y-100760617D01*
X125160000Y-86950000D01*
X128811928Y-86950000D01*
X128811928Y-89050000D01*
X128824188Y-89174482D01*
X128860498Y-89294180D01*
X128919463Y-89404494D01*
X128998815Y-89501185D01*
X129095506Y-89580537D01*
X129109546Y-89588042D01*
X129006772Y-89741853D01*
X128879754Y-90048504D01*
X128815000Y-90374042D01*
X128815000Y-90705958D01*
X128879754Y-91031496D01*
X129006772Y-91338147D01*
X129191175Y-91614125D01*
X129387050Y-91810000D01*
X129191175Y-92005875D01*
X129006772Y-92281853D01*
X128879754Y-92588504D01*
X128815000Y-92914042D01*
X128815000Y-93245958D01*
X128879754Y-93571496D01*
X129006772Y-93878147D01*
X129191175Y-94154125D01*
X129387050Y-94350000D01*
X129191175Y-94545875D01*
X129006772Y-94821853D01*
X128879754Y-95128504D01*
X128815000Y-95454042D01*
X128815000Y-95785958D01*
X128879754Y-96111496D01*
X129006772Y-96418147D01*
X129191175Y-96694125D01*
X129387050Y-96890000D01*
X129191175Y-97085875D01*
X129006772Y-97361853D01*
X128879754Y-97668504D01*
X128815000Y-97994042D01*
X128815000Y-98325958D01*
X128879754Y-98651496D01*
X129006772Y-98958147D01*
X129191175Y-99234125D01*
X129425875Y-99468825D01*
X129510009Y-99525042D01*
X129508539Y-99528934D01*
X130500000Y-100520395D01*
X131491461Y-99528934D01*
X131489991Y-99525042D01*
X131574125Y-99468825D01*
X131808825Y-99234125D01*
X131993228Y-98958147D01*
X132120246Y-98651496D01*
X132185000Y-98325958D01*
X132185000Y-97994042D01*
X132120246Y-97668504D01*
X131993228Y-97361853D01*
X131808825Y-97085875D01*
X131612950Y-96890000D01*
X131808825Y-96694125D01*
X131993228Y-96418147D01*
X132120246Y-96111496D01*
X132185000Y-95785958D01*
X132185000Y-95454042D01*
X132120246Y-95128504D01*
X131993228Y-94821853D01*
X131808825Y-94545875D01*
X131612950Y-94350000D01*
X131808825Y-94154125D01*
X131993228Y-93878147D01*
X132120246Y-93571496D01*
X132185000Y-93245958D01*
X132185000Y-92914042D01*
X132120246Y-92588504D01*
X131993228Y-92281853D01*
X131808825Y-92005875D01*
X131612950Y-91810000D01*
X131808825Y-91614125D01*
X131993228Y-91338147D01*
X132120246Y-91031496D01*
X132185000Y-90705958D01*
X132185000Y-90374042D01*
X132120246Y-90048504D01*
X131993228Y-89741853D01*
X131890454Y-89588042D01*
X131904494Y-89580537D01*
X132001185Y-89501185D01*
X132080537Y-89404494D01*
X132139502Y-89294180D01*
X132175812Y-89174482D01*
X132188072Y-89050000D01*
X132188072Y-88577980D01*
X135471626Y-88577980D01*
X135591514Y-88862836D01*
X135915210Y-89023699D01*
X136264069Y-89118322D01*
X136624684Y-89143067D01*
X136889192Y-89109068D01*
X136762661Y-89298436D01*
X136595313Y-89702450D01*
X136510000Y-90131349D01*
X136510000Y-90568651D01*
X136595313Y-90997550D01*
X136762661Y-91401564D01*
X137005613Y-91765168D01*
X137314832Y-92074387D01*
X137678436Y-92317339D01*
X138082450Y-92484687D01*
X138511349Y-92570000D01*
X138948651Y-92570000D01*
X139377550Y-92484687D01*
X139781564Y-92317339D01*
X140145168Y-92074387D01*
X140454387Y-91765168D01*
X140697339Y-91401564D01*
X140864687Y-90997550D01*
X140950000Y-90568651D01*
X140950000Y-90131349D01*
X147940000Y-90131349D01*
X147940000Y-90568651D01*
X148025313Y-90997550D01*
X148192661Y-91401564D01*
X148435613Y-91765168D01*
X148744832Y-92074387D01*
X149108436Y-92317339D01*
X149512450Y-92484687D01*
X149941349Y-92570000D01*
X150378651Y-92570000D01*
X150807550Y-92484687D01*
X151211564Y-92317339D01*
X151575168Y-92074387D01*
X151884387Y-91765168D01*
X152127339Y-91401564D01*
X152294687Y-90997550D01*
X152380000Y-90568651D01*
X152380000Y-90131349D01*
X152294687Y-89702450D01*
X152127339Y-89298436D01*
X152005424Y-89115977D01*
X152014069Y-89118322D01*
X152374684Y-89143067D01*
X152733198Y-89096985D01*
X153075833Y-88981846D01*
X153298486Y-88862836D01*
X153418374Y-88577980D01*
X155971626Y-88577980D01*
X156091514Y-88862836D01*
X156415210Y-89023699D01*
X156764069Y-89118322D01*
X157124684Y-89143067D01*
X157389192Y-89109068D01*
X157262661Y-89298436D01*
X157095313Y-89702450D01*
X157010000Y-90131349D01*
X157010000Y-90568651D01*
X157095313Y-90997550D01*
X157262661Y-91401564D01*
X157505613Y-91765168D01*
X157814832Y-92074387D01*
X158178436Y-92317339D01*
X158582450Y-92484687D01*
X159011349Y-92570000D01*
X159448651Y-92570000D01*
X159877550Y-92484687D01*
X160281564Y-92317339D01*
X160645168Y-92074387D01*
X160954387Y-91765168D01*
X161197339Y-91401564D01*
X161364687Y-90997550D01*
X161450000Y-90568651D01*
X161450000Y-90131349D01*
X168440000Y-90131349D01*
X168440000Y-90568651D01*
X168525313Y-90997550D01*
X168692661Y-91401564D01*
X168935613Y-91765168D01*
X169244832Y-92074387D01*
X169608436Y-92317339D01*
X170012450Y-92484687D01*
X170441349Y-92570000D01*
X170878651Y-92570000D01*
X171307550Y-92484687D01*
X171711564Y-92317339D01*
X172075168Y-92074387D01*
X172384387Y-91765168D01*
X172627339Y-91401564D01*
X172794687Y-90997550D01*
X172880000Y-90568651D01*
X172880000Y-90131349D01*
X172794687Y-89702450D01*
X172627339Y-89298436D01*
X172526862Y-89148061D01*
X175465000Y-89148061D01*
X175465000Y-89351939D01*
X175504774Y-89551898D01*
X175582795Y-89740256D01*
X175696063Y-89909774D01*
X175840226Y-90053937D01*
X176009744Y-90167205D01*
X176198102Y-90245226D01*
X176398061Y-90285000D01*
X176601939Y-90285000D01*
X176801898Y-90245226D01*
X176844100Y-90227745D01*
X176815000Y-90374042D01*
X176815000Y-90705958D01*
X176879754Y-91031496D01*
X177006772Y-91338147D01*
X177191175Y-91614125D01*
X177387050Y-91810000D01*
X177191175Y-92005875D01*
X177006772Y-92281853D01*
X176879754Y-92588504D01*
X176815000Y-92914042D01*
X176815000Y-93245958D01*
X176879754Y-93571496D01*
X177006772Y-93878147D01*
X177191175Y-94154125D01*
X177387050Y-94350000D01*
X177191175Y-94545875D01*
X177006772Y-94821853D01*
X176879754Y-95128504D01*
X176815000Y-95454042D01*
X176815000Y-95785958D01*
X176879754Y-96111496D01*
X177006772Y-96418147D01*
X177191175Y-96694125D01*
X177387050Y-96890000D01*
X177191175Y-97085875D01*
X177006772Y-97361853D01*
X176879754Y-97668504D01*
X176815000Y-97994042D01*
X176815000Y-98325958D01*
X176879754Y-98651496D01*
X177006772Y-98958147D01*
X177191175Y-99234125D01*
X177425875Y-99468825D01*
X177510009Y-99525042D01*
X177508539Y-99528934D01*
X178500000Y-100520395D01*
X179491461Y-99528934D01*
X179489991Y-99525042D01*
X179574125Y-99468825D01*
X179808825Y-99234125D01*
X179993228Y-98958147D01*
X180120246Y-98651496D01*
X180185000Y-98325958D01*
X180185000Y-97994042D01*
X180120246Y-97668504D01*
X179993228Y-97361853D01*
X179808825Y-97085875D01*
X179612950Y-96890000D01*
X179808825Y-96694125D01*
X179993228Y-96418147D01*
X180120246Y-96111496D01*
X180185000Y-95785958D01*
X180185000Y-95454042D01*
X180120246Y-95128504D01*
X179993228Y-94821853D01*
X179808825Y-94545875D01*
X179612950Y-94350000D01*
X179808825Y-94154125D01*
X179993228Y-93878147D01*
X180120246Y-93571496D01*
X180185000Y-93245958D01*
X180185000Y-92914042D01*
X180120246Y-92588504D01*
X179993228Y-92281853D01*
X179808825Y-92005875D01*
X179612950Y-91810000D01*
X179808825Y-91614125D01*
X179993228Y-91338147D01*
X180120246Y-91031496D01*
X180185000Y-90705958D01*
X180185000Y-90374042D01*
X180120246Y-90048504D01*
X179993228Y-89741853D01*
X179890454Y-89588042D01*
X179904494Y-89580537D01*
X180001185Y-89501185D01*
X180080537Y-89404494D01*
X180139502Y-89294180D01*
X180175812Y-89174482D01*
X180188072Y-89050000D01*
X180188072Y-86950000D01*
X180175812Y-86825518D01*
X180139502Y-86705820D01*
X180080537Y-86595506D01*
X180001185Y-86498815D01*
X179904494Y-86419463D01*
X179794180Y-86360498D01*
X179674482Y-86324188D01*
X179550000Y-86311928D01*
X177450000Y-86311928D01*
X177325518Y-86324188D01*
X177205820Y-86360498D01*
X177095506Y-86419463D01*
X176998815Y-86498815D01*
X176919463Y-86595506D01*
X176860498Y-86705820D01*
X176824188Y-86825518D01*
X176811928Y-86950000D01*
X176811928Y-88258929D01*
X176801898Y-88254774D01*
X176601939Y-88215000D01*
X176398061Y-88215000D01*
X176198102Y-88254774D01*
X176009744Y-88332795D01*
X175840226Y-88446063D01*
X175696063Y-88590226D01*
X175582795Y-88759744D01*
X175504774Y-88948102D01*
X175465000Y-89148061D01*
X172526862Y-89148061D01*
X172505424Y-89115977D01*
X172514069Y-89118322D01*
X172874684Y-89143067D01*
X173233198Y-89096985D01*
X173575833Y-88981846D01*
X173798486Y-88862836D01*
X173918374Y-88577980D01*
X172820000Y-87479605D01*
X172805858Y-87493748D01*
X172626252Y-87314142D01*
X172640395Y-87300000D01*
X172999605Y-87300000D01*
X174097980Y-88398374D01*
X174382836Y-88278486D01*
X174543699Y-87954790D01*
X174638322Y-87605931D01*
X174663067Y-87245316D01*
X174616985Y-86886802D01*
X174501846Y-86544167D01*
X174382836Y-86321514D01*
X174097980Y-86201626D01*
X172999605Y-87300000D01*
X172640395Y-87300000D01*
X171542020Y-86201626D01*
X171257164Y-86321514D01*
X171096301Y-86645210D01*
X171001678Y-86994069D01*
X170976933Y-87354684D01*
X171023015Y-87713198D01*
X171138154Y-88055833D01*
X171213386Y-88196583D01*
X170878651Y-88130000D01*
X170441349Y-88130000D01*
X170012450Y-88215313D01*
X169608436Y-88382661D01*
X169244832Y-88625613D01*
X168935613Y-88934832D01*
X168692661Y-89298436D01*
X168525313Y-89702450D01*
X168440000Y-90131349D01*
X161450000Y-90131349D01*
X161364687Y-89702450D01*
X161197339Y-89298436D01*
X160954387Y-88934832D01*
X160645168Y-88625613D01*
X160281564Y-88382661D01*
X159877550Y-88215313D01*
X159448651Y-88130000D01*
X159011349Y-88130000D01*
X158673201Y-88197262D01*
X158793699Y-87954790D01*
X158888322Y-87605931D01*
X158913067Y-87245316D01*
X158866985Y-86886802D01*
X158751846Y-86544167D01*
X158632836Y-86321514D01*
X158347980Y-86201626D01*
X157249605Y-87300000D01*
X157263748Y-87314142D01*
X157084142Y-87493748D01*
X157070000Y-87479605D01*
X155971626Y-88577980D01*
X153418374Y-88577980D01*
X152320000Y-87479605D01*
X152305858Y-87493748D01*
X152126252Y-87314142D01*
X152140395Y-87300000D01*
X152499605Y-87300000D01*
X153597980Y-88398374D01*
X153882836Y-88278486D01*
X154043699Y-87954790D01*
X154138322Y-87605931D01*
X154155562Y-87354684D01*
X155226933Y-87354684D01*
X155273015Y-87713198D01*
X155388154Y-88055833D01*
X155507164Y-88278486D01*
X155792020Y-88398374D01*
X156890395Y-87300000D01*
X155792020Y-86201626D01*
X155507164Y-86321514D01*
X155346301Y-86645210D01*
X155251678Y-86994069D01*
X155226933Y-87354684D01*
X154155562Y-87354684D01*
X154163067Y-87245316D01*
X154116985Y-86886802D01*
X154001846Y-86544167D01*
X153882836Y-86321514D01*
X153597980Y-86201626D01*
X152499605Y-87300000D01*
X152140395Y-87300000D01*
X151042020Y-86201626D01*
X150757164Y-86321514D01*
X150596301Y-86645210D01*
X150501678Y-86994069D01*
X150476933Y-87354684D01*
X150523015Y-87713198D01*
X150638154Y-88055833D01*
X150713386Y-88196583D01*
X150378651Y-88130000D01*
X149941349Y-88130000D01*
X149512450Y-88215313D01*
X149108436Y-88382661D01*
X148744832Y-88625613D01*
X148435613Y-88934832D01*
X148192661Y-89298436D01*
X148025313Y-89702450D01*
X147940000Y-90131349D01*
X140950000Y-90131349D01*
X140864687Y-89702450D01*
X140697339Y-89298436D01*
X140454387Y-88934832D01*
X140145168Y-88625613D01*
X139781564Y-88382661D01*
X139377550Y-88215313D01*
X138948651Y-88130000D01*
X138511349Y-88130000D01*
X138173201Y-88197262D01*
X138293699Y-87954790D01*
X138388322Y-87605931D01*
X138413067Y-87245316D01*
X138366985Y-86886802D01*
X138251846Y-86544167D01*
X138132836Y-86321514D01*
X137847980Y-86201626D01*
X136749605Y-87300000D01*
X136763748Y-87314142D01*
X136584142Y-87493748D01*
X136570000Y-87479605D01*
X135471626Y-88577980D01*
X132188072Y-88577980D01*
X132188072Y-87354684D01*
X134726933Y-87354684D01*
X134773015Y-87713198D01*
X134888154Y-88055833D01*
X135007164Y-88278486D01*
X135292020Y-88398374D01*
X136390395Y-87300000D01*
X135292020Y-86201626D01*
X135007164Y-86321514D01*
X134846301Y-86645210D01*
X134751678Y-86994069D01*
X134726933Y-87354684D01*
X132188072Y-87354684D01*
X132188072Y-86950000D01*
X132175812Y-86825518D01*
X132139502Y-86705820D01*
X132080537Y-86595506D01*
X132001185Y-86498815D01*
X131904494Y-86419463D01*
X131794180Y-86360498D01*
X131674482Y-86324188D01*
X131550000Y-86311928D01*
X129450000Y-86311928D01*
X129325518Y-86324188D01*
X129205820Y-86360498D01*
X129095506Y-86419463D01*
X128998815Y-86498815D01*
X128919463Y-86595506D01*
X128860498Y-86705820D01*
X128824188Y-86825518D01*
X128811928Y-86950000D01*
X125160000Y-86950000D01*
X125160000Y-86022020D01*
X135471626Y-86022020D01*
X136570000Y-87120395D01*
X137668374Y-86022020D01*
X151221626Y-86022020D01*
X152320000Y-87120395D01*
X153418374Y-86022020D01*
X155971626Y-86022020D01*
X157070000Y-87120395D01*
X158168374Y-86022020D01*
X171721626Y-86022020D01*
X172820000Y-87120395D01*
X173918374Y-86022020D01*
X173798486Y-85737164D01*
X173474790Y-85576301D01*
X173125931Y-85481678D01*
X172765316Y-85456933D01*
X172406802Y-85503015D01*
X172064167Y-85618154D01*
X171841514Y-85737164D01*
X171721626Y-86022020D01*
X158168374Y-86022020D01*
X158048486Y-85737164D01*
X157724790Y-85576301D01*
X157375931Y-85481678D01*
X157015316Y-85456933D01*
X156656802Y-85503015D01*
X156314167Y-85618154D01*
X156091514Y-85737164D01*
X155971626Y-86022020D01*
X153418374Y-86022020D01*
X153298486Y-85737164D01*
X152974790Y-85576301D01*
X152625931Y-85481678D01*
X152265316Y-85456933D01*
X151906802Y-85503015D01*
X151564167Y-85618154D01*
X151341514Y-85737164D01*
X151221626Y-86022020D01*
X137668374Y-86022020D01*
X137548486Y-85737164D01*
X137224790Y-85576301D01*
X136875931Y-85481678D01*
X136515316Y-85456933D01*
X136156802Y-85503015D01*
X135814167Y-85618154D01*
X135591514Y-85737164D01*
X135471626Y-86022020D01*
X125160000Y-86022020D01*
X125160000Y-84921269D01*
X139258336Y-84921269D01*
X139317797Y-85155037D01*
X139556242Y-85265934D01*
X139811740Y-85328183D01*
X140074473Y-85339390D01*
X140334344Y-85299125D01*
X140581366Y-85208935D01*
X140682203Y-85155037D01*
X140741664Y-84921269D01*
X140000000Y-84179605D01*
X139258336Y-84921269D01*
X125160000Y-84921269D01*
X125160000Y-84074473D01*
X138660610Y-84074473D01*
X138700875Y-84334344D01*
X138791065Y-84581366D01*
X138844963Y-84682203D01*
X139078731Y-84741664D01*
X139820395Y-84000000D01*
X140179605Y-84000000D01*
X140921269Y-84741664D01*
X141155037Y-84682203D01*
X141265934Y-84443758D01*
X141270706Y-84424173D01*
X141356939Y-84632359D01*
X141503038Y-84851013D01*
X141688987Y-85036962D01*
X141907641Y-85183061D01*
X142150595Y-85283696D01*
X142408514Y-85335000D01*
X142671486Y-85335000D01*
X142929405Y-85283696D01*
X143172359Y-85183061D01*
X143391013Y-85036962D01*
X143506706Y-84921269D01*
X144338336Y-84921269D01*
X144397797Y-85155037D01*
X144636242Y-85265934D01*
X144891740Y-85328183D01*
X145154473Y-85339390D01*
X145414344Y-85299125D01*
X145661366Y-85208935D01*
X145762203Y-85155037D01*
X145821664Y-84921269D01*
X145080000Y-84179605D01*
X144338336Y-84921269D01*
X143506706Y-84921269D01*
X143576962Y-84851013D01*
X143723061Y-84632359D01*
X143811621Y-84418556D01*
X143871065Y-84581366D01*
X143924963Y-84682203D01*
X144158731Y-84741664D01*
X144900395Y-84000000D01*
X145259605Y-84000000D01*
X146001269Y-84741664D01*
X146235037Y-84682203D01*
X146345934Y-84443758D01*
X146350706Y-84424173D01*
X146436939Y-84632359D01*
X146583038Y-84851013D01*
X146768987Y-85036962D01*
X146987641Y-85183061D01*
X147230595Y-85283696D01*
X147488514Y-85335000D01*
X147751486Y-85335000D01*
X148009405Y-85283696D01*
X148252359Y-85183061D01*
X148471013Y-85036962D01*
X148586706Y-84921269D01*
X159758336Y-84921269D01*
X159817797Y-85155037D01*
X160056242Y-85265934D01*
X160311740Y-85328183D01*
X160574473Y-85339390D01*
X160834344Y-85299125D01*
X161081366Y-85208935D01*
X161182203Y-85155037D01*
X161241664Y-84921269D01*
X160500000Y-84179605D01*
X159758336Y-84921269D01*
X148586706Y-84921269D01*
X148656962Y-84851013D01*
X148803061Y-84632359D01*
X148903696Y-84389405D01*
X148955000Y-84131486D01*
X148955000Y-84074473D01*
X159160610Y-84074473D01*
X159200875Y-84334344D01*
X159291065Y-84581366D01*
X159344963Y-84682203D01*
X159578731Y-84741664D01*
X160320395Y-84000000D01*
X160679605Y-84000000D01*
X161421269Y-84741664D01*
X161655037Y-84682203D01*
X161765934Y-84443758D01*
X161770706Y-84424173D01*
X161856939Y-84632359D01*
X162003038Y-84851013D01*
X162188987Y-85036962D01*
X162407641Y-85183061D01*
X162650595Y-85283696D01*
X162908514Y-85335000D01*
X163171486Y-85335000D01*
X163429405Y-85283696D01*
X163672359Y-85183061D01*
X163891013Y-85036962D01*
X164006706Y-84921269D01*
X164838336Y-84921269D01*
X164897797Y-85155037D01*
X165136242Y-85265934D01*
X165391740Y-85328183D01*
X165654473Y-85339390D01*
X165914344Y-85299125D01*
X166161366Y-85208935D01*
X166262203Y-85155037D01*
X166321664Y-84921269D01*
X165580000Y-84179605D01*
X164838336Y-84921269D01*
X164006706Y-84921269D01*
X164076962Y-84851013D01*
X164223061Y-84632359D01*
X164311621Y-84418556D01*
X164371065Y-84581366D01*
X164424963Y-84682203D01*
X164658731Y-84741664D01*
X165400395Y-84000000D01*
X165759605Y-84000000D01*
X166501269Y-84741664D01*
X166735037Y-84682203D01*
X166845934Y-84443758D01*
X166850706Y-84424173D01*
X166936939Y-84632359D01*
X167083038Y-84851013D01*
X167268987Y-85036962D01*
X167487641Y-85183061D01*
X167730595Y-85283696D01*
X167988514Y-85335000D01*
X168251486Y-85335000D01*
X168509405Y-85283696D01*
X168752359Y-85183061D01*
X168971013Y-85036962D01*
X169156962Y-84851013D01*
X169303061Y-84632359D01*
X169403696Y-84389405D01*
X169407343Y-84371066D01*
X177508539Y-84371066D01*
X177610339Y-84640579D01*
X177908477Y-84786463D01*
X178229346Y-84871380D01*
X178560617Y-84892066D01*
X178889557Y-84847728D01*
X179203527Y-84740069D01*
X179389661Y-84640579D01*
X179491461Y-84371066D01*
X178500000Y-83379605D01*
X177508539Y-84371066D01*
X169407343Y-84371066D01*
X169455000Y-84131486D01*
X169455000Y-83868514D01*
X169403696Y-83610595D01*
X169303061Y-83367641D01*
X169231551Y-83260617D01*
X176807934Y-83260617D01*
X176852272Y-83589557D01*
X176959931Y-83903527D01*
X177059421Y-84089661D01*
X177328934Y-84191461D01*
X178320395Y-83200000D01*
X178679605Y-83200000D01*
X179671066Y-84191461D01*
X179940579Y-84089661D01*
X180086463Y-83791523D01*
X180171380Y-83470654D01*
X180192066Y-83139383D01*
X180147728Y-82810443D01*
X180040069Y-82496473D01*
X179940579Y-82310339D01*
X179671066Y-82208539D01*
X178679605Y-83200000D01*
X178320395Y-83200000D01*
X177328934Y-82208539D01*
X177059421Y-82310339D01*
X176913537Y-82608477D01*
X176828620Y-82929346D01*
X176807934Y-83260617D01*
X169231551Y-83260617D01*
X169156962Y-83148987D01*
X168971013Y-82963038D01*
X168752359Y-82816939D01*
X168509405Y-82716304D01*
X168251486Y-82665000D01*
X167988514Y-82665000D01*
X167730595Y-82716304D01*
X167487641Y-82816939D01*
X167268987Y-82963038D01*
X167083038Y-83148987D01*
X166936939Y-83367641D01*
X166848379Y-83581444D01*
X166788935Y-83418634D01*
X166735037Y-83317797D01*
X166501269Y-83258336D01*
X165759605Y-84000000D01*
X165400395Y-84000000D01*
X164658731Y-83258336D01*
X164424963Y-83317797D01*
X164314066Y-83556242D01*
X164309294Y-83575827D01*
X164223061Y-83367641D01*
X164076962Y-83148987D01*
X164006706Y-83078731D01*
X164838336Y-83078731D01*
X165580000Y-83820395D01*
X166321664Y-83078731D01*
X166262203Y-82844963D01*
X166023758Y-82734066D01*
X165768260Y-82671817D01*
X165505527Y-82660610D01*
X165245656Y-82700875D01*
X164998634Y-82791065D01*
X164897797Y-82844963D01*
X164838336Y-83078731D01*
X164006706Y-83078731D01*
X163891013Y-82963038D01*
X163672359Y-82816939D01*
X163429405Y-82716304D01*
X163171486Y-82665000D01*
X162908514Y-82665000D01*
X162650595Y-82716304D01*
X162407641Y-82816939D01*
X162188987Y-82963038D01*
X162003038Y-83148987D01*
X161856939Y-83367641D01*
X161768379Y-83581444D01*
X161708935Y-83418634D01*
X161655037Y-83317797D01*
X161421269Y-83258336D01*
X160679605Y-84000000D01*
X160320395Y-84000000D01*
X159578731Y-83258336D01*
X159344963Y-83317797D01*
X159234066Y-83556242D01*
X159171817Y-83811740D01*
X159160610Y-84074473D01*
X148955000Y-84074473D01*
X148955000Y-83868514D01*
X148903696Y-83610595D01*
X148803061Y-83367641D01*
X148656962Y-83148987D01*
X148586706Y-83078731D01*
X159758336Y-83078731D01*
X160500000Y-83820395D01*
X161241664Y-83078731D01*
X161182203Y-82844963D01*
X160943758Y-82734066D01*
X160688260Y-82671817D01*
X160425527Y-82660610D01*
X160165656Y-82700875D01*
X159918634Y-82791065D01*
X159817797Y-82844963D01*
X159758336Y-83078731D01*
X148586706Y-83078731D01*
X148471013Y-82963038D01*
X148252359Y-82816939D01*
X148009405Y-82716304D01*
X147751486Y-82665000D01*
X147488514Y-82665000D01*
X147230595Y-82716304D01*
X146987641Y-82816939D01*
X146768987Y-82963038D01*
X146583038Y-83148987D01*
X146436939Y-83367641D01*
X146348379Y-83581444D01*
X146288935Y-83418634D01*
X146235037Y-83317797D01*
X146001269Y-83258336D01*
X145259605Y-84000000D01*
X144900395Y-84000000D01*
X144158731Y-83258336D01*
X143924963Y-83317797D01*
X143814066Y-83556242D01*
X143809294Y-83575827D01*
X143723061Y-83367641D01*
X143576962Y-83148987D01*
X143506706Y-83078731D01*
X144338336Y-83078731D01*
X145080000Y-83820395D01*
X145821664Y-83078731D01*
X145762203Y-82844963D01*
X145523758Y-82734066D01*
X145268260Y-82671817D01*
X145005527Y-82660610D01*
X144745656Y-82700875D01*
X144498634Y-82791065D01*
X144397797Y-82844963D01*
X144338336Y-83078731D01*
X143506706Y-83078731D01*
X143391013Y-82963038D01*
X143172359Y-82816939D01*
X142929405Y-82716304D01*
X142671486Y-82665000D01*
X142408514Y-82665000D01*
X142150595Y-82716304D01*
X141907641Y-82816939D01*
X141688987Y-82963038D01*
X141503038Y-83148987D01*
X141356939Y-83367641D01*
X141268379Y-83581444D01*
X141208935Y-83418634D01*
X141155037Y-83317797D01*
X140921269Y-83258336D01*
X140179605Y-84000000D01*
X139820395Y-84000000D01*
X139078731Y-83258336D01*
X138844963Y-83317797D01*
X138734066Y-83556242D01*
X138671817Y-83811740D01*
X138660610Y-84074473D01*
X125160000Y-84074473D01*
X125160000Y-83078731D01*
X139258336Y-83078731D01*
X140000000Y-83820395D01*
X140741664Y-83078731D01*
X140682203Y-82844963D01*
X140443758Y-82734066D01*
X140188260Y-82671817D01*
X139925527Y-82660610D01*
X139665656Y-82700875D01*
X139418634Y-82791065D01*
X139317797Y-82844963D01*
X139258336Y-83078731D01*
X125160000Y-83078731D01*
X125160000Y-82381269D01*
X140528336Y-82381269D01*
X140587797Y-82615037D01*
X140826242Y-82725934D01*
X141081740Y-82788183D01*
X141344473Y-82799390D01*
X141604344Y-82759125D01*
X141851366Y-82668935D01*
X141952203Y-82615037D01*
X142011664Y-82381269D01*
X141270000Y-81639605D01*
X140528336Y-82381269D01*
X125160000Y-82381269D01*
X125160000Y-81711066D01*
X129508539Y-81711066D01*
X129610339Y-81980579D01*
X129908477Y-82126463D01*
X130229346Y-82211380D01*
X130560617Y-82232066D01*
X130889557Y-82187728D01*
X131203527Y-82080069D01*
X131389661Y-81980579D01*
X131491461Y-81711066D01*
X131314868Y-81534473D01*
X139930610Y-81534473D01*
X139970875Y-81794344D01*
X140061065Y-82041366D01*
X140114963Y-82142203D01*
X140348731Y-82201664D01*
X141090395Y-81460000D01*
X141449605Y-81460000D01*
X142191269Y-82201664D01*
X142425037Y-82142203D01*
X142535934Y-81903758D01*
X142540706Y-81884173D01*
X142626939Y-82092359D01*
X142773038Y-82311013D01*
X142958987Y-82496962D01*
X143177641Y-82643061D01*
X143420595Y-82743696D01*
X143678514Y-82795000D01*
X143941486Y-82795000D01*
X144199405Y-82743696D01*
X144442359Y-82643061D01*
X144661013Y-82496962D01*
X144846962Y-82311013D01*
X144993061Y-82092359D01*
X145080000Y-81882470D01*
X145166939Y-82092359D01*
X145313038Y-82311013D01*
X145498987Y-82496962D01*
X145717641Y-82643061D01*
X145960595Y-82743696D01*
X146218514Y-82795000D01*
X146481486Y-82795000D01*
X146739405Y-82743696D01*
X146982359Y-82643061D01*
X147201013Y-82496962D01*
X147386962Y-82311013D01*
X147533061Y-82092359D01*
X147620000Y-81882470D01*
X147706939Y-82092359D01*
X147853038Y-82311013D01*
X148038987Y-82496962D01*
X148257641Y-82643061D01*
X148500595Y-82743696D01*
X148758514Y-82795000D01*
X149021486Y-82795000D01*
X149279405Y-82743696D01*
X149522359Y-82643061D01*
X149741013Y-82496962D01*
X149856706Y-82381269D01*
X161028336Y-82381269D01*
X161087797Y-82615037D01*
X161326242Y-82725934D01*
X161581740Y-82788183D01*
X161844473Y-82799390D01*
X162104344Y-82759125D01*
X162351366Y-82668935D01*
X162452203Y-82615037D01*
X162511664Y-82381269D01*
X161770000Y-81639605D01*
X161028336Y-82381269D01*
X149856706Y-82381269D01*
X149926962Y-82311013D01*
X150073061Y-82092359D01*
X150173696Y-81849405D01*
X150225000Y-81591486D01*
X150225000Y-81534473D01*
X160430610Y-81534473D01*
X160470875Y-81794344D01*
X160561065Y-82041366D01*
X160614963Y-82142203D01*
X160848731Y-82201664D01*
X161590395Y-81460000D01*
X161949605Y-81460000D01*
X162691269Y-82201664D01*
X162925037Y-82142203D01*
X163035934Y-81903758D01*
X163040706Y-81884173D01*
X163126939Y-82092359D01*
X163273038Y-82311013D01*
X163458987Y-82496962D01*
X163677641Y-82643061D01*
X163920595Y-82743696D01*
X164178514Y-82795000D01*
X164441486Y-82795000D01*
X164699405Y-82743696D01*
X164942359Y-82643061D01*
X165161013Y-82496962D01*
X165346962Y-82311013D01*
X165493061Y-82092359D01*
X165580000Y-81882470D01*
X165666939Y-82092359D01*
X165813038Y-82311013D01*
X165998987Y-82496962D01*
X166217641Y-82643061D01*
X166460595Y-82743696D01*
X166718514Y-82795000D01*
X166981486Y-82795000D01*
X167239405Y-82743696D01*
X167482359Y-82643061D01*
X167701013Y-82496962D01*
X167886962Y-82311013D01*
X168033061Y-82092359D01*
X168120000Y-81882470D01*
X168206939Y-82092359D01*
X168353038Y-82311013D01*
X168538987Y-82496962D01*
X168757641Y-82643061D01*
X169000595Y-82743696D01*
X169258514Y-82795000D01*
X169521486Y-82795000D01*
X169779405Y-82743696D01*
X170022359Y-82643061D01*
X170241013Y-82496962D01*
X170426962Y-82311013D01*
X170573061Y-82092359D01*
X170673696Y-81849405D01*
X170725000Y-81591486D01*
X170725000Y-81328514D01*
X170673696Y-81070595D01*
X170573061Y-80827641D01*
X170426962Y-80608987D01*
X170241013Y-80423038D01*
X170022359Y-80276939D01*
X169779405Y-80176304D01*
X169521486Y-80125000D01*
X169258514Y-80125000D01*
X169000595Y-80176304D01*
X168757641Y-80276939D01*
X168538987Y-80423038D01*
X168353038Y-80608987D01*
X168206939Y-80827641D01*
X168120000Y-81037530D01*
X168033061Y-80827641D01*
X167886962Y-80608987D01*
X167701013Y-80423038D01*
X167482359Y-80276939D01*
X167239405Y-80176304D01*
X166981486Y-80125000D01*
X166718514Y-80125000D01*
X166460595Y-80176304D01*
X166217641Y-80276939D01*
X165998987Y-80423038D01*
X165813038Y-80608987D01*
X165666939Y-80827641D01*
X165580000Y-81037530D01*
X165493061Y-80827641D01*
X165346962Y-80608987D01*
X165161013Y-80423038D01*
X164942359Y-80276939D01*
X164699405Y-80176304D01*
X164441486Y-80125000D01*
X164178514Y-80125000D01*
X163920595Y-80176304D01*
X163677641Y-80276939D01*
X163458987Y-80423038D01*
X163273038Y-80608987D01*
X163126939Y-80827641D01*
X163038379Y-81041444D01*
X162978935Y-80878634D01*
X162925037Y-80777797D01*
X162691269Y-80718336D01*
X161949605Y-81460000D01*
X161590395Y-81460000D01*
X160848731Y-80718336D01*
X160614963Y-80777797D01*
X160504066Y-81016242D01*
X160441817Y-81271740D01*
X160430610Y-81534473D01*
X150225000Y-81534473D01*
X150225000Y-81328514D01*
X150173696Y-81070595D01*
X150073061Y-80827641D01*
X149926962Y-80608987D01*
X149856706Y-80538731D01*
X161028336Y-80538731D01*
X161770000Y-81280395D01*
X162511664Y-80538731D01*
X162452203Y-80304963D01*
X162213758Y-80194066D01*
X161958260Y-80131817D01*
X161695527Y-80120610D01*
X161435656Y-80160875D01*
X161188634Y-80251065D01*
X161087797Y-80304963D01*
X161028336Y-80538731D01*
X149856706Y-80538731D01*
X149741013Y-80423038D01*
X149522359Y-80276939D01*
X149279405Y-80176304D01*
X149021486Y-80125000D01*
X148758514Y-80125000D01*
X148500595Y-80176304D01*
X148257641Y-80276939D01*
X148038987Y-80423038D01*
X147853038Y-80608987D01*
X147706939Y-80827641D01*
X147620000Y-81037530D01*
X147533061Y-80827641D01*
X147386962Y-80608987D01*
X147201013Y-80423038D01*
X146982359Y-80276939D01*
X146739405Y-80176304D01*
X146481486Y-80125000D01*
X146218514Y-80125000D01*
X145960595Y-80176304D01*
X145717641Y-80276939D01*
X145498987Y-80423038D01*
X145313038Y-80608987D01*
X145166939Y-80827641D01*
X145080000Y-81037530D01*
X144993061Y-80827641D01*
X144846962Y-80608987D01*
X144661013Y-80423038D01*
X144442359Y-80276939D01*
X144199405Y-80176304D01*
X143941486Y-80125000D01*
X143678514Y-80125000D01*
X143420595Y-80176304D01*
X143177641Y-80276939D01*
X142958987Y-80423038D01*
X142773038Y-80608987D01*
X142626939Y-80827641D01*
X142538379Y-81041444D01*
X142478935Y-80878634D01*
X142425037Y-80777797D01*
X142191269Y-80718336D01*
X141449605Y-81460000D01*
X141090395Y-81460000D01*
X140348731Y-80718336D01*
X140114963Y-80777797D01*
X140004066Y-81016242D01*
X139941817Y-81271740D01*
X139930610Y-81534473D01*
X131314868Y-81534473D01*
X130500000Y-80719605D01*
X129508539Y-81711066D01*
X125160000Y-81711066D01*
X125160000Y-80600617D01*
X128807934Y-80600617D01*
X128852272Y-80929557D01*
X128959931Y-81243527D01*
X129059421Y-81429661D01*
X129328934Y-81531461D01*
X130320395Y-80540000D01*
X130306253Y-80525858D01*
X130485858Y-80346253D01*
X130500000Y-80360395D01*
X130514143Y-80346253D01*
X130693748Y-80525858D01*
X130679605Y-80540000D01*
X131671066Y-81531461D01*
X131940579Y-81429661D01*
X132086463Y-81131523D01*
X132171380Y-80810654D01*
X132188360Y-80538731D01*
X140528336Y-80538731D01*
X141270000Y-81280395D01*
X142011664Y-80538731D01*
X141952203Y-80304963D01*
X141713758Y-80194066D01*
X141458260Y-80131817D01*
X141195527Y-80120610D01*
X140935656Y-80160875D01*
X140688634Y-80251065D01*
X140587797Y-80304963D01*
X140528336Y-80538731D01*
X132188360Y-80538731D01*
X132192066Y-80479383D01*
X132147728Y-80150443D01*
X132040069Y-79836473D01*
X131940579Y-79650339D01*
X131842918Y-79613451D01*
X131904494Y-79580537D01*
X132001185Y-79501185D01*
X132080537Y-79404494D01*
X132139502Y-79294180D01*
X132175812Y-79174482D01*
X132188072Y-79050000D01*
X132188072Y-77898061D01*
X142965000Y-77898061D01*
X142965000Y-78101939D01*
X143004774Y-78301898D01*
X143082795Y-78490256D01*
X143196063Y-78659774D01*
X143340226Y-78803937D01*
X143509744Y-78917205D01*
X143698102Y-78995226D01*
X143898061Y-79035000D01*
X144101939Y-79035000D01*
X144301898Y-78995226D01*
X144490256Y-78917205D01*
X144659774Y-78803937D01*
X144803937Y-78659774D01*
X144917205Y-78490256D01*
X144995226Y-78301898D01*
X145035000Y-78101939D01*
X145035000Y-77898061D01*
X144995226Y-77698102D01*
X144917205Y-77509744D01*
X144803937Y-77340226D01*
X144659774Y-77196063D01*
X144490256Y-77082795D01*
X144301898Y-77004774D01*
X144101939Y-76965000D01*
X143898061Y-76965000D01*
X143698102Y-77004774D01*
X143509744Y-77082795D01*
X143340226Y-77196063D01*
X143196063Y-77340226D01*
X143082795Y-77509744D01*
X143004774Y-77698102D01*
X142965000Y-77898061D01*
X132188072Y-77898061D01*
X132188072Y-76950000D01*
X132182957Y-76898061D01*
X172715000Y-76898061D01*
X172715000Y-77101939D01*
X172754774Y-77301898D01*
X172832795Y-77490256D01*
X172946063Y-77659774D01*
X173090226Y-77803937D01*
X173259744Y-77917205D01*
X173448102Y-77995226D01*
X173648061Y-78035000D01*
X173851939Y-78035000D01*
X174051898Y-77995226D01*
X174240256Y-77917205D01*
X174409774Y-77803937D01*
X174553937Y-77659774D01*
X174667205Y-77490256D01*
X174745226Y-77301898D01*
X174785000Y-77101939D01*
X174785000Y-76898061D01*
X174745226Y-76698102D01*
X174667205Y-76509744D01*
X174553937Y-76340226D01*
X174409774Y-76196063D01*
X174337934Y-76148061D01*
X175465000Y-76148061D01*
X175465000Y-76351939D01*
X175504774Y-76551898D01*
X175582795Y-76740256D01*
X175696063Y-76909774D01*
X175840226Y-77053937D01*
X176009744Y-77167205D01*
X176198102Y-77245226D01*
X176398061Y-77285000D01*
X176601939Y-77285000D01*
X176801898Y-77245226D01*
X176990256Y-77167205D01*
X177159774Y-77053937D01*
X177303937Y-76909774D01*
X177361169Y-76824119D01*
X177387050Y-76850000D01*
X177191175Y-77045875D01*
X177006772Y-77321853D01*
X176879754Y-77628504D01*
X176815000Y-77954042D01*
X176815000Y-78285958D01*
X176879754Y-78611496D01*
X177006772Y-78918147D01*
X177191175Y-79194125D01*
X177387050Y-79390000D01*
X177191175Y-79585875D01*
X177006772Y-79861853D01*
X176879754Y-80168504D01*
X176815000Y-80494042D01*
X176815000Y-80825958D01*
X176879754Y-81151496D01*
X177006772Y-81458147D01*
X177191175Y-81734125D01*
X177425875Y-81968825D01*
X177510009Y-82025042D01*
X177508539Y-82028934D01*
X178500000Y-83020395D01*
X179491461Y-82028934D01*
X179489991Y-82025042D01*
X179574125Y-81968825D01*
X179808825Y-81734125D01*
X179993228Y-81458147D01*
X180120246Y-81151496D01*
X180185000Y-80825958D01*
X180185000Y-80494042D01*
X180120246Y-80168504D01*
X179993228Y-79861853D01*
X179808825Y-79585875D01*
X179612950Y-79390000D01*
X179808825Y-79194125D01*
X179993228Y-78918147D01*
X180120246Y-78611496D01*
X180185000Y-78285958D01*
X180185000Y-77954042D01*
X180120246Y-77628504D01*
X179993228Y-77321853D01*
X179808825Y-77045875D01*
X179612950Y-76850000D01*
X179808825Y-76654125D01*
X179993228Y-76378147D01*
X180120246Y-76071496D01*
X180185000Y-75745958D01*
X180185000Y-75414042D01*
X180120246Y-75088504D01*
X179993228Y-74781853D01*
X179808825Y-74505875D01*
X179612950Y-74310000D01*
X179808825Y-74114125D01*
X179993228Y-73838147D01*
X180120246Y-73531496D01*
X180185000Y-73205958D01*
X180185000Y-72874042D01*
X180120246Y-72548504D01*
X179993228Y-72241853D01*
X179890454Y-72088042D01*
X179904494Y-72080537D01*
X180001185Y-72001185D01*
X180080537Y-71904494D01*
X180139502Y-71794180D01*
X180175812Y-71674482D01*
X180188072Y-71550000D01*
X180188072Y-69450000D01*
X180175812Y-69325518D01*
X180139502Y-69205820D01*
X180080537Y-69095506D01*
X180001185Y-68998815D01*
X179904494Y-68919463D01*
X179794180Y-68860498D01*
X179674482Y-68824188D01*
X179550000Y-68811928D01*
X177450000Y-68811928D01*
X177325518Y-68824188D01*
X177205820Y-68860498D01*
X177095506Y-68919463D01*
X176998815Y-68998815D01*
X176919463Y-69095506D01*
X176860498Y-69205820D01*
X176824188Y-69325518D01*
X176811928Y-69450000D01*
X176811928Y-71550000D01*
X176824188Y-71674482D01*
X176860498Y-71794180D01*
X176919463Y-71904494D01*
X176998815Y-72001185D01*
X177095506Y-72080537D01*
X177109546Y-72088042D01*
X177006772Y-72241853D01*
X176879754Y-72548504D01*
X176815000Y-72874042D01*
X176815000Y-73205958D01*
X176879754Y-73531496D01*
X177006772Y-73838147D01*
X177191175Y-74114125D01*
X177387050Y-74310000D01*
X177191175Y-74505875D01*
X177006772Y-74781853D01*
X176879754Y-75088504D01*
X176843272Y-75271912D01*
X176801898Y-75254774D01*
X176601939Y-75215000D01*
X176398061Y-75215000D01*
X176198102Y-75254774D01*
X176009744Y-75332795D01*
X175840226Y-75446063D01*
X175696063Y-75590226D01*
X175582795Y-75759744D01*
X175504774Y-75948102D01*
X175465000Y-76148061D01*
X174337934Y-76148061D01*
X174240256Y-76082795D01*
X174051898Y-76004774D01*
X173851939Y-75965000D01*
X173648061Y-75965000D01*
X173448102Y-76004774D01*
X173259744Y-76082795D01*
X173090226Y-76196063D01*
X172946063Y-76340226D01*
X172832795Y-76509744D01*
X172754774Y-76698102D01*
X172715000Y-76898061D01*
X132182957Y-76898061D01*
X132175812Y-76825518D01*
X132139502Y-76705820D01*
X132080537Y-76595506D01*
X132001185Y-76498815D01*
X131904494Y-76419463D01*
X131794180Y-76360498D01*
X131674482Y-76324188D01*
X131550000Y-76311928D01*
X129450000Y-76311928D01*
X129325518Y-76324188D01*
X129205820Y-76360498D01*
X129095506Y-76419463D01*
X128998815Y-76498815D01*
X128919463Y-76595506D01*
X128860498Y-76705820D01*
X128824188Y-76825518D01*
X128811928Y-76950000D01*
X128811928Y-79050000D01*
X128824188Y-79174482D01*
X128860498Y-79294180D01*
X128919463Y-79404494D01*
X128998815Y-79501185D01*
X129095506Y-79580537D01*
X129157082Y-79613451D01*
X129059421Y-79650339D01*
X128913537Y-79948477D01*
X128828620Y-80269346D01*
X128807934Y-80600617D01*
X125160000Y-80600617D01*
X125160000Y-73113384D01*
X139868221Y-73113384D01*
X140132445Y-73521162D01*
X140660451Y-73801775D01*
X141233056Y-73973986D01*
X141828256Y-74031179D01*
X142423176Y-73971155D01*
X142994956Y-73796221D01*
X143509555Y-73521162D01*
X143773779Y-73113384D01*
X141821000Y-71160605D01*
X139868221Y-73113384D01*
X125160000Y-73113384D01*
X125160000Y-70988256D01*
X138770821Y-70988256D01*
X138830845Y-71583176D01*
X139005779Y-72154956D01*
X139280838Y-72669555D01*
X139688616Y-72933779D01*
X141641395Y-70981000D01*
X142000605Y-70981000D01*
X143953384Y-72933779D01*
X144361162Y-72669555D01*
X144641775Y-72141549D01*
X144813986Y-71568944D01*
X144871179Y-70973744D01*
X144857463Y-70837794D01*
X147403000Y-70837794D01*
X147403000Y-71124206D01*
X147458877Y-71405116D01*
X147568482Y-71669727D01*
X147727605Y-71907871D01*
X147930129Y-72110395D01*
X148168273Y-72269518D01*
X148432884Y-72379123D01*
X148649768Y-72422264D01*
X148601877Y-72537884D01*
X148546000Y-72818794D01*
X148546000Y-73105206D01*
X148601877Y-73386116D01*
X148711482Y-73650727D01*
X148870605Y-73888871D01*
X149073129Y-74091395D01*
X149311273Y-74250518D01*
X149575884Y-74360123D01*
X149856794Y-74416000D01*
X150143206Y-74416000D01*
X150424116Y-74360123D01*
X150688727Y-74250518D01*
X150926871Y-74091395D01*
X151129395Y-73888871D01*
X151143000Y-73868510D01*
X151156605Y-73888871D01*
X151359129Y-74091395D01*
X151597273Y-74250518D01*
X151861884Y-74360123D01*
X152142794Y-74416000D01*
X152429206Y-74416000D01*
X152710116Y-74360123D01*
X152974727Y-74250518D01*
X153212871Y-74091395D01*
X153415395Y-73888871D01*
X153429000Y-73868510D01*
X153442605Y-73888871D01*
X153645129Y-74091395D01*
X153883273Y-74250518D01*
X154147884Y-74360123D01*
X154428794Y-74416000D01*
X154715206Y-74416000D01*
X154996116Y-74360123D01*
X155260727Y-74250518D01*
X155498871Y-74091395D01*
X155621998Y-73968268D01*
X156031337Y-73968268D01*
X156105221Y-74214177D01*
X156363973Y-74336977D01*
X156641711Y-74406937D01*
X156927760Y-74421369D01*
X157211128Y-74379718D01*
X157480926Y-74283585D01*
X157610779Y-74214177D01*
X157684663Y-73968268D01*
X156858000Y-73141605D01*
X156031337Y-73968268D01*
X155621998Y-73968268D01*
X155701395Y-73888871D01*
X155782292Y-73767800D01*
X155851732Y-73788663D01*
X156678395Y-72962000D01*
X156664253Y-72947858D01*
X156843858Y-72768253D01*
X156858000Y-72782395D01*
X156872143Y-72768253D01*
X157051748Y-72947858D01*
X157037605Y-72962000D01*
X157864268Y-73788663D01*
X157933708Y-73767800D01*
X158014605Y-73888871D01*
X158217129Y-74091395D01*
X158455273Y-74250518D01*
X158719884Y-74360123D01*
X159000794Y-74416000D01*
X159287206Y-74416000D01*
X159568116Y-74360123D01*
X159832727Y-74250518D01*
X160070871Y-74091395D01*
X160273395Y-73888871D01*
X160432518Y-73650727D01*
X160542123Y-73386116D01*
X160596373Y-73113384D01*
X164862221Y-73113384D01*
X165126445Y-73521162D01*
X165654451Y-73801775D01*
X166227056Y-73973986D01*
X166822256Y-74031179D01*
X167417176Y-73971155D01*
X167988956Y-73796221D01*
X168503555Y-73521162D01*
X168767779Y-73113384D01*
X166815000Y-71160605D01*
X164862221Y-73113384D01*
X160596373Y-73113384D01*
X160598000Y-73105206D01*
X160598000Y-72818794D01*
X160542123Y-72537884D01*
X160432518Y-72273273D01*
X160273395Y-72035129D01*
X160070871Y-71832605D01*
X159832727Y-71673482D01*
X159568116Y-71563877D01*
X159351232Y-71520736D01*
X159399123Y-71405116D01*
X159455000Y-71124206D01*
X159455000Y-70898061D01*
X159965000Y-70898061D01*
X159965000Y-71101939D01*
X160004774Y-71301898D01*
X160082795Y-71490256D01*
X160196063Y-71659774D01*
X160340226Y-71803937D01*
X160509744Y-71917205D01*
X160698102Y-71995226D01*
X160898061Y-72035000D01*
X161101939Y-72035000D01*
X161301898Y-71995226D01*
X161490256Y-71917205D01*
X161659774Y-71803937D01*
X161803937Y-71659774D01*
X161917205Y-71490256D01*
X161995226Y-71301898D01*
X162035000Y-71101939D01*
X162035000Y-70988256D01*
X163764821Y-70988256D01*
X163824845Y-71583176D01*
X163999779Y-72154956D01*
X164274838Y-72669555D01*
X164682616Y-72933779D01*
X166635395Y-70981000D01*
X166994605Y-70981000D01*
X168947384Y-72933779D01*
X169355162Y-72669555D01*
X169635775Y-72141549D01*
X169807986Y-71568944D01*
X169865179Y-70973744D01*
X169805155Y-70378824D01*
X169630221Y-69807044D01*
X169355162Y-69292445D01*
X168947384Y-69028221D01*
X166994605Y-70981000D01*
X166635395Y-70981000D01*
X164682616Y-69028221D01*
X164274838Y-69292445D01*
X163994225Y-69820451D01*
X163822014Y-70393056D01*
X163764821Y-70988256D01*
X162035000Y-70988256D01*
X162035000Y-70898061D01*
X161995226Y-70698102D01*
X161917205Y-70509744D01*
X161803937Y-70340226D01*
X161659774Y-70196063D01*
X161490256Y-70082795D01*
X161301898Y-70004774D01*
X161101939Y-69965000D01*
X160898061Y-69965000D01*
X160698102Y-70004774D01*
X160509744Y-70082795D01*
X160340226Y-70196063D01*
X160196063Y-70340226D01*
X160082795Y-70509744D01*
X160004774Y-70698102D01*
X159965000Y-70898061D01*
X159455000Y-70898061D01*
X159455000Y-70837794D01*
X159399123Y-70556884D01*
X159350411Y-70439283D01*
X159497128Y-70417718D01*
X159766926Y-70321585D01*
X159896779Y-70252177D01*
X159970663Y-70006268D01*
X159144000Y-69179605D01*
X159129858Y-69193748D01*
X158950253Y-69014143D01*
X158964395Y-69000000D01*
X159323605Y-69000000D01*
X160150268Y-69826663D01*
X160396177Y-69752779D01*
X160518977Y-69494027D01*
X160588937Y-69216289D01*
X160603369Y-68930240D01*
X160591372Y-68848616D01*
X164862221Y-68848616D01*
X166815000Y-70801395D01*
X168767779Y-68848616D01*
X168503555Y-68440838D01*
X167975549Y-68160225D01*
X167402944Y-67988014D01*
X166807744Y-67930821D01*
X166212824Y-67990845D01*
X165641044Y-68165779D01*
X165126445Y-68440838D01*
X164862221Y-68848616D01*
X160591372Y-68848616D01*
X160561718Y-68646872D01*
X160465585Y-68377074D01*
X160396177Y-68247221D01*
X160150268Y-68173337D01*
X159323605Y-69000000D01*
X158964395Y-69000000D01*
X158137732Y-68173337D01*
X158068292Y-68194200D01*
X157987395Y-68073129D01*
X157907998Y-67993732D01*
X158317337Y-67993732D01*
X159144000Y-68820395D01*
X159970663Y-67993732D01*
X159896779Y-67747823D01*
X159638027Y-67625023D01*
X159360289Y-67555063D01*
X159074240Y-67540631D01*
X158790872Y-67582282D01*
X158521074Y-67678415D01*
X158391221Y-67747823D01*
X158317337Y-67993732D01*
X157907998Y-67993732D01*
X157784871Y-67870605D01*
X157546727Y-67711482D01*
X157282116Y-67601877D01*
X157001206Y-67546000D01*
X156714794Y-67546000D01*
X156433884Y-67601877D01*
X156169273Y-67711482D01*
X155931129Y-67870605D01*
X155728605Y-68073129D01*
X155715000Y-68093490D01*
X155701395Y-68073129D01*
X155498871Y-67870605D01*
X155260727Y-67711482D01*
X154996116Y-67601877D01*
X154715206Y-67546000D01*
X154428794Y-67546000D01*
X154147884Y-67601877D01*
X153883273Y-67711482D01*
X153645129Y-67870605D01*
X153442605Y-68073129D01*
X153429000Y-68093490D01*
X153415395Y-68073129D01*
X153212871Y-67870605D01*
X152974727Y-67711482D01*
X152710116Y-67601877D01*
X152429206Y-67546000D01*
X152142794Y-67546000D01*
X151861884Y-67601877D01*
X151597273Y-67711482D01*
X151359129Y-67870605D01*
X151156605Y-68073129D01*
X151143000Y-68093490D01*
X151129395Y-68073129D01*
X150926871Y-67870605D01*
X150688727Y-67711482D01*
X150424116Y-67601877D01*
X150143206Y-67546000D01*
X149856794Y-67546000D01*
X149575884Y-67601877D01*
X149311273Y-67711482D01*
X149073129Y-67870605D01*
X148870605Y-68073129D01*
X148711482Y-68311273D01*
X148601877Y-68575884D01*
X148546000Y-68856794D01*
X148546000Y-69143206D01*
X148601877Y-69424116D01*
X148649768Y-69539736D01*
X148432884Y-69582877D01*
X148168273Y-69692482D01*
X147930129Y-69851605D01*
X147727605Y-70054129D01*
X147568482Y-70292273D01*
X147458877Y-70556884D01*
X147403000Y-70837794D01*
X144857463Y-70837794D01*
X144811155Y-70378824D01*
X144636221Y-69807044D01*
X144361162Y-69292445D01*
X143953384Y-69028221D01*
X142000605Y-70981000D01*
X141641395Y-70981000D01*
X139688616Y-69028221D01*
X139280838Y-69292445D01*
X139000225Y-69820451D01*
X138828014Y-70393056D01*
X138770821Y-70988256D01*
X125160000Y-70988256D01*
X125160000Y-68848616D01*
X139868221Y-68848616D01*
X141821000Y-70801395D01*
X143773779Y-68848616D01*
X143509555Y-68440838D01*
X143429066Y-68398061D01*
X144465000Y-68398061D01*
X144465000Y-68601939D01*
X144504774Y-68801898D01*
X144582795Y-68990256D01*
X144696063Y-69159774D01*
X144840226Y-69303937D01*
X145009744Y-69417205D01*
X145198102Y-69495226D01*
X145398061Y-69535000D01*
X145601939Y-69535000D01*
X145801898Y-69495226D01*
X145990256Y-69417205D01*
X146159774Y-69303937D01*
X146303937Y-69159774D01*
X146417205Y-68990256D01*
X146495226Y-68801898D01*
X146535000Y-68601939D01*
X146535000Y-68398061D01*
X146495226Y-68198102D01*
X146417205Y-68009744D01*
X146303937Y-67840226D01*
X146159774Y-67696063D01*
X145990256Y-67582795D01*
X145801898Y-67504774D01*
X145601939Y-67465000D01*
X145398061Y-67465000D01*
X145198102Y-67504774D01*
X145009744Y-67582795D01*
X144840226Y-67696063D01*
X144696063Y-67840226D01*
X144582795Y-68009744D01*
X144504774Y-68198102D01*
X144465000Y-68398061D01*
X143429066Y-68398061D01*
X142981549Y-68160225D01*
X142408944Y-67988014D01*
X141813744Y-67930821D01*
X141218824Y-67990845D01*
X140647044Y-68165779D01*
X140132445Y-68440838D01*
X139868221Y-68848616D01*
X125160000Y-68848616D01*
X125160000Y-66898061D01*
X141715000Y-66898061D01*
X141715000Y-67101939D01*
X141754774Y-67301898D01*
X141832795Y-67490256D01*
X141946063Y-67659774D01*
X142090226Y-67803937D01*
X142259744Y-67917205D01*
X142448102Y-67995226D01*
X142648061Y-68035000D01*
X142851939Y-68035000D01*
X143051898Y-67995226D01*
X143240256Y-67917205D01*
X143409774Y-67803937D01*
X143553937Y-67659774D01*
X143667205Y-67490256D01*
X143745226Y-67301898D01*
X143785000Y-67101939D01*
X143785000Y-66898061D01*
X143745226Y-66698102D01*
X143667205Y-66509744D01*
X143553937Y-66340226D01*
X143409774Y-66196063D01*
X143240256Y-66082795D01*
X143051898Y-66004774D01*
X142851939Y-65965000D01*
X142648061Y-65965000D01*
X142448102Y-66004774D01*
X142259744Y-66082795D01*
X142090226Y-66196063D01*
X141946063Y-66340226D01*
X141832795Y-66509744D01*
X141754774Y-66698102D01*
X141715000Y-66898061D01*
X125160000Y-66898061D01*
X125160000Y-65532279D01*
X125198147Y-65143225D01*
X125301763Y-64800033D01*
X125470062Y-64483511D01*
X125696637Y-64205701D01*
X125972856Y-63977194D01*
X126288197Y-63806690D01*
X126630656Y-63700681D01*
X127017712Y-63660000D01*
X181967721Y-63660000D01*
X182356775Y-63698147D01*
%TA.AperFunction,Conductor*%
D18*
G36*
X182356775Y-63698147D02*
G01*
X182699967Y-63801763D01*
X183016489Y-63970062D01*
X183294299Y-64196637D01*
X183522806Y-64472856D01*
X183693310Y-64788197D01*
X183799319Y-65130656D01*
X183840000Y-65517712D01*
X183840001Y-120467711D01*
X183801853Y-120856776D01*
X183698238Y-121199964D01*
X183529939Y-121516489D01*
X183303365Y-121794296D01*
X183027146Y-122022805D01*
X182711803Y-122193310D01*
X182369344Y-122299319D01*
X181982288Y-122340000D01*
X127032279Y-122340000D01*
X126643224Y-122301853D01*
X126300036Y-122198238D01*
X125983511Y-122029939D01*
X125705704Y-121803365D01*
X125477195Y-121527146D01*
X125306690Y-121211803D01*
X125200681Y-120869344D01*
X125160000Y-120482288D01*
X125160000Y-120408514D01*
X128775000Y-120408514D01*
X128775000Y-120671486D01*
X128826304Y-120929405D01*
X128926939Y-121172359D01*
X129073038Y-121391013D01*
X129258987Y-121576962D01*
X129477641Y-121723061D01*
X129720595Y-121823696D01*
X129978514Y-121875000D01*
X130241486Y-121875000D01*
X130499405Y-121823696D01*
X130742359Y-121723061D01*
X130961013Y-121576962D01*
X131146962Y-121391013D01*
X131293061Y-121172359D01*
X131380000Y-120962470D01*
X131466939Y-121172359D01*
X131613038Y-121391013D01*
X131798987Y-121576962D01*
X132017641Y-121723061D01*
X132260595Y-121823696D01*
X132518514Y-121875000D01*
X132781486Y-121875000D01*
X133039405Y-121823696D01*
X133282359Y-121723061D01*
X133501013Y-121576962D01*
X133686962Y-121391013D01*
X133833061Y-121172359D01*
X133920000Y-120962470D01*
X134006939Y-121172359D01*
X134153038Y-121391013D01*
X134338987Y-121576962D01*
X134557641Y-121723061D01*
X134800595Y-121823696D01*
X135058514Y-121875000D01*
X135321486Y-121875000D01*
X135579405Y-121823696D01*
X135822359Y-121723061D01*
X136041013Y-121576962D01*
X136156706Y-121461269D01*
X136988336Y-121461269D01*
X137047797Y-121695037D01*
X137286242Y-121805934D01*
X137541740Y-121868183D01*
X137804473Y-121879390D01*
X138064344Y-121839125D01*
X138311366Y-121748935D01*
X138412203Y-121695037D01*
X138471664Y-121461269D01*
X137730000Y-120719605D01*
X136988336Y-121461269D01*
X136156706Y-121461269D01*
X136226962Y-121391013D01*
X136373061Y-121172359D01*
X136461621Y-120958556D01*
X136521065Y-121121366D01*
X136574963Y-121222203D01*
X136808731Y-121281664D01*
X137550395Y-120540000D01*
X137909605Y-120540000D01*
X138651269Y-121281664D01*
X138885037Y-121222203D01*
X138995934Y-120983758D01*
X139058183Y-120728260D01*
X139069390Y-120465527D01*
X139060557Y-120408514D01*
X168275000Y-120408514D01*
X168275000Y-120671486D01*
X168326304Y-120929405D01*
X168426939Y-121172359D01*
X168573038Y-121391013D01*
X168758987Y-121576962D01*
X168977641Y-121723061D01*
X169220595Y-121823696D01*
X169478514Y-121875000D01*
X169741486Y-121875000D01*
X169999405Y-121823696D01*
X170242359Y-121723061D01*
X170461013Y-121576962D01*
X170646962Y-121391013D01*
X170793061Y-121172359D01*
X170880000Y-120962470D01*
X170966939Y-121172359D01*
X171113038Y-121391013D01*
X171298987Y-121576962D01*
X171517641Y-121723061D01*
X171760595Y-121823696D01*
X172018514Y-121875000D01*
X172281486Y-121875000D01*
X172539405Y-121823696D01*
X172782359Y-121723061D01*
X173001013Y-121576962D01*
X173186962Y-121391013D01*
X173333061Y-121172359D01*
X173420000Y-120962470D01*
X173506939Y-121172359D01*
X173653038Y-121391013D01*
X173838987Y-121576962D01*
X174057641Y-121723061D01*
X174300595Y-121823696D01*
X174558514Y-121875000D01*
X174821486Y-121875000D01*
X175079405Y-121823696D01*
X175322359Y-121723061D01*
X175541013Y-121576962D01*
X175656706Y-121461269D01*
X176488336Y-121461269D01*
X176547797Y-121695037D01*
X176786242Y-121805934D01*
X177041740Y-121868183D01*
X177304473Y-121879390D01*
X177564344Y-121839125D01*
X177811366Y-121748935D01*
X177912203Y-121695037D01*
X177971664Y-121461269D01*
X177230000Y-120719605D01*
X176488336Y-121461269D01*
X175656706Y-121461269D01*
X175726962Y-121391013D01*
X175873061Y-121172359D01*
X175961621Y-120958556D01*
X176021065Y-121121366D01*
X176074963Y-121222203D01*
X176308731Y-121281664D01*
X177050395Y-120540000D01*
X177409605Y-120540000D01*
X178151269Y-121281664D01*
X178385037Y-121222203D01*
X178495934Y-120983758D01*
X178558183Y-120728260D01*
X178569390Y-120465527D01*
X178529125Y-120205656D01*
X178438935Y-119958634D01*
X178385037Y-119857797D01*
X178151269Y-119798336D01*
X177409605Y-120540000D01*
X177050395Y-120540000D01*
X176308731Y-119798336D01*
X176074963Y-119857797D01*
X175964066Y-120096242D01*
X175959294Y-120115827D01*
X175873061Y-119907641D01*
X175726962Y-119688987D01*
X175656706Y-119618731D01*
X176488336Y-119618731D01*
X177230000Y-120360395D01*
X177971664Y-119618731D01*
X177912203Y-119384963D01*
X177673758Y-119274066D01*
X177418260Y-119211817D01*
X177155527Y-119200610D01*
X176895656Y-119240875D01*
X176648634Y-119331065D01*
X176547797Y-119384963D01*
X176488336Y-119618731D01*
X175656706Y-119618731D01*
X175541013Y-119503038D01*
X175322359Y-119356939D01*
X175079405Y-119256304D01*
X174821486Y-119205000D01*
X174558514Y-119205000D01*
X174300595Y-119256304D01*
X174057641Y-119356939D01*
X173838987Y-119503038D01*
X173653038Y-119688987D01*
X173506939Y-119907641D01*
X173420000Y-120117530D01*
X173333061Y-119907641D01*
X173186962Y-119688987D01*
X173001013Y-119503038D01*
X172782359Y-119356939D01*
X172539405Y-119256304D01*
X172281486Y-119205000D01*
X172018514Y-119205000D01*
X171760595Y-119256304D01*
X171517641Y-119356939D01*
X171298987Y-119503038D01*
X171113038Y-119688987D01*
X170966939Y-119907641D01*
X170880000Y-120117530D01*
X170793061Y-119907641D01*
X170646962Y-119688987D01*
X170461013Y-119503038D01*
X170242359Y-119356939D01*
X169999405Y-119256304D01*
X169741486Y-119205000D01*
X169478514Y-119205000D01*
X169220595Y-119256304D01*
X168977641Y-119356939D01*
X168758987Y-119503038D01*
X168573038Y-119688987D01*
X168426939Y-119907641D01*
X168326304Y-120150595D01*
X168275000Y-120408514D01*
X139060557Y-120408514D01*
X139029125Y-120205656D01*
X138938935Y-119958634D01*
X138885037Y-119857797D01*
X138651269Y-119798336D01*
X137909605Y-120540000D01*
X137550395Y-120540000D01*
X136808731Y-119798336D01*
X136574963Y-119857797D01*
X136464066Y-120096242D01*
X136459294Y-120115827D01*
X136373061Y-119907641D01*
X136226962Y-119688987D01*
X136156706Y-119618731D01*
X136988336Y-119618731D01*
X137730000Y-120360395D01*
X138471664Y-119618731D01*
X138412203Y-119384963D01*
X138173758Y-119274066D01*
X137918260Y-119211817D01*
X137655527Y-119200610D01*
X137395656Y-119240875D01*
X137148634Y-119331065D01*
X137047797Y-119384963D01*
X136988336Y-119618731D01*
X136156706Y-119618731D01*
X136041013Y-119503038D01*
X135822359Y-119356939D01*
X135579405Y-119256304D01*
X135321486Y-119205000D01*
X135058514Y-119205000D01*
X134800595Y-119256304D01*
X134557641Y-119356939D01*
X134338987Y-119503038D01*
X134153038Y-119688987D01*
X134006939Y-119907641D01*
X133920000Y-120117530D01*
X133833061Y-119907641D01*
X133686962Y-119688987D01*
X133501013Y-119503038D01*
X133282359Y-119356939D01*
X133039405Y-119256304D01*
X132781486Y-119205000D01*
X132518514Y-119205000D01*
X132260595Y-119256304D01*
X132017641Y-119356939D01*
X131798987Y-119503038D01*
X131613038Y-119688987D01*
X131466939Y-119907641D01*
X131380000Y-120117530D01*
X131293061Y-119907641D01*
X131146962Y-119688987D01*
X130961013Y-119503038D01*
X130742359Y-119356939D01*
X130499405Y-119256304D01*
X130241486Y-119205000D01*
X129978514Y-119205000D01*
X129720595Y-119256304D01*
X129477641Y-119356939D01*
X129258987Y-119503038D01*
X129073038Y-119688987D01*
X128926939Y-119907641D01*
X128826304Y-120150595D01*
X128775000Y-120408514D01*
X125160000Y-120408514D01*
X125160000Y-117868514D01*
X130045000Y-117868514D01*
X130045000Y-118131486D01*
X130096304Y-118389405D01*
X130196939Y-118632359D01*
X130343038Y-118851013D01*
X130528987Y-119036962D01*
X130747641Y-119183061D01*
X130990595Y-119283696D01*
X131248514Y-119335000D01*
X131511486Y-119335000D01*
X131769405Y-119283696D01*
X132012359Y-119183061D01*
X132231013Y-119036962D01*
X132416962Y-118851013D01*
X132563061Y-118632359D01*
X132650000Y-118422470D01*
X132736939Y-118632359D01*
X132883038Y-118851013D01*
X133068987Y-119036962D01*
X133287641Y-119183061D01*
X133530595Y-119283696D01*
X133788514Y-119335000D01*
X134051486Y-119335000D01*
X134309405Y-119283696D01*
X134552359Y-119183061D01*
X134771013Y-119036962D01*
X134956962Y-118851013D01*
X135103061Y-118632359D01*
X135190000Y-118422470D01*
X135276939Y-118632359D01*
X135423038Y-118851013D01*
X135608987Y-119036962D01*
X135827641Y-119183061D01*
X136070595Y-119283696D01*
X136328514Y-119335000D01*
X136591486Y-119335000D01*
X136849405Y-119283696D01*
X137092359Y-119183061D01*
X137311013Y-119036962D01*
X137426706Y-118921269D01*
X138258336Y-118921269D01*
X138317797Y-119155037D01*
X138556242Y-119265934D01*
X138811740Y-119328183D01*
X139074473Y-119339390D01*
X139334344Y-119299125D01*
X139581366Y-119208935D01*
X139682203Y-119155037D01*
X139683977Y-119148061D01*
X166215000Y-119148061D01*
X166215000Y-119351939D01*
X166254774Y-119551898D01*
X166332795Y-119740256D01*
X166446063Y-119909774D01*
X166590226Y-120053937D01*
X166759744Y-120167205D01*
X166948102Y-120245226D01*
X167148061Y-120285000D01*
X167351939Y-120285000D01*
X167551898Y-120245226D01*
X167740256Y-120167205D01*
X167909774Y-120053937D01*
X168053937Y-119909774D01*
X168167205Y-119740256D01*
X168245226Y-119551898D01*
X168285000Y-119351939D01*
X168285000Y-119148061D01*
X168245226Y-118948102D01*
X168167205Y-118759744D01*
X168053937Y-118590226D01*
X167909774Y-118446063D01*
X167740256Y-118332795D01*
X167551898Y-118254774D01*
X167351939Y-118215000D01*
X167148061Y-118215000D01*
X166948102Y-118254774D01*
X166759744Y-118332795D01*
X166590226Y-118446063D01*
X166446063Y-118590226D01*
X166332795Y-118759744D01*
X166254774Y-118948102D01*
X166215000Y-119148061D01*
X139683977Y-119148061D01*
X139741664Y-118921269D01*
X139000000Y-118179605D01*
X138258336Y-118921269D01*
X137426706Y-118921269D01*
X137496962Y-118851013D01*
X137643061Y-118632359D01*
X137731621Y-118418556D01*
X137791065Y-118581366D01*
X137844963Y-118682203D01*
X138078731Y-118741664D01*
X138820395Y-118000000D01*
X139179605Y-118000000D01*
X139921269Y-118741664D01*
X140155037Y-118682203D01*
X140265934Y-118443758D01*
X140328183Y-118188260D01*
X140339390Y-117925527D01*
X140330557Y-117868514D01*
X169545000Y-117868514D01*
X169545000Y-118131486D01*
X169596304Y-118389405D01*
X169696939Y-118632359D01*
X169843038Y-118851013D01*
X170028987Y-119036962D01*
X170247641Y-119183061D01*
X170490595Y-119283696D01*
X170748514Y-119335000D01*
X171011486Y-119335000D01*
X171269405Y-119283696D01*
X171512359Y-119183061D01*
X171731013Y-119036962D01*
X171916962Y-118851013D01*
X172063061Y-118632359D01*
X172150000Y-118422470D01*
X172236939Y-118632359D01*
X172383038Y-118851013D01*
X172568987Y-119036962D01*
X172787641Y-119183061D01*
X173030595Y-119283696D01*
X173288514Y-119335000D01*
X173551486Y-119335000D01*
X173809405Y-119283696D01*
X174052359Y-119183061D01*
X174271013Y-119036962D01*
X174456962Y-118851013D01*
X174603061Y-118632359D01*
X174690000Y-118422470D01*
X174776939Y-118632359D01*
X174923038Y-118851013D01*
X175108987Y-119036962D01*
X175327641Y-119183061D01*
X175570595Y-119283696D01*
X175828514Y-119335000D01*
X176091486Y-119335000D01*
X176349405Y-119283696D01*
X176592359Y-119183061D01*
X176811013Y-119036962D01*
X176926706Y-118921269D01*
X177758336Y-118921269D01*
X177817797Y-119155037D01*
X178056242Y-119265934D01*
X178311740Y-119328183D01*
X178574473Y-119339390D01*
X178834344Y-119299125D01*
X179081366Y-119208935D01*
X179182203Y-119155037D01*
X179241664Y-118921269D01*
X178500000Y-118179605D01*
X177758336Y-118921269D01*
X176926706Y-118921269D01*
X176996962Y-118851013D01*
X177143061Y-118632359D01*
X177231621Y-118418556D01*
X177291065Y-118581366D01*
X177344963Y-118682203D01*
X177578731Y-118741664D01*
X178320395Y-118000000D01*
X178679605Y-118000000D01*
X179421269Y-118741664D01*
X179655037Y-118682203D01*
X179765934Y-118443758D01*
X179828183Y-118188260D01*
X179839390Y-117925527D01*
X179799125Y-117665656D01*
X179708935Y-117418634D01*
X179655037Y-117317797D01*
X179421269Y-117258336D01*
X178679605Y-118000000D01*
X178320395Y-118000000D01*
X177578731Y-117258336D01*
X177344963Y-117317797D01*
X177234066Y-117556242D01*
X177229294Y-117575827D01*
X177143061Y-117367641D01*
X176996962Y-117148987D01*
X176926706Y-117078731D01*
X177758336Y-117078731D01*
X178500000Y-117820395D01*
X179241664Y-117078731D01*
X179182203Y-116844963D01*
X178943758Y-116734066D01*
X178688260Y-116671817D01*
X178425527Y-116660610D01*
X178165656Y-116700875D01*
X177918634Y-116791065D01*
X177817797Y-116844963D01*
X177758336Y-117078731D01*
X176926706Y-117078731D01*
X176811013Y-116963038D01*
X176592359Y-116816939D01*
X176349405Y-116716304D01*
X176091486Y-116665000D01*
X175828514Y-116665000D01*
X175570595Y-116716304D01*
X175327641Y-116816939D01*
X175108987Y-116963038D01*
X174923038Y-117148987D01*
X174776939Y-117367641D01*
X174690000Y-117577530D01*
X174603061Y-117367641D01*
X174456962Y-117148987D01*
X174271013Y-116963038D01*
X174052359Y-116816939D01*
X173809405Y-116716304D01*
X173551486Y-116665000D01*
X173288514Y-116665000D01*
X173030595Y-116716304D01*
X172787641Y-116816939D01*
X172568987Y-116963038D01*
X172383038Y-117148987D01*
X172236939Y-117367641D01*
X172150000Y-117577530D01*
X172063061Y-117367641D01*
X171916962Y-117148987D01*
X171731013Y-116963038D01*
X171512359Y-116816939D01*
X171269405Y-116716304D01*
X171011486Y-116665000D01*
X170748514Y-116665000D01*
X170490595Y-116716304D01*
X170247641Y-116816939D01*
X170028987Y-116963038D01*
X169843038Y-117148987D01*
X169696939Y-117367641D01*
X169596304Y-117610595D01*
X169545000Y-117868514D01*
X140330557Y-117868514D01*
X140299125Y-117665656D01*
X140208935Y-117418634D01*
X140155037Y-117317797D01*
X139921269Y-117258336D01*
X139179605Y-118000000D01*
X138820395Y-118000000D01*
X138078731Y-117258336D01*
X137844963Y-117317797D01*
X137734066Y-117556242D01*
X137729294Y-117575827D01*
X137643061Y-117367641D01*
X137496962Y-117148987D01*
X137426706Y-117078731D01*
X138258336Y-117078731D01*
X139000000Y-117820395D01*
X139741664Y-117078731D01*
X139682203Y-116844963D01*
X139443758Y-116734066D01*
X139188260Y-116671817D01*
X138925527Y-116660610D01*
X138665656Y-116700875D01*
X138418634Y-116791065D01*
X138317797Y-116844963D01*
X138258336Y-117078731D01*
X137426706Y-117078731D01*
X137311013Y-116963038D01*
X137092359Y-116816939D01*
X136849405Y-116716304D01*
X136591486Y-116665000D01*
X136328514Y-116665000D01*
X136070595Y-116716304D01*
X135827641Y-116816939D01*
X135608987Y-116963038D01*
X135423038Y-117148987D01*
X135276939Y-117367641D01*
X135190000Y-117577530D01*
X135103061Y-117367641D01*
X134956962Y-117148987D01*
X134771013Y-116963038D01*
X134552359Y-116816939D01*
X134309405Y-116716304D01*
X134051486Y-116665000D01*
X133788514Y-116665000D01*
X133530595Y-116716304D01*
X133287641Y-116816939D01*
X133068987Y-116963038D01*
X132883038Y-117148987D01*
X132736939Y-117367641D01*
X132650000Y-117577530D01*
X132563061Y-117367641D01*
X132416962Y-117148987D01*
X132231013Y-116963038D01*
X132012359Y-116816939D01*
X131769405Y-116716304D01*
X131511486Y-116665000D01*
X131248514Y-116665000D01*
X130990595Y-116716304D01*
X130747641Y-116816939D01*
X130528987Y-116963038D01*
X130343038Y-117148987D01*
X130196939Y-117367641D01*
X130096304Y-117610595D01*
X130045000Y-117868514D01*
X125160000Y-117868514D01*
X125160000Y-115977980D01*
X125581626Y-115977980D01*
X125701514Y-116262836D01*
X126025210Y-116423699D01*
X126374069Y-116518322D01*
X126734684Y-116543067D01*
X127093198Y-116496985D01*
X127435833Y-116381846D01*
X127658486Y-116262836D01*
X127778374Y-115977980D01*
X141331626Y-115977980D01*
X141451514Y-116262836D01*
X141775210Y-116423699D01*
X142124069Y-116518322D01*
X142484684Y-116543067D01*
X142843198Y-116496985D01*
X143185833Y-116381846D01*
X143408486Y-116262836D01*
X143528374Y-115977980D01*
X165081626Y-115977980D01*
X165201514Y-116262836D01*
X165525210Y-116423699D01*
X165874069Y-116518322D01*
X166234684Y-116543067D01*
X166593198Y-116496985D01*
X166935833Y-116381846D01*
X167158486Y-116262836D01*
X167278374Y-115977980D01*
X180831626Y-115977980D01*
X180951514Y-116262836D01*
X181275210Y-116423699D01*
X181624069Y-116518322D01*
X181984684Y-116543067D01*
X182343198Y-116496985D01*
X182685833Y-116381846D01*
X182908486Y-116262836D01*
X183028374Y-115977980D01*
X181930000Y-114879605D01*
X180831626Y-115977980D01*
X167278374Y-115977980D01*
X166180000Y-114879605D01*
X165081626Y-115977980D01*
X143528374Y-115977980D01*
X142430000Y-114879605D01*
X141331626Y-115977980D01*
X127778374Y-115977980D01*
X126680000Y-114879605D01*
X125581626Y-115977980D01*
X125160000Y-115977980D01*
X125160000Y-115696514D01*
X125402020Y-115798374D01*
X126500395Y-114700000D01*
X125402020Y-113601626D01*
X125160000Y-113703486D01*
X125160000Y-113422020D01*
X125581626Y-113422020D01*
X126680000Y-114520395D01*
X126694142Y-114506252D01*
X126873748Y-114685858D01*
X126859605Y-114700000D01*
X127957980Y-115798374D01*
X128242836Y-115678486D01*
X128403699Y-115354790D01*
X128498322Y-115005931D01*
X128523067Y-114645316D01*
X128476985Y-114286802D01*
X128361846Y-113944167D01*
X128286614Y-113803417D01*
X128621349Y-113870000D01*
X129058651Y-113870000D01*
X129487550Y-113784687D01*
X129891564Y-113617339D01*
X130255168Y-113374387D01*
X130564387Y-113065168D01*
X130807339Y-112701564D01*
X130974687Y-112297550D01*
X131060000Y-111868651D01*
X131060000Y-111431349D01*
X138050000Y-111431349D01*
X138050000Y-111868651D01*
X138135313Y-112297550D01*
X138302661Y-112701564D01*
X138545613Y-113065168D01*
X138854832Y-113374387D01*
X139218436Y-113617339D01*
X139622450Y-113784687D01*
X140051349Y-113870000D01*
X140488651Y-113870000D01*
X140826799Y-113802738D01*
X140706301Y-114045210D01*
X140611678Y-114394069D01*
X140586933Y-114754684D01*
X140633015Y-115113198D01*
X140748154Y-115455833D01*
X140867164Y-115678486D01*
X141152020Y-115798374D01*
X142250395Y-114700000D01*
X142609605Y-114700000D01*
X143707980Y-115798374D01*
X143992836Y-115678486D01*
X144153699Y-115354790D01*
X144248322Y-115005931D01*
X144273067Y-114645316D01*
X144226985Y-114286802D01*
X144180363Y-114148061D01*
X160965000Y-114148061D01*
X160965000Y-114351939D01*
X161004774Y-114551898D01*
X161082795Y-114740256D01*
X161196063Y-114909774D01*
X161340226Y-115053937D01*
X161509744Y-115167205D01*
X161698102Y-115245226D01*
X161898061Y-115285000D01*
X162101939Y-115285000D01*
X162301898Y-115245226D01*
X162490256Y-115167205D01*
X162659774Y-115053937D01*
X162803937Y-114909774D01*
X162907564Y-114754684D01*
X164336933Y-114754684D01*
X164383015Y-115113198D01*
X164498154Y-115455833D01*
X164617164Y-115678486D01*
X164902020Y-115798374D01*
X166000395Y-114700000D01*
X164902020Y-113601626D01*
X164617164Y-113721514D01*
X164456301Y-114045210D01*
X164361678Y-114394069D01*
X164336933Y-114754684D01*
X162907564Y-114754684D01*
X162917205Y-114740256D01*
X162995226Y-114551898D01*
X163035000Y-114351939D01*
X163035000Y-114148061D01*
X162995226Y-113948102D01*
X162917205Y-113759744D01*
X162803937Y-113590226D01*
X162659774Y-113446063D01*
X162623792Y-113422020D01*
X165081626Y-113422020D01*
X166180000Y-114520395D01*
X166194142Y-114506252D01*
X166373748Y-114685858D01*
X166359605Y-114700000D01*
X167457980Y-115798374D01*
X167742836Y-115678486D01*
X167903699Y-115354790D01*
X167998322Y-115005931D01*
X168023067Y-114645316D01*
X167976985Y-114286802D01*
X167861846Y-113944167D01*
X167786614Y-113803417D01*
X168121349Y-113870000D01*
X168558651Y-113870000D01*
X168987550Y-113784687D01*
X169391564Y-113617339D01*
X169755168Y-113374387D01*
X170064387Y-113065168D01*
X170307339Y-112701564D01*
X170474687Y-112297550D01*
X170560000Y-111868651D01*
X170560000Y-111431349D01*
X177550000Y-111431349D01*
X177550000Y-111868651D01*
X177635313Y-112297550D01*
X177802661Y-112701564D01*
X178045613Y-113065168D01*
X178354832Y-113374387D01*
X178718436Y-113617339D01*
X179122450Y-113784687D01*
X179551349Y-113870000D01*
X179988651Y-113870000D01*
X180326799Y-113802738D01*
X180206301Y-114045210D01*
X180111678Y-114394069D01*
X180086933Y-114754684D01*
X180133015Y-115113198D01*
X180248154Y-115455833D01*
X180367164Y-115678486D01*
X180652020Y-115798374D01*
X181750395Y-114700000D01*
X182109605Y-114700000D01*
X183207980Y-115798374D01*
X183492836Y-115678486D01*
X183653699Y-115354790D01*
X183748322Y-115005931D01*
X183773067Y-114645316D01*
X183726985Y-114286802D01*
X183611846Y-113944167D01*
X183492836Y-113721514D01*
X183207980Y-113601626D01*
X182109605Y-114700000D01*
X181750395Y-114700000D01*
X181736252Y-114685858D01*
X181915858Y-114506252D01*
X181930000Y-114520395D01*
X183028374Y-113422020D01*
X182908486Y-113137164D01*
X182584790Y-112976301D01*
X182235931Y-112881678D01*
X181875316Y-112856933D01*
X181610808Y-112890932D01*
X181737339Y-112701564D01*
X181904687Y-112297550D01*
X181990000Y-111868651D01*
X181990000Y-111431349D01*
X181904687Y-111002450D01*
X181737339Y-110598436D01*
X181494387Y-110234832D01*
X181185168Y-109925613D01*
X180821564Y-109682661D01*
X180417550Y-109515313D01*
X179988651Y-109430000D01*
X179551349Y-109430000D01*
X179122450Y-109515313D01*
X178718436Y-109682661D01*
X178354832Y-109925613D01*
X178045613Y-110234832D01*
X177802661Y-110598436D01*
X177635313Y-111002450D01*
X177550000Y-111431349D01*
X170560000Y-111431349D01*
X170474687Y-111002450D01*
X170307339Y-110598436D01*
X170064387Y-110234832D01*
X169755168Y-109925613D01*
X169391564Y-109682661D01*
X168987550Y-109515313D01*
X168558651Y-109430000D01*
X168121349Y-109430000D01*
X167692450Y-109515313D01*
X167288436Y-109682661D01*
X166924832Y-109925613D01*
X166615613Y-110234832D01*
X166372661Y-110598436D01*
X166205313Y-111002450D01*
X166120000Y-111431349D01*
X166120000Y-111868651D01*
X166205313Y-112297550D01*
X166372661Y-112701564D01*
X166494576Y-112884023D01*
X166485931Y-112881678D01*
X166125316Y-112856933D01*
X165766802Y-112903015D01*
X165424167Y-113018154D01*
X165201514Y-113137164D01*
X165081626Y-113422020D01*
X162623792Y-113422020D01*
X162490256Y-113332795D01*
X162301898Y-113254774D01*
X162101939Y-113215000D01*
X161898061Y-113215000D01*
X161698102Y-113254774D01*
X161509744Y-113332795D01*
X161340226Y-113446063D01*
X161196063Y-113590226D01*
X161082795Y-113759744D01*
X161004774Y-113948102D01*
X160965000Y-114148061D01*
X144180363Y-114148061D01*
X144111846Y-113944167D01*
X143992836Y-113721514D01*
X143707980Y-113601626D01*
X142609605Y-114700000D01*
X142250395Y-114700000D01*
X142236252Y-114685858D01*
X142415858Y-114506252D01*
X142430000Y-114520395D01*
X143528374Y-113422020D01*
X143408486Y-113137164D01*
X143084790Y-112976301D01*
X142735931Y-112881678D01*
X142375316Y-112856933D01*
X142110808Y-112890932D01*
X142237339Y-112701564D01*
X142404687Y-112297550D01*
X142490000Y-111868651D01*
X142490000Y-111431349D01*
X142404687Y-111002450D01*
X142237339Y-110598436D01*
X141994387Y-110234832D01*
X141685168Y-109925613D01*
X141321564Y-109682661D01*
X140917550Y-109515313D01*
X140488651Y-109430000D01*
X140051349Y-109430000D01*
X139622450Y-109515313D01*
X139218436Y-109682661D01*
X138854832Y-109925613D01*
X138545613Y-110234832D01*
X138302661Y-110598436D01*
X138135313Y-111002450D01*
X138050000Y-111431349D01*
X131060000Y-111431349D01*
X130974687Y-111002450D01*
X130807339Y-110598436D01*
X130564387Y-110234832D01*
X130255168Y-109925613D01*
X129891564Y-109682661D01*
X129487550Y-109515313D01*
X129058651Y-109430000D01*
X128621349Y-109430000D01*
X128192450Y-109515313D01*
X127788436Y-109682661D01*
X127424832Y-109925613D01*
X127115613Y-110234832D01*
X126872661Y-110598436D01*
X126705313Y-111002450D01*
X126620000Y-111431349D01*
X126620000Y-111868651D01*
X126705313Y-112297550D01*
X126872661Y-112701564D01*
X126994576Y-112884023D01*
X126985931Y-112881678D01*
X126625316Y-112856933D01*
X126266802Y-112903015D01*
X125924167Y-113018154D01*
X125701514Y-113137164D01*
X125581626Y-113422020D01*
X125160000Y-113422020D01*
X125160000Y-104113384D01*
X139868221Y-104113384D01*
X140132445Y-104521162D01*
X140660451Y-104801775D01*
X141233056Y-104973986D01*
X141828256Y-105031179D01*
X142423176Y-104971155D01*
X142994956Y-104796221D01*
X143509555Y-104521162D01*
X143773779Y-104113384D01*
X141821000Y-102160605D01*
X139868221Y-104113384D01*
X125160000Y-104113384D01*
X125160000Y-101871066D01*
X129508539Y-101871066D01*
X129610339Y-102140579D01*
X129908477Y-102286463D01*
X130229346Y-102371380D01*
X130560617Y-102392066D01*
X130889557Y-102347728D01*
X131203527Y-102240069D01*
X131389661Y-102140579D01*
X131447196Y-101988256D01*
X138770821Y-101988256D01*
X138830845Y-102583176D01*
X139005779Y-103154956D01*
X139280838Y-103669555D01*
X139688616Y-103933779D01*
X141641395Y-101981000D01*
X142000605Y-101981000D01*
X143953384Y-103933779D01*
X144361162Y-103669555D01*
X144641775Y-103141549D01*
X144813986Y-102568944D01*
X144871179Y-101973744D01*
X144857463Y-101837794D01*
X147403000Y-101837794D01*
X147403000Y-102124206D01*
X147458877Y-102405116D01*
X147568482Y-102669727D01*
X147727605Y-102907871D01*
X147930129Y-103110395D01*
X148168273Y-103269518D01*
X148432884Y-103379123D01*
X148649768Y-103422264D01*
X148601877Y-103537884D01*
X148546000Y-103818794D01*
X148546000Y-104105206D01*
X148601877Y-104386116D01*
X148711482Y-104650727D01*
X148870605Y-104888871D01*
X149073129Y-105091395D01*
X149311273Y-105250518D01*
X149575884Y-105360123D01*
X149856794Y-105416000D01*
X150143206Y-105416000D01*
X150424116Y-105360123D01*
X150688727Y-105250518D01*
X150926871Y-105091395D01*
X151129395Y-104888871D01*
X151143000Y-104868510D01*
X151156605Y-104888871D01*
X151359129Y-105091395D01*
X151597273Y-105250518D01*
X151861884Y-105360123D01*
X152142794Y-105416000D01*
X152429206Y-105416000D01*
X152710116Y-105360123D01*
X152974727Y-105250518D01*
X153212871Y-105091395D01*
X153415395Y-104888871D01*
X153429000Y-104868510D01*
X153442605Y-104888871D01*
X153645129Y-105091395D01*
X153883273Y-105250518D01*
X154147884Y-105360123D01*
X154428794Y-105416000D01*
X154715206Y-105416000D01*
X154996116Y-105360123D01*
X155260727Y-105250518D01*
X155498871Y-105091395D01*
X155621998Y-104968268D01*
X156031337Y-104968268D01*
X156105221Y-105214177D01*
X156363973Y-105336977D01*
X156641711Y-105406937D01*
X156927760Y-105421369D01*
X157211128Y-105379718D01*
X157480926Y-105283585D01*
X157610779Y-105214177D01*
X157684663Y-104968268D01*
X156858000Y-104141605D01*
X156031337Y-104968268D01*
X155621998Y-104968268D01*
X155701395Y-104888871D01*
X155782292Y-104767800D01*
X155851732Y-104788663D01*
X156678395Y-103962000D01*
X156664253Y-103947858D01*
X156843858Y-103768253D01*
X156858000Y-103782395D01*
X156872143Y-103768253D01*
X157051748Y-103947858D01*
X157037605Y-103962000D01*
X157864268Y-104788663D01*
X157933708Y-104767800D01*
X158014605Y-104888871D01*
X158217129Y-105091395D01*
X158455273Y-105250518D01*
X158719884Y-105360123D01*
X159000794Y-105416000D01*
X159287206Y-105416000D01*
X159568116Y-105360123D01*
X159832727Y-105250518D01*
X160070871Y-105091395D01*
X160273395Y-104888871D01*
X160432518Y-104650727D01*
X160542123Y-104386116D01*
X160596373Y-104113384D01*
X164862221Y-104113384D01*
X165126445Y-104521162D01*
X165654451Y-104801775D01*
X166227056Y-104973986D01*
X166822256Y-105031179D01*
X167417176Y-104971155D01*
X167988956Y-104796221D01*
X168503555Y-104521162D01*
X168767779Y-104113384D01*
X166815000Y-102160605D01*
X164862221Y-104113384D01*
X160596373Y-104113384D01*
X160598000Y-104105206D01*
X160598000Y-103818794D01*
X160542123Y-103537884D01*
X160432518Y-103273273D01*
X160273395Y-103035129D01*
X160070871Y-102832605D01*
X159832727Y-102673482D01*
X159568116Y-102563877D01*
X159351232Y-102520736D01*
X159399123Y-102405116D01*
X159455000Y-102124206D01*
X159455000Y-101988256D01*
X163764821Y-101988256D01*
X163824845Y-102583176D01*
X163999779Y-103154956D01*
X164274838Y-103669555D01*
X164682616Y-103933779D01*
X166635395Y-101981000D01*
X166994605Y-101981000D01*
X168947384Y-103933779D01*
X169355162Y-103669555D01*
X169635775Y-103141549D01*
X169807986Y-102568944D01*
X169865179Y-101973744D01*
X169854820Y-101871066D01*
X177508539Y-101871066D01*
X177610339Y-102140579D01*
X177908477Y-102286463D01*
X178229346Y-102371380D01*
X178560617Y-102392066D01*
X178889557Y-102347728D01*
X179203527Y-102240069D01*
X179389661Y-102140579D01*
X179491461Y-101871066D01*
X178500000Y-100879605D01*
X177508539Y-101871066D01*
X169854820Y-101871066D01*
X169805155Y-101378824D01*
X169630221Y-100807044D01*
X169605406Y-100760617D01*
X176807934Y-100760617D01*
X176852272Y-101089557D01*
X176959931Y-101403527D01*
X177059421Y-101589661D01*
X177328934Y-101691461D01*
X178320395Y-100700000D01*
X178679605Y-100700000D01*
X179671066Y-101691461D01*
X179940579Y-101589661D01*
X180086463Y-101291523D01*
X180171380Y-100970654D01*
X180192066Y-100639383D01*
X180147728Y-100310443D01*
X180040069Y-99996473D01*
X179940579Y-99810339D01*
X179671066Y-99708539D01*
X178679605Y-100700000D01*
X178320395Y-100700000D01*
X177328934Y-99708539D01*
X177059421Y-99810339D01*
X176913537Y-100108477D01*
X176828620Y-100429346D01*
X176807934Y-100760617D01*
X169605406Y-100760617D01*
X169355162Y-100292445D01*
X168947384Y-100028221D01*
X166994605Y-101981000D01*
X166635395Y-101981000D01*
X164682616Y-100028221D01*
X164274838Y-100292445D01*
X163994225Y-100820451D01*
X163822014Y-101393056D01*
X163764821Y-101988256D01*
X159455000Y-101988256D01*
X159455000Y-101837794D01*
X159399123Y-101556884D01*
X159350411Y-101439283D01*
X159497128Y-101417718D01*
X159766926Y-101321585D01*
X159896779Y-101252177D01*
X159970663Y-101006268D01*
X159144000Y-100179605D01*
X159129858Y-100193748D01*
X158950253Y-100014143D01*
X158964395Y-100000000D01*
X159323605Y-100000000D01*
X160150268Y-100826663D01*
X160396177Y-100752779D01*
X160518977Y-100494027D01*
X160588937Y-100216289D01*
X160603369Y-99930240D01*
X160591372Y-99848616D01*
X164862221Y-99848616D01*
X166815000Y-101801395D01*
X168767779Y-99848616D01*
X168503555Y-99440838D01*
X167975549Y-99160225D01*
X167402944Y-98988014D01*
X166807744Y-98930821D01*
X166212824Y-98990845D01*
X165641044Y-99165779D01*
X165126445Y-99440838D01*
X164862221Y-99848616D01*
X160591372Y-99848616D01*
X160561718Y-99646872D01*
X160465585Y-99377074D01*
X160396177Y-99247221D01*
X160150268Y-99173337D01*
X159323605Y-100000000D01*
X158964395Y-100000000D01*
X158137732Y-99173337D01*
X158068292Y-99194200D01*
X157987395Y-99073129D01*
X157907998Y-98993732D01*
X158317337Y-98993732D01*
X159144000Y-99820395D01*
X159970663Y-98993732D01*
X159896779Y-98747823D01*
X159638027Y-98625023D01*
X159360289Y-98555063D01*
X159074240Y-98540631D01*
X158790872Y-98582282D01*
X158521074Y-98678415D01*
X158391221Y-98747823D01*
X158317337Y-98993732D01*
X157907998Y-98993732D01*
X157784871Y-98870605D01*
X157546727Y-98711482D01*
X157282116Y-98601877D01*
X157001206Y-98546000D01*
X156714794Y-98546000D01*
X156433884Y-98601877D01*
X156169273Y-98711482D01*
X155931129Y-98870605D01*
X155728605Y-99073129D01*
X155715000Y-99093490D01*
X155701395Y-99073129D01*
X155498871Y-98870605D01*
X155260727Y-98711482D01*
X154996116Y-98601877D01*
X154715206Y-98546000D01*
X154428794Y-98546000D01*
X154147884Y-98601877D01*
X153883273Y-98711482D01*
X153645129Y-98870605D01*
X153442605Y-99073129D01*
X153429000Y-99093490D01*
X153415395Y-99073129D01*
X153212871Y-98870605D01*
X152974727Y-98711482D01*
X152710116Y-98601877D01*
X152429206Y-98546000D01*
X152142794Y-98546000D01*
X151861884Y-98601877D01*
X151597273Y-98711482D01*
X151359129Y-98870605D01*
X151156605Y-99073129D01*
X151143000Y-99093490D01*
X151129395Y-99073129D01*
X150926871Y-98870605D01*
X150688727Y-98711482D01*
X150424116Y-98601877D01*
X150143206Y-98546000D01*
X149856794Y-98546000D01*
X149575884Y-98601877D01*
X149311273Y-98711482D01*
X149073129Y-98870605D01*
X148870605Y-99073129D01*
X148711482Y-99311273D01*
X148601877Y-99575884D01*
X148546000Y-99856794D01*
X148546000Y-100143206D01*
X148601877Y-100424116D01*
X148649768Y-100539736D01*
X148432884Y-100582877D01*
X148168273Y-100692482D01*
X147930129Y-100851605D01*
X147727605Y-101054129D01*
X147568482Y-101292273D01*
X147458877Y-101556884D01*
X147403000Y-101837794D01*
X144857463Y-101837794D01*
X144811155Y-101378824D01*
X144636221Y-100807044D01*
X144361162Y-100292445D01*
X143953384Y-100028221D01*
X142000605Y-101981000D01*
X141641395Y-101981000D01*
X139688616Y-100028221D01*
X139280838Y-100292445D01*
X139000225Y-100820451D01*
X138828014Y-101393056D01*
X138770821Y-101988256D01*
X131447196Y-101988256D01*
X131491461Y-101871066D01*
X130500000Y-100879605D01*
X129508539Y-101871066D01*
X125160000Y-101871066D01*
X125160000Y-100760617D01*
X128807934Y-100760617D01*
X128852272Y-101089557D01*
X128959931Y-101403527D01*
X129059421Y-101589661D01*
X129328934Y-101691461D01*
X130320395Y-100700000D01*
X130679605Y-100700000D01*
X131671066Y-101691461D01*
X131940579Y-101589661D01*
X132086463Y-101291523D01*
X132171380Y-100970654D01*
X132192066Y-100639383D01*
X132147728Y-100310443D01*
X132040069Y-99996473D01*
X131961039Y-99848616D01*
X139868221Y-99848616D01*
X141821000Y-101801395D01*
X143773779Y-99848616D01*
X143509555Y-99440838D01*
X142981549Y-99160225D01*
X142408944Y-98988014D01*
X141813744Y-98930821D01*
X141218824Y-98990845D01*
X140647044Y-99165779D01*
X140132445Y-99440838D01*
X139868221Y-99848616D01*
X131961039Y-99848616D01*
X131940579Y-99810339D01*
X131671066Y-99708539D01*
X130679605Y-100700000D01*
X130320395Y-100700000D01*
X129328934Y-99708539D01*
X129059421Y-99810339D01*
X128913537Y-100108477D01*
X128828620Y-100429346D01*
X128807934Y-100760617D01*
X125160000Y-100760617D01*
X125160000Y-86950000D01*
X128811928Y-86950000D01*
X128811928Y-89050000D01*
X128824188Y-89174482D01*
X128860498Y-89294180D01*
X128919463Y-89404494D01*
X128998815Y-89501185D01*
X129095506Y-89580537D01*
X129109546Y-89588042D01*
X129006772Y-89741853D01*
X128879754Y-90048504D01*
X128815000Y-90374042D01*
X128815000Y-90705958D01*
X128879754Y-91031496D01*
X129006772Y-91338147D01*
X129191175Y-91614125D01*
X129387050Y-91810000D01*
X129191175Y-92005875D01*
X129006772Y-92281853D01*
X128879754Y-92588504D01*
X128815000Y-92914042D01*
X128815000Y-93245958D01*
X128879754Y-93571496D01*
X129006772Y-93878147D01*
X129191175Y-94154125D01*
X129387050Y-94350000D01*
X129191175Y-94545875D01*
X129006772Y-94821853D01*
X128879754Y-95128504D01*
X128815000Y-95454042D01*
X128815000Y-95785958D01*
X128879754Y-96111496D01*
X129006772Y-96418147D01*
X129191175Y-96694125D01*
X129387050Y-96890000D01*
X129191175Y-97085875D01*
X129006772Y-97361853D01*
X128879754Y-97668504D01*
X128815000Y-97994042D01*
X128815000Y-98325958D01*
X128879754Y-98651496D01*
X129006772Y-98958147D01*
X129191175Y-99234125D01*
X129425875Y-99468825D01*
X129510009Y-99525042D01*
X129508539Y-99528934D01*
X130500000Y-100520395D01*
X131491461Y-99528934D01*
X131489991Y-99525042D01*
X131574125Y-99468825D01*
X131808825Y-99234125D01*
X131993228Y-98958147D01*
X132120246Y-98651496D01*
X132185000Y-98325958D01*
X132185000Y-97994042D01*
X132120246Y-97668504D01*
X131993228Y-97361853D01*
X131808825Y-97085875D01*
X131612950Y-96890000D01*
X131808825Y-96694125D01*
X131993228Y-96418147D01*
X132120246Y-96111496D01*
X132185000Y-95785958D01*
X132185000Y-95454042D01*
X132120246Y-95128504D01*
X131993228Y-94821853D01*
X131808825Y-94545875D01*
X131612950Y-94350000D01*
X131808825Y-94154125D01*
X131993228Y-93878147D01*
X132120246Y-93571496D01*
X132185000Y-93245958D01*
X132185000Y-92914042D01*
X132120246Y-92588504D01*
X131993228Y-92281853D01*
X131808825Y-92005875D01*
X131612950Y-91810000D01*
X131808825Y-91614125D01*
X131993228Y-91338147D01*
X132120246Y-91031496D01*
X132185000Y-90705958D01*
X132185000Y-90374042D01*
X132120246Y-90048504D01*
X131993228Y-89741853D01*
X131890454Y-89588042D01*
X131904494Y-89580537D01*
X132001185Y-89501185D01*
X132080537Y-89404494D01*
X132139502Y-89294180D01*
X132175812Y-89174482D01*
X132188072Y-89050000D01*
X132188072Y-88577980D01*
X135471626Y-88577980D01*
X135591514Y-88862836D01*
X135915210Y-89023699D01*
X136264069Y-89118322D01*
X136624684Y-89143067D01*
X136889192Y-89109068D01*
X136762661Y-89298436D01*
X136595313Y-89702450D01*
X136510000Y-90131349D01*
X136510000Y-90568651D01*
X136595313Y-90997550D01*
X136762661Y-91401564D01*
X137005613Y-91765168D01*
X137314832Y-92074387D01*
X137678436Y-92317339D01*
X138082450Y-92484687D01*
X138511349Y-92570000D01*
X138948651Y-92570000D01*
X139377550Y-92484687D01*
X139781564Y-92317339D01*
X140145168Y-92074387D01*
X140454387Y-91765168D01*
X140697339Y-91401564D01*
X140864687Y-90997550D01*
X140950000Y-90568651D01*
X140950000Y-90131349D01*
X147940000Y-90131349D01*
X147940000Y-90568651D01*
X148025313Y-90997550D01*
X148192661Y-91401564D01*
X148435613Y-91765168D01*
X148744832Y-92074387D01*
X149108436Y-92317339D01*
X149512450Y-92484687D01*
X149941349Y-92570000D01*
X150378651Y-92570000D01*
X150807550Y-92484687D01*
X151211564Y-92317339D01*
X151575168Y-92074387D01*
X151884387Y-91765168D01*
X152127339Y-91401564D01*
X152294687Y-90997550D01*
X152380000Y-90568651D01*
X152380000Y-90131349D01*
X152294687Y-89702450D01*
X152127339Y-89298436D01*
X152005424Y-89115977D01*
X152014069Y-89118322D01*
X152374684Y-89143067D01*
X152733198Y-89096985D01*
X153075833Y-88981846D01*
X153298486Y-88862836D01*
X153418374Y-88577980D01*
X155971626Y-88577980D01*
X156091514Y-88862836D01*
X156415210Y-89023699D01*
X156764069Y-89118322D01*
X157124684Y-89143067D01*
X157389192Y-89109068D01*
X157262661Y-89298436D01*
X157095313Y-89702450D01*
X157010000Y-90131349D01*
X157010000Y-90568651D01*
X157095313Y-90997550D01*
X157262661Y-91401564D01*
X157505613Y-91765168D01*
X157814832Y-92074387D01*
X158178436Y-92317339D01*
X158582450Y-92484687D01*
X159011349Y-92570000D01*
X159448651Y-92570000D01*
X159877550Y-92484687D01*
X160281564Y-92317339D01*
X160645168Y-92074387D01*
X160954387Y-91765168D01*
X161197339Y-91401564D01*
X161364687Y-90997550D01*
X161450000Y-90568651D01*
X161450000Y-90131349D01*
X168440000Y-90131349D01*
X168440000Y-90568651D01*
X168525313Y-90997550D01*
X168692661Y-91401564D01*
X168935613Y-91765168D01*
X169244832Y-92074387D01*
X169608436Y-92317339D01*
X170012450Y-92484687D01*
X170441349Y-92570000D01*
X170878651Y-92570000D01*
X171307550Y-92484687D01*
X171711564Y-92317339D01*
X172075168Y-92074387D01*
X172384387Y-91765168D01*
X172627339Y-91401564D01*
X172794687Y-90997550D01*
X172880000Y-90568651D01*
X172880000Y-90131349D01*
X172794687Y-89702450D01*
X172627339Y-89298436D01*
X172526862Y-89148061D01*
X175465000Y-89148061D01*
X175465000Y-89351939D01*
X175504774Y-89551898D01*
X175582795Y-89740256D01*
X175696063Y-89909774D01*
X175840226Y-90053937D01*
X176009744Y-90167205D01*
X176198102Y-90245226D01*
X176398061Y-90285000D01*
X176601939Y-90285000D01*
X176801898Y-90245226D01*
X176844100Y-90227745D01*
X176815000Y-90374042D01*
X176815000Y-90705958D01*
X176879754Y-91031496D01*
X177006772Y-91338147D01*
X177191175Y-91614125D01*
X177387050Y-91810000D01*
X177191175Y-92005875D01*
X177006772Y-92281853D01*
X176879754Y-92588504D01*
X176815000Y-92914042D01*
X176815000Y-93245958D01*
X176879754Y-93571496D01*
X177006772Y-93878147D01*
X177191175Y-94154125D01*
X177387050Y-94350000D01*
X177191175Y-94545875D01*
X177006772Y-94821853D01*
X176879754Y-95128504D01*
X176815000Y-95454042D01*
X176815000Y-95785958D01*
X176879754Y-96111496D01*
X177006772Y-96418147D01*
X177191175Y-96694125D01*
X177387050Y-96890000D01*
X177191175Y-97085875D01*
X177006772Y-97361853D01*
X176879754Y-97668504D01*
X176815000Y-97994042D01*
X176815000Y-98325958D01*
X176879754Y-98651496D01*
X177006772Y-98958147D01*
X177191175Y-99234125D01*
X177425875Y-99468825D01*
X177510009Y-99525042D01*
X177508539Y-99528934D01*
X178500000Y-100520395D01*
X179491461Y-99528934D01*
X179489991Y-99525042D01*
X179574125Y-99468825D01*
X179808825Y-99234125D01*
X179993228Y-98958147D01*
X180120246Y-98651496D01*
X180185000Y-98325958D01*
X180185000Y-97994042D01*
X180120246Y-97668504D01*
X179993228Y-97361853D01*
X179808825Y-97085875D01*
X179612950Y-96890000D01*
X179808825Y-96694125D01*
X179993228Y-96418147D01*
X180120246Y-96111496D01*
X180185000Y-95785958D01*
X180185000Y-95454042D01*
X180120246Y-95128504D01*
X179993228Y-94821853D01*
X179808825Y-94545875D01*
X179612950Y-94350000D01*
X179808825Y-94154125D01*
X179993228Y-93878147D01*
X180120246Y-93571496D01*
X180185000Y-93245958D01*
X180185000Y-92914042D01*
X180120246Y-92588504D01*
X179993228Y-92281853D01*
X179808825Y-92005875D01*
X179612950Y-91810000D01*
X179808825Y-91614125D01*
X179993228Y-91338147D01*
X180120246Y-91031496D01*
X180185000Y-90705958D01*
X180185000Y-90374042D01*
X180120246Y-90048504D01*
X179993228Y-89741853D01*
X179890454Y-89588042D01*
X179904494Y-89580537D01*
X180001185Y-89501185D01*
X180080537Y-89404494D01*
X180139502Y-89294180D01*
X180175812Y-89174482D01*
X180188072Y-89050000D01*
X180188072Y-86950000D01*
X180175812Y-86825518D01*
X180139502Y-86705820D01*
X180080537Y-86595506D01*
X180001185Y-86498815D01*
X179904494Y-86419463D01*
X179794180Y-86360498D01*
X179674482Y-86324188D01*
X179550000Y-86311928D01*
X177450000Y-86311928D01*
X177325518Y-86324188D01*
X177205820Y-86360498D01*
X177095506Y-86419463D01*
X176998815Y-86498815D01*
X176919463Y-86595506D01*
X176860498Y-86705820D01*
X176824188Y-86825518D01*
X176811928Y-86950000D01*
X176811928Y-88258929D01*
X176801898Y-88254774D01*
X176601939Y-88215000D01*
X176398061Y-88215000D01*
X176198102Y-88254774D01*
X176009744Y-88332795D01*
X175840226Y-88446063D01*
X175696063Y-88590226D01*
X175582795Y-88759744D01*
X175504774Y-88948102D01*
X175465000Y-89148061D01*
X172526862Y-89148061D01*
X172505424Y-89115977D01*
X172514069Y-89118322D01*
X172874684Y-89143067D01*
X173233198Y-89096985D01*
X173575833Y-88981846D01*
X173798486Y-88862836D01*
X173918374Y-88577980D01*
X172820000Y-87479605D01*
X172805858Y-87493748D01*
X172626252Y-87314142D01*
X172640395Y-87300000D01*
X172999605Y-87300000D01*
X174097980Y-88398374D01*
X174382836Y-88278486D01*
X174543699Y-87954790D01*
X174638322Y-87605931D01*
X174663067Y-87245316D01*
X174616985Y-86886802D01*
X174501846Y-86544167D01*
X174382836Y-86321514D01*
X174097980Y-86201626D01*
X172999605Y-87300000D01*
X172640395Y-87300000D01*
X171542020Y-86201626D01*
X171257164Y-86321514D01*
X171096301Y-86645210D01*
X171001678Y-86994069D01*
X170976933Y-87354684D01*
X171023015Y-87713198D01*
X171138154Y-88055833D01*
X171213386Y-88196583D01*
X170878651Y-88130000D01*
X170441349Y-88130000D01*
X170012450Y-88215313D01*
X169608436Y-88382661D01*
X169244832Y-88625613D01*
X168935613Y-88934832D01*
X168692661Y-89298436D01*
X168525313Y-89702450D01*
X168440000Y-90131349D01*
X161450000Y-90131349D01*
X161364687Y-89702450D01*
X161197339Y-89298436D01*
X160954387Y-88934832D01*
X160645168Y-88625613D01*
X160281564Y-88382661D01*
X159877550Y-88215313D01*
X159448651Y-88130000D01*
X159011349Y-88130000D01*
X158673201Y-88197262D01*
X158793699Y-87954790D01*
X158888322Y-87605931D01*
X158913067Y-87245316D01*
X158866985Y-86886802D01*
X158751846Y-86544167D01*
X158632836Y-86321514D01*
X158347980Y-86201626D01*
X157249605Y-87300000D01*
X157263748Y-87314142D01*
X157084142Y-87493748D01*
X157070000Y-87479605D01*
X155971626Y-88577980D01*
X153418374Y-88577980D01*
X152320000Y-87479605D01*
X152305858Y-87493748D01*
X152126252Y-87314142D01*
X152140395Y-87300000D01*
X152499605Y-87300000D01*
X153597980Y-88398374D01*
X153882836Y-88278486D01*
X154043699Y-87954790D01*
X154138322Y-87605931D01*
X154155562Y-87354684D01*
X155226933Y-87354684D01*
X155273015Y-87713198D01*
X155388154Y-88055833D01*
X155507164Y-88278486D01*
X155792020Y-88398374D01*
X156890395Y-87300000D01*
X155792020Y-86201626D01*
X155507164Y-86321514D01*
X155346301Y-86645210D01*
X155251678Y-86994069D01*
X155226933Y-87354684D01*
X154155562Y-87354684D01*
X154163067Y-87245316D01*
X154116985Y-86886802D01*
X154001846Y-86544167D01*
X153882836Y-86321514D01*
X153597980Y-86201626D01*
X152499605Y-87300000D01*
X152140395Y-87300000D01*
X151042020Y-86201626D01*
X150757164Y-86321514D01*
X150596301Y-86645210D01*
X150501678Y-86994069D01*
X150476933Y-87354684D01*
X150523015Y-87713198D01*
X150638154Y-88055833D01*
X150713386Y-88196583D01*
X150378651Y-88130000D01*
X149941349Y-88130000D01*
X149512450Y-88215313D01*
X149108436Y-88382661D01*
X148744832Y-88625613D01*
X148435613Y-88934832D01*
X148192661Y-89298436D01*
X148025313Y-89702450D01*
X147940000Y-90131349D01*
X140950000Y-90131349D01*
X140864687Y-89702450D01*
X140697339Y-89298436D01*
X140454387Y-88934832D01*
X140145168Y-88625613D01*
X139781564Y-88382661D01*
X139377550Y-88215313D01*
X138948651Y-88130000D01*
X138511349Y-88130000D01*
X138173201Y-88197262D01*
X138293699Y-87954790D01*
X138388322Y-87605931D01*
X138413067Y-87245316D01*
X138366985Y-86886802D01*
X138251846Y-86544167D01*
X138132836Y-86321514D01*
X137847980Y-86201626D01*
X136749605Y-87300000D01*
X136763748Y-87314142D01*
X136584142Y-87493748D01*
X136570000Y-87479605D01*
X135471626Y-88577980D01*
X132188072Y-88577980D01*
X132188072Y-87354684D01*
X134726933Y-87354684D01*
X134773015Y-87713198D01*
X134888154Y-88055833D01*
X135007164Y-88278486D01*
X135292020Y-88398374D01*
X136390395Y-87300000D01*
X135292020Y-86201626D01*
X135007164Y-86321514D01*
X134846301Y-86645210D01*
X134751678Y-86994069D01*
X134726933Y-87354684D01*
X132188072Y-87354684D01*
X132188072Y-86950000D01*
X132175812Y-86825518D01*
X132139502Y-86705820D01*
X132080537Y-86595506D01*
X132001185Y-86498815D01*
X131904494Y-86419463D01*
X131794180Y-86360498D01*
X131674482Y-86324188D01*
X131550000Y-86311928D01*
X129450000Y-86311928D01*
X129325518Y-86324188D01*
X129205820Y-86360498D01*
X129095506Y-86419463D01*
X128998815Y-86498815D01*
X128919463Y-86595506D01*
X128860498Y-86705820D01*
X128824188Y-86825518D01*
X128811928Y-86950000D01*
X125160000Y-86950000D01*
X125160000Y-86022020D01*
X135471626Y-86022020D01*
X136570000Y-87120395D01*
X137668374Y-86022020D01*
X151221626Y-86022020D01*
X152320000Y-87120395D01*
X153418374Y-86022020D01*
X155971626Y-86022020D01*
X157070000Y-87120395D01*
X158168374Y-86022020D01*
X171721626Y-86022020D01*
X172820000Y-87120395D01*
X173918374Y-86022020D01*
X173798486Y-85737164D01*
X173474790Y-85576301D01*
X173125931Y-85481678D01*
X172765316Y-85456933D01*
X172406802Y-85503015D01*
X172064167Y-85618154D01*
X171841514Y-85737164D01*
X171721626Y-86022020D01*
X158168374Y-86022020D01*
X158048486Y-85737164D01*
X157724790Y-85576301D01*
X157375931Y-85481678D01*
X157015316Y-85456933D01*
X156656802Y-85503015D01*
X156314167Y-85618154D01*
X156091514Y-85737164D01*
X155971626Y-86022020D01*
X153418374Y-86022020D01*
X153298486Y-85737164D01*
X152974790Y-85576301D01*
X152625931Y-85481678D01*
X152265316Y-85456933D01*
X151906802Y-85503015D01*
X151564167Y-85618154D01*
X151341514Y-85737164D01*
X151221626Y-86022020D01*
X137668374Y-86022020D01*
X137548486Y-85737164D01*
X137224790Y-85576301D01*
X136875931Y-85481678D01*
X136515316Y-85456933D01*
X136156802Y-85503015D01*
X135814167Y-85618154D01*
X135591514Y-85737164D01*
X135471626Y-86022020D01*
X125160000Y-86022020D01*
X125160000Y-84921269D01*
X139258336Y-84921269D01*
X139317797Y-85155037D01*
X139556242Y-85265934D01*
X139811740Y-85328183D01*
X140074473Y-85339390D01*
X140334344Y-85299125D01*
X140581366Y-85208935D01*
X140682203Y-85155037D01*
X140741664Y-84921269D01*
X140000000Y-84179605D01*
X139258336Y-84921269D01*
X125160000Y-84921269D01*
X125160000Y-84074473D01*
X138660610Y-84074473D01*
X138700875Y-84334344D01*
X138791065Y-84581366D01*
X138844963Y-84682203D01*
X139078731Y-84741664D01*
X139820395Y-84000000D01*
X140179605Y-84000000D01*
X140921269Y-84741664D01*
X141155037Y-84682203D01*
X141265934Y-84443758D01*
X141270706Y-84424173D01*
X141356939Y-84632359D01*
X141503038Y-84851013D01*
X141688987Y-85036962D01*
X141907641Y-85183061D01*
X142150595Y-85283696D01*
X142408514Y-85335000D01*
X142671486Y-85335000D01*
X142929405Y-85283696D01*
X143172359Y-85183061D01*
X143391013Y-85036962D01*
X143506706Y-84921269D01*
X144338336Y-84921269D01*
X144397797Y-85155037D01*
X144636242Y-85265934D01*
X144891740Y-85328183D01*
X145154473Y-85339390D01*
X145414344Y-85299125D01*
X145661366Y-85208935D01*
X145762203Y-85155037D01*
X145821664Y-84921269D01*
X145080000Y-84179605D01*
X144338336Y-84921269D01*
X143506706Y-84921269D01*
X143576962Y-84851013D01*
X143723061Y-84632359D01*
X143811621Y-84418556D01*
X143871065Y-84581366D01*
X143924963Y-84682203D01*
X144158731Y-84741664D01*
X144900395Y-84000000D01*
X145259605Y-84000000D01*
X146001269Y-84741664D01*
X146235037Y-84682203D01*
X146345934Y-84443758D01*
X146350706Y-84424173D01*
X146436939Y-84632359D01*
X146583038Y-84851013D01*
X146768987Y-85036962D01*
X146987641Y-85183061D01*
X147230595Y-85283696D01*
X147488514Y-85335000D01*
X147751486Y-85335000D01*
X148009405Y-85283696D01*
X148252359Y-85183061D01*
X148471013Y-85036962D01*
X148586706Y-84921269D01*
X159758336Y-84921269D01*
X159817797Y-85155037D01*
X160056242Y-85265934D01*
X160311740Y-85328183D01*
X160574473Y-85339390D01*
X160834344Y-85299125D01*
X161081366Y-85208935D01*
X161182203Y-85155037D01*
X161241664Y-84921269D01*
X160500000Y-84179605D01*
X159758336Y-84921269D01*
X148586706Y-84921269D01*
X148656962Y-84851013D01*
X148803061Y-84632359D01*
X148903696Y-84389405D01*
X148955000Y-84131486D01*
X148955000Y-84074473D01*
X159160610Y-84074473D01*
X159200875Y-84334344D01*
X159291065Y-84581366D01*
X159344963Y-84682203D01*
X159578731Y-84741664D01*
X160320395Y-84000000D01*
X160679605Y-84000000D01*
X161421269Y-84741664D01*
X161655037Y-84682203D01*
X161765934Y-84443758D01*
X161770706Y-84424173D01*
X161856939Y-84632359D01*
X162003038Y-84851013D01*
X162188987Y-85036962D01*
X162407641Y-85183061D01*
X162650595Y-85283696D01*
X162908514Y-85335000D01*
X163171486Y-85335000D01*
X163429405Y-85283696D01*
X163672359Y-85183061D01*
X163891013Y-85036962D01*
X164006706Y-84921269D01*
X164838336Y-84921269D01*
X164897797Y-85155037D01*
X165136242Y-85265934D01*
X165391740Y-85328183D01*
X165654473Y-85339390D01*
X165914344Y-85299125D01*
X166161366Y-85208935D01*
X166262203Y-85155037D01*
X166321664Y-84921269D01*
X165580000Y-84179605D01*
X164838336Y-84921269D01*
X164006706Y-84921269D01*
X164076962Y-84851013D01*
X164223061Y-84632359D01*
X164311621Y-84418556D01*
X164371065Y-84581366D01*
X164424963Y-84682203D01*
X164658731Y-84741664D01*
X165400395Y-84000000D01*
X165759605Y-84000000D01*
X166501269Y-84741664D01*
X166735037Y-84682203D01*
X166845934Y-84443758D01*
X166850706Y-84424173D01*
X166936939Y-84632359D01*
X167083038Y-84851013D01*
X167268987Y-85036962D01*
X167487641Y-85183061D01*
X167730595Y-85283696D01*
X167988514Y-85335000D01*
X168251486Y-85335000D01*
X168509405Y-85283696D01*
X168752359Y-85183061D01*
X168971013Y-85036962D01*
X169156962Y-84851013D01*
X169303061Y-84632359D01*
X169403696Y-84389405D01*
X169407343Y-84371066D01*
X177508539Y-84371066D01*
X177610339Y-84640579D01*
X177908477Y-84786463D01*
X178229346Y-84871380D01*
X178560617Y-84892066D01*
X178889557Y-84847728D01*
X179203527Y-84740069D01*
X179389661Y-84640579D01*
X179491461Y-84371066D01*
X178500000Y-83379605D01*
X177508539Y-84371066D01*
X169407343Y-84371066D01*
X169455000Y-84131486D01*
X169455000Y-83868514D01*
X169403696Y-83610595D01*
X169303061Y-83367641D01*
X169231551Y-83260617D01*
X176807934Y-83260617D01*
X176852272Y-83589557D01*
X176959931Y-83903527D01*
X177059421Y-84089661D01*
X177328934Y-84191461D01*
X178320395Y-83200000D01*
X178679605Y-83200000D01*
X179671066Y-84191461D01*
X179940579Y-84089661D01*
X180086463Y-83791523D01*
X180171380Y-83470654D01*
X180192066Y-83139383D01*
X180147728Y-82810443D01*
X180040069Y-82496473D01*
X179940579Y-82310339D01*
X179671066Y-82208539D01*
X178679605Y-83200000D01*
X178320395Y-83200000D01*
X177328934Y-82208539D01*
X177059421Y-82310339D01*
X176913537Y-82608477D01*
X176828620Y-82929346D01*
X176807934Y-83260617D01*
X169231551Y-83260617D01*
X169156962Y-83148987D01*
X168971013Y-82963038D01*
X168752359Y-82816939D01*
X168509405Y-82716304D01*
X168251486Y-82665000D01*
X167988514Y-82665000D01*
X167730595Y-82716304D01*
X167487641Y-82816939D01*
X167268987Y-82963038D01*
X167083038Y-83148987D01*
X166936939Y-83367641D01*
X166848379Y-83581444D01*
X166788935Y-83418634D01*
X166735037Y-83317797D01*
X166501269Y-83258336D01*
X165759605Y-84000000D01*
X165400395Y-84000000D01*
X164658731Y-83258336D01*
X164424963Y-83317797D01*
X164314066Y-83556242D01*
X164309294Y-83575827D01*
X164223061Y-83367641D01*
X164076962Y-83148987D01*
X164006706Y-83078731D01*
X164838336Y-83078731D01*
X165580000Y-83820395D01*
X166321664Y-83078731D01*
X166262203Y-82844963D01*
X166023758Y-82734066D01*
X165768260Y-82671817D01*
X165505527Y-82660610D01*
X165245656Y-82700875D01*
X164998634Y-82791065D01*
X164897797Y-82844963D01*
X164838336Y-83078731D01*
X164006706Y-83078731D01*
X163891013Y-82963038D01*
X163672359Y-82816939D01*
X163429405Y-82716304D01*
X163171486Y-82665000D01*
X162908514Y-82665000D01*
X162650595Y-82716304D01*
X162407641Y-82816939D01*
X162188987Y-82963038D01*
X162003038Y-83148987D01*
X161856939Y-83367641D01*
X161768379Y-83581444D01*
X161708935Y-83418634D01*
X161655037Y-83317797D01*
X161421269Y-83258336D01*
X160679605Y-84000000D01*
X160320395Y-84000000D01*
X159578731Y-83258336D01*
X159344963Y-83317797D01*
X159234066Y-83556242D01*
X159171817Y-83811740D01*
X159160610Y-84074473D01*
X148955000Y-84074473D01*
X148955000Y-83868514D01*
X148903696Y-83610595D01*
X148803061Y-83367641D01*
X148656962Y-83148987D01*
X148586706Y-83078731D01*
X159758336Y-83078731D01*
X160500000Y-83820395D01*
X161241664Y-83078731D01*
X161182203Y-82844963D01*
X160943758Y-82734066D01*
X160688260Y-82671817D01*
X160425527Y-82660610D01*
X160165656Y-82700875D01*
X159918634Y-82791065D01*
X159817797Y-82844963D01*
X159758336Y-83078731D01*
X148586706Y-83078731D01*
X148471013Y-82963038D01*
X148252359Y-82816939D01*
X148009405Y-82716304D01*
X147751486Y-82665000D01*
X147488514Y-82665000D01*
X147230595Y-82716304D01*
X146987641Y-82816939D01*
X146768987Y-82963038D01*
X146583038Y-83148987D01*
X146436939Y-83367641D01*
X146348379Y-83581444D01*
X146288935Y-83418634D01*
X146235037Y-83317797D01*
X146001269Y-83258336D01*
X145259605Y-84000000D01*
X144900395Y-84000000D01*
X144158731Y-83258336D01*
X143924963Y-83317797D01*
X143814066Y-83556242D01*
X143809294Y-83575827D01*
X143723061Y-83367641D01*
X143576962Y-83148987D01*
X143506706Y-83078731D01*
X144338336Y-83078731D01*
X145080000Y-83820395D01*
X145821664Y-83078731D01*
X145762203Y-82844963D01*
X145523758Y-82734066D01*
X145268260Y-82671817D01*
X145005527Y-82660610D01*
X144745656Y-82700875D01*
X144498634Y-82791065D01*
X144397797Y-82844963D01*
X144338336Y-83078731D01*
X143506706Y-83078731D01*
X143391013Y-82963038D01*
X143172359Y-82816939D01*
X142929405Y-82716304D01*
X142671486Y-82665000D01*
X142408514Y-82665000D01*
X142150595Y-82716304D01*
X141907641Y-82816939D01*
X141688987Y-82963038D01*
X141503038Y-83148987D01*
X141356939Y-83367641D01*
X141268379Y-83581444D01*
X141208935Y-83418634D01*
X141155037Y-83317797D01*
X140921269Y-83258336D01*
X140179605Y-84000000D01*
X139820395Y-84000000D01*
X139078731Y-83258336D01*
X138844963Y-83317797D01*
X138734066Y-83556242D01*
X138671817Y-83811740D01*
X138660610Y-84074473D01*
X125160000Y-84074473D01*
X125160000Y-83078731D01*
X139258336Y-83078731D01*
X140000000Y-83820395D01*
X140741664Y-83078731D01*
X140682203Y-82844963D01*
X140443758Y-82734066D01*
X140188260Y-82671817D01*
X139925527Y-82660610D01*
X139665656Y-82700875D01*
X139418634Y-82791065D01*
X139317797Y-82844963D01*
X139258336Y-83078731D01*
X125160000Y-83078731D01*
X125160000Y-82381269D01*
X140528336Y-82381269D01*
X140587797Y-82615037D01*
X140826242Y-82725934D01*
X141081740Y-82788183D01*
X141344473Y-82799390D01*
X141604344Y-82759125D01*
X141851366Y-82668935D01*
X141952203Y-82615037D01*
X142011664Y-82381269D01*
X141270000Y-81639605D01*
X140528336Y-82381269D01*
X125160000Y-82381269D01*
X125160000Y-81711066D01*
X129508539Y-81711066D01*
X129610339Y-81980579D01*
X129908477Y-82126463D01*
X130229346Y-82211380D01*
X130560617Y-82232066D01*
X130889557Y-82187728D01*
X131203527Y-82080069D01*
X131389661Y-81980579D01*
X131491461Y-81711066D01*
X131314868Y-81534473D01*
X139930610Y-81534473D01*
X139970875Y-81794344D01*
X140061065Y-82041366D01*
X140114963Y-82142203D01*
X140348731Y-82201664D01*
X141090395Y-81460000D01*
X141449605Y-81460000D01*
X142191269Y-82201664D01*
X142425037Y-82142203D01*
X142535934Y-81903758D01*
X142540706Y-81884173D01*
X142626939Y-82092359D01*
X142773038Y-82311013D01*
X142958987Y-82496962D01*
X143177641Y-82643061D01*
X143420595Y-82743696D01*
X143678514Y-82795000D01*
X143941486Y-82795000D01*
X144199405Y-82743696D01*
X144442359Y-82643061D01*
X144661013Y-82496962D01*
X144846962Y-82311013D01*
X144993061Y-82092359D01*
X145080000Y-81882470D01*
X145166939Y-82092359D01*
X145313038Y-82311013D01*
X145498987Y-82496962D01*
X145717641Y-82643061D01*
X145960595Y-82743696D01*
X146218514Y-82795000D01*
X146481486Y-82795000D01*
X146739405Y-82743696D01*
X146982359Y-82643061D01*
X147201013Y-82496962D01*
X147386962Y-82311013D01*
X147533061Y-82092359D01*
X147620000Y-81882470D01*
X147706939Y-82092359D01*
X147853038Y-82311013D01*
X148038987Y-82496962D01*
X148257641Y-82643061D01*
X148500595Y-82743696D01*
X148758514Y-82795000D01*
X149021486Y-82795000D01*
X149279405Y-82743696D01*
X149522359Y-82643061D01*
X149741013Y-82496962D01*
X149856706Y-82381269D01*
X161028336Y-82381269D01*
X161087797Y-82615037D01*
X161326242Y-82725934D01*
X161581740Y-82788183D01*
X161844473Y-82799390D01*
X162104344Y-82759125D01*
X162351366Y-82668935D01*
X162452203Y-82615037D01*
X162511664Y-82381269D01*
X161770000Y-81639605D01*
X161028336Y-82381269D01*
X149856706Y-82381269D01*
X149926962Y-82311013D01*
X150073061Y-82092359D01*
X150173696Y-81849405D01*
X150225000Y-81591486D01*
X150225000Y-81534473D01*
X160430610Y-81534473D01*
X160470875Y-81794344D01*
X160561065Y-82041366D01*
X160614963Y-82142203D01*
X160848731Y-82201664D01*
X161590395Y-81460000D01*
X161949605Y-81460000D01*
X162691269Y-82201664D01*
X162925037Y-82142203D01*
X163035934Y-81903758D01*
X163040706Y-81884173D01*
X163126939Y-82092359D01*
X163273038Y-82311013D01*
X163458987Y-82496962D01*
X163677641Y-82643061D01*
X163920595Y-82743696D01*
X164178514Y-82795000D01*
X164441486Y-82795000D01*
X164699405Y-82743696D01*
X164942359Y-82643061D01*
X165161013Y-82496962D01*
X165346962Y-82311013D01*
X165493061Y-82092359D01*
X165580000Y-81882470D01*
X165666939Y-82092359D01*
X165813038Y-82311013D01*
X165998987Y-82496962D01*
X166217641Y-82643061D01*
X166460595Y-82743696D01*
X166718514Y-82795000D01*
X166981486Y-82795000D01*
X167239405Y-82743696D01*
X167482359Y-82643061D01*
X167701013Y-82496962D01*
X167886962Y-82311013D01*
X168033061Y-82092359D01*
X168120000Y-81882470D01*
X168206939Y-82092359D01*
X168353038Y-82311013D01*
X168538987Y-82496962D01*
X168757641Y-82643061D01*
X169000595Y-82743696D01*
X169258514Y-82795000D01*
X169521486Y-82795000D01*
X169779405Y-82743696D01*
X170022359Y-82643061D01*
X170241013Y-82496962D01*
X170426962Y-82311013D01*
X170573061Y-82092359D01*
X170673696Y-81849405D01*
X170725000Y-81591486D01*
X170725000Y-81328514D01*
X170673696Y-81070595D01*
X170573061Y-80827641D01*
X170426962Y-80608987D01*
X170241013Y-80423038D01*
X170022359Y-80276939D01*
X169779405Y-80176304D01*
X169521486Y-80125000D01*
X169258514Y-80125000D01*
X169000595Y-80176304D01*
X168757641Y-80276939D01*
X168538987Y-80423038D01*
X168353038Y-80608987D01*
X168206939Y-80827641D01*
X168120000Y-81037530D01*
X168033061Y-80827641D01*
X167886962Y-80608987D01*
X167701013Y-80423038D01*
X167482359Y-80276939D01*
X167239405Y-80176304D01*
X166981486Y-80125000D01*
X166718514Y-80125000D01*
X166460595Y-80176304D01*
X166217641Y-80276939D01*
X165998987Y-80423038D01*
X165813038Y-80608987D01*
X165666939Y-80827641D01*
X165580000Y-81037530D01*
X165493061Y-80827641D01*
X165346962Y-80608987D01*
X165161013Y-80423038D01*
X164942359Y-80276939D01*
X164699405Y-80176304D01*
X164441486Y-80125000D01*
X164178514Y-80125000D01*
X163920595Y-80176304D01*
X163677641Y-80276939D01*
X163458987Y-80423038D01*
X163273038Y-80608987D01*
X163126939Y-80827641D01*
X163038379Y-81041444D01*
X162978935Y-80878634D01*
X162925037Y-80777797D01*
X162691269Y-80718336D01*
X161949605Y-81460000D01*
X161590395Y-81460000D01*
X160848731Y-80718336D01*
X160614963Y-80777797D01*
X160504066Y-81016242D01*
X160441817Y-81271740D01*
X160430610Y-81534473D01*
X150225000Y-81534473D01*
X150225000Y-81328514D01*
X150173696Y-81070595D01*
X150073061Y-80827641D01*
X149926962Y-80608987D01*
X149856706Y-80538731D01*
X161028336Y-80538731D01*
X161770000Y-81280395D01*
X162511664Y-80538731D01*
X162452203Y-80304963D01*
X162213758Y-80194066D01*
X161958260Y-80131817D01*
X161695527Y-80120610D01*
X161435656Y-80160875D01*
X161188634Y-80251065D01*
X161087797Y-80304963D01*
X161028336Y-80538731D01*
X149856706Y-80538731D01*
X149741013Y-80423038D01*
X149522359Y-80276939D01*
X149279405Y-80176304D01*
X149021486Y-80125000D01*
X148758514Y-80125000D01*
X148500595Y-80176304D01*
X148257641Y-80276939D01*
X148038987Y-80423038D01*
X147853038Y-80608987D01*
X147706939Y-80827641D01*
X147620000Y-81037530D01*
X147533061Y-80827641D01*
X147386962Y-80608987D01*
X147201013Y-80423038D01*
X146982359Y-80276939D01*
X146739405Y-80176304D01*
X146481486Y-80125000D01*
X146218514Y-80125000D01*
X145960595Y-80176304D01*
X145717641Y-80276939D01*
X145498987Y-80423038D01*
X145313038Y-80608987D01*
X145166939Y-80827641D01*
X145080000Y-81037530D01*
X144993061Y-80827641D01*
X144846962Y-80608987D01*
X144661013Y-80423038D01*
X144442359Y-80276939D01*
X144199405Y-80176304D01*
X143941486Y-80125000D01*
X143678514Y-80125000D01*
X143420595Y-80176304D01*
X143177641Y-80276939D01*
X142958987Y-80423038D01*
X142773038Y-80608987D01*
X142626939Y-80827641D01*
X142538379Y-81041444D01*
X142478935Y-80878634D01*
X142425037Y-80777797D01*
X142191269Y-80718336D01*
X141449605Y-81460000D01*
X141090395Y-81460000D01*
X140348731Y-80718336D01*
X140114963Y-80777797D01*
X140004066Y-81016242D01*
X139941817Y-81271740D01*
X139930610Y-81534473D01*
X131314868Y-81534473D01*
X130500000Y-80719605D01*
X129508539Y-81711066D01*
X125160000Y-81711066D01*
X125160000Y-80600617D01*
X128807934Y-80600617D01*
X128852272Y-80929557D01*
X128959931Y-81243527D01*
X129059421Y-81429661D01*
X129328934Y-81531461D01*
X130320395Y-80540000D01*
X130306253Y-80525858D01*
X130485858Y-80346253D01*
X130500000Y-80360395D01*
X130514143Y-80346253D01*
X130693748Y-80525858D01*
X130679605Y-80540000D01*
X131671066Y-81531461D01*
X131940579Y-81429661D01*
X132086463Y-81131523D01*
X132171380Y-80810654D01*
X132188360Y-80538731D01*
X140528336Y-80538731D01*
X141270000Y-81280395D01*
X142011664Y-80538731D01*
X141952203Y-80304963D01*
X141713758Y-80194066D01*
X141458260Y-80131817D01*
X141195527Y-80120610D01*
X140935656Y-80160875D01*
X140688634Y-80251065D01*
X140587797Y-80304963D01*
X140528336Y-80538731D01*
X132188360Y-80538731D01*
X132192066Y-80479383D01*
X132147728Y-80150443D01*
X132040069Y-79836473D01*
X131940579Y-79650339D01*
X131842918Y-79613451D01*
X131904494Y-79580537D01*
X132001185Y-79501185D01*
X132080537Y-79404494D01*
X132139502Y-79294180D01*
X132175812Y-79174482D01*
X132188072Y-79050000D01*
X132188072Y-77898061D01*
X142965000Y-77898061D01*
X142965000Y-78101939D01*
X143004774Y-78301898D01*
X143082795Y-78490256D01*
X143196063Y-78659774D01*
X143340226Y-78803937D01*
X143509744Y-78917205D01*
X143698102Y-78995226D01*
X143898061Y-79035000D01*
X144101939Y-79035000D01*
X144301898Y-78995226D01*
X144490256Y-78917205D01*
X144659774Y-78803937D01*
X144803937Y-78659774D01*
X144917205Y-78490256D01*
X144995226Y-78301898D01*
X145035000Y-78101939D01*
X145035000Y-77898061D01*
X144995226Y-77698102D01*
X144917205Y-77509744D01*
X144803937Y-77340226D01*
X144659774Y-77196063D01*
X144490256Y-77082795D01*
X144301898Y-77004774D01*
X144101939Y-76965000D01*
X143898061Y-76965000D01*
X143698102Y-77004774D01*
X143509744Y-77082795D01*
X143340226Y-77196063D01*
X143196063Y-77340226D01*
X143082795Y-77509744D01*
X143004774Y-77698102D01*
X142965000Y-77898061D01*
X132188072Y-77898061D01*
X132188072Y-76950000D01*
X132182957Y-76898061D01*
X172715000Y-76898061D01*
X172715000Y-77101939D01*
X172754774Y-77301898D01*
X172832795Y-77490256D01*
X172946063Y-77659774D01*
X173090226Y-77803937D01*
X173259744Y-77917205D01*
X173448102Y-77995226D01*
X173648061Y-78035000D01*
X173851939Y-78035000D01*
X174051898Y-77995226D01*
X174240256Y-77917205D01*
X174409774Y-77803937D01*
X174553937Y-77659774D01*
X174667205Y-77490256D01*
X174745226Y-77301898D01*
X174785000Y-77101939D01*
X174785000Y-76898061D01*
X174745226Y-76698102D01*
X174667205Y-76509744D01*
X174553937Y-76340226D01*
X174409774Y-76196063D01*
X174337934Y-76148061D01*
X175465000Y-76148061D01*
X175465000Y-76351939D01*
X175504774Y-76551898D01*
X175582795Y-76740256D01*
X175696063Y-76909774D01*
X175840226Y-77053937D01*
X176009744Y-77167205D01*
X176198102Y-77245226D01*
X176398061Y-77285000D01*
X176601939Y-77285000D01*
X176801898Y-77245226D01*
X176990256Y-77167205D01*
X177159774Y-77053937D01*
X177303937Y-76909774D01*
X177361169Y-76824119D01*
X177387050Y-76850000D01*
X177191175Y-77045875D01*
X177006772Y-77321853D01*
X176879754Y-77628504D01*
X176815000Y-77954042D01*
X176815000Y-78285958D01*
X176879754Y-78611496D01*
X177006772Y-78918147D01*
X177191175Y-79194125D01*
X177387050Y-79390000D01*
X177191175Y-79585875D01*
X177006772Y-79861853D01*
X176879754Y-80168504D01*
X176815000Y-80494042D01*
X176815000Y-80825958D01*
X176879754Y-81151496D01*
X177006772Y-81458147D01*
X177191175Y-81734125D01*
X177425875Y-81968825D01*
X177510009Y-82025042D01*
X177508539Y-82028934D01*
X178500000Y-83020395D01*
X179491461Y-82028934D01*
X179489991Y-82025042D01*
X179574125Y-81968825D01*
X179808825Y-81734125D01*
X179993228Y-81458147D01*
X180120246Y-81151496D01*
X180185000Y-80825958D01*
X180185000Y-80494042D01*
X180120246Y-80168504D01*
X179993228Y-79861853D01*
X179808825Y-79585875D01*
X179612950Y-79390000D01*
X179808825Y-79194125D01*
X179993228Y-78918147D01*
X180120246Y-78611496D01*
X180185000Y-78285958D01*
X180185000Y-77954042D01*
X180120246Y-77628504D01*
X179993228Y-77321853D01*
X179808825Y-77045875D01*
X179612950Y-76850000D01*
X179808825Y-76654125D01*
X179993228Y-76378147D01*
X180120246Y-76071496D01*
X180185000Y-75745958D01*
X180185000Y-75414042D01*
X180120246Y-75088504D01*
X179993228Y-74781853D01*
X179808825Y-74505875D01*
X179612950Y-74310000D01*
X179808825Y-74114125D01*
X179993228Y-73838147D01*
X180120246Y-73531496D01*
X180185000Y-73205958D01*
X180185000Y-72874042D01*
X180120246Y-72548504D01*
X179993228Y-72241853D01*
X179890454Y-72088042D01*
X179904494Y-72080537D01*
X180001185Y-72001185D01*
X180080537Y-71904494D01*
X180139502Y-71794180D01*
X180175812Y-71674482D01*
X180188072Y-71550000D01*
X180188072Y-69450000D01*
X180175812Y-69325518D01*
X180139502Y-69205820D01*
X180080537Y-69095506D01*
X180001185Y-68998815D01*
X179904494Y-68919463D01*
X179794180Y-68860498D01*
X179674482Y-68824188D01*
X179550000Y-68811928D01*
X177450000Y-68811928D01*
X177325518Y-68824188D01*
X177205820Y-68860498D01*
X177095506Y-68919463D01*
X176998815Y-68998815D01*
X176919463Y-69095506D01*
X176860498Y-69205820D01*
X176824188Y-69325518D01*
X176811928Y-69450000D01*
X176811928Y-71550000D01*
X176824188Y-71674482D01*
X176860498Y-71794180D01*
X176919463Y-71904494D01*
X176998815Y-72001185D01*
X177095506Y-72080537D01*
X177109546Y-72088042D01*
X177006772Y-72241853D01*
X176879754Y-72548504D01*
X176815000Y-72874042D01*
X176815000Y-73205958D01*
X176879754Y-73531496D01*
X177006772Y-73838147D01*
X177191175Y-74114125D01*
X177387050Y-74310000D01*
X177191175Y-74505875D01*
X177006772Y-74781853D01*
X176879754Y-75088504D01*
X176843272Y-75271912D01*
X176801898Y-75254774D01*
X176601939Y-75215000D01*
X176398061Y-75215000D01*
X176198102Y-75254774D01*
X176009744Y-75332795D01*
X175840226Y-75446063D01*
X175696063Y-75590226D01*
X175582795Y-75759744D01*
X175504774Y-75948102D01*
X175465000Y-76148061D01*
X174337934Y-76148061D01*
X174240256Y-76082795D01*
X174051898Y-76004774D01*
X173851939Y-75965000D01*
X173648061Y-75965000D01*
X173448102Y-76004774D01*
X173259744Y-76082795D01*
X173090226Y-76196063D01*
X172946063Y-76340226D01*
X172832795Y-76509744D01*
X172754774Y-76698102D01*
X172715000Y-76898061D01*
X132182957Y-76898061D01*
X132175812Y-76825518D01*
X132139502Y-76705820D01*
X132080537Y-76595506D01*
X132001185Y-76498815D01*
X131904494Y-76419463D01*
X131794180Y-76360498D01*
X131674482Y-76324188D01*
X131550000Y-76311928D01*
X129450000Y-76311928D01*
X129325518Y-76324188D01*
X129205820Y-76360498D01*
X129095506Y-76419463D01*
X128998815Y-76498815D01*
X128919463Y-76595506D01*
X128860498Y-76705820D01*
X128824188Y-76825518D01*
X128811928Y-76950000D01*
X128811928Y-79050000D01*
X128824188Y-79174482D01*
X128860498Y-79294180D01*
X128919463Y-79404494D01*
X128998815Y-79501185D01*
X129095506Y-79580537D01*
X129157082Y-79613451D01*
X129059421Y-79650339D01*
X128913537Y-79948477D01*
X128828620Y-80269346D01*
X128807934Y-80600617D01*
X125160000Y-80600617D01*
X125160000Y-73113384D01*
X139868221Y-73113384D01*
X140132445Y-73521162D01*
X140660451Y-73801775D01*
X141233056Y-73973986D01*
X141828256Y-74031179D01*
X142423176Y-73971155D01*
X142994956Y-73796221D01*
X143509555Y-73521162D01*
X143773779Y-73113384D01*
X141821000Y-71160605D01*
X139868221Y-73113384D01*
X125160000Y-73113384D01*
X125160000Y-70988256D01*
X138770821Y-70988256D01*
X138830845Y-71583176D01*
X139005779Y-72154956D01*
X139280838Y-72669555D01*
X139688616Y-72933779D01*
X141641395Y-70981000D01*
X142000605Y-70981000D01*
X143953384Y-72933779D01*
X144361162Y-72669555D01*
X144641775Y-72141549D01*
X144813986Y-71568944D01*
X144871179Y-70973744D01*
X144857463Y-70837794D01*
X147403000Y-70837794D01*
X147403000Y-71124206D01*
X147458877Y-71405116D01*
X147568482Y-71669727D01*
X147727605Y-71907871D01*
X147930129Y-72110395D01*
X148168273Y-72269518D01*
X148432884Y-72379123D01*
X148649768Y-72422264D01*
X148601877Y-72537884D01*
X148546000Y-72818794D01*
X148546000Y-73105206D01*
X148601877Y-73386116D01*
X148711482Y-73650727D01*
X148870605Y-73888871D01*
X149073129Y-74091395D01*
X149311273Y-74250518D01*
X149575884Y-74360123D01*
X149856794Y-74416000D01*
X150143206Y-74416000D01*
X150424116Y-74360123D01*
X150688727Y-74250518D01*
X150926871Y-74091395D01*
X151129395Y-73888871D01*
X151143000Y-73868510D01*
X151156605Y-73888871D01*
X151359129Y-74091395D01*
X151597273Y-74250518D01*
X151861884Y-74360123D01*
X152142794Y-74416000D01*
X152429206Y-74416000D01*
X152710116Y-74360123D01*
X152974727Y-74250518D01*
X153212871Y-74091395D01*
X153415395Y-73888871D01*
X153429000Y-73868510D01*
X153442605Y-73888871D01*
X153645129Y-74091395D01*
X153883273Y-74250518D01*
X154147884Y-74360123D01*
X154428794Y-74416000D01*
X154715206Y-74416000D01*
X154996116Y-74360123D01*
X155260727Y-74250518D01*
X155498871Y-74091395D01*
X155621998Y-73968268D01*
X156031337Y-73968268D01*
X156105221Y-74214177D01*
X156363973Y-74336977D01*
X156641711Y-74406937D01*
X156927760Y-74421369D01*
X157211128Y-74379718D01*
X157480926Y-74283585D01*
X157610779Y-74214177D01*
X157684663Y-73968268D01*
X156858000Y-73141605D01*
X156031337Y-73968268D01*
X155621998Y-73968268D01*
X155701395Y-73888871D01*
X155782292Y-73767800D01*
X155851732Y-73788663D01*
X156678395Y-72962000D01*
X156664253Y-72947858D01*
X156843858Y-72768253D01*
X156858000Y-72782395D01*
X156872143Y-72768253D01*
X157051748Y-72947858D01*
X157037605Y-72962000D01*
X157864268Y-73788663D01*
X157933708Y-73767800D01*
X158014605Y-73888871D01*
X158217129Y-74091395D01*
X158455273Y-74250518D01*
X158719884Y-74360123D01*
X159000794Y-74416000D01*
X159287206Y-74416000D01*
X159568116Y-74360123D01*
X159832727Y-74250518D01*
X160070871Y-74091395D01*
X160273395Y-73888871D01*
X160432518Y-73650727D01*
X160542123Y-73386116D01*
X160596373Y-73113384D01*
X164862221Y-73113384D01*
X165126445Y-73521162D01*
X165654451Y-73801775D01*
X166227056Y-73973986D01*
X166822256Y-74031179D01*
X167417176Y-73971155D01*
X167988956Y-73796221D01*
X168503555Y-73521162D01*
X168767779Y-73113384D01*
X166815000Y-71160605D01*
X164862221Y-73113384D01*
X160596373Y-73113384D01*
X160598000Y-73105206D01*
X160598000Y-72818794D01*
X160542123Y-72537884D01*
X160432518Y-72273273D01*
X160273395Y-72035129D01*
X160070871Y-71832605D01*
X159832727Y-71673482D01*
X159568116Y-71563877D01*
X159351232Y-71520736D01*
X159399123Y-71405116D01*
X159455000Y-71124206D01*
X159455000Y-70898061D01*
X159965000Y-70898061D01*
X159965000Y-71101939D01*
X160004774Y-71301898D01*
X160082795Y-71490256D01*
X160196063Y-71659774D01*
X160340226Y-71803937D01*
X160509744Y-71917205D01*
X160698102Y-71995226D01*
X160898061Y-72035000D01*
X161101939Y-72035000D01*
X161301898Y-71995226D01*
X161490256Y-71917205D01*
X161659774Y-71803937D01*
X161803937Y-71659774D01*
X161917205Y-71490256D01*
X161995226Y-71301898D01*
X162035000Y-71101939D01*
X162035000Y-70988256D01*
X163764821Y-70988256D01*
X163824845Y-71583176D01*
X163999779Y-72154956D01*
X164274838Y-72669555D01*
X164682616Y-72933779D01*
X166635395Y-70981000D01*
X166994605Y-70981000D01*
X168947384Y-72933779D01*
X169355162Y-72669555D01*
X169635775Y-72141549D01*
X169807986Y-71568944D01*
X169865179Y-70973744D01*
X169805155Y-70378824D01*
X169630221Y-69807044D01*
X169355162Y-69292445D01*
X168947384Y-69028221D01*
X166994605Y-70981000D01*
X166635395Y-70981000D01*
X164682616Y-69028221D01*
X164274838Y-69292445D01*
X163994225Y-69820451D01*
X163822014Y-70393056D01*
X163764821Y-70988256D01*
X162035000Y-70988256D01*
X162035000Y-70898061D01*
X161995226Y-70698102D01*
X161917205Y-70509744D01*
X161803937Y-70340226D01*
X161659774Y-70196063D01*
X161490256Y-70082795D01*
X161301898Y-70004774D01*
X161101939Y-69965000D01*
X160898061Y-69965000D01*
X160698102Y-70004774D01*
X160509744Y-70082795D01*
X160340226Y-70196063D01*
X160196063Y-70340226D01*
X160082795Y-70509744D01*
X160004774Y-70698102D01*
X159965000Y-70898061D01*
X159455000Y-70898061D01*
X159455000Y-70837794D01*
X159399123Y-70556884D01*
X159350411Y-70439283D01*
X159497128Y-70417718D01*
X159766926Y-70321585D01*
X159896779Y-70252177D01*
X159970663Y-70006268D01*
X159144000Y-69179605D01*
X159129858Y-69193748D01*
X158950253Y-69014143D01*
X158964395Y-69000000D01*
X159323605Y-69000000D01*
X160150268Y-69826663D01*
X160396177Y-69752779D01*
X160518977Y-69494027D01*
X160588937Y-69216289D01*
X160603369Y-68930240D01*
X160591372Y-68848616D01*
X164862221Y-68848616D01*
X166815000Y-70801395D01*
X168767779Y-68848616D01*
X168503555Y-68440838D01*
X167975549Y-68160225D01*
X167402944Y-67988014D01*
X166807744Y-67930821D01*
X166212824Y-67990845D01*
X165641044Y-68165779D01*
X165126445Y-68440838D01*
X164862221Y-68848616D01*
X160591372Y-68848616D01*
X160561718Y-68646872D01*
X160465585Y-68377074D01*
X160396177Y-68247221D01*
X160150268Y-68173337D01*
X159323605Y-69000000D01*
X158964395Y-69000000D01*
X158137732Y-68173337D01*
X158068292Y-68194200D01*
X157987395Y-68073129D01*
X157907998Y-67993732D01*
X158317337Y-67993732D01*
X159144000Y-68820395D01*
X159970663Y-67993732D01*
X159896779Y-67747823D01*
X159638027Y-67625023D01*
X159360289Y-67555063D01*
X159074240Y-67540631D01*
X158790872Y-67582282D01*
X158521074Y-67678415D01*
X158391221Y-67747823D01*
X158317337Y-67993732D01*
X157907998Y-67993732D01*
X157784871Y-67870605D01*
X157546727Y-67711482D01*
X157282116Y-67601877D01*
X157001206Y-67546000D01*
X156714794Y-67546000D01*
X156433884Y-67601877D01*
X156169273Y-67711482D01*
X155931129Y-67870605D01*
X155728605Y-68073129D01*
X155715000Y-68093490D01*
X155701395Y-68073129D01*
X155498871Y-67870605D01*
X155260727Y-67711482D01*
X154996116Y-67601877D01*
X154715206Y-67546000D01*
X154428794Y-67546000D01*
X154147884Y-67601877D01*
X153883273Y-67711482D01*
X153645129Y-67870605D01*
X153442605Y-68073129D01*
X153429000Y-68093490D01*
X153415395Y-68073129D01*
X153212871Y-67870605D01*
X152974727Y-67711482D01*
X152710116Y-67601877D01*
X152429206Y-67546000D01*
X152142794Y-67546000D01*
X151861884Y-67601877D01*
X151597273Y-67711482D01*
X151359129Y-67870605D01*
X151156605Y-68073129D01*
X151143000Y-68093490D01*
X151129395Y-68073129D01*
X150926871Y-67870605D01*
X150688727Y-67711482D01*
X150424116Y-67601877D01*
X150143206Y-67546000D01*
X149856794Y-67546000D01*
X149575884Y-67601877D01*
X149311273Y-67711482D01*
X149073129Y-67870605D01*
X148870605Y-68073129D01*
X148711482Y-68311273D01*
X148601877Y-68575884D01*
X148546000Y-68856794D01*
X148546000Y-69143206D01*
X148601877Y-69424116D01*
X148649768Y-69539736D01*
X148432884Y-69582877D01*
X148168273Y-69692482D01*
X147930129Y-69851605D01*
X147727605Y-70054129D01*
X147568482Y-70292273D01*
X147458877Y-70556884D01*
X147403000Y-70837794D01*
X144857463Y-70837794D01*
X144811155Y-70378824D01*
X144636221Y-69807044D01*
X144361162Y-69292445D01*
X143953384Y-69028221D01*
X142000605Y-70981000D01*
X141641395Y-70981000D01*
X139688616Y-69028221D01*
X139280838Y-69292445D01*
X139000225Y-69820451D01*
X138828014Y-70393056D01*
X138770821Y-70988256D01*
X125160000Y-70988256D01*
X125160000Y-68848616D01*
X139868221Y-68848616D01*
X141821000Y-70801395D01*
X143773779Y-68848616D01*
X143509555Y-68440838D01*
X143429066Y-68398061D01*
X144465000Y-68398061D01*
X144465000Y-68601939D01*
X144504774Y-68801898D01*
X144582795Y-68990256D01*
X144696063Y-69159774D01*
X144840226Y-69303937D01*
X145009744Y-69417205D01*
X145198102Y-69495226D01*
X145398061Y-69535000D01*
X145601939Y-69535000D01*
X145801898Y-69495226D01*
X145990256Y-69417205D01*
X146159774Y-69303937D01*
X146303937Y-69159774D01*
X146417205Y-68990256D01*
X146495226Y-68801898D01*
X146535000Y-68601939D01*
X146535000Y-68398061D01*
X146495226Y-68198102D01*
X146417205Y-68009744D01*
X146303937Y-67840226D01*
X146159774Y-67696063D01*
X145990256Y-67582795D01*
X145801898Y-67504774D01*
X145601939Y-67465000D01*
X145398061Y-67465000D01*
X145198102Y-67504774D01*
X145009744Y-67582795D01*
X144840226Y-67696063D01*
X144696063Y-67840226D01*
X144582795Y-68009744D01*
X144504774Y-68198102D01*
X144465000Y-68398061D01*
X143429066Y-68398061D01*
X142981549Y-68160225D01*
X142408944Y-67988014D01*
X141813744Y-67930821D01*
X141218824Y-67990845D01*
X140647044Y-68165779D01*
X140132445Y-68440838D01*
X139868221Y-68848616D01*
X125160000Y-68848616D01*
X125160000Y-66898061D01*
X141715000Y-66898061D01*
X141715000Y-67101939D01*
X141754774Y-67301898D01*
X141832795Y-67490256D01*
X141946063Y-67659774D01*
X142090226Y-67803937D01*
X142259744Y-67917205D01*
X142448102Y-67995226D01*
X142648061Y-68035000D01*
X142851939Y-68035000D01*
X143051898Y-67995226D01*
X143240256Y-67917205D01*
X143409774Y-67803937D01*
X143553937Y-67659774D01*
X143667205Y-67490256D01*
X143745226Y-67301898D01*
X143785000Y-67101939D01*
X143785000Y-66898061D01*
X143745226Y-66698102D01*
X143667205Y-66509744D01*
X143553937Y-66340226D01*
X143409774Y-66196063D01*
X143240256Y-66082795D01*
X143051898Y-66004774D01*
X142851939Y-65965000D01*
X142648061Y-65965000D01*
X142448102Y-66004774D01*
X142259744Y-66082795D01*
X142090226Y-66196063D01*
X141946063Y-66340226D01*
X141832795Y-66509744D01*
X141754774Y-66698102D01*
X141715000Y-66898061D01*
X125160000Y-66898061D01*
X125160000Y-65532279D01*
X125198147Y-65143225D01*
X125301763Y-64800033D01*
X125470062Y-64483511D01*
X125696637Y-64205701D01*
X125972856Y-63977194D01*
X126288197Y-63806690D01*
X126630656Y-63700681D01*
X127017712Y-63660000D01*
X181967721Y-63660000D01*
X182356775Y-63698147D01*
G37*
%TD.AperFunction*%
%TD*%
M02*
